<svg version="1.0" xmlns="http://www.w3.org/2000/svg"
 width="1254.000000pt" height="1254.000000pt" viewBox="0 0 1254.000000 1254.000000"
 preserveAspectRatio="xMidYMid meet">
<metadata>
Created by potrace 1.16, written by Peter Selinger 2001-2019
</metadata>
<g transform="translate(0.000000,1254.000000) scale(0.100000,-0.100000)"
fill="#000000" stroke="none">
<path d="M6165 11066 c-73 -32 -70 -145 4 -176 38 -15 75 -7 107 25 44 44 23
133 -37 154 -39 13 -37 13 -74 -3z"/>
<path d="M6727 10972 c-20 -22 -21 -42 -4 -65 9 -14 37 -20 112 -28 614 -61
1242 -298 1767 -666 418 -293 819 -702 1102 -1121 289 -429 507 -919 621
-1394 46 -190 52 -202 92 -206 63 -6 62 33 -8 298 -144 544 -392 1062 -717
1500 -710 956 -1688 1550 -2774 1685 -156 19 -171 19 -191 -3z"/>
<path d="M5560 10973 c-14 -2 -95 -15 -180 -29 -640 -102 -1263 -370 -1793
-771 -749 -567 -1341 -1436 -1596 -2340 -59 -211 -76 -296 -62 -322 13 -24 62
-29 78 -8 6 6 27 79 47 161 183 740 605 1483 1156 2037 342 343 697 598 1113
799 399 193 773 303 1261 372 102 15 125 33 103 78 -10 21 -20 25 -57 26 -25
1 -56 0 -70 -3z"/>
<path d="M5709 10238 c-198 -25 -368 -185 -410 -385 -24 -117 0 -273 61 -393
84 -168 299 -387 620 -632 176 -134 205 -152 234 -144 29 7 315 220 444 330
189 161 347 345 402 470 32 71 60 193 60 260 0 214 -138 408 -338 475 -88 30
-214 29 -304 -3 -108 -38 -213 -122 -258 -206 l-13 -24 -16 24 c-27 43 -104
121 -147 151 -91 62 -219 92 -335 77z m225 -134 c65 -31 146 -105 173 -157 9
-18 24 -57 34 -87 13 -43 22 -57 43 -65 39 -14 58 3 82 73 38 110 107 187 214
240 49 24 66 27 155 27 91 -1 106 -3 159 -30 150 -76 238 -232 222 -398 -20
-221 -191 -438 -583 -740 -65 -51 -144 -110 -176 -131 l-56 -39 -88 64 c-347
250 -579 479 -663 654 -50 105 -64 170 -57 262 12 160 112 292 260 345 80 29
203 21 281 -18z"/>
<path d="M7704 9817 c-53 -28 -254 -183 -260 -199 -7 -25 21 -68 45 -68 22 0
280 185 288 207 8 21 -12 59 -35 65 -10 3 -28 1 -38 -5z"/>
<path d="M4636 9801 c-35 -38 -18 -61 119 -158 71 -51 140 -93 152 -93 46 0
70 56 36 85 -53 45 -260 185 -274 185 -9 0 -24 -9 -33 -19z"/>
<path d="M4454 9275 c-15 -23 -15 -27 0 -50 l17 -25 202 2 202 3 9 28 c7 19 7
34 0 45 -10 15 -36 17 -212 20 l-201 2 -17 -25z"/>
<path d="M7532 9284 c-25 -11 -34 -54 -17 -80 15 -24 17 -24 206 -24 112 0
198 4 210 10 24 13 25 62 2 81 -12 11 -62 15 -202 16 -102 1 -192 0 -199 -3z"/>
<path d="M4752 8857 c-157 -84 -180 -106 -155 -146 21 -34 59 -24 220 62 138
74 158 88 161 111 4 35 -14 56 -47 56 -14 -1 -95 -38 -179 -83z"/>
<path d="M7415 8896 c-13 -19 -14 -29 -6 -45 11 -20 253 -175 304 -195 23 -9
30 -7 48 11 41 41 23 63 -138 162 -82 50 -158 91 -170 91 -13 0 -29 -11 -38
-24z"/>
<path d="M4970 8474 c-188 -39 -350 -192 -432 -407 -36 -94 -57 -196 -158
-747 -54 -300 -148 -817 -209 -1150 -61 -333 -124 -688 -141 -790 -55 -328
-100 -558 -140 -715 -22 -84 -39 -168 -39 -187 2 -60 -70 -287 -123 -387 -88
-167 -236 -371 -270 -371 -10 0 -32 -13 -50 -29 -28 -25 -33 -36 -33 -76 0
-39 5 -51 28 -71 41 -35 99 -33 138 6 26 25 30 36 28 78 -2 44 2 53 46 108 69
84 146 205 207 324 l52 102 36 -6 c19 -3 46 -6 59 -6 21 0 23 -3 16 -37 -20
-109 -172 -443 -201 -443 -8 0 -29 -13 -45 -29 -63 -64 -20 -171 69 -171 70 0
118 69 94 134 -11 27 -7 37 32 110 52 96 106 231 136 341 13 44 33 107 46 140
12 33 33 98 46 144 l23 83 100 -6 c233 -15 265 -19 265 -32 0 -7 -14 -70 -31
-139 -44 -184 -114 -338 -237 -527 -44 -69 -64 -90 -90 -99 -36 -12 -72 -60
-72 -96 0 -35 19 -68 50 -86 44 -27 78 -21 117 18 33 33 35 39 30 83 -5 45 -3
52 54 137 61 91 163 284 194 368 l18 47 48 0 c78 0 79 -2 63 -73 -23 -95 -71
-232 -121 -339 -35 -75 -51 -98 -69 -102 -30 -8 -64 -61 -64 -98 0 -40 47 -87
92 -95 33 -5 41 -2 73 30 37 37 46 78 25 117 -7 14 1 41 37 116 45 98 106 277
137 404 45 184 84 314 94 318 13 4 293 -16 299 -21 2 -3 -8 -53 -22 -112 -14
-59 -25 -115 -25 -125 0 -26 -79 -229 -125 -320 -61 -123 -135 -240 -151 -240
-9 0 -29 -13 -45 -29 -23 -24 -29 -38 -29 -74 0 -38 5 -49 31 -71 76 -64 186
8 159 105 -9 29 -5 39 29 94 68 107 185 357 205 438 5 23 11 27 44 27 20 0 48
-3 60 -7 29 -7 27 -23 -24 -190 -52 -172 -118 -314 -154 -335 -36 -20 -63 -77
-54 -113 9 -38 59 -75 101 -75 69 0 117 86 83 150 -7 13 0 40 30 108 56 130
98 253 125 367 13 55 41 162 61 238 l37 137 66 -1 c86 -1 240 -14 247 -22 9
-9 -45 -245 -78 -337 -68 -189 -216 -470 -248 -470 -37 0 -76 -66 -71 -120 8
-78 105 -107 163 -50 28 29 30 35 26 87 -4 51 -2 61 28 106 49 74 137 257 180
375 l38 102 63 0 c57 0 63 -2 63 -21 0 -53 -63 -258 -127 -412 -27 -67 -43
-92 -64 -103 -40 -20 -59 -53 -59 -100 0 -35 5 -47 31 -68 55 -46 127 -28 155
39 13 31 10 69 -8 91 -5 7 5 39 27 85 43 90 110 293 136 409 22 101 92 356
100 364 5 5 378 -20 384 -26 1 -2 -13 -72 -32 -157 -46 -208 -106 -357 -225
-557 -50 -82 -67 -103 -94 -113 -66 -24 -85 -111 -35 -162 31 -31 83 -39 122
-19 32 18 52 67 44 115 -5 39 -2 49 35 106 57 88 153 287 189 389 l30 85 60
-1 c34 -1 64 -4 68 -8 17 -17 -60 -281 -130 -448 -25 -60 -38 -80 -60 -89 -60
-25 -76 -112 -28 -160 38 -38 87 -39 129 -4 37 31 46 66 31 112 -10 31 -7 42
24 116 58 136 96 254 122 376 23 111 92 393 98 396 1 1 73 -3 160 -8 143 -9
157 -12 157 -29 0 -41 -51 -250 -88 -358 -40 -117 -111 -287 -163 -391 -20
-40 -37 -60 -59 -69 -41 -17 -60 -46 -60 -93 0 -50 24 -84 70 -98 47 -14 86 2
113 49 17 28 18 39 8 77 -11 43 -10 47 48 162 102 204 178 431 222 663 10 51
19 71 44 95 27 25 36 46 54 125 12 52 24 103 27 113 4 14 17 17 64 17 115 0
228 68 279 169 21 41 44 127 56 214 l6 47 42 0 c120 2 233 100 273 238 9 30
23 119 32 199 l17 146 46 12 c95 24 183 116 212 222 9 32 32 207 52 388 20
182 51 472 70 645 108 984 114 1086 76 1242 -31 131 -74 211 -156 294 -111
113 -118 114 -525 125 -697 17 -1239 30 -1965 44 -412 8 -808 16 -880 18 -86
3 -152 0 -195 -9z m440 -139 c-44 -64 -75 -135 -103 -240 -25 -94 -23 -129 8
-142 9 -3 26 -1 39 5 17 8 27 28 43 95 28 113 73 205 131 268 l48 52 890 -18
c489 -9 890 -19 892 -20 2 -1 -11 -23 -28 -48 -46 -69 -69 -126 -95 -245 -36
-156 -32 -192 21 -192 34 0 43 20 69 146 29 144 76 247 137 298 l42 36 100 0
c56 0 186 -3 289 -7 l188 -6 -29 -31 c-74 -79 -135 -202 -173 -348 -10 -43
-53 -317 -94 -610 -127 -903 -334 -2341 -371 -2578 -36 -235 -75 -425 -90
-440 -5 -4 -128 0 -274 11 -146 10 -277 18 -293 19 -21 0 -30 7 -38 27 -19 51
-40 54 -78 14 l-28 -29 -479 33 c-1003 70 -1379 98 -1386 104 -4 3 8 77 25
164 34 169 33 190 -14 195 -13 1 -30 -2 -38 -7 -8 -5 -27 -79 -47 -176 -19
-93 -35 -169 -37 -171 -1 -1 -148 8 -327 21 -179 14 -331 24 -339 25 -9 0 -11
7 -7 23 55 194 85 341 181 887 20 113 63 354 96 535 33 182 78 427 99 545 257
1429 263 1458 330 1590 57 112 176 216 290 251 14 4 128 8 253 8 l228 1 -31
-45z m2994 -59 c155 -91 230 -310 205 -601 -5 -66 -28 -286 -49 -490 -22 -203
-51 -478 -65 -610 -14 -132 -32 -298 -40 -370 -8 -71 -22 -197 -31 -279 -17
-162 -31 -212 -70 -263 -26 -35 -77 -66 -98 -61 -13 3 -4 115 74 918 22 228
50 506 60 618 11 111 29 295 41 410 22 217 21 305 -6 369 -48 115 -158 132
-232 35 -61 -80 -74 -146 -158 -802 -48 -380 -123 -997 -155 -1287 -57 -512
-120 -1044 -130 -1091 -25 -113 -112 -192 -212 -192 -54 0 -53 -1 -38 81 14
68 242 1649 360 2494 99 707 100 712 141 839 84 257 249 372 403 282z m-68
-411 c19 -61 17 -96 -26 -534 -87 -885 -111 -1133 -150 -1551 -49 -528 -56
-582 -82 -643 -12 -26 -38 -63 -60 -81 -38 -33 -116 -62 -130 -48 -6 6 15 196
117 1072 86 733 193 1573 211 1665 31 151 93 212 120 120z m-4300 -3431 l51
-6 -27 -87 -27 -86 -54 -3 c-76 -3 -82 3 -63 63 8 28 19 67 25 88 11 40 12 41
95 31z m751 -57 c1 -2 -10 -46 -24 -100 l-26 -98 -61 7 c-34 4 -63 8 -65 10
-2 1 7 46 20 100 l23 96 65 -6 c36 -4 66 -8 68 -9z m639 -51 c3 -8 -5 -54 -18
-102 l-23 -89 -60 3 c-33 2 -62 5 -64 7 -3 4 23 133 35 178 4 14 17 17 65 17
42 0 61 -4 65 -14z m664 -53 c0 -9 -10 -56 -22 -106 l-23 -89 -64 6 c-36 4
-67 8 -68 10 -4 3 35 185 41 195 2 3 34 4 70 3 52 -3 66 -7 66 -19z m734 -41
c5 -8 -38 -189 -47 -198 -3 -3 -32 -2 -66 2 -70 8 -68 2 -44 120 l18 84 67 0
c37 0 69 -4 72 -8z"/>
<path d="M6145 7903 c-248 -218 -285 -254 -285 -277 0 -12 5 -27 12 -34 29
-29 58 -10 234 144 143 126 179 153 189 142 6 -7 58 -74 115 -148 126 -164
149 -190 170 -190 21 0 50 31 50 52 0 9 -70 106 -156 217 -134 174 -159 201
-182 201 -20 -1 -60 -30 -147 -107z"/>
<path d="M5252 7798 c-5 -7 -22 -78 -36 -157 -25 -135 -26 -145 -10 -162 20
-22 43 -24 67 -6 23 17 72 289 57 318 -12 22 -62 26 -78 7z"/>
<path d="M7187 7698 c-11 -9 -24 -56 -41 -158 -22 -132 -23 -147 -8 -162 19
-22 55 -23 72 -3 6 8 22 76 35 152 21 123 22 141 9 161 -16 25 -42 28 -67 10z"/>
<path d="M6124 7478 c-39 -35 -124 -110 -190 -167 -65 -57 -123 -112 -128
-122 -11 -23 17 -69 42 -69 10 0 50 28 88 63 133 118 265 232 274 235 4 2 65
-71 135 -162 84 -110 132 -166 145 -166 25 0 50 27 50 53 0 13 -62 101 -144
207 -173 224 -166 221 -272 128z"/>
<path d="M5162 7308 c-5 -7 -22 -78 -36 -157 -25 -135 -26 -145 -10 -162 20
-23 57 -25 74 -5 6 8 23 80 37 160 22 119 24 148 13 161 -15 18 -64 20 -78 3z"/>
<path d="M7107 7208 c-11 -9 -24 -57 -41 -158 -21 -128 -23 -148 -10 -167 16
-26 55 -30 73 -9 11 14 53 235 54 290 1 45 -42 69 -76 44z"/>
<path d="M5888 6853 c-309 -274 -447 -402 -459 -425 -13 -25 -18 -18 254 -380
274 -365 252 -338 279 -338 16 0 136 99 373 306 310 270 361 319 364 345 1 8
-338 459 -452 602 -60 76 -83 97 -102 97 -18 0 -88 -56 -257 -207z m307 19
c28 -36 125 -166 217 -287 l167 -220 -47 -45 c-27 -25 -164 -145 -305 -267
l-256 -222 -215 287 -216 287 58 55 c93 89 534 480 541 480 3 -1 29 -31 56
-68z"/>
<path d="M6033 6638 c-83 -71 -228 -202 -235 -212 -4 -6 -8 -20 -8 -30 0 -22
193 -284 216 -293 25 -9 53 10 192 132 94 83 132 122 132 138 0 12 -46 82
-106 160 -118 154 -127 159 -191 105z m120 -174 c32 -39 57 -75 57 -80 0 -13
-168 -156 -179 -152 -13 4 -121 146 -121 158 0 15 173 162 180 153 4 -4 32
-40 63 -79z"/>
<path d="M5076 6814 c-9 -8 -16 -18 -16 -22 0 -4 -11 -66 -24 -139 -20 -116
-22 -135 -9 -153 17 -25 55 -26 75 -2 12 13 58 244 58 290 0 17 -30 42 -50 42
-10 0 -26 -7 -34 -16z"/>
<path d="M7027 6708 c-11 -9 -23 -52 -37 -134 -29 -176 -26 -204 25 -204 41 0
47 16 70 161 20 126 21 147 9 167 -16 25 -42 28 -67 10z"/>
<path d="M4989 6323 c-15 -17 -59 -240 -59 -296 0 -47 67 -61 89 -19 5 9 19
79 32 155 26 149 23 169 -23 175 -14 2 -30 -5 -39 -15z"/>
<path d="M6951 6213 c-17 -14 -25 -44 -41 -147 -26 -156 -24 -177 13 -190 45
-16 57 7 83 161 29 166 28 149 4 173 -24 24 -32 25 -59 3z"/>
<path d="M4913 5839 c-26 -10 -28 -16 -57 -178 -20 -114 -22 -133 -9 -151 19
-27 59 -26 77 3 17 27 62 278 53 300 -9 23 -39 36 -64 26z"/>
<path d="M6866 5715 c-8 -9 -18 -30 -21 -48 -2 -18 -12 -72 -20 -122 -23 -136
-20 -156 21 -169 43 -13 56 12 80 165 21 129 22 146 8 166 -17 27 -46 30 -68
8z"/>
<path d="M5560 5706 c-6 -8 -10 -24 -8 -36 5 -33 290 -410 315 -416 12 -3 28
-2 37 3 46 26 407 341 412 361 7 26 -19 62 -45 62 -9 0 -79 -54 -156 -121
-194 -167 -225 -192 -229 -188 -1 2 -58 78 -127 169 -68 91 -128 168 -134 172
-17 13 -52 9 -65 -6z"/>
<path d="M4807 5328 c-19 -30 -61 -270 -53 -302 10 -41 65 -45 85 -7 5 9 20
78 32 154 26 150 23 169 -24 175 -18 2 -30 -4 -40 -20z"/>
<path d="M5476 5277 c-32 -24 -22 -60 41 -143 33 -44 98 -131 145 -194 100
-137 113 -150 141 -150 22 0 417 329 446 370 21 31 0 70 -36 70 -22 0 -71 -37
-213 -160 -102 -88 -187 -159 -190 -159 -3 0 -68 84 -145 187 -77 103 -147
188 -155 190 -9 1 -24 -4 -34 -11z"/>
<path d="M6780 5215 c-6 -8 -21 -79 -33 -159 -17 -120 -19 -147 -8 -160 18
-21 54 -20 73 2 22 26 63 285 48 311 -13 25 -61 28 -80 6z"/>
<path d="M6701 4726 c-7 -8 -21 -69 -33 -135 -22 -131 -18 -151 27 -151 37 0
52 30 74 145 25 131 25 120 5 139 -19 20 -58 21 -73 2z"/>
<path d="M3705 7574 c-456 -49 -815 -274 -987 -619 -67 -134 -119 -336 -133
-516 -8 -100 -2 -109 53 -82 l37 18 16 120 c22 156 51 266 98 375 109 252 328
439 631 538 170 55 243 65 483 66 197 1 219 3 228 18 12 21 -3 53 -31 68 -21
11 -323 22 -395 14z"/>
<path d="M8953 7448 c-36 -47 -14 -83 57 -92 78 -10 217 -54 306 -95 316 -148
503 -396 560 -741 15 -89 19 -293 8 -374 -6 -43 -9 -47 -28 -40 -12 3 -37 7
-56 8 -32 1 -35 -2 -38 -30 -3 -26 4 -36 45 -70 111 -89 180 -187 218 -306 64
-201 8 -406 -155 -569 -167 -168 -334 -251 -1230 -609 -460 -184 -1066 -439
-1107 -466 -30 -19 -31 -69 -4 -84 23 -12 19 -13 341 123 318 134 570 237 995
407 681 272 883 373 1056 529 l56 50 14 -62 c23 -102 17 -379 -10 -507 -45
-214 -145 -461 -261 -646 -184 -295 -577 -706 -935 -979 -343 -262 -776 -488
-1200 -630 -236 -78 -580 -154 -780 -171 -96 -8 -125 -23 -125 -64 0 -48 22
-53 167 -35 743 90 1449 386 2062 863 521 406 999 998 1282 1587 254 530 392
1075 418 1658 11 239 6 267 -45 267 -46 0 -51 -16 -57 -222 -18 -559 -149
-1101 -392 -1626 -27 -56 -50 -101 -51 -99 -2 2 5 44 17 93 13 58 22 143 26
245 6 164 -2 239 -38 361 l-20 67 31 62 c63 124 87 297 59 431 -15 72 -89 222
-139 283 -35 41 -41 54 -35 80 31 151 31 404 1 545 -60 276 -185 478 -395 635
-146 110 -306 181 -493 219 -93 19 -113 20 -125 4z"/>
<path d="M1787 7000 c-34 -27 -44 -78 -22 -119 28 -55 95 -67 144 -25 26 21
31 33 31 69 0 82 -89 125 -153 75z"/>
<path d="M10469 6991 c-21 -22 -29 -39 -29 -66 0 -51 44 -95 95 -95 51 0 95
44 95 95 0 51 -44 95 -95 95 -27 0 -44 -8 -66 -29z"/>
<path d="M3448 6525 c-14 -31 1 -51 57 -75 131 -57 272 -216 320 -361 18 -55
39 -71 73 -58 34 13 28 62 -17 155 -74 152 -183 269 -312 334 -73 37 -105 39
-121 5z"/>
<path d="M1770 6355 c-17 -21 -8 -383 15 -555 119 -930 518 -1772 1167 -2463
668 -710 1633 -1208 2581 -1332 133 -17 157 -12 157 33 0 46 -12 52 -129 68
-765 100 -1553 449 -2166 959 -359 298 -662 650 -795 920 -121 247 -173 448
-195 745 -9 122 22 380 49 407 3 3 31 -17 63 -45 175 -151 389 -251 918 -432
219 -74 250 -79 261 -36 10 42 -11 62 -88 86 -154 49 -538 189 -643 235 -307
132 -495 290 -575 483 -91 217 -48 425 125 597 89 89 208 159 324 191 71 20
92 45 72 83 -17 30 -61 27 -175 -13 -119 -42 -215 -106 -312 -209 -208 -221
-238 -525 -79 -787 l35 -57 -21 -59 c-67 -191 -74 -458 -18 -738 11 -54 18
-100 16 -102 -6 -7 -145 292 -202 435 -104 263 -200 615 -244 891 -28 175 -41
307 -48 510 -3 96 -10 181 -16 188 -13 17 -62 15 -77 -3z"/>
<path d="M9108 6316 c-96 -39 -150 -76 -229 -155 -95 -95 -176 -236 -162 -279
7 -18 39 -33 57 -26 9 3 34 41 56 83 74 141 201 254 339 304 71 25 93 46 75
75 -16 26 -71 25 -136 -2z"/>
<path d="M3047 5713 c-38 -43 -3 -83 73 -83 195 -1 432 -167 537 -378 44 -89
55 -99 88 -84 33 15 32 50 0 121 -109 234 -357 411 -611 436 -61 6 -71 5 -87
-12z"/>
<path d="M9095 5585 c-287 -63 -564 -287 -680 -549 -29 -65 -31 -98 -10 -116
29 -24 60 -4 84 54 35 85 96 173 180 259 159 165 360 261 566 273 123 7 134
10 141 39 11 46 -8 55 -120 54 -55 0 -128 -7 -161 -14z"/>
<path d="M2690 4515 c-19 -23 -4 -49 66 -114 135 -126 295 -218 497 -286 126
-42 170 -43 175 -4 4 35 -10 45 -112 74 -177 51 -374 162 -508 284 -67 62 -96
73 -118 46z"/>
<path d="M9410 4408 c-6 -7 -26 -40 -46 -72 -155 -264 -456 -479 -783 -562
-94 -24 -111 -34 -111 -65 0 -34 26 -42 91 -30 150 30 343 112 486 207 154
102 341 302 408 435 30 58 31 75 6 89 -26 13 -38 13 -51 -2z"/>
<path d="M8033 3832 c-7 -5 -26 -48 -43 -97 -128 -379 -419 -705 -786 -880
-83 -40 -212 -84 -292 -100 -37 -8 -53 -44 -31 -71 18 -22 82 -14 200 26 445
149 827 527 978 966 17 50 31 102 31 116 0 39 -28 58 -57 40z"/>
<path d="M8907 3412 c-227 -214 -505 -356 -798 -408 -106 -19 -125 -30 -115
-68 6 -23 11 -26 51 -26 139 0 431 99 620 211 158 93 365 270 365 312 0 14
-30 47 -44 47 -4 0 -39 -31 -79 -68z"/>
<path d="M3442 3278 c-35 -35 -2 -68 164 -167 469 -282 1076 -451 1817 -507
95 -7 117 1 117 41 0 35 -18 42 -130 49 -254 16 -589 68 -848 132 -388 95
-711 227 -975 400 -99 65 -123 74 -145 52z"/>
<path d="M6138 2095 c-15 -8 -31 -30 -38 -50 -32 -98 79 -168 151 -96 77 77
-17 200 -113 146z"/>
</g>
</svg>
