<svg version="1.0" xmlns="http://www.w3.org/2000/svg"
 width="1254.000000pt" height="1254.000000pt" viewBox="0 0 1254.000000 1254.000000"
 preserveAspectRatio="xMidYMid meet">
<metadata>
Created by potrace 1.16, written by Peter Selinger 2001-2019
</metadata>
<g transform="translate(0.000000,1254.000000) scale(0.100000,-0.100000)"
fill="#000000" stroke="none">
<path d="M6194 11581 c-45 -27 -70 -96 -54 -145 24 -73 107 -112 173 -81 87
41 101 157 26 220 -38 31 -100 34 -145 6z"/>
<path d="M5535 11468 c-520 -79 -938 -204 -1358 -407 -450 -216 -848 -503
-1238 -891 -256 -255 -539 -604 -539 -665 0 -29 30 -55 62 -55 22 0 42 22 119
123 498 657 1165 1180 1876 1471 318 130 702 238 1035 290 82 13 155 29 163
36 21 18 19 66 -5 90 -22 22 -26 22 -115 8z"/>
<path d="M6881 11461 c-12 -12 -21 -31 -21 -44 0 -45 20 -57 120 -72 329 -50
713 -154 1036 -281 535 -210 1049 -552 1494 -994 182 -181 273 -284 425 -484
88 -114 104 -131 132 -134 25 -3 35 2 49 23 16 24 16 29 2 58 -8 18 -49 77
-90 133 -304 407 -728 809 -1163 1101 -509 340 -1118 580 -1740 682 -214 35
-221 35 -244 12z"/>
<path d="M6193 10941 c-183 -132 -247 -397 -169 -694 24 -91 129 -343 179
-432 20 -35 27 -40 57 -40 33 0 37 4 72 70 59 110 137 302 164 400 34 123 43
304 20 395 -32 127 -102 238 -189 301 -22 16 -52 29 -67 29 -15 0 -45 -13 -67
-29z m122 -116 c54 -56 91 -129 110 -220 35 -165 2 -330 -117 -591 -24 -51
-46 -94 -49 -94 -3 0 -25 40 -47 89 -90 194 -140 397 -127 525 9 91 37 181 76
239 31 47 83 97 100 97 5 0 30 -20 54 -45z"/>
<path d="M5356 10357 c-41 -30 -38 -157 6 -275 75 -203 253 -348 553 -452 110
-38 120 -39 142 -25 12 9 23 24 23 35 0 40 -90 291 -135 379 -83 160 -223 288
-363 331 -75 23 -199 27 -226 7z m234 -113 c157 -72 265 -209 340 -432 16 -48
25 -88 21 -90 -13 -4 -149 52 -226 95 -91 49 -220 177 -257 254 -30 62 -47
126 -48 178 l0 34 57 -7 c32 -4 82 -18 113 -32z"/>
<path d="M6948 10351 c-160 -51 -306 -195 -395 -389 -36 -76 -113 -301 -113
-327 0 -8 10 -21 23 -30 22 -14 32 -12 138 24 205 69 339 149 447 266 63 69
124 179 141 255 12 52 14 170 3 186 -25 38 -148 45 -244 15z m159 -88 c10 -27
-14 -123 -49 -193 -42 -82 -140 -183 -235 -239 -70 -42 -242 -115 -251 -107
-8 8 29 118 67 200 88 188 228 315 383 345 66 13 78 12 85 -6z"/>
<path d="M4647 10002 c-10 -10 -17 -24 -17 -30 0 -14 128 -292 142 -309 18
-22 67 -16 79 10 9 19 3 39 -30 114 -80 183 -109 233 -135 233 -12 0 -30 -8
-39 -18z"/>
<path d="M7812 10008 c-17 -22 -142 -299 -142 -317 0 -9 5 -22 12 -29 16 -16
63 -15 75 1 6 6 41 79 78 160 65 143 66 148 51 172 -18 27 -57 33 -74 13z"/>
<path d="M4035 9790 c-11 -12 -15 -27 -11 -42 7 -30 290 -298 314 -298 31 0
57 37 46 64 -14 34 -289 296 -312 296 -10 0 -27 -9 -37 -20z"/>
<path d="M8287 9673 c-78 -75 -146 -147 -151 -159 -12 -30 18 -66 50 -62 33 5
314 276 314 303 0 26 -29 55 -54 55 -10 0 -81 -62 -159 -137z"/>
<path d="M5329 9465 c-83 -45 -47 -177 47 -177 95 0 128 133 45 177 -37 18
-58 19 -92 0z"/>
<path d="M7115 9471 c-62 -26 -81 -110 -35 -155 60 -59 160 -20 160 61 0 45
-14 69 -50 88 -32 17 -45 18 -75 6z"/>
<path d="M2108 9083 c-8 -10 -44 -70 -80 -133 -299 -525 -494 -1092 -587
-1705 -18 -115 -18 -133 -5 -152 17 -27 65 -31 84 -8 6 8 25 90 40 183 70 413
183 795 347 1172 57 130 191 395 262 515 22 38 41 79 41 91 0 47 -71 72 -102
37z"/>
<path d="M10337 9082 c-27 -30 -20 -57 38 -155 272 -452 511 -1150 596 -1737
16 -112 42 -140 100 -110 26 14 25 60 -6 245 -83 508 -260 1050 -478 1465 -92
175 -165 297 -183 304 -28 11 -50 7 -67 -12z"/>
<path d="M3380 9054 c-170 -46 -300 -230 -330 -468 -19 -155 15 -312 86 -395
52 -60 103 -83 198 -89 l78 -5 -6 -38 c-8 -47 -148 -1157 -256 -2024 -132
-1057 -181 -1477 -174 -1497 8 -26 24 -32 151 -59 l113 -23 -4 -101 c-4 -104
-7 -121 -83 -423 -41 -163 -49 -185 -70 -193 -29 -11 -56 -70 -47 -103 21 -87
134 -99 172 -19 15 31 15 38 1 76 -14 41 -13 47 32 212 40 149 48 170 67 173
29 4 42 51 18 64 -19 11 -20 20 -5 88 l11 52 44 -6 c151 -20 137 -15 130 -49
-15 -74 -28 -107 -41 -107 -17 0 -21 -50 -6 -65 6 -6 0 -74 -15 -170 -19 -126
-28 -163 -43 -175 -75 -60 -43 -170 49 -170 55 0 90 34 90 87 0 21 -7 48 -15
60 -13 19 -13 36 5 160 17 117 68 382 75 391 1 2 98 -14 214 -34 179 -32 211
-40 211 -55 0 -32 -49 -262 -83 -388 -29 -106 -37 -125 -59 -137 -57 -30 -56
-129 3 -159 35 -19 53 -19 89 0 41 21 56 72 36 120 -15 36 -14 43 25 188 22
84 42 158 44 165 3 6 13 12 24 12 27 0 36 51 12 68 -16 11 -17 19 -9 60 5 26
11 52 13 58 2 9 20 8 67 0 58 -11 63 -14 61 -36 -7 -71 -14 -89 -36 -92 -29
-4 -37 -54 -11 -72 16 -12 16 -22 -4 -181 -18 -140 -25 -170 -41 -181 -27 -19
-44 -75 -32 -105 14 -38 46 -61 86 -61 42 0 63 15 82 60 13 31 12 38 -6 75
l-20 40 20 146 c24 176 59 381 65 381 3 0 62 -7 132 -15 70 -8 157 -17 195
-20 44 -4 67 -11 67 -19 0 -40 -35 -233 -67 -371 -34 -146 -40 -163 -70 -191
-44 -43 -46 -93 -4 -135 41 -41 90 -40 125 2 29 34 33 71 11 112 -13 25 -11
39 20 165 18 75 36 152 40 171 4 20 14 35 25 38 27 7 33 64 8 71 -14 3 -18 11
-14 26 3 11 8 40 12 64 4 23 11 45 16 48 5 3 36 3 69 -1 l60 -7 -6 -42 c-12
-82 -17 -96 -31 -96 -16 0 -20 -60 -4 -76 6 -6 4 -69 -5 -178 -15 -165 -16
-169 -46 -204 -27 -31 -30 -41 -26 -76 7 -51 36 -76 89 -76 53 0 88 35 88 87
0 21 -7 49 -16 61 -14 21 -14 38 0 192 9 93 23 215 31 272 8 57 15 109 15 116
0 14 54 15 240 5 l123 -6 -7 -118 c-3 -65 -18 -196 -31 -292 -24 -167 -26
-177 -55 -205 -50 -51 -38 -121 26 -148 29 -12 39 -12 68 0 56 24 71 74 40
139 -15 32 -15 44 10 200 14 91 26 168 26 171 0 3 9 6 20 6 17 0 20 7 20 40 0
29 -4 40 -15 40 -12 0 -15 13 -15 58 0 99 2 102 78 102 l65 0 -6 -77 c-4 -53
-11 -81 -21 -89 -21 -15 -21 -70 0 -78 14 -6 15 -26 9 -183 -7 -157 -10 -181
-28 -205 -30 -40 -26 -96 8 -125 53 -46 138 -17 151 52 4 22 -1 40 -19 67
l-25 36 9 293 c5 161 13 297 18 302 5 5 79 6 175 2 l166 -7 0 -144 c0 -79 -5
-212 -11 -296 -10 -138 -14 -156 -35 -181 -55 -65 -17 -157 65 -157 32 0 44 6
65 31 31 37 33 73 5 118 -19 32 -20 38 -8 212 12 161 15 179 31 179 27 0 26
66 -2 73 -18 5 -20 14 -20 87 l0 81 68 -3 67 -3 3 -78 c3 -72 1 -79 -18 -84
-27 -7 -29 -68 -2 -75 16 -5 20 -25 31 -179 13 -173 13 -174 -9 -217 -38 -72
-2 -142 72 -142 80 0 118 92 65 157 -21 25 -25 45 -35 193 -7 91 -12 224 -12
296 l0 131 166 7 c92 3 168 5 170 3 18 -17 32 -617 16 -617 -5 0 -14 -11 -20
-25 -38 -83 33 -164 113 -131 60 25 74 94 30 152 -24 32 -25 36 -25 207 0 168
1 175 21 180 30 8 24 71 -8 75 -19 3 -22 10 -25 75 -2 40 -2 75 0 80 2 4 32 7
68 7 l64 0 0 -52 c0 -29 3 -63 6 -76 5 -18 2 -24 -15 -29 -31 -8 -30 -70 2
-75 17 -2 23 -11 25 -38 2 -19 14 -100 27 -179 22 -131 22 -146 8 -167 -24
-37 -19 -92 11 -122 46 -47 123 -28 147 37 12 31 -5 86 -33 105 -17 12 -24 41
-44 173 -22 144 -49 422 -42 428 2 2 84 5 183 7 l179 3 12 -85 c7 -47 20 -170
29 -275 9 -104 18 -191 20 -194 3 -2 -5 -15 -15 -29 -32 -40 -23 -107 19 -139
9 -7 33 -13 54 -13 72 0 109 69 72 139 -8 16 -20 31 -28 34 -18 7 -44 344 -28
360 19 19 13 74 -7 79 -19 5 -32 50 -32 111 0 26 2 27 49 27 27 0 56 3 64 6
11 4 17 -9 26 -59 14 -80 14 -77 -4 -77 -10 0 -15 -11 -15 -35 0 -28 4 -35 20
-35 12 0 22 -8 25 -23 72 -314 75 -329 60 -350 -23 -33 -19 -81 11 -116 34
-41 92 -44 129 -6 37 36 35 98 -5 135 -28 26 -34 45 -70 207 -39 180 -71 365
-64 372 2 2 59 7 126 12 68 5 156 12 196 17 40 5 74 6 76 3 6 -11 36 -216 55
-371 17 -134 17 -157 5 -174 -8 -11 -14 -39 -14 -62 0 -35 5 -47 31 -68 35
-30 58 -32 99 -11 40 21 56 72 36 118 -8 19 -21 39 -30 44 -12 6 -19 42 -31
143 -8 74 -17 150 -21 168 -4 28 -2 34 15 39 16 4 21 13 21 39 0 28 -4 33 -27
36 -25 3 -29 8 -36 56 -5 30 -7 56 -4 58 2 3 31 9 63 14 67 11 69 9 80 -64 4
-34 3 -51 -5 -54 -17 -6 -14 -62 4 -62 9 0 17 -6 20 -12 2 -7 22 -82 45 -167
40 -149 41 -155 25 -188 -44 -92 64 -176 142 -109 22 19 28 32 28 66 0 36 -6
47 -33 70 -31 26 -37 40 -76 201 -51 205 -76 338 -65 345 4 2 101 22 214 43
141 26 208 35 210 27 13 -37 48 -234 66 -368 19 -144 19 -159 5 -180 -55 -78
36 -179 122 -134 34 18 42 33 42 84 0 26 -8 44 -29 67 -28 28 -31 41 -50 184
-25 184 -25 171 -5 171 26 0 15 64 -12 68 -18 3 -24 14 -33 64 -7 33 -10 62
-7 66 8 7 93 21 137 21 36 1 37 1 52 -59 14 -58 14 -61 -5 -71 -29 -16 -21
-64 12 -64 23 0 26 -9 63 -145 39 -146 44 -190 32 -267 -6 -38 -4 -45 23 -73
61 -61 152 -26 152 59 0 33 -6 44 -34 68 -35 29 -48 74 -151 508 -8 33 -13 98
-12 145 l2 84 117 26 c64 14 123 32 132 39 9 7 16 28 16 45 0 39 -96 891 -145
1291 -67 551 -270 2152 -280 2211 l-5 31 74 5 c100 7 159 37 207 106 59 84 74
146 73 302 0 121 -3 143 -28 215 -35 102 -82 180 -144 237 -100 93 -180 116
-346 98 -247 -26 -1051 -148 -1366 -207 -191 -36 -618 -46 -1641 -39 l-815 6
-290 50 c-470 83 -929 152 -1249 189 -115 14 -148 13 -215 -5z m189 -117 c54
-36 95 -94 123 -175 20 -60 23 -84 22 -227 -1 -166 -24 -392 -119 -1159 -24
-199 -54 -440 -66 -536 -11 -96 -24 -178 -28 -182 -11 -11 -171 23 -171 37 0
7 11 101 25 209 14 108 50 393 80 634 30 240 71 561 90 712 49 382 46 471 -15
532 -55 54 -145 29 -194 -54 -75 -129 -71 -351 7 -366 23 -5 60 36 51 56 -22
52 -27 105 -16 164 11 60 52 138 73 138 17 0 39 -67 39 -122 0 -87 -31 -311
-47 -336 -21 -33 -73 -62 -113 -62 -58 0 -97 32 -133 108 -27 58 -32 80 -35
167 -6 165 37 302 125 396 94 101 211 126 302 66z m5617 -3 c140 -86 228 -322
195 -519 -22 -131 -90 -215 -174 -215 -32 0 -46 7 -76 38 -37 37 -38 39 -56
177 -23 179 -18 259 17 311 41 60 40 78 -3 82 -27 2 -44 -3 -66 -22 -63 -53
-70 -164 -29 -451 14 -99 33 -238 42 -310 9 -71 51 -400 94 -730 42 -330 74
-603 71 -607 -6 -7 -153 -38 -158 -34 -4 4 -23 148 -89 686 -36 294 -83 667
-104 829 -24 173 -40 334 -40 390 0 197 61 333 175 395 48 26 142 17 201 -20z
m-5318 -5 c338 -47 1097 -170 1140 -184 9 -3 6 -15 -11 -42 -37 -59 -74 -160
-91 -249 -18 -97 -31 -304 -19 -320 14 -19 48 -25 67 -11 14 10 19 37 26 147
13 194 56 341 123 424 l23 28 1132 0 1132 0 20 -24 c65 -77 109 -230 117 -408
7 -152 13 -170 52 -170 49 0 55 17 47 143 -4 61 -14 148 -22 191 -16 84 -63
223 -89 263 -12 18 -13 24 -3 28 51 17 1296 210 1305 202 1 -2 -13 -32 -31
-68 -41 -77 -63 -157 -72 -264 -7 -83 -3 -117 46 -480 17 -121 30 -227 30
-236 0 -13 -19 -21 -77 -34 -43 -9 -217 -52 -388 -95 -170 -43 -359 -88 -420
-100 -139 -27 -155 -33 -155 -64 0 -46 18 -48 151 -21 68 14 279 64 469 111
190 47 365 87 390 87 l44 2 13 -100 c32 -245 144 -1171 168 -1375 14 -124 29
-263 35 -309 5 -47 9 -85 7 -86 -1 -1 -96 -22 -212 -48 -115 -26 -277 -63
-360 -82 -82 -20 -260 -61 -395 -92 -135 -31 -251 -60 -257 -66 -19 -14 -16
-55 5 -65 12 -7 103 10 297 55 545 125 847 192 889 198 l43 7 7 -44 c16 -115
146 -1401 142 -1406 -2 -1 -81 -14 -177 -28 -96 -14 -255 -41 -354 -59 -297
-56 -748 -125 -816 -125 -5 0 -9 -9 -9 -19 0 -11 -5 -23 -10 -26 -6 -4 -8 -11
-5 -16 4 -5 -12 -9 -34 -9 -40 0 -73 20 -83 50 -3 9 -50 9 -213 1 -832 -43
-1610 -43 -2410 -1 -404 22 -637 49 -1039 121 -121 21 -320 55 -441 75 -121
20 -231 38 -243 40 -22 4 -23 8 -18 52 3 26 12 106 21 177 159 1366 138 1215
166 1215 42 0 330 -64 878 -195 151 -36 285 -65 297 -65 13 0 28 9 34 20 24
45 6 52 -297 124 -517 124 -734 175 -829 193 l-94 17 5 46 c3 25 41 333 85
685 44 352 91 737 105 855 14 118 29 232 32 254 l6 38 51 -5 c28 -3 227 -48
441 -100 215 -53 421 -101 459 -108 64 -12 69 -12 82 6 8 10 14 22 14 26 0 19
-34 37 -92 48 -35 7 -223 52 -418 101 -195 48 -391 96 -435 105 -44 10 -83 20
-87 24 -3 3 9 146 28 316 38 337 38 415 4 550 -10 40 -31 97 -47 127 -36 68
-36 68 -29 68 3 0 72 -9 154 -21z m-460 -2355 c54 -11 82 -21 82 -30 0 -8 -22
-195 -49 -416 -60 -489 -121 -1000 -157 -1323 -15 -132 -30 -243 -33 -247 -7
-7 -162 20 -174 32 -5 4 10 155 32 336 85 687 180 1463 192 1562 7 56 15 102
18 102 3 0 43 -7 89 -16z m5815 -16 c6 -32 13 -89 76 -608 39 -318 94 -789
129 -1107 25 -225 26 -253 13 -258 -52 -16 -166 -34 -171 -28 -4 5 -22 157
-39 338 -30 302 -114 1091 -160 1495 -11 91 -18 166 -17 167 4 4 128 31 147
32 11 1 19 -10 22 -31z"/>
<path d="M9197 8658 c-27 -25 -28 -31 -22 -82 5 -34 2 -81 -6 -121 -12 -59
-11 -67 4 -83 16 -15 20 -15 45 -2 41 23 59 110 44 203 -7 38 -18 78 -25 90
l-12 22 -28 -27z"/>
<path d="M6051 8030 c-167 -175 -182 -193 -179 -223 3 -27 7 -32 33 -35 27 -2
46 14 188 163 87 91 162 165 166 165 4 0 77 -73 162 -162 153 -162 183 -184
215 -157 27 22 14 52 -53 123 -278 292 -303 316 -326 316 -17 0 -71 -49 -206
-190z"/>
<path d="M4881 7927 c-6 -8 -13 -81 -17 -169 -7 -153 -7 -155 16 -171 30 -21
63 -8 71 29 12 55 10 299 -3 312 -16 16 -53 15 -67 -1z"/>
<path d="M7560 7925 c-10 -12 -12 -51 -7 -164 4 -82 10 -156 13 -165 8 -21 57
-21 74 -1 17 20 7 310 -11 331 -15 19 -53 18 -69 -1z"/>
<path d="M6102 7588 c-228 -236 -235 -244 -228 -273 4 -16 16 -27 33 -31 24
-6 41 9 189 162 l163 169 164 -170 c161 -167 164 -170 191 -157 55 25 37 54
-157 256 -109 113 -186 186 -198 186 -11 0 -75 -58 -157 -142z"/>
<path d="M4866 7371 c-14 -16 -16 -40 -14 -177 l3 -159 28 -3 c49 -6 53 6 61
169 6 134 5 154 -10 170 -22 24 -46 24 -68 0z"/>
<path d="M7582 7378 c-8 -8 -12 -54 -11 -147 2 -175 6 -195 42 -199 57 -7 61
6 53 177 -4 88 -11 160 -17 168 -14 16 -51 17 -67 1z"/>
<path d="M6136 7098 c-306 -317 -626 -669 -626 -689 0 -14 34 -57 93 -118 51
-53 203 -213 336 -356 287 -306 296 -315 320 -315 11 0 163 152 385 386 293
308 367 391 364 409 -4 33 -700 771 -743 788 -16 7 -38 -11 -129 -105z m541
-450 l224 -237 -228 -238 c-125 -132 -268 -282 -318 -336 -49 -53 -93 -97 -97
-97 -10 0 -628 659 -628 671 0 5 66 81 148 167 81 87 221 238 312 336 l165
177 99 -103 c54 -57 199 -210 323 -340z"/>
<path d="M6080 6604 c-85 -91 -158 -175 -162 -185 -6 -16 23 -52 154 -190 136
-143 166 -169 188 -167 17 2 73 52 183 165 129 132 158 166 155 187 -4 35
-313 356 -341 356 -15 0 -70 -52 -177 -166z m297 -73 l113 -119 -116 -121
-116 -121 -111 117 c-62 64 -112 119 -112 124 0 10 214 239 223 239 4 0 58
-54 119 -119z"/>
<path d="M4852 6817 c-6 -7 -14 -83 -18 -168 -6 -140 -5 -156 11 -172 23 -24
57 -18 72 13 17 34 18 311 1 328 -16 16 -53 15 -66 -1z"/>
<path d="M7602 6821 c-11 -6 -14 -44 -13 -165 1 -86 4 -163 7 -171 10 -24 52
-30 74 -10 18 16 19 28 13 174 -3 86 -10 162 -16 169 -11 14 -46 16 -65 3z"/>
<path d="M4840 6255 c-8 -9 -14 -71 -17 -174 l-6 -160 25 -12 c47 -21 64 -1
71 87 12 140 9 241 -9 258 -19 20 -48 20 -64 1z"/>
<path d="M7618 6259 c-16 -9 -18 -28 -18 -162 0 -122 3 -157 16 -175 19 -27
45 -28 69 -2 16 18 17 35 13 171 -4 133 -7 154 -23 166 -22 15 -34 16 -57 2z"/>
<path d="M4826 5694 c-23 -22 -24 -325 -1 -344 19 -16 62 -5 69 18 3 9 6 83 8
163 2 113 0 150 -11 162 -17 21 -45 22 -65 1z"/>
<path d="M7624 5693 c-15 -15 -16 -33 -10 -172 4 -86 12 -161 18 -168 13 -16
50 -17 66 -1 8 8 12 60 12 168 0 139 -2 159 -18 173 -24 22 -46 21 -68 0z"/>
<path d="M5885 5554 c-9 -9 -15 -27 -13 -39 2 -14 76 -99 181 -209 145 -151
184 -186 206 -186 22 0 61 36 209 189 108 112 182 197 182 209 0 28 -36 57
-57 46 -10 -5 -88 -81 -173 -169 -85 -88 -158 -161 -161 -163 -3 -1 -78 74
-168 168 -89 93 -169 170 -176 170 -8 0 -21 -7 -30 -16z"/>
<path d="M4817 5138 c-13 -11 -16 -38 -18 -172 -2 -145 -1 -160 16 -172 25
-18 31 -18 55 6 18 18 20 33 20 173 0 156 -5 177 -40 177 -9 0 -24 -6 -33 -12z"/>
<path d="M7642 5138 c-8 -8 -12 -60 -12 -168 0 -144 2 -158 20 -175 17 -15 24
-16 45 -7 l25 12 0 159 c0 132 -3 162 -16 175 -18 19 -45 21 -62 4z"/>
<path d="M5881 5081 c-7 -5 -13 -20 -13 -35 0 -19 43 -70 187 -221 104 -107
195 -195 203 -195 9 0 47 33 86 73 182 186 284 294 298 317 23 35 8 70 -29 70
-24 0 -55 -29 -188 -170 -88 -93 -163 -170 -166 -170 -4 0 -78 75 -165 168
-152 161 -182 184 -213 163z"/>
<path d="M4803 4578 c-6 -7 -13 -82 -17 -167 -6 -136 -5 -156 10 -172 23 -25
49 -24 68 3 20 29 23 317 4 336 -16 16 -53 15 -65 0z"/>
<path d="M7652 4578 c-8 -8 -12 -60 -12 -169 0 -130 3 -160 16 -173 18 -19 45
-21 62 -4 15 15 17 310 2 339 -12 21 -50 25 -68 7z"/>
<path d="M1997 6700 c-86 -87 -137 -147 -137 -160 0 -26 257 -300 281 -300 24
0 49 27 49 52 0 12 -33 56 -82 107 l-83 86 340 2 c329 3 341 4 357 23 9 12 14
29 11 38 -14 41 -24 42 -371 42 l-335 0 87 90 c49 51 86 98 86 109 0 20 -34
51 -56 51 -6 0 -72 -63 -147 -140z"/>
<path d="M10348 6829 c-37 -21 -21 -58 63 -147 l81 -87 -337 -5 c-319 -5 -337
-6 -351 -24 -18 -25 -18 -41 2 -60 13 -14 59 -16 350 -16 184 0 334 -3 334 -6
0 -4 -36 -44 -80 -91 -44 -46 -80 -92 -80 -102 0 -28 35 -54 62 -47 36 11 263
262 265 294 2 22 -20 51 -131 165 -73 75 -140 137 -147 137 -8 0 -22 -5 -31
-11z"/>
<path d="M1380 6672 c-71 -35 -89 -131 -34 -186 75 -74 194 -23 194 83 0 55
-20 88 -66 107 -43 18 -52 18 -94 -4z"/>
<path d="M11052 6679 c-42 -12 -72 -60 -72 -115 0 -72 63 -123 134 -110 46 9
96 65 96 109 0 45 -34 95 -75 113 -39 16 -38 16 -83 3z"/>
<path d="M2852 6574 c-41 -29 -23 -84 28 -84 31 0 50 17 50 45 0 44 -42 65
-78 39z"/>
<path d="M3063 6580 c-27 -11 -32 -60 -9 -79 26 -22 70 -9 81 23 8 24 6 31
-14 47 -26 21 -27 21 -58 9z"/>
<path d="M9408 6579 c-21 -12 -24 -59 -6 -77 7 -7 24 -12 38 -12 51 0 69 55
28 84 -26 18 -36 19 -60 5z"/>
<path d="M9616 6577 c-22 -16 -18 -65 5 -80 50 -31 105 38 59 75 -26 21 -40
23 -64 5z"/>
<path d="M1436 6004 c-21 -20 -20 -55 4 -221 78 -531 248 -1060 504 -1570 171
-342 395 -675 654 -971 262 -301 676 -682 739 -682 37 0 53 16 53 55 0 28 -15
43 -135 143 -329 274 -656 633 -902 989 -312 453 -568 1030 -712 1608 -35 141
-97 462 -106 555 -4 36 -14 75 -21 88 -17 26 -55 29 -78 6z"/>
<path d="M11006 5998 c-9 -12 -16 -31 -16 -43 0 -55 -68 -414 -112 -590 -139
-557 -368 -1090 -675 -1572 -90 -142 -94 -159 -47 -189 22 -15 26 -15 49 0 54
36 252 365 396 661 241 496 404 1013 478 1520 25 168 26 199 5 219 -22 23 -60
20 -78 -6z"/>
<path d="M9835 3272 c-25 -12 -80 -62 -147 -134 -129 -138 -344 -336 -505
-465 -149 -119 -453 -323 -648 -432 -456 -259 -1006 -452 -1534 -541 -118 -20
-141 -32 -141 -72 0 -10 9 -27 21 -39 24 -24 41 -23 254 17 596 113 1223 366
1735 699 317 206 513 366 807 661 230 231 259 267 236 303 -14 23 -32 23 -78
3z"/>
<path d="M4560 2908 c-78 -7 -155 -31 -225 -71 -29 -16 -41 -30 -43 -50 -7
-57 40 -74 100 -37 59 36 154 60 242 60 163 0 272 -50 467 -212 225 -186 337
-238 513 -238 120 0 193 20 202 57 4 14 2 33 -3 42 -11 17 -22 17 -175 5 -72
-5 -98 -3 -155 14 -81 25 -163 73 -256 150 -120 100 -194 156 -250 190 -118
72 -268 104 -417 90z"/>
<path d="M7730 2894 c-67 -18 -185 -72 -242 -112 -24 -17 -95 -73 -158 -126
-210 -175 -347 -222 -532 -184 -70 15 -93 5 -93 -38 0 -23 7 -32 36 -47 86
-42 258 -38 376 9 97 39 150 74 298 197 189 158 320 217 477 217 92 -1 147
-13 221 -51 67 -34 88 -36 110 -11 23 25 21 45 -6 70 -82 77 -334 117 -487 76z"/>
<path d="M6195 2635 c-19 -18 -25 -35 -25 -70 0 -61 32 -95 88 -95 77 0 122
72 88 138 -20 38 -44 52 -91 52 -25 0 -43 -8 -60 -25z"/>
<path d="M3700 2361 c-28 -53 -12 -69 165 -173 488 -286 1038 -491 1589 -592
163 -30 179 -31 200 -10 19 19 21 68 3 83 -8 6 -76 22 -153 36 -553 101 -1118
311 -1598 593 -145 86 -187 98 -206 63z"/>
<path d="M6201 1747 c-91 -46 -91 -190 0 -239 92 -49 189 15 189 126 0 43 -4
53 -39 87 -33 34 -45 39 -82 39 -24 0 -55 -6 -68 -13z"/>
</g>
</svg>
