<svg version="1.0" xmlns="http://www.w3.org/2000/svg"
 width="1254.000000pt" height="1254.000000pt" viewBox="0 0 1254.000000 1254.000000"
 preserveAspectRatio="xMidYMid meet">
<metadata>
Created by potrace 1.16, written by Peter Selinger 2001-2019
</metadata>
<g transform="translate(0.000000,1254.000000) scale(0.100000,-0.100000)"
fill="#000000" stroke="none">
<path d="M6209 11335 c-37 -20 -63 -78 -54 -123 10 -52 63 -102 108 -102 53 0
85 16 107 52 35 57 20 136 -32 172 -28 20 -94 20 -129 1z"/>
<path d="M5465 11204 c-288 -49 -634 -147 -924 -260 -711 -279 -1406 -818
-1882 -1460 -101 -136 -114 -160 -101 -189 12 -25 52 -42 71 -30 6 3 45 52 87
108 488 649 1108 1140 1811 1436 177 75 488 176 679 221 178 42 386 80 435 80
57 0 90 68 51 103 -24 22 -57 21 -227 -9z"/>
<path d="M6868 11213 c-38 -42 -14 -88 50 -98 661 -101 1245 -322 1772 -670
437 -288 868 -698 1142 -1086 56 -79 66 -89 93 -89 38 0 55 16 55 51 0 57
-295 425 -520 649 -641 640 -1395 1041 -2287 1219 -84 17 -183 34 -220 37 -59
6 -70 4 -85 -13z"/>
<path d="M6196 10749 c-90 -60 -161 -176 -192 -318 -40 -180 16 -431 157 -707
63 -122 65 -124 101 -124 27 0 33 8 102 149 157 321 198 544 136 745 -36 114
-118 229 -192 267 -49 25 -56 24 -112 -12z m97 -89 c14 -11 40 -43 59 -72 125
-191 111 -426 -43 -748 l-51 -105 -38 75 c-83 164 -140 363 -140 487 0 69 29
193 58 248 27 49 103 135 120 135 5 0 21 -9 35 -20z"/>
<path d="M5410 10183 c-57 -7 -70 -26 -70 -104 0 -97 37 -208 100 -297 95
-135 267 -250 483 -321 158 -53 176 -36 127 120 -83 267 -187 430 -335 525
-89 56 -213 88 -305 77z m118 -98 c150 -35 262 -135 349 -310 44 -87 88 -213
79 -222 -20 -20 -267 106 -350 178 -98 87 -176 232 -176 329 0 47 3 47 98 25z"/>
<path d="M6930 10157 c-166 -56 -281 -167 -379 -364 -50 -100 -111 -275 -111
-319 0 -27 5 -35 25 -40 28 -7 182 41 292 92 263 119 432 335 433 550 0 95
-10 104 -116 104 -55 0 -99 -7 -144 -23z m170 -96 c0 -46 -35 -146 -70 -200
-51 -81 -156 -172 -256 -223 -70 -36 -200 -88 -220 -88 -7 0 50 148 78 205
100 200 268 333 421 335 45 0 47 -1 47 -29z"/>
<path d="M4691 9808 c-10 -27 -11 -24 82 -205 64 -126 69 -133 97 -133 22 0
33 6 41 24 10 21 2 43 -68 178 -75 146 -80 153 -111 156 -26 3 -34 -1 -41 -20z"/>
<path d="M7690 9674 c-71 -136 -81 -160 -71 -180 11 -24 44 -32 67 -16 16 11
164 291 164 311 0 25 -20 41 -51 41 -25 0 -34 -13 -109 -156z"/>
<path d="M4232 9538 c-31 -31 -13 -54 127 -167 79 -63 148 -111 160 -111 25 0
48 40 35 63 -5 8 -49 48 -99 88 -49 39 -108 87 -129 105 -41 35 -73 43 -94 22z"/>
<path d="M8115 9443 c-71 -58 -134 -112 -139 -120 -13 -24 10 -63 36 -63 14 1
74 42 147 100 167 133 167 133 153 165 -22 47 -55 33 -197 -82z"/>
<path d="M5345 9385 c-52 -51 -16 -145 55 -145 40 0 90 47 90 85 0 16 -12 38
-29 56 -38 37 -82 39 -116 4z"/>
<path d="M7069 9397 c-21 -16 -39 -51 -39 -77 0 -32 53 -80 88 -80 71 0 111
99 59 148 -26 25 -82 29 -108 9z"/>
<path d="M5985 9143 c-487 -33 -1004 -243 -1385 -561 -479 -400 -796 -988
-875 -1622 -19 -160 -19 -440 0 -600 52 -418 190 -786 426 -1139 259 -386 578
-666 985 -862 334 -162 638 -229 1040 -229 l204 0 0 -28 c0 -16 -12 -159 -26
-318 -14 -159 -28 -340 -30 -401 -5 -141 -35 -317 -70 -413 -43 -119 -92 -220
-107 -220 -26 0 -57 -45 -57 -84 0 -50 36 -86 85 -86 66 0 107 71 75 130 -8
15 -4 33 20 80 17 34 46 107 65 163 27 81 38 103 55 105 15 3 20 11 20 37 0
19 -5 37 -11 41 -8 4 -9 25 -5 59 9 83 11 85 73 85 l55 0 -7 -43 c-16 -103
-17 -107 -35 -107 -24 0 -37 -60 -15 -76 21 -16 19 -42 -19 -188 -29 -112 -37
-131 -64 -152 -17 -13 -33 -37 -37 -53 -15 -70 61 -129 123 -97 16 8 32 23 36
31 10 26 7 90 -4 101 -8 8 -1 45 20 120 16 60 42 184 58 276 16 92 31 170 35
174 3 4 63 3 133 -1 l126 -7 -7 -107 c-7 -110 -43 -286 -78 -381 -11 -30 -35
-68 -53 -86 -27 -24 -34 -39 -34 -68 0 -81 92 -117 144 -55 29 34 31 51 15 97
-9 26 -7 45 15 109 33 104 56 195 56 228 0 18 6 29 20 32 15 4 20 14 20 38 0
18 -6 35 -13 38 -10 4 -12 18 -6 59 4 29 8 61 8 71 1 14 11 17 55 17 30 0 57
-4 60 -8 2 -4 2 -36 -1 -71 -5 -49 -10 -65 -23 -68 -26 -7 -35 -64 -14 -80 19
-14 16 -79 -13 -238 -14 -74 -21 -95 -45 -117 -58 -54 -21 -152 57 -152 69 0
105 71 70 138 -13 25 -13 38 0 110 17 94 55 401 55 446 0 30 0 30 58 30 31 0
88 -3 125 -7 l69 -6 -7 -121 c-7 -131 -24 -238 -56 -357 -16 -60 -27 -81 -50
-98 -24 -18 -29 -29 -29 -65 0 -55 30 -86 83 -86 66 0 103 63 74 125 -15 31
-14 38 8 120 14 48 30 124 37 168 9 61 16 81 29 84 19 5 35 55 24 73 -3 5 -13
10 -22 10 -14 0 -15 10 -10 65 4 36 8 69 11 73 2 4 29 5 60 4 54 -4 56 -5 56
-32 0 -58 -13 -120 -25 -120 -20 0 -26 -63 -7 -77 14 -11 13 -27 -2 -165 -16
-136 -21 -156 -43 -179 -14 -16 -27 -44 -30 -67 -7 -54 27 -92 85 -92 72 0
115 87 68 139 -17 19 -18 27 -7 96 7 41 17 123 22 182 15 178 28 305 31 307 2
1 56 0 122 -2 l118 -4 -6 -131 c-4 -73 -19 -194 -33 -271 -25 -128 -30 -142
-60 -172 -25 -25 -33 -42 -33 -68 0 -82 95 -122 146 -62 27 31 31 81 10 112
-13 18 -13 28 -1 75 16 58 43 205 47 254 2 22 9 31 26 33 18 3 22 10 22 39 0
27 -5 36 -21 40 -19 5 -21 11 -15 57 3 28 6 59 6 69 0 14 9 17 54 17 30 0 58
-5 61 -10 4 -6 3 -40 0 -75 -6 -53 -11 -65 -25 -65 -12 0 -20 -10 -24 -31 -7
-35 -1 -49 20 -49 18 0 19 -67 3 -212 -10 -89 -15 -107 -38 -131 -36 -39 -37
-110 -2 -138 56 -46 141 -6 141 66 0 20 -7 46 -15 59 -13 20 -14 37 -6 107 6
46 15 145 21 219 5 74 13 161 16 193 l6 58 115 -3 115 -3 -1 -130 c-3 -214
-36 -393 -82 -439 -38 -38 -40 -96 -4 -131 34 -35 78 -33 116 4 32 33 37 67
14 110 -13 25 -12 39 6 127 11 55 23 129 26 167 5 56 9 67 24 67 15 0 19 8 19
40 0 29 -4 40 -15 40 -12 0 -15 14 -15 70 l0 70 59 0 c33 0 62 -3 64 -7 2 -5
2 -36 -1 -70 -3 -45 -8 -63 -18 -63 -10 0 -14 -13 -14 -40 0 -30 4 -40 16 -40
13 0 14 -11 9 -82 -15 -192 -24 -238 -50 -270 -53 -63 -20 -148 58 -148 70 0
105 66 70 131 -17 30 -19 45 -12 85 4 27 13 150 20 274 9 168 16 229 27 242
11 14 28 137 32 236 0 8 19 12 58 12 119 0 200 45 236 131 9 20 18 73 22 118
l7 81 41 0 c71 0 118 19 168 69 70 70 74 93 98 561 61 1217 84 1781 75 1890
-18 228 -81 372 -193 438 l-47 27 -387 3 -387 3 -6 67 c-33 368 -99 636 -220
901 -419 913 -1345 1480 -2310 1414z m510 -112 c865 -151 1574 -783 1831
-1632 52 -173 104 -473 104 -601 l0 -38 -79 0 -78 0 -7 38 c-3 20 -6 56 -6 79
0 120 -70 430 -137 608 -263 698 -865 1217 -1578 1360 -372 75 -760 46 -1113
-81 -729 -264 -1245 -852 -1418 -1616 -183 -811 109 -1695 741 -2236 260 -223
564 -382 881 -463 198 -50 308 -62 551 -63 l221 0 -5 -75 c-3 -42 -10 -80 -14
-86 -13 -14 -407 -12 -519 3 -893 118 -1638 747 -1945 1643 -101 296 -151 667
-126 949 59 675 342 1247 821 1662 360 312 789 503 1267 563 155 20 453 13
608 -14z m-118 -246 c239 -31 432 -91 653 -201 568 -284 972 -812 1104 -1442
24 -116 46 -279 46 -346 l0 -35 -652 -3 -653 -3 -51 -27 c-101 -53 -184 -176
-224 -332 -17 -68 -42 -312 -95 -931 -49 -572 -88 -971 -95 -979 -18 -18 -357
-20 -496 -2 -764 97 -1417 611 -1708 1346 -161 407 -201 845 -115 1265 47 229
168 533 289 725 169 270 409 505 685 673 404 244 873 349 1312 292z m713
-2189 c-42 -80 -73 -201 -68 -262 2 -32 7 -40 26 -42 35 -5 49 13 56 72 10 91
44 181 91 245 l45 61 685 0 c377 0 685 -2 685 -5 0 -3 -11 -23 -25 -44 -33
-54 -61 -140 -76 -239 -11 -73 -11 -85 3 -99 27 -26 66 -10 72 30 26 180 49
248 111 316 l37 41 200 0 199 0 -30 -37 c-17 -21 -43 -67 -59 -103 -54 -119
-67 -198 -97 -575 -8 -104 -38 -464 -65 -800 -28 -335 -73 -895 -100 -1244
-27 -349 -52 -637 -56 -640 -7 -7 -350 -2 -376 5 -10 3 -18 17 -20 37 -3 29
-6 32 -38 32 -31 0 -35 -3 -40 -30 -4 -21 -12 -31 -27 -33 -19 -3 -1281 54
-1353 61 -20 2 -26 9 -30 37 -4 31 -8 35 -35 35 -25 0 -32 -5 -40 -33 l-10
-34 -95 7 c-256 16 -250 15 -250 40 0 25 85 993 145 1645 19 212 53 590 75
840 22 250 47 482 56 514 31 116 99 217 173 256 29 16 58 19 153 20 l116 0
-38 -74z m2249 16 c48 -49 78 -119 100 -230 22 -106 11 -441 -59 -1847 -31
-630 -26 -594 -90 -649 -25 -20 -42 -26 -81 -26 l-49 0 0 37 c0 21 11 202 25
403 26 379 107 1587 125 1863 11 171 7 197 -34 197 -36 0 -43 -17 -50 -125
-16 -250 -39 -604 -66 -1005 -16 -239 -43 -658 -60 -930 -43 -722 -39 -676
-64 -713 -30 -44 -60 -57 -135 -57 l-64 0 7 98 c4 53 30 372 57 707 27 336 65
804 84 1040 67 828 75 921 90 988 33 157 127 296 199 297 11 0 40 -21 65 -48z"/>
<path d="M6111 8646 c-8 -9 -11 -71 -9 -201 3 -166 5 -189 21 -199 12 -8 22
-8 35 0 15 10 17 33 20 199 3 194 -1 215 -38 215 -10 0 -23 -6 -29 -14z"/>
<path d="M5156 8325 c-23 -23 -21 -32 22 -105 29 -51 43 -66 64 -68 19 -2 30
3 38 18 9 18 5 32 -28 93 -41 76 -65 92 -96 62z"/>
<path d="M7087 8326 c-8 -8 -29 -44 -48 -79 -29 -56 -31 -67 -19 -81 27 -34
61 -16 102 54 42 74 44 83 22 104 -19 20 -38 20 -57 2z"/>
<path d="M7150 7628 c-350 -311 -678 -605 -793 -712 l-108 -99 -35 16 c-46 23
-111 21 -158 -2 l-38 -20 -133 102 c-73 56 -280 215 -460 352 -179 138 -334
251 -344 253 -24 4 -54 -32 -47 -55 4 -10 35 -39 69 -65 54 -40 239 -182 728
-556 l126 -97 -5 -62 c-4 -50 0 -70 18 -108 66 -136 262 -138 330 -4 21 41 26
112 10 153 -8 23 1 34 163 177 95 84 235 210 312 279 620 557 635 571 635 593
0 27 -17 47 -39 47 -9 0 -113 -86 -231 -192z m-975 -872 c35 -15 65 -59 65
-96 0 -59 -65 -117 -119 -105 -34 7 -77 51 -86 86 -10 40 18 97 57 114 41 18
42 18 83 1z"/>
<path d="M4512 7668 c-17 -17 -15 -53 6 -70 31 -27 110 -68 130 -68 11 0 23 7
26 16 15 38 5 52 -62 93 -74 45 -82 47 -100 29z"/>
<path d="M7668 7634 c-59 -36 -78 -65 -58 -89 19 -23 50 -18 109 18 64 38 81
60 65 85 -18 28 -55 23 -116 -14z"/>
<path d="M4216 6704 c-9 -8 -16 -23 -16 -33 0 -37 18 -41 210 -41 131 0 190 4
198 12 18 18 14 56 -7 68 -12 6 -93 10 -195 10 -145 0 -177 -3 -190 -16z"/>
<path d="M4563 5713 c-53 -31 -63 -42 -63 -65 0 -42 28 -52 76 -26 85 44 104
60 104 82 0 26 -17 46 -39 46 -9 0 -44 -17 -78 -37z"/>
<path d="M5212 5106 c-10 -14 -32 -49 -48 -80 -28 -54 -28 -55 -10 -75 35 -38
51 -26 107 76 33 60 33 62 15 82 -25 27 -40 26 -64 -3z"/>
<path d="M6106 5015 c-3 -9 -6 -97 -6 -195 0 -194 4 -209 55 -196 l25 6 -2
198 -3 197 -31 3 c-22 2 -33 -2 -38 -13z"/>
<path d="M7665 6158 c-208 -213 -208 -214 -201 -242 5 -20 13 -26 34 -26 22 0
51 25 150 130 68 72 127 130 131 130 3 0 54 -63 111 -140 57 -77 113 -143 123
-146 23 -7 47 13 47 40 0 13 -48 85 -111 166 -141 185 -145 190 -167 190 -9 0
-62 -46 -117 -102z"/>
<path d="M7002 6118 c-11 -14 -33 -243 -25 -264 10 -28 66 -28 76 0 3 7 9 66
13 130 5 87 4 119 -6 131 -15 18 -44 20 -58 3z"/>
<path d="M8491 6091 c-20 -13 -39 -255 -21 -276 15 -19 44 -20 59 -2 17 22 35
255 21 272 -14 17 -38 19 -59 6z"/>
<path d="M7587 5712 c-81 -82 -147 -155 -147 -163 0 -8 5 -20 12 -27 29 -29
56 -12 171 108 62 66 117 120 121 120 3 0 51 -61 107 -135 98 -133 120 -150
147 -123 21 21 13 51 -24 98 -20 25 -74 96 -121 158 -50 67 -91 112 -102 112
-9 0 -83 -67 -164 -148z"/>
<path d="M6968 5658 c-22 -17 -45 -253 -27 -274 16 -20 57 -17 68 4 17 32 26
249 11 267 -15 18 -31 19 -52 3z"/>
<path d="M8452 5617 c-10 -11 -32 -190 -32 -255 0 -15 9 -27 26 -34 23 -11 29
-10 44 9 22 28 38 256 19 279 -14 18 -43 18 -57 1z"/>
<path d="M7604 5348 c-113 -116 -361 -382 -397 -427 -16 -19 -26 -40 -22 -49
3 -8 98 -140 212 -293 179 -241 211 -279 234 -279 21 0 74 50 275 261 143 150
250 269 252 282 2 15 -57 103 -198 292 -237 320 -225 305 -248 305 -9 0 -58
-42 -108 -92z m266 -229 c85 -116 163 -224 174 -240 l18 -29 -76 -83 c-42 -45
-138 -147 -214 -225 l-137 -144 -155 208 c-85 114 -165 223 -178 241 l-23 34
193 205 c106 113 200 214 208 224 8 11 20 19 25 19 6 0 80 -94 165 -210z"/>
<path d="M7566 4998 c-59 -63 -96 -111 -96 -124 0 -31 160 -238 186 -242 16
-2 46 23 120 103 55 58 100 112 102 119 2 7 -36 65 -83 130 -67 90 -92 116
-110 116 -16 0 -51 -30 -119 -102z m164 -65 c23 -31 44 -61 46 -67 4 -11 -112
-134 -119 -125 -2 2 -25 33 -52 67 l-48 64 59 59 c32 32 61 59 65 59 3 0 25
-26 49 -57z"/>
<path d="M6928 5193 c-19 -22 -40 -239 -26 -265 10 -21 51 -24 66 -5 5 6 13
57 17 112 3 55 9 108 11 117 5 16 -27 58 -44 58 -5 0 -16 -8 -24 -17z"/>
<path d="M8406 5142 c-9 -15 -28 -241 -21 -261 13 -41 70 -32 80 12 3 12 6 74
8 137 l2 115 -32 3 c-17 2 -34 -1 -37 -6z"/>
<path d="M6882 4727 c-6 -7 -14 -69 -18 -139 -7 -124 -6 -126 16 -138 42 -22
57 9 68 140 6 70 6 122 0 133 -10 20 -51 23 -66 4z"/>
<path d="M8379 4680 c-12 -7 -18 -32 -23 -97 -4 -49 -9 -106 -12 -129 -8 -60
33 -96 69 -59 11 10 17 51 22 141 7 117 6 128 -11 141 -21 15 -24 15 -45 3z"/>
<path d="M7327 4283 c-21 -20 3 -65 118 -217 101 -133 131 -166 150 -166 17 0
60 39 167 151 79 82 144 157 146 165 5 20 -16 44 -39 44 -10 0 -74 -56 -144
-127 l-125 -128 -23 26 c-12 14 -62 78 -110 142 -67 90 -93 117 -111 117 -12
0 -26 -3 -29 -7z"/>
<path d="M6840 4261 c-5 -11 -11 -77 -12 -148 l-3 -128 26 -3 c14 -2 31 3 37
10 14 18 31 236 21 266 -11 28 -54 30 -69 3z"/>
<path d="M8332 4198 c-6 -7 -15 -67 -22 -132 -10 -113 -10 -121 8 -139 16 -15
23 -17 41 -8 27 15 31 33 34 171 l2 115 -26 3 c-14 2 -31 -3 -37 -10z"/>
<path d="M7285 3914 c-8 -9 -15 -22 -15 -30 0 -14 217 -310 254 -347 10 -9 27
-17 39 -17 30 0 327 297 327 326 0 24 -18 44 -39 44 -9 0 -77 -61 -152 -136
l-136 -136 -60 78 c-33 44 -84 111 -112 149 -58 77 -82 93 -106 69z"/>
<path d="M6806 3788 c-10 -16 -16 -60 -18 -148 l-3 -125 26 -3 c14 -2 31 3 37
10 16 20 35 244 22 268 -14 27 -46 25 -64 -2z"/>
<path d="M8297 3733 c-11 -13 -18 -54 -25 -137 -6 -65 -8 -125 -5 -132 8 -21
34 -25 58 -10 19 12 23 27 28 98 12 143 9 176 -12 188 -25 13 -25 13 -44 -7z"/>
<path d="M2288 8928 c-24 -19 -162 -272 -233 -428 -195 -426 -320 -857 -394
-1360 -7 -52 -6 -70 5 -87 16 -26 65 -32 82 -10 5 6 15 50 21 97 80 567 276
1145 554 1636 49 86 56 105 48 126 -14 37 -53 49 -83 26z"/>
<path d="M10176 8918 c-9 -12 -16 -26 -16 -31 0 -5 29 -61 66 -123 241 -421
400 -855 504 -1374 21 -107 42 -224 45 -260 4 -36 14 -73 23 -82 20 -24 55
-23 77 2 17 18 17 25 1 137 -51 356 -151 736 -288 1088 -47 124 -212 459 -285
580 -42 70 -52 80 -80 83 -23 2 -35 -3 -47 -20z"/>
<path d="M1623 6635 c-38 -16 -63 -60 -63 -111 0 -49 53 -104 102 -104 42 0
96 32 108 66 25 66 3 125 -56 150 -41 17 -50 17 -91 -1z"/>
<path d="M10835 6640 c-112 -46 -81 -220 40 -220 58 0 115 55 115 110 0 78
-86 139 -155 110z"/>
<path d="M1659 5969 c-13 -26 -7 -91 27 -304 97 -599 360 -1258 702 -1760 100
-148 140 -195 163 -195 21 0 59 33 59 53 0 6 -37 64 -81 127 -282 403 -501
868 -638 1358 -60 212 -110 459 -130 641 -5 50 -14 87 -23 92 -25 16 -67 10
-79 -12z"/>
<path d="M10802 5973 c-5 -10 -13 -49 -17 -88 -23 -234 -103 -588 -194 -865
-128 -386 -327 -799 -541 -1120 -31 -47 -60 -94 -63 -104 -10 -26 18 -66 46
-66 31 0 47 15 94 85 404 607 671 1312 758 2002 19 153 15 173 -40 173 -23 0
-37 -6 -43 -17z"/>
<path d="M4009 4778 c-9 -7 -21 -40 -26 -73 -31 -171 -139 -315 -266 -356 -55
-17 -67 -27 -67 -54 0 -28 15 -40 59 -49 48 -9 125 -60 165 -110 60 -74 88
-143 120 -298 4 -15 15 -29 26 -33 37 -12 54 9 66 84 14 80 59 184 106 243 38
48 102 91 169 113 29 10 50 24 54 35 8 24 -11 60 -30 60 -30 0 -107 43 -155
87 -60 54 -123 175 -144 277 -17 82 -40 104 -77 74z m116 -365 c15 -19 51 -54
80 -76 l53 -41 -45 -30 c-56 -37 -126 -124 -154 -192 l-22 -51 -34 67 c-33 67
-99 145 -158 188 -29 21 -29 22 -10 34 53 31 136 124 167 187 l33 68 32 -59
c17 -32 44 -75 58 -95z"/>
<path d="M3257 4676 c-111 -40 -184 -131 -213 -264 -18 -86 -18 -135 2 -230
51 -257 282 -512 573 -633 145 -60 248 -81 438 -86 204 -6 264 1 543 67 276
65 335 73 482 67 208 -8 341 -60 463 -180 94 -94 137 -179 143 -288 6 -105
-16 -176 -71 -233 -55 -57 -112 -76 -170 -55 -75 26 -101 121 -35 131 15 2 24
11 26 26 8 56 -57 70 -109 24 -24 -21 -32 -38 -36 -74 -7 -60 1 -89 33 -128
51 -60 141 -89 218 -69 97 24 182 110 216 218 91 288 -124 600 -480 695 -39
11 -119 20 -200 23 -152 6 -264 -10 -511 -72 -208 -53 -309 -68 -459 -68 -327
-1 -588 106 -797 326 -194 206 -248 479 -126 645 34 45 67 64 132 77 51 10 56
14 59 40 6 52 -43 68 -121 41z"/>
<path d="M9709 3463 c-8 -2 -74 -67 -145 -145 -120 -131 -265 -271 -427 -412
-53 -47 -67 -64 -67 -87 0 -39 39 -66 72 -48 87 46 554 504 622 611 30 46 -1
92 -55 81z"/>
<path d="M2797 3442 c-31 -34 -20 -59 76 -165 289 -319 645 -625 992 -850 525
-341 1136 -574 1748 -668 70 -11 79 -10 97 6 25 22 26 57 3 77 -10 9 -65 23
-123 33 -639 103 -1275 367 -1818 755 -297 212 -600 478 -812 714 -109 121
-131 134 -163 98z"/>
<path d="M3642 3298 c-17 -17 -15 -42 6 -60 21 -18 157 -80 227 -102 252 -80
478 -81 850 -4 153 31 225 41 305 42 111 1 130 6 130 35 0 66 -143 70 -437 11
-340 -68 -543 -73 -748 -19 -86 22 -216 71 -252 95 -27 17 -65 18 -81 2z"/>
<path d="M8033 2214 c-282 -134 -713 -268 -1071 -334 -68 -13 -130 -29 -138
-37 -29 -29 -7 -93 32 -93 35 0 258 44 403 80 293 73 519 149 775 263 149 67
169 85 148 132 -16 35 -59 32 -149 -11z"/>
<path d="M6209 1875 c-49 -27 -70 -121 -36 -165 58 -76 179 -61 207 26 35 104
-73 192 -171 139z"/>
</g>
</svg>
