<svg version="1.0" xmlns="http://www.w3.org/2000/svg"
 width="1254.000000pt" height="1254.000000pt" viewBox="0 0 1254.000000 1254.000000"
 preserveAspectRatio="xMidYMid meet">
<metadata>
Created by potrace 1.16, written by Peter Selinger 2001-2019
</metadata>
<g transform="translate(0.000000,1254.000000) scale(0.100000,-0.100000)"
fill="#000000" stroke="none">
<path d="M6656 10674 c-14 -14 -16 -69 -16 -458 0 -330 3 -445 12 -454 17 -17
74 -15 92 4 14 14 16 69 16 453 0 412 -1 439 -18 454 -23 21 -66 22 -86 1z"/>
<path d="M3358 10283 c-9 -12 -19 -61 -26 -138 -15 -151 -42 -255 -96 -371
-150 -318 -408 -515 -726 -555 -91 -11 -120 -27 -120 -66 0 -40 33 -63 93 -63
84 0 214 -36 322 -90 297 -148 486 -437 528 -808 14 -117 21 -132 63 -132 45
0 57 22 65 121 29 365 223 668 524 817 104 52 201 81 295 88 89 7 120 23 120
62 0 50 -18 62 -111 72 -307 35 -571 225 -718 517 -65 130 -110 304 -111 430
0 64 -13 112 -33 125 -21 13 -53 9 -69 -9z m77 -528 c103 -253 291 -455 530
-566 l67 -32 -103 -53 c-121 -64 -183 -109 -273 -200 -99 -100 -203 -266 -250
-398 -5 -15 -21 10 -69 105 -123 246 -261 388 -493 503 l-86 43 75 36 c206 97
367 254 480 467 24 47 53 107 62 133 10 26 21 44 25 40 3 -4 19 -39 35 -78z"/>
<path d="M8069 10278 c-36 -42 -501 -653 -506 -666 -10 -23 8 -63 32 -72 35
-13 64 2 105 58 42 56 304 399 407 531 40 52 73 102 73 113 0 26 -36 58 -66
58 -14 0 -34 -10 -45 -22z"/>
<path d="M5330 10183 c-8 -3 -21 -12 -27 -21 -24 -30 -14 -62 35 -115 27 -29
133 -149 237 -267 103 -118 202 -232 221 -252 22 -26 41 -38 58 -38 30 0 66
32 66 59 0 10 -99 133 -221 272 -348 400 -325 378 -369 362z"/>
<path d="M5116 9245 c-56 -52 -14 -145 65 -145 32 0 79 53 79 90 0 71 -89 106
-144 55z"/>
<path d="M8535 9088 c-49 -5 -304 -29 -565 -53 -261 -25 -565 -54 -675 -65
-167 -17 -1102 -105 -2010 -190 -125 -12 -252 -29 -294 -41 -175 -47 -323
-159 -435 -327 -129 -194 -160 -293 -281 -891 -381 -1891 -589 -2703 -844
-3290 -23 -52 -41 -105 -41 -117 0 -12 12 -32 26 -43 l26 -21 -41 -129 c-22
-71 -41 -134 -41 -141 0 -29 -130 -272 -210 -391 -122 -184 -203 -279 -236
-279 -15 0 -38 -12 -55 -29 -23 -23 -29 -38 -29 -71 0 -33 6 -48 29 -71 62
-62 171 -20 171 66 0 30 10 48 58 104 122 141 249 338 328 506 l45 97 55 -4
c30 -3 56 -7 59 -9 8 -9 -34 -167 -69 -257 -41 -106 -71 -169 -139 -284 -43
-74 -55 -87 -82 -92 -90 -17 -114 -150 -34 -191 36 -19 63 -19 99 0 36 19 50
43 50 89 0 26 13 55 49 108 102 152 182 338 224 525 14 61 32 121 40 134 8 13
36 78 63 144 26 66 51 124 56 129 9 11 389 -22 409 -35 13 -7 -41 -225 -84
-339 -63 -169 -173 -370 -287 -524 -51 -68 -69 -85 -95 -90 -95 -18 -113 -159
-26 -196 70 -28 141 17 141 90 0 30 12 51 65 119 114 145 211 315 286 500 l38
95 53 -3 c29 -1 56 -6 60 -9 10 -10 -28 -171 -69 -295 -20 -59 -64 -160 -98
-225 -54 -103 -65 -118 -95 -128 -117 -39 -101 -204 20 -204 61 0 100 41 100
105 0 36 7 57 31 91 82 120 171 349 210 541 12 60 32 131 44 158 12 28 42 101
66 163 l43 113 41 -6 c22 -3 132 -15 245 -26 113 -11 206 -22 208 -24 5 -5
-69 -295 -91 -355 -54 -147 -191 -396 -298 -540 -47 -64 -64 -80 -85 -80 -15
0 -38 -12 -55 -29 -65 -66 -20 -176 72 -176 54 0 99 47 99 101 0 28 11 50 49
98 110 139 245 374 312 545 l32 83 54 -4 c29 -3 56 -8 60 -11 9 -10 -12 -123
-43 -232 -38 -131 -112 -298 -184 -412 -8 -12 -27 -25 -41 -28 -79 -18 -107
-118 -50 -176 66 -66 171 -20 171 75 0 36 8 58 41 108 88 137 172 353 204 529
18 102 20 108 93 314 44 124 52 140 74 143 24 3 418 -35 424 -41 5 -4 -51
-262 -72 -337 -51 -178 -164 -417 -274 -579 -57 -83 -70 -97 -108 -109 -47
-15 -82 -58 -82 -100 0 -31 26 -79 49 -92 29 -15 88 -12 116 6 26 17 50 76 41
100 -4 10 6 30 26 52 49 56 121 171 182 292 57 111 138 308 151 367 9 43 16
46 82 38 l55 -7 -7 -46 c-29 -202 -85 -388 -170 -557 -51 -102 -64 -121 -89
-127 -61 -15 -91 -78 -66 -139 28 -66 109 -81 161 -30 24 24 29 38 29 76 0 31
7 57 21 76 35 49 115 229 147 329 34 106 68 260 82 365 8 62 96 341 117 372 6
8 64 5 231 -12 123 -12 226 -25 229 -28 3 -3 -7 -64 -21 -135 -14 -72 -26
-142 -26 -156 0 -33 -70 -251 -117 -366 -85 -205 -210 -420 -245 -420 -30 0
-56 -18 -73 -50 -22 -43 -19 -84 10 -118 62 -74 175 -33 175 62 0 26 15 58 54
118 105 161 213 405 272 610 l28 97 60 -6 c34 -3 63 -8 65 -10 8 -6 -19 -200
-41 -303 -24 -113 -84 -298 -127 -392 -26 -59 -35 -70 -71 -84 -95 -38 -92
-162 4 -194 65 -21 126 25 126 97 0 31 13 70 44 136 84 173 156 441 172 639 3
40 23 129 44 198 21 69 47 151 56 183 l18 59 36 -6 c68 -11 79 -1 131 108 111
237 200 491 270 774 l43 172 91 0 c174 0 275 39 347 135 48 64 66 119 81 247
l12 103 55 3 c134 7 217 65 271 186 16 37 30 131 65 439 24 216 44 397 44 403
0 7 26 13 63 16 126 10 224 80 265 189 15 42 41 241 111 874 118 1063 117
1050 102 1186 -34 316 -182 538 -396 594 -64 16 -149 17 -290 3z m325 -149
c128 -68 214 -228 241 -449 16 -122 11 -183 -71 -919 -33 -295 -74 -659 -90
-809 -18 -161 -35 -283 -44 -300 -33 -63 -96 -102 -165 -102 -36 0 -37 1 -34
33 2 17 31 275 63 572 33 297 79 707 101 910 23 204 42 422 43 485 1 110 0
117 -28 168 -42 76 -96 106 -177 100 -67 -5 -97 -22 -146 -87 -52 -67 -70
-150 -108 -481 -81 -710 -125 -1106 -144 -1280 -139 -1277 -193 -1753 -206
-1795 -18 -62 -72 -118 -134 -140 -47 -16 -221 -21 -221 -6 0 5 7 42 15 82
109 554 337 2034 465 3024 27 215 60 435 71 490 90 429 322 636 569 504z
m-501 -41 c-104 -132 -180 -353 -214 -618 -117 -922 -312 -2239 -441 -2975
-120 -686 -190 -961 -327 -1300 -83 -204 -95 -225 -126 -225 -33 0 -604 60
-608 64 -2 1 15 56 37 121 22 66 40 126 40 134 0 40 -73 69 -97 39 -6 -7 -29
-70 -52 -139 -24 -69 -46 -130 -49 -136 -7 -10 -23 -9 -1252 122 -393 42 -743
79 -777 82 -35 3 -63 8 -63 11 0 2 20 67 45 144 25 77 45 151 45 164 0 14 -10
30 -26 41 -23 15 -29 15 -52 2 -21 -12 -34 -41 -74 -169 -28 -85 -53 -159 -58
-163 -6 -7 -638 51 -747 69 l-32 5 26 57 c37 83 114 287 166 442 177 522 398
1466 707 3023 27 137 59 281 71 320 78 263 225 470 397 560 114 60 137 64 540
101 23 2 42 2 42 0 0 -2 -20 -35 -46 -74 -67 -104 -120 -234 -108 -267 5 -14
18 -29 30 -34 39 -14 65 11 105 105 46 108 91 178 157 242 l50 49 353 33 c195
19 610 58 923 88 313 30 570 54 571 54 1 0 -16 -34 -37 -76 -52 -105 -83 -210
-69 -240 12 -27 51 -40 78 -25 13 6 31 45 52 109 33 102 87 196 131 230 20 15
61 23 210 37 102 9 239 23 305 30 66 7 141 13 168 14 l47 1 -41 -52z m396
-405 c26 -26 35 -59 35 -132 0 -37 -32 -349 -70 -692 -39 -343 -108 -975 -155
-1404 -47 -429 -89 -797 -95 -818 -15 -52 -71 -111 -118 -125 -48 -14 -92 -15
-92 -2 0 5 14 130 30 277 17 147 46 414 65 593 125 1162 241 2163 256 2212 18
57 65 108 99 108 16 0 36 -7 45 -17z m-5048 -4467 c2 -2 -15 -49 -38 -105
l-41 -101 -47 0 c-95 0 -94 -3 -54 117 l36 106 70 -6 c38 -3 71 -8 74 -11z
m781 -82 c17 -3 32 -8 31 -12 0 -4 -17 -50 -38 -102 l-37 -95 -62 1 c-34 1
-64 3 -67 6 -5 4 3 38 36 151 l20 67 42 -5 c23 -4 57 -8 75 -11z m918 -97 c4
-3 -11 -54 -32 -113 l-38 -106 -63 5 c-35 2 -66 6 -68 8 -3 4 39 188 49 214 4
11 141 4 152 -8z m839 -89 c3 -2 -11 -52 -31 -111 l-36 -107 -46 0 c-26 0 -56
3 -68 6 l-21 5 24 102 c13 56 25 107 27 112 4 11 140 4 151 -7z m833 -84 c17
-3 32 -10 32 -15 0 -6 -14 -58 -32 -116 l-32 -105 -66 6 c-36 4 -68 10 -71 14
-4 4 2 48 12 97 30 146 22 133 76 128 27 -2 63 -6 81 -9z"/>
<path d="M6340 8352 c-15 -5 -478 -417 -492 -437 -29 -39 15 -104 60 -88 11 5
115 92 231 196 116 103 213 187 215 187 3 0 75 -85 161 -189 86 -104 163 -192
171 -195 38 -15 90 36 76 74 -5 12 -279 349 -347 426 -22 25 -52 35 -75 26z"/>
<path d="M7367 8343 c-22 -26 -62 -294 -47 -322 15 -29 62 -32 89 -6 13 13 49
220 51 287 0 51 -59 78 -93 41z"/>
<path d="M5261 8123 c-14 -13 -30 -59 -56 -162 -33 -133 -35 -145 -20 -167 19
-29 65 -32 87 -6 14 17 78 261 78 300 0 21 -34 52 -56 52 -7 0 -21 -8 -33 -17z"/>
<path d="M7290 7810 c-11 -11 -20 -28 -21 -37 0 -10 -8 -73 -18 -141 -20 -141
-15 -165 35 -170 48 -5 60 19 78 154 9 66 16 134 16 151 0 58 -51 82 -90 43z"/>
<path d="M6179 7717 c-31 -28 -145 -132 -253 -231 -176 -160 -196 -182 -196
-210 0 -39 15 -56 52 -56 22 0 73 41 250 204 153 140 227 201 234 195 7 -5 80
-97 164 -204 133 -170 157 -195 181 -195 15 0 35 7 43 16 36 35 20 62 -168
299 -170 214 -185 230 -217 232 -29 2 -43 -5 -90 -50z"/>
<path d="M5136 7595 c-13 -10 -27 -53 -47 -146 -36 -163 -36 -184 -5 -204 28
-18 69 -7 80 22 12 30 56 254 56 284 0 17 -8 34 -22 43 -27 19 -38 20 -62 1z"/>
<path d="M7220 7282 c-18 -15 -26 -39 -41 -138 -23 -147 -23 -178 -3 -198 21
-21 57 -20 76 2 10 10 24 70 37 154 25 166 25 154 1 178 -25 25 -41 25 -70 2z"/>
<path d="M6082 7117 c-727 -679 -754 -706 -754 -739 0 -17 55 -97 178 -259 99
-129 221 -290 273 -359 103 -138 124 -160 152 -160 20 0 253 206 629 556 156
145 210 201 210 218 0 15 -66 113 -173 257 -255 346 -389 523 -401 531 -27 19
-60 6 -114 -45z m158 -200 c41 -56 146 -198 233 -315 87 -117 157 -217 155
-222 -2 -5 -39 -42 -84 -82 -45 -40 -179 -163 -299 -273 -120 -110 -239 -218
-263 -240 l-45 -39 -23 29 c-12 17 -120 158 -239 315 l-216 285 63 60 c313
294 629 585 635 584 5 0 42 -46 83 -102z"/>
<path d="M5916 6564 c-86 -80 -161 -154 -166 -165 -8 -13 -7 -25 0 -39 22 -41
223 -302 237 -307 25 -10 55 12 216 157 125 114 157 147 157 168 0 17 -34 71
-102 161 -57 75 -111 143 -120 153 -37 37 -60 24 -222 -128z m242 -88 c34 -46
62 -87 61 -92 -1 -9 -184 -177 -199 -182 -5 -2 -38 36 -75 84 l-66 88 23 21
c122 115 178 165 185 165 5 0 37 -38 71 -84z"/>
<path d="M5017 7056 c-9 -9 -21 -42 -27 -74 -7 -31 -20 -95 -30 -142 -17 -76
-17 -88 -4 -107 18 -28 64 -31 87 -5 23 25 75 298 61 320 -15 23 -67 27 -87 8z"/>
<path d="M7136 6754 c-18 -18 -20 -25 -41 -160 -21 -141 -20 -160 10 -180 27
-18 60 -12 74 14 9 18 51 254 51 289 0 44 -63 69 -94 37z"/>
<path d="M4913 6534 c-16 -7 -28 -47 -58 -193 -23 -113 -24 -126 -9 -142 25
-27 52 -30 79 -6 19 18 29 47 49 151 14 71 26 137 26 147 0 36 -46 59 -87 43z"/>
<path d="M7049 6224 c-7 -9 -23 -79 -36 -157 -20 -127 -21 -144 -7 -164 8 -13
25 -23 37 -23 49 0 58 19 84 169 22 131 22 145 8 167 -18 28 -65 33 -86 8z"/>
<path d="M4792 5998 c-5 -7 -24 -80 -42 -162 l-33 -150 27 -23 c34 -29 41 -29
69 0 18 17 30 55 52 160 33 161 29 187 -29 187 -18 0 -38 -6 -44 -12z"/>
<path d="M6967 5698 c-18 -18 -27 -52 -46 -166 -23 -137 -23 -143 -6 -162 21
-23 67 -26 84 -6 10 12 61 266 61 303 0 18 -37 53 -55 53 -9 0 -26 -10 -38
-22z"/>
<path d="M5415 5626 c-14 -14 -25 -31 -25 -39 0 -11 233 -324 371 -499 53 -67
55 -65 351 187 145 124 269 237 276 251 12 21 11 29 -2 49 -21 32 -52 40 -79
22 -12 -9 -123 -103 -247 -210 -124 -107 -228 -193 -232 -190 -5 2 -83 103
-174 224 -92 120 -170 219 -175 219 -4 0 -14 3 -23 6 -9 3 -26 -5 -41 -20z"/>
<path d="M4689 5471 c-15 -12 -29 -50 -50 -141 -34 -151 -36 -186 -10 -200 29
-15 56 -12 73 8 9 9 30 80 47 156 28 124 30 142 17 161 -20 30 -52 37 -77 16z"/>
<path d="M6872 5173 c-16 -14 -27 -51 -48 -156 -31 -162 -27 -187 30 -187 18
0 38 6 44 13 10 13 62 255 62 292 0 25 -29 55 -52 55 -9 0 -25 -8 -36 -17z"/>
<path d="M5297 5082 c-10 -10 -17 -29 -17 -43 0 -20 220 -328 375 -526 38 -48
62 -43 147 29 40 34 116 99 168 143 229 194 305 261 313 270 16 22 2 69 -25
84 -34 19 -29 23 -312 -219 -119 -102 -220 -186 -224 -188 -5 -1 -78 91 -162
205 -84 115 -165 220 -179 236 -29 31 -61 35 -84 9z"/>
<path d="M4566 4947 c-26 -19 -92 -291 -78 -321 13 -29 43 -37 74 -22 19 9 28
33 55 136 48 186 47 176 24 199 -24 24 -49 27 -75 8z"/>
<path d="M6763 4652 c-11 -10 -32 -76 -52 -159 -34 -139 -34 -143 -16 -163 21
-23 57 -26 78 -6 15 15 77 248 77 290 0 50 -53 73 -87 38z"/>
<path d="M10025 8053 c-77 -19 -84 -128 -11 -158 27 -11 41 -12 66 -3 66 23
72 121 9 153 -29 16 -31 16 -64 8z"/>
<path d="M2582 7584 c-13 -9 -22 -26 -22 -40 0 -60 -34 -186 -71 -261 -80
-165 -209 -268 -368 -294 -64 -10 -81 -23 -81 -58 0 -43 20 -59 85 -70 89 -14
163 -45 226 -96 106 -84 191 -242 205 -384 7 -66 20 -83 60 -83 39 0 54 22 64
95 35 241 205 430 423 467 74 13 97 29 97 65 0 32 -23 53 -68 60 -173 30 -307
132 -385 297 -48 100 -67 164 -67 226 0 44 -31 92 -59 92 -9 0 -27 -7 -39 -16z
m74 -384 c43 -83 131 -182 208 -235 l56 -38 -61 -39 c-33 -21 -83 -62 -110
-90 -50 -52 -119 -155 -119 -177 0 -25 -17 -7 -49 52 -40 73 -158 195 -218
226 -24 12 -43 25 -43 29 0 4 17 16 38 27 66 35 174 153 217 237 22 43 41 78
42 78 1 0 18 -31 39 -70z"/>
<path d="M10065 7125 c-22 -21 -25 -33 -25 -102 -1 -192 -88 -439 -214 -601
-151 -196 -380 -328 -606 -349 -78 -7 -98 -16 -111 -50 -7 -19 -6 -31 5 -48
12 -18 28 -24 88 -29 153 -15 278 -60 407 -147 187 -125 332 -323 395 -543 23
-78 28 -107 41 -255 5 -62 18 -81 52 -81 51 0 60 14 67 100 23 273 121 488
305 670 145 143 312 225 510 252 101 13 121 24 121 68 0 37 -32 60 -85 60 -65
0 -201 37 -290 79 -322 151 -517 448 -556 844 -9 100 -15 125 -31 140 -27 23
-44 22 -73 -8z m80 -524 c103 -251 291 -451 530 -563 l65 -30 -80 -39 c-226
-109 -392 -282 -510 -532 l-47 -99 -17 49 c-92 248 -290 464 -536 582 l-80 39
65 30 c247 116 452 341 550 605 10 26 20 45 23 43 2 -3 19 -41 37 -85z"/>
<path d="M2365 5775 c-29 -28 -31 -42 -9 -73 l15 -22 449 0 c485 0 480 -1 480
53 -1 66 -10 67 -485 67 l-426 0 -24 -25z"/>
<path d="M2840 4901 c-251 -122 -307 -153 -314 -174 -12 -34 15 -77 48 -77 25
0 590 271 619 297 32 29 16 84 -28 97 -14 4 -118 -42 -325 -143z"/>
<path d="M9228 4758 c-28 -23 -31 -54 -6 -81 27 -30 597 -337 625 -337 46 0
71 72 36 102 -31 27 -601 328 -620 328 -11 0 -26 -6 -35 -12z"/>
<path d="M8621 4336 c-7 -8 -17 -44 -22 -81 -24 -172 -107 -298 -239 -365 -33
-17 -81 -33 -107 -37 -110 -15 -113 -106 -4 -124 150 -23 272 -130 327 -288
13 -36 24 -85 24 -109 0 -32 6 -49 25 -67 50 -51 88 -21 104 85 31 194 175
355 338 376 57 8 83 28 83 64 0 35 -25 56 -79 64 -169 26 -309 185 -344 395
-8 46 -21 87 -28 92 -22 14 -65 11 -78 -5z m157 -449 c26 -27 62 -57 80 -68
17 -12 32 -24 32 -27 -1 -4 -26 -24 -56 -45 -53 -37 -136 -137 -155 -184 -5
-13 -11 -23 -14 -23 -2 0 -14 19 -26 42 -26 51 -120 151 -173 185 l-38 25 49
33 c61 41 114 99 154 170 l31 55 35 -57 c19 -32 55 -80 81 -106z"/>
<path d="M2515 3888 c-32 -19 -44 -41 -45 -80 0 -75 86 -104 142 -48 25 26 29
36 24 63 -4 18 -14 40 -24 49 -23 23 -72 31 -97 16z"/>
</g>
</svg>
