<svg version="1.0" xmlns="http://www.w3.org/2000/svg"
 width="1254.000000pt" height="1254.000000pt" viewBox="0 0 1254.000000 1254.000000"
 preserveAspectRatio="xMidYMid meet">
<metadata>
Created by potrace 1.16, written by Peter Selinger 2001-2019
</metadata>
<g transform="translate(0.000000,1254.000000) scale(0.100000,-0.100000)"
fill="#000000" stroke="none">
<path d="M5931 10730 c-358 -21 -757 -99 -1081 -212 -110 -38 -126 -47 -134
-71 -8 -23 -6 -31 12 -49 l21 -22 178 57 c261 83 424 121 668 157 393 58 813
51 1215 -20 282 -50 638 -157 897 -270 76 -33 148 -60 159 -60 29 0 46 23 42
57 -4 32 -40 52 -253 138 -552 222 -1166 327 -1724 295z"/>
<path d="M4204 10270 c-32 -13 -54 -50 -54 -91 0 -29 7 -43 31 -63 35 -30 58
-32 98 -11 34 17 55 62 46 98 -13 51 -76 86 -121 67z"/>
<path d="M8245 10218 c-52 -30 -62 -102 -20 -143 46 -47 134 -22 149 41 19 72
-65 138 -129 102z"/>
<path d="M10035 10146 c-457 -117 -652 -202 -824 -362 -132 -121 -217 -270
-265 -459 -16 -65 -36 -247 -36 -334 0 -48 -8 -70 -65 -178 -67 -128 -71 -151
-30 -167 27 -10 51 11 83 71 16 32 41 66 53 75 36 27 118 52 299 93 165 37
329 89 405 127 193 99 373 279 481 482 81 153 149 395 170 607 7 69 -7 99 -44
99 -9 0 -111 -25 -227 -54z m175 -85 c0 -16 -9 -74 -20 -130 -88 -437 -324
-743 -678 -877 -48 -18 -139 -45 -202 -60 -63 -14 -157 -37 -209 -50 -52 -13
-97 -22 -100 -19 -10 11 42 97 74 121 16 13 64 49 106 81 42 32 165 132 273
222 197 166 216 187 184 219 -7 7 -20 12 -30 12 -10 0 -125 -89 -255 -198
-131 -108 -262 -214 -290 -235 l-53 -37 0 40 c0 57 27 182 56 259 38 102 100
197 178 276 163 164 350 252 762 359 93 25 177 45 187 45 12 1 17 -7 17 -28z"/>
<path d="M3363 9918 c-5 -7 -15 -46 -21 -86 -31 -187 -147 -305 -334 -336 -65
-11 -74 -15 -82 -39 -14 -39 10 -58 86 -69 175 -23 297 -148 329 -333 13 -79
22 -95 53 -95 37 0 47 15 57 86 25 180 139 305 305 335 101 18 109 22 112 52
5 40 -11 54 -71 61 -120 15 -227 78 -284 169 -32 51 -63 141 -63 183 0 57 -16
84 -49 84 -15 0 -33 -6 -38 -12z m93 -338 c25 -33 66 -73 103 -97 l61 -41 -43
-25 c-54 -32 -129 -111 -157 -167 l-22 -43 -30 52 c-33 59 -102 129 -153 157
-19 10 -35 22 -35 25 0 4 19 18 43 32 53 31 131 113 154 163 15 31 19 34 28
19 5 -10 29 -43 51 -75z"/>
<path d="M5110 9159 c-256 -20 -431 -185 -505 -473 -8 -33 -55 -323 -105 -645
-140 -917 -313 -1966 -489 -2979 -75 -431 -76 -437 -25 -461 30 -13 30 -17 -5
-68 -18 -26 -33 -68 -41 -110 -28 -151 -120 -371 -220 -522 -48 -73 -64 -91
-84 -91 -15 0 -34 -12 -51 -32 -32 -38 -29 -81 11 -115 56 -50 133 -13 138 67
2 35 13 60 51 113 69 99 146 256 186 380 l34 108 65 -6 c35 -3 65 -7 66 -8 2
-1 -4 -38 -11 -82 -21 -121 -61 -250 -110 -352 -35 -74 -48 -93 -65 -93 -33 0
-70 -44 -70 -83 0 -67 58 -107 118 -81 38 16 54 45 51 92 -3 27 7 57 34 110
50 96 101 253 122 372 9 52 31 157 48 232 l32 138 40 -1 c76 0 295 -16 300
-21 11 -10 -47 -272 -81 -370 -62 -176 -186 -398 -224 -398 -27 0 -68 -38 -75
-70 -17 -78 74 -130 139 -79 21 17 26 29 26 66 0 34 7 54 28 82 88 112 166
283 228 500 3 8 12 11 27 7 12 -3 42 -6 65 -6 l44 0 -7 -52 c-14 -104 -64
-277 -105 -366 -36 -77 -48 -94 -79 -109 -71 -35 -78 -118 -13 -156 66 -38
137 18 125 99 -4 23 6 52 36 111 46 92 93 243 110 353 7 41 26 142 44 223 l32
149 125 -6 c169 -9 220 -16 220 -30 0 -44 -57 -294 -86 -378 -58 -166 -171
-368 -206 -368 -49 0 -84 -50 -73 -106 18 -101 165 -78 165 25 0 31 11 58 47
113 66 104 125 233 164 360 l34 110 35 -6 c19 -3 47 -6 63 -6 23 0 27 -4 27
-29 0 -127 -114 -471 -156 -471 -28 0 -74 -56 -74 -90 0 -72 94 -107 146 -55
21 21 25 34 23 68 -3 31 5 59 28 107 50 105 83 215 109 370 13 80 34 192 46
248 l22 104 105 -7 c204 -11 221 -14 221 -38 0 -48 -40 -247 -65 -327 -32
-101 -98 -244 -147 -321 -27 -42 -44 -58 -69 -65 -25 -7 -39 -20 -52 -46 -16
-33 -16 -40 -4 -71 29 -67 125 -69 153 -2 7 17 10 41 7 53 -3 14 8 42 35 85
80 126 142 270 182 417 10 39 12 40 53 40 23 0 53 -3 65 -7 23 -6 24 -9 17
-62 -10 -84 -51 -236 -86 -324 -27 -65 -37 -80 -64 -91 -65 -27 -84 -93 -41
-142 54 -64 154 -16 143 69 -4 30 2 54 28 110 42 88 82 227 96 327 16 112 61
344 69 353 8 9 308 -8 317 -17 3 -2 -3 -55 -12 -118 -38 -250 -166 -547 -252
-583 -46 -20 -62 -41 -63 -86 0 -47 37 -83 85 -83 50 0 79 32 80 88 1 30 10
58 32 92 52 81 130 253 157 348 14 49 28 91 30 94 3 2 33 1 66 -3 l62 -7 -7
-55 c-11 -93 -53 -248 -85 -320 -24 -52 -38 -71 -63 -83 -85 -40 -62 -160 30
-160 52 0 86 39 81 93 -3 31 3 58 24 104 36 80 73 207 87 303 6 41 23 140 38
218 l27 144 105 -6 c58 -4 129 -9 157 -12 l51 -5 -17 -112 c-10 -62 -27 -147
-40 -191 -47 -168 -153 -376 -191 -376 -11 0 -31 -11 -44 -25 -34 -33 -34 -87
0 -120 58 -59 161 0 141 79 -4 18 2 37 25 70 45 68 114 221 142 317 13 46 35
145 47 219 19 110 28 139 46 155 35 32 43 55 61 193 l16 130 101 5 c132 7 170
21 232 82 63 62 81 112 96 266 l12 117 47 5 c95 12 161 65 195 158 11 30 23
148 39 374 13 182 24 331 24 333 1 1 26 2 56 2 106 0 202 57 249 148 35 68 35
68 68 1780 12 678 9 768 -36 902 -31 91 -65 148 -117 194 -85 77 62 71 -1634
72 -836 0 -1558 -3 -1605 -7z m426 -141 c-46 -70 -88 -178 -122 -310 -29 -119
-25 -142 25 -136 21 2 28 11 37 43 7 22 24 83 39 135 34 121 77 209 133 271
l44 49 814 0 814 0 -26 -52 c-66 -129 -72 -188 -20 -188 29 0 38 11 61 76 10
28 34 75 54 105 l36 54 293 3 294 2 -35 -42 c-73 -90 -148 -281 -181 -458 -8
-47 -29 -200 -46 -340 -17 -140 -56 -444 -86 -675 -30 -231 -81 -629 -114
-885 -170 -1318 -286 -2180 -295 -2188 -5 -5 -555 27 -573 34 -9 3 -12 13 -7
34 8 36 -1 66 -21 74 -27 10 -52 -12 -59 -54 -4 -22 -10 -42 -13 -44 -4 -2
-250 11 -547 30 -297 18 -657 40 -800 49 -411 24 -415 24 -415 47 0 11 12 83
26 160 27 151 25 168 -22 168 -32 0 -37 -15 -67 -188 -14 -79 -28 -146 -31
-150 -7 -7 -675 34 -683 42 -6 6 15 129 92 561 114 631 367 2184 479 2940 30
204 65 412 77 464 49 214 158 348 327 402 49 15 94 18 305 18 l247 1 -34 -52z
m2696 42 c48 -14 111 -85 138 -157 47 -125 53 -209 46 -618 -17 -1089 -37
-1925 -47 -1973 -19 -96 -89 -152 -189 -152 l-51 0 6 48 c12 106 140 1969 151
2197 8 176 -4 245 -51 292 -77 77 -157 18 -200 -145 -15 -61 -34 -214 -55
-462 -6 -69 -26 -305 -45 -525 -19 -220 -55 -645 -80 -945 -25 -300 -57 -678
-70 -840 -14 -162 -34 -407 -46 -545 -24 -291 -36 -333 -109 -381 -37 -25 -54
-29 -136 -32 -108 -5 -103 -12 -84 103 18 112 275 2092 405 3115 31 239 62
473 71 519 45 246 147 441 259 492 48 22 41 21 87 9z m-41 -457 c21 -52 6
-322 -86 -1568 -13 -181 -43 -613 -66 -960 -22 -346 -45 -647 -50 -668 -14
-53 -61 -102 -109 -115 -22 -5 -42 -7 -45 -2 -2 4 0 47 5 96 6 49 26 287 45
529 41 509 50 618 145 1715 67 784 82 906 115 970 19 37 32 38 46 3z m-3994
-4027 c1 -1 -4 -26 -11 -56 -8 -30 -17 -67 -20 -82 -6 -26 -10 -28 -59 -28
-80 0 -83 5 -62 91 10 41 19 77 21 80 2 4 125 0 131 -5z m653 -53 c0 -16 -7
-51 -25 -130 -5 -21 -11 -23 -70 -23 -74 0 -71 -6 -53 100 l12 70 68 0 c58 0
68 -3 68 -17z m660 -44 c0 -11 -7 -50 -15 -88 l-16 -67 -62 4 c-34 2 -63 6
-65 7 -3 3 17 131 23 153 3 8 26 12 70 12 59 0 65 -2 65 -21z m643 -26 c2 -5
-3 -43 -10 -85 l-15 -78 -41 0 c-23 0 -53 3 -65 7 -25 6 -25 14 -5 131 l5 32
64 0 c34 0 65 -3 67 -7z m637 -49 c0 -9 -5 -45 -12 -80 l-11 -64 -65 0 -65 0
7 57 c12 106 10 103 82 103 53 0 64 -3 64 -16z"/>
<path d="M6217 8663 c-264 -246 -317 -298 -317 -313 0 -22 20 -40 45 -40 18 0
116 84 293 253 35 33 67 56 71 51 4 -5 63 -80 131 -166 96 -125 127 -158 146
-158 13 0 28 9 34 21 14 26 14 27 -157 247 -93 118 -141 172 -154 172 -11 0
-52 -30 -92 -67z"/>
<path d="M7200 8705 c-19 -22 -39 -130 -28 -149 11 -19 51 -21 66 -3 5 6 13
32 17 57 3 25 9 52 11 61 5 19 -20 49 -40 49 -8 0 -19 -7 -26 -15z"/>
<path d="M7150 8426 c-15 -19 -52 -244 -45 -273 4 -17 13 -23 34 -23 16 0 33
6 38 13 5 6 15 57 22 112 7 55 15 112 18 126 8 44 -40 77 -67 45z"/>
<path d="M5362 8401 c-19 -12 -60 -267 -46 -289 14 -22 47 -27 62 -9 6 7 21
72 33 145 18 107 20 134 9 147 -14 17 -38 19 -58 6z"/>
<path d="M6090 8113 c-241 -224 -241 -224 -238 -252 2 -20 9 -27 30 -29 23 -3
52 19 183 140 86 79 160 144 165 146 4 2 60 -66 125 -150 64 -84 124 -157 132
-161 19 -11 63 18 62 41 0 9 -64 98 -142 197 -110 138 -148 181 -167 182 -19
2 -53 -24 -150 -114z"/>
<path d="M7081 7957 c-12 -15 -51 -265 -44 -284 7 -18 40 -26 61 -14 14 8 21
35 36 140 10 72 15 140 11 151 -7 23 -46 27 -64 7z"/>
<path d="M5271 7898 c-13 -36 -43 -241 -39 -268 3 -28 40 -40 62 -21 7 6 23
71 36 145 19 111 21 138 10 151 -19 23 -59 19 -69 -7z"/>
<path d="M5980 7603 c-95 -87 -178 -166 -184 -175 -8 -13 -8 -23 0 -35 26 -42
49 -28 209 116 85 78 158 141 162 141 5 -1 60 -68 123 -150 85 -112 120 -150
136 -150 26 0 47 23 42 45 -2 9 -63 94 -137 190 -100 130 -140 175 -156 175
-13 0 -84 -57 -195 -157z"/>
<path d="M7017 7478 c-24 -19 -56 -270 -37 -292 16 -20 44 -20 59 -2 7 8 20
73 29 144 13 108 14 133 3 146 -16 19 -32 20 -54 4z"/>
<path d="M5206 7417 c-12 -9 -23 -48 -39 -145 -22 -136 -20 -163 14 -170 36
-7 48 22 71 161 22 137 22 139 3 153 -23 17 -27 17 -49 1z"/>
<path d="M6043 7287 c-358 -328 -569 -523 -575 -531 -4 -6 -8 -16 -8 -22 0 -7
82 -117 181 -245 100 -129 208 -268 240 -310 64 -85 82 -96 114 -75 31 20 618
555 628 572 4 8 2 24 -4 36 -15 28 -469 610 -483 620 -21 15 -35 8 -93 -45z
m277 -328 c172 -221 201 -262 189 -274 -8 -7 -130 -119 -273 -248 l-259 -235
-22 26 c-85 102 -385 496 -383 503 2 4 93 90 203 191 110 101 227 209 260 240
33 32 65 57 71 58 6 0 102 -117 214 -261z"/>
<path d="M6008 6913 c-138 -121 -188 -172 -188 -190 0 -26 177 -253 197 -253
9 0 63 44 122 97 123 112 131 121 131 143 0 16 -160 227 -183 242 -19 12 -24
10 -79 -39z m110 -135 l50 -63 -26 -28 c-15 -16 -48 -46 -73 -68 l-47 -39 -51
67 -51 68 68 62 c37 34 70 63 74 63 3 0 29 -28 56 -62z"/>
<path d="M6941 6983 c-5 -10 -17 -75 -26 -146 -14 -101 -15 -130 -5 -142 16
-19 44 -19 60 -1 18 22 51 265 39 288 -12 23 -55 23 -68 1z"/>
<path d="M5113 6918 c-10 -18 -51 -270 -45 -286 7 -19 52 -27 67 -11 7 8 23
74 35 147 17 105 19 136 10 147 -15 18 -56 20 -67 3z"/>
<path d="M6885 6506 c-14 -10 -22 -42 -37 -146 -20 -143 -17 -160 28 -160 32
0 39 20 58 160 19 139 19 125 0 144 -19 19 -25 20 -49 2z"/>
<path d="M5030 6418 c-13 -31 -49 -260 -43 -276 8 -19 53 -27 68 -11 19 20 57
267 44 291 -14 26 -57 23 -69 -4z"/>
<path d="M5607 6073 c-22 -21 1 -64 114 -211 153 -199 164 -212 183 -212 9 0
102 77 206 171 202 182 219 206 165 231 -29 13 -10 27 -217 -160 l-147 -133
-48 62 c-173 225 -203 259 -226 259 -13 0 -27 -3 -30 -7z"/>
<path d="M6811 6017 c-13 -17 -43 -215 -39 -259 2 -27 8 -34 29 -36 14 -2 31
3 36 10 15 18 47 242 39 273 -7 28 -45 35 -65 12z"/>
<path d="M4950 5928 c-11 -28 -40 -204 -40 -246 0 -39 23 -58 53 -45 20 9 25
27 46 147 18 109 20 140 11 151 -19 23 -59 19 -70 -7z"/>
<path d="M5530 5599 c-14 -26 -14 -26 154 -242 118 -151 134 -168 158 -165 19
2 84 55 218 176 104 96 190 180 190 187 0 19 -28 45 -48 45 -9 0 -93 -70 -186
-155 l-168 -154 -42 52 c-23 29 -82 103 -130 165 -93 118 -122 137 -146 91z"/>
<path d="M6747 5536 c-21 -22 -53 -272 -37 -291 14 -17 38 -19 58 -6 8 5 20
60 31 137 16 112 17 132 5 152 -17 25 -36 28 -57 8z"/>
<path d="M4870 5438 c-17 -40 -47 -256 -38 -272 11 -19 52 -21 65 -3 6 6 20
70 32 140 24 139 21 157 -25 157 -16 0 -28 -8 -34 -22z"/>
<path d="M6672 5043 c-5 -10 -17 -73 -27 -141 -18 -130 -15 -152 26 -152 30 0
45 38 63 163 13 91 14 122 5 133 -16 20 -56 18 -67 -3z"/>
<path d="M2558 8949 c-41 -23 -236 -385 -323 -598 -113 -276 -230 -719 -211
-796 8 -30 41 -41 68 -23 18 12 27 41 50 154 54 273 147 548 269 804 71 146
192 365 210 375 18 11 10 74 -10 85 -24 12 -31 12 -53 -1z"/>
<path d="M9936 8594 c-26 -25 -19 -48 51 -172 160 -282 304 -649 382 -977 46
-192 49 -203 71 -210 23 -7 55 8 64 30 6 17 -10 99 -50 258 -65 258 -158 509
-283 765 -147 299 -189 353 -235 306z"/>
<path d="M3745 8382 c-28 -6 -62 -39 -69 -68 -13 -49 39 -114 90 -114 32 0 73
31 83 63 23 69 -34 133 -104 119z"/>
<path d="M9275 7568 c-62 -55 -27 -158 53 -158 85 1 122 91 63 151 -36 36 -79
38 -116 7z"/>
<path d="M2885 7256 c-166 -32 -367 -119 -509 -220 -87 -62 -336 -187 -431
-216 -90 -27 -205 -36 -297 -22 -40 6 -95 13 -123 14 -50 3 -50 3 -50 -27 0
-28 4 -32 70 -55 62 -21 87 -24 210 -24 126 0 148 3 225 28 111 37 200 82 406
207 286 174 428 227 634 236 198 9 372 -40 515 -143 85 -62 119 -67 131 -17 6
21 1 32 -24 54 -28 25 -36 27 -84 22 -44 -4 -58 -2 -80 16 -14 12 -29 35 -33
51 -8 37 -34 51 -141 80 -101 28 -317 36 -419 16z"/>
<path d="M10423 6759 c-181 -23 -319 -82 -655 -281 -275 -162 -456 -217 -652
-197 -44 4 -108 18 -143 31 -48 16 -68 19 -81 12 -21 -14 -27 -57 -10 -71 26
-22 138 -53 225 -63 224 -25 414 36 778 250 262 154 397 210 559 230 192 24
376 -30 505 -147 59 -53 87 -63 109 -41 25 25 13 56 -42 104 -114 101 -226
152 -381 173 -85 12 -121 12 -212 0z"/>
<path d="M2948 6694 c-161 -29 -293 -91 -543 -254 -269 -175 -373 -215 -565
-214 -92 0 -128 5 -177 22 -81 28 -101 28 -115 -3 -16 -36 7 -57 95 -86 62
-21 91 -24 207 -23 120 0 145 3 220 28 137 46 209 84 425 225 160 105 273 162
390 197 77 23 109 27 225 28 113 1 148 -3 214 -22 86 -25 198 -77 250 -117 52
-39 96 -29 96 22 0 18 -17 35 -75 73 -183 119 -422 165 -647 124z"/>
<path d="M10409 6175 c-154 -29 -250 -72 -504 -225 -204 -123 -255 -149 -365
-188 -177 -62 -345 -68 -493 -18 -42 14 -82 26 -87 26 -16 0 -41 -46 -35 -63
16 -41 191 -87 332 -87 215 0 375 58 706 257 289 173 407 216 597 217 161 1
269 -33 401 -127 41 -28 62 -37 77 -33 26 9 37 39 23 65 -13 24 -131 103 -195
130 -124 54 -316 73 -457 46z"/>
<path d="M2018 5639 c-24 -14 -23 -47 8 -164 59 -230 152 -478 260 -701 64
-131 198 -363 248 -429 33 -43 68 -46 92 -10 16 25 15 27 -16 78 -152 240
-258 446 -350 676 -57 143 -141 406 -156 487 -11 64 -44 88 -86 63z"/>
<path d="M2901 5534 c-63 -53 -26 -154 56 -154 46 0 93 46 93 90 0 22 -9 41
-29 61 -37 37 -79 38 -120 3z"/>
<path d="M10397 5486 c-8 -8 -25 -52 -37 -98 -154 -573 -456 -1146 -869 -1647
-129 -156 -430 -458 -571 -573 -491 -398 -1032 -673 -1609 -819 -106 -26 -136
-38 -148 -56 -14 -21 -14 -26 1 -48 9 -14 25 -25 36 -25 37 0 326 79 470 128
893 307 1649 902 2208 1738 259 388 479 872 582 1281 23 90 23 93 5 113 -21
24 -48 26 -68 6z"/>
<path d="M9074 4860 c-28 -11 -64 -58 -64 -82 0 -87 115 -126 164 -56 49 69
-24 170 -100 138z"/>
<path d="M8420 4044 c-6 -14 -10 -38 -10 -53 0 -55 -41 -150 -87 -201 -54 -60
-116 -94 -204 -111 -62 -12 -89 -29 -89 -55 0 -20 30 -44 55 -44 12 0 52 -9
88 -20 123 -38 219 -157 234 -292 8 -72 18 -88 53 -88 36 0 45 16 54 92 9 74
56 166 108 213 51 47 131 84 198 92 58 7 84 31 71 66 -6 17 -23 24 -75 34
-172 31 -285 146 -302 308 -8 71 -17 85 -55 85 -22 0 -32 -6 -39 -26z m118
-327 c15 -15 48 -42 75 -59 l48 -31 -49 -32 c-56 -38 -107 -93 -130 -141 -8
-19 -18 -34 -21 -34 -4 0 -13 15 -21 33 -18 40 -92 120 -138 149 l-35 22 24
15 c47 31 121 106 146 149 l26 43 24 -43 c13 -24 36 -56 51 -71z"/>
<path d="M3209 3920 c-71 -93 -71 -92 -259 -109 -310 -28 -490 -107 -661 -289
-151 -161 -255 -410 -313 -752 -13 -75 -13 -88 0 -108 15 -22 20 -23 77 -17
34 4 116 18 182 31 309 62 517 152 661 287 178 166 263 373 290 705 l7 83 73
96 c41 52 74 100 74 105 0 24 -23 48 -45 48 -18 0 -39 -19 -86 -80z m-224
-251 c-33 -33 -142 -135 -242 -226 -100 -90 -184 -171 -187 -180 -9 -23 12
-53 38 -53 24 0 119 81 377 322 64 59 119 108 121 108 9 0 -13 -141 -36 -234
-65 -256 -237 -442 -504 -547 -101 -39 -331 -99 -439 -114 l-53 -7 6 34 c76
416 212 670 437 817 125 81 307 132 502 139 l39 2 -59 -61z"/>
<path d="M5558 2981 c-76 -25 -119 -53 -172 -112 -143 -159 -123 -392 52 -610
121 -151 530 -519 576 -519 31 0 274 206 451 384 199 199 268 326 269 491 0
71 -5 102 -23 147 -31 81 -106 160 -189 200 -61 30 -74 33 -162 33 -83 0 -102
-4 -154 -28 -73 -34 -137 -85 -167 -133 l-22 -37 -21 29 c-98 141 -284 206
-438 155z m199 -87 c94 -31 180 -120 204 -208 14 -52 26 -66 54 -66 29 0 42
16 60 78 10 34 32 69 65 105 184 202 502 86 503 -183 0 -133 -70 -256 -243
-430 -100 -100 -360 -331 -381 -338 -21 -8 -388 322 -485 436 -77 90 -142 215
-151 288 -16 139 67 269 200 315 65 23 113 24 174 3z"/>
<path d="M4024 2775 c-27 -42 -11 -60 131 -144 221 -132 422 -225 647 -300
102 -34 130 -33 140 6 11 42 -6 54 -152 108 -242 88 -435 180 -630 301 -48 30
-94 54 -103 54 -9 0 -24 -11 -33 -25z"/>
</g>
</svg>
