<svg version="1.0" xmlns="http://www.w3.org/2000/svg"
 width="1254.000000pt" height="1254.000000pt" viewBox="0 0 1254.000000 1254.000000"
 preserveAspectRatio="xMidYMid meet">
<metadata>
Created by potrace 1.16, written by Peter Selinger 2001-2019
</metadata>
<g transform="translate(0.000000,1254.000000) scale(0.100000,-0.100000)"
fill="#000000" stroke="none">
<path d="M6245 11233 c-11 -3 -32 -17 -47 -31 -101 -94 40 -257 142 -164 38
34 51 77 36 121 -17 53 -78 87 -131 74z"/>
<path d="M5480 11080 c-964 -167 -1777 -599 -2424 -1289 -130 -139 -287 -333
-382 -471 -67 -99 -68 -102 -53 -128 11 -20 23 -27 44 -27 25 0 38 13 104 106
573 804 1382 1365 2331 1618 132 35 368 84 485 100 141 20 145 21 161 46 15
23 15 27 0 50 -21 32 -51 32 -266 -5z"/>
<path d="M6852 11098 c-16 -16 -15 -63 1 -76 6 -5 61 -17 121 -26 285 -42 626
-134 901 -243 536 -212 993 -513 1421 -938 200 -199 352 -380 511 -609 21 -29
40 -46 53 -46 23 0 60 33 60 54 0 18 -139 212 -258 361 -121 152 -449 480
-610 610 -264 214 -471 350 -757 496 -381 195 -798 334 -1210 404 -163 28
-215 31 -233 13z"/>
<path d="M4179 9762 c-116 -31 -207 -120 -241 -237 -17 -58 -14 -200 6 -275
20 -73 68 -182 112 -252 l29 -46 -6 -539 c-6 -525 -18 -2950 -20 -4007 l-1
-528 62 -63 63 -63 -67 -71 c-36 -38 -66 -79 -66 -90 0 -11 15 -34 33 -50 114
-102 209 -181 219 -181 6 0 47 36 92 79 l81 80 81 -79 c63 -62 85 -78 102 -74
11 4 48 37 82 75 34 38 66 69 73 69 6 0 45 -34 87 -74 60 -59 81 -74 98 -69
12 3 52 39 89 80 l67 75 70 -72 c39 -39 78 -75 85 -80 22 -13 46 4 113 76 33
35 66 64 73 64 6 0 44 -34 84 -75 39 -41 77 -75 83 -75 6 0 46 34 89 75 42 41
81 75 85 75 5 0 46 -34 91 -75 60 -54 88 -73 100 -68 10 4 78 58 152 120 l134
113 46 -33 c85 -61 174 -83 262 -67 27 5 232 78 456 161 225 83 530 197 678
251 311 115 327 123 378 176 l38 39 62 -14 c75 -18 159 -6 221 31 22 14 95 73
161 132 66 58 269 236 450 394 182 158 345 304 362 324 66 75 81 231 32 327
-12 24 -65 95 -118 159 -53 63 -246 293 -428 511 l-331 396 38 89 c22 49 137
316 256 594 216 503 217 505 218 580 1 81 -10 119 -57 188 -50 74 70 21 -1492
670 -357 148 -729 302 -825 342 -96 40 -215 89 -265 110 -49 20 -103 42 -120
49 -20 8 -37 26 -49 54 -28 60 -97 124 -174 160 l-67 32 -531 3 -531 3 -12 27
c-7 15 -31 54 -53 87 -138 203 -337 350 -530 389 -95 20 -126 19 -209 -2z
m242 -101 c169 -58 326 -188 432 -358 l26 -42 -257 -3 c-237 -3 -261 -5 -312
-26 -64 -25 -121 -69 -160 -124 l-29 -39 -25 43 c-68 117 -96 285 -67 391 18
63 87 140 144 160 61 22 182 21 248 -2z m1655 -518 c67 -36 101 -70 131 -131
l28 -57 3 -345 c2 -190 1 -414 -3 -497 l-7 -153 -1036 0 -1035 0 6 317 c4 174
7 372 7 441 l0 124 71 -67 c111 -105 254 -190 401 -239 71 -24 73 -26 84 -68
17 -66 39 -101 93 -150 56 -51 104 -68 189 -68 127 0 252 104 270 226 27 178
-86 320 -264 332 -61 4 -80 1 -126 -20 -63 -29 -117 -81 -143 -138 -21 -47
-24 -47 -155 9 -121 52 -222 122 -323 223 l-87 88 15 38 c24 57 94 121 156
143 51 18 96 18 869 16 l815 -2 41 -22z m472 -319 c103 -42 428 -176 722 -299
1244 -519 1599 -665 1610 -665 6 0 32 -21 58 -48 54 -53 78 -116 70 -180 -8
-56 -235 -578 -250 -574 -7 1 -251 104 -543 228 -471 201 -535 231 -575 269
-25 24 -64 54 -87 67 -26 14 -105 93 -204 203 -200 221 -471 514 -728 785
-107 113 -213 224 -235 248 -22 23 -37 42 -32 42 4 0 91 -34 194 -76z m-1494
-106 c97 -29 162 -143 136 -239 -16 -59 -81 -123 -140 -139 -94 -26 -206 35
-234 128 -7 21 -5 22 40 22 39 0 54 -5 76 -27 77 -74 198 10 158 108 -25 59
-99 76 -148 34 -17 -14 -40 -25 -53 -25 -41 0 -69 12 -69 28 0 25 84 99 126
110 53 14 61 14 108 0z m1533 -202 c32 -34 148 -159 259 -277 260 -277 435
-472 432 -481 -5 -11 -390 -279 -395 -274 -12 12 -403 917 -423 979 -9 31 -9
44 1 70 15 36 14 74 -4 96 -28 36 77 -55 130 -113z m-147 -246 c56 -129 133
-305 170 -390 37 -85 118 -269 179 -409 61 -140 110 -255 108 -257 -3 -3 -563
-144 -573 -144 -7 0 -4 927 4 1238 3 111 6 201 7 200 1 -2 49 -109 105 -238z
m-210 -835 l0 -435 -1035 0 -1035 0 0 428 c0 236 3 432 7 435 3 4 469 7 1035
7 l1028 0 0 -435z m1292 58 c225 -256 398 -462 398 -473 0 -5 -15 -19 -32 -31
-18 -13 -154 -115 -301 -227 -147 -111 -274 -205 -281 -208 -8 -3 -58 100
-151 308 -76 172 -160 362 -186 421 l-48 108 91 67 c144 105 322 231 330 231
3 1 85 -88 180 -196z m604 -267 c197 -84 411 -175 474 -201 63 -27 119 -52
124 -56 7 -6 -185 -471 -204 -492 -6 -7 -534 608 -695 808 -26 33 -55 68 -63
78 -8 9 -11 17 -5 17 5 0 171 -69 369 -154z m-1015 -481 c92 -209 165 -383
161 -386 -4 -3 -92 -27 -197 -53 -104 -26 -301 -76 -437 -111 -136 -36 -251
-65 -257 -65 -6 0 -22 17 -36 37 l-25 38 0 383 c0 352 1 383 17 389 35 14 579
151 591 149 8 0 88 -167 183 -381z m948 123 c38 -46 162 -193 275 -327 114
-135 205 -248 204 -252 -3 -6 -665 -537 -785 -628 -36 -28 -47 -32 -54 -20
-22 35 -351 786 -352 805 -2 22 19 40 446 362 103 78 189 142 192 142 2 0 35
-37 74 -82z m-1829 -393 l0 -435 -1042 0 -1041 0 6 188 c4 103 7 298 7 435 l0
247 1035 0 1035 0 0 -435z m1255 -575 c89 -201 160 -368 156 -371 -3 -4 -235
-73 -516 -154 -280 -81 -576 -166 -657 -190 l-148 -43 0 439 0 439 23 5 c12 4
225 60 472 125 248 65 463 117 479 116 28 -1 33 -12 191 -366z m1369 25 l244
-290 -22 -18 c-11 -11 -160 -132 -330 -270 -646 -526 -591 -478 -588 -520 3
-29 -2 -42 -23 -62 -31 -32 -45 -29 -67 16 -19 36 -315 729 -320 747 -3 11
842 693 854 689 4 -1 117 -132 252 -292z m-2626 -412 l-3 -438 -1037 -3 -1038
-2 0 433 c0 239 3 437 7 440 3 4 471 7 1040 7 l1033 0 -2 -437z m3039 -84 c59
-72 113 -144 120 -161 7 -17 13 -55 13 -86 0 -89 -24 -126 -163 -245 -67 -58
-277 -240 -467 -406 -190 -165 -361 -308 -380 -318 -39 -19 -153 -24 -170 -7
-7 7 -7 20 1 43 24 69 8 155 -59 311 l-63 145 34 30 c19 17 144 118 277 225
133 107 353 286 489 397 135 111 249 202 253 202 4 1 56 -58 115 -130z m-1553
-51 c74 -169 266 -621 266 -627 0 -4 -57 -24 -127 -45 -169 -51 -541 -164
-1068 -325 -236 -73 -438 -134 -447 -137 -17 -5 -18 19 -18 400 l0 405 68 20
c37 11 146 43 242 71 96 27 364 106 595 174 231 68 429 124 441 125 16 1 27
-12 48 -61z m-1486 -810 l-3 -413 -1037 -3 -1038 -2 0 415 0 415 1040 0 1040
0 -2 -412z m1855 -47 c74 -181 76 -247 8 -342 -40 -57 -76 -76 -288 -154 -210
-77 -396 -146 -873 -323 -162 -60 -310 -113 -327 -117 -48 -10 -136 12 -183
46 -48 35 -71 69 -106 162 -20 53 -23 71 -14 82 7 8 13 64 16 142 l4 128 63
18 c34 10 278 85 542 167 264 81 595 183 735 225 140 42 273 82 295 90 22 7
47 14 55 14 10 1 34 -44 73 -138z m-1855 -535 c-5 -73 -6 -75 -59 -135 -79
-90 -79 -92 -14 -160 30 -32 55 -60 55 -63 0 -3 -43 -40 -96 -82 l-96 -78 -78
76 c-52 51 -85 76 -101 76 -16 0 -48 -24 -99 -75 l-75 -75 -75 75 c-43 44 -83
75 -95 75 -11 0 -51 -32 -95 -75 l-75 -75 -75 75 c-44 45 -83 75 -95 75 -12 0
-51 -30 -95 -75 l-75 -75 -75 75 c-44 43 -84 75 -95 75 -12 0 -52 -31 -95 -75
l-75 -75 -75 75 c-42 42 -84 75 -95 75 -11 0 -53 -34 -97 -77 l-77 -76 -68 58
c-37 31 -70 61 -71 66 -2 5 24 40 57 78 34 38 61 77 61 88 0 10 -29 48 -65 83
l-65 64 0 78 0 78 1041 0 1042 0 -5 -74z m11 -251 c1 -5 -6 -2 -15 7 -10 9
-13 21 -8 29 5 9 9 8 15 -7 4 -10 8 -23 8 -29z"/>
<path d="M8351 9236 c-100 -33 -98 -166 2 -205 32 -12 40 -11 74 5 52 26 79
80 63 128 -20 62 -79 92 -139 72z"/>
<path d="M10086 8877 c-9 -7 -17 -21 -18 -32 -1 -11 46 -116 105 -234 230
-461 384 -948 449 -1420 20 -144 26 -165 45 -178 12 -8 31 -12 43 -8 39 12 42
36 20 186 -81 555 -247 1064 -507 1557 -73 138 -96 159 -137 129z"/>
<path d="M2376 8857 c-29 -29 -185 -338 -262 -517 -156 -368 -291 -849 -335
-1202 -12 -91 -11 -99 6 -118 10 -11 26 -20 36 -20 26 0 59 48 59 84 0 53 48
313 89 481 63 254 138 483 238 720 55 129 200 427 242 495 26 43 26 55 1 80
-26 26 -46 25 -74 -3z"/>
<path d="M3041 8217 c-6 -8 -17 -51 -25 -95 -8 -45 -26 -106 -39 -136 -53
-115 -177 -209 -295 -223 -41 -4 -57 -11 -69 -29 -14 -22 -14 -26 0 -48 12
-18 28 -25 69 -29 72 -9 167 -58 218 -113 54 -59 106 -171 120 -259 12 -74 23
-95 49 -95 32 0 43 19 57 100 17 99 67 200 127 260 52 51 145 98 212 106 54 7
85 27 85 54 0 24 -32 50 -62 50 -14 0 -56 9 -92 20 -53 17 -79 33 -130 80 -79
74 -121 156 -138 266 -6 43 -16 85 -21 92 -13 16 -52 15 -66 -1z m61 -304 c28
-57 130 -163 176 -182 40 -17 40 -25 0 -42 -47 -19 -141 -117 -172 -177 -14
-28 -30 -52 -34 -52 -4 1 -18 24 -31 52 -27 57 -124 158 -170 178 -17 7 -31
15 -31 19 0 3 23 20 51 36 62 36 121 101 151 166 13 26 26 48 30 49 4 0 17
-21 30 -47z"/>
<path d="M9758 7398 c-10 -8 -21 -41 -27 -83 -16 -103 -27 -136 -69 -201 -67
-103 -165 -168 -275 -181 -52 -6 -77 -23 -77 -53 0 -30 25 -47 82 -53 166 -20
321 -185 335 -360 6 -73 24 -107 57 -107 33 0 41 14 54 100 32 197 151 326
336 365 69 14 86 25 86 57 0 28 -26 45 -80 51 -180 21 -318 180 -345 395 -9
73 -39 99 -77 70z m143 -429 c30 -30 70 -61 87 -68 18 -8 32 -16 32 -20 0 -4
-17 -15 -37 -26 -53 -29 -140 -120 -170 -179 -23 -46 -27 -49 -37 -32 -51 87
-95 141 -146 180 -33 24 -65 46 -72 49 -15 5 -19 2 56 52 60 40 131 124 156
185 l13 32 31 -59 c17 -32 56 -83 87 -114z"/>
<path d="M1718 6561 c-28 -25 -33 -36 -33 -75 0 -64 37 -101 101 -101 39 0 50
5 75 33 88 99 -44 231 -143 143z"/>
<path d="M10677 6570 c-29 -23 -51 -80 -42 -109 20 -63 87 -95 146 -71 41 17
59 47 59 98 0 86 -96 134 -163 82z"/>
<path d="M10662 5953 c-17 -14 -24 -42 -37 -133 -88 -633 -330 -1271 -696
-1836 -44 -66 -79 -130 -79 -141 0 -28 23 -45 57 -41 32 3 91 84 219 298 300
502 506 1070 594 1640 24 152 25 194 4 214 -20 21 -37 20 -62 -1z"/>
<path d="M1776 5938 c-12 -20 -12 -38 0 -128 80 -605 309 -1243 633 -1767 141
-228 175 -273 209 -273 33 0 52 16 52 44 0 11 -30 65 -67 121 -115 172 -201
323 -303 530 -222 452 -352 878 -421 1375 -6 47 -16 93 -21 103 -13 25 -64 22
-82 -5z"/>
<path d="M3072 5724 c-26 -18 -52 -65 -52 -94 0 -34 28 -78 60 -95 49 -25 88
-19 126 19 28 28 34 42 34 76 0 34 -6 48 -34 76 -27 27 -42 34 -73 34 -21 0
-49 -7 -61 -16z"/>
<path d="M8353 3668 c-6 -7 -16 -42 -22 -78 -32 -166 -138 -274 -296 -300 -61
-10 -75 -20 -75 -57 0 -27 20 -38 81 -46 147 -19 267 -145 288 -302 8 -58 24
-85 50 -85 32 0 44 19 53 82 22 162 138 282 299 307 48 8 79 29 79 53 0 21
-42 48 -75 48 -19 0 -60 10 -92 22 -111 41 -195 158 -210 293 -7 59 -17 75
-48 75 -12 0 -27 -6 -32 -12z m154 -381 c28 -20 56 -37 62 -37 19 0 12 -18 -9
-25 -31 -10 -133 -109 -155 -149 -22 -41 -31 -44 -40 -16 -12 36 -82 117 -129
146 -43 27 -57 44 -37 44 21 0 114 85 147 135 l36 54 38 -57 c20 -32 60 -75
87 -95z"/>
<path d="M9502 3421 c-645 -738 -1572 -1264 -2532 -1435 -132 -24 -140 -28
-140 -70 0 -53 21 -60 131 -41 581 101 1169 332 1664 653 361 234 683 511 956
822 125 142 142 177 100 200 -42 22 -58 11 -179 -129z"/>
<path d="M2837 3512 c-10 -10 -17 -26 -17 -35 0 -9 33 -54 73 -99 320 -365
698 -669 1182 -953 428 -251 959 -448 1458 -540 76 -14 149 -25 162 -25 28 0
55 24 55 49 0 41 -23 52 -165 76 -942 162 -1930 706 -2572 1417 -121 134 -143
147 -176 110z"/>
<path d="M7521 2916 c-55 -30 -67 -106 -25 -155 22 -27 32 -31 74 -31 42 0 52
4 74 31 73 87 -24 210 -123 155z"/>
<path d="M6189 1941 c-23 -24 -29 -38 -29 -73 0 -50 19 -82 62 -104 87 -45
189 57 144 144 -22 43 -54 62 -104 62 -35 0 -49 -6 -73 -29z"/>
</g>
</svg>
