<svg version="1.0" xmlns="http://www.w3.org/2000/svg"
 width="1254.000000pt" height="1254.000000pt" viewBox="0 0 1254.000000 1254.000000"
 preserveAspectRatio="xMidYMid meet">
<metadata>
Created by potrace 1.16, written by Peter Selinger 2001-2019
</metadata>
<g transform="translate(0.000000,1254.000000) scale(0.100000,-0.100000)"
fill="#000000" stroke="none">
<path d="M6210 11227 c-68 -53 -63 -154 10 -192 59 -30 115 -13 145 45 24 46
19 85 -16 125 -27 31 -37 35 -78 35 -25 0 -53 -6 -61 -13z"/>
<path d="M5650 11113 c-14 -2 -93 -15 -176 -29 -295 -48 -705 -167 -993 -289
-724 -305 -1357 -814 -1800 -1445 -44 -63 -81 -124 -81 -136 0 -26 30 -54 58
-54 15 0 33 15 55 47 154 224 343 448 544 643 629 614 1448 1012 2353 1146
145 21 175 44 134 102 -15 22 -35 25 -94 15z"/>
<path d="M6837 11105 c-9 -9 -17 -24 -17 -34 0 -41 22 -51 155 -70 620 -92
1226 -330 1760 -692 388 -264 783 -651 1032 -1015 43 -62 86 -116 96 -119 27
-10 67 21 67 50 0 60 -288 431 -507 653 -279 282 -548 490 -907 701 -395 233
-920 424 -1385 505 -209 37 -274 42 -294 21z"/>
<path d="M6185 10543 c-64 -77 -118 -180 -140 -268 -9 -35 -15 -104 -15 -171
l0 -112 -62 26 c-55 23 -77 27 -179 27 -149 0 -153 -3 -147 -102 10 -157 137
-336 291 -411 96 -47 187 -64 347 -63 221 0 358 48 475 166 92 93 155 229 155
336 0 65 -13 73 -129 77 -93 4 -156 -9 -251 -51 -13 -6 -15 11 -15 120 0 106
-4 140 -23 198 -29 87 -86 185 -144 248 -66 70 -91 67 -163 -20z m170 -138
c71 -120 97 -268 72 -411 -13 -70 -21 -90 -62 -145 -26 -35 -58 -86 -70 -114
l-22 -49 -12 37 c-7 20 -38 72 -68 114 -49 68 -57 87 -70 158 -32 178 18 374
125 488 l26 27 23 -22 c12 -13 38 -50 58 -83z m-500 -446 c82 -15 169 -62 227
-121 51 -52 122 -185 133 -250 l7 -37 -53 6 c-141 15 -284 87 -352 176 -35 46
-73 128 -85 184 -8 35 -7 43 7 46 29 8 56 7 116 -4z m961 -31 c-17 -108 -103
-232 -206 -298 -49 -31 -156 -65 -234 -74 l-48 -6 6 38 c4 20 25 74 47 120 80
165 220 258 393 261 l49 1 -7 -42z"/>
<path d="M5060 9821 c-74 -26 -142 -98 -164 -171 -20 -67 -20 -93 0 -161 20
-67 97 -148 160 -167 93 -28 201 -6 259 52 30 31 33 71 5 86 -23 12 -28 10
-83 -34 -101 -80 -267 6 -267 139 0 40 22 100 48 128 28 32 89 57 135 57 97 0
169 -45 349 -216 180 -172 290 -244 424 -278 84 -22 110 -20 128 6 25 36 2 59
-75 75 -138 28 -221 80 -400 249 -205 194 -281 242 -399 250 -48 3 -79 0 -120
-15z"/>
<path d="M7305 9827 c-106 -36 -161 -75 -335 -242 -175 -166 -286 -234 -416
-252 -72 -10 -98 -74 -37 -89 61 -16 234 49 346 130 34 24 126 104 204 178 78
74 164 147 193 162 125 68 263 33 305 -79 27 -69 14 -129 -39 -181 -71 -72
-163 -79 -226 -19 -35 34 -83 32 -88 -3 -5 -35 21 -67 79 -96 141 -70 314 4
362 155 21 63 21 91 2 156 -19 64 -89 145 -146 167 -57 23 -155 29 -204 13z"/>
<path d="M4274 9661 c-58 -35 -68 -125 -20 -170 92 -86 231 7 183 122 -27 63
-102 85 -163 48z"/>
<path d="M8163 9670 c-29 -12 -63 -67 -63 -102 0 -64 44 -109 109 -110 68 -1
112 41 114 106 2 85 -79 138 -160 106z"/>
<path d="M6239 9281 c-26 -21 -21 -43 14 -65 39 -25 78 44 41 71 -23 17 -27
17 -55 -6z"/>
<path d="M10088 8889 c-10 -5 -18 -21 -18 -34 0 -13 47 -120 104 -237 243
-497 385 -952 445 -1426 11 -85 25 -160 32 -168 14 -17 61 -18 77 -2 16 16 15
61 -4 210 -58 461 -220 971 -464 1458 -102 204 -123 228 -172 199z"/>
<path d="M2370 8853 c-34 -43 -223 -433 -280 -578 -144 -364 -249 -742 -300
-1082 -23 -150 -20 -175 19 -186 11 -2 30 0 42 7 26 13 24 3 64 256 73 454
253 975 492 1423 35 66 63 127 63 136 0 24 -31 51 -58 51 -11 0 -30 -12 -42
-27z"/>
<path d="M3773 8745 c-156 -48 -268 -196 -298 -392 -4 -24 -8 -43 -9 -43 -1 0
-80 -16 -176 -34 -200 -40 -204 -42 -215 -135 l-7 -59 -39 -5 c-51 -7 -102
-42 -128 -88 -21 -37 -24 -63 -131 -1279 -17 -190 -44 -493 -60 -675 -16 -181
-39 -442 -50 -580 -12 -137 -34 -402 -50 -588 -17 -187 -30 -364 -30 -396 0
-74 31 -136 88 -176 37 -25 55 -30 118 -33 41 -2 74 -6 74 -8 0 -12 -73 -124
-81 -124 -24 0 -59 -50 -59 -85 0 -48 13 -71 50 -84 64 -22 117 28 107 100 -5
37 2 56 63 173 59 113 140 322 140 362 0 18 17 26 40 19 15 -5 20 -15 20 -41
0 -132 -118 -450 -180 -486 -37 -21 -49 -72 -26 -116 48 -93 187 -21 146 77
-10 25 -8 35 14 80 66 130 111 278 131 426 14 112 52 336 57 340 6 4 258 -22
263 -27 7 -7 -32 -276 -51 -351 -44 -174 -176 -447 -215 -447 -26 0 -59 -48
-59 -85 0 -50 33 -85 81 -85 67 0 109 63 80 119 -8 13 -1 32 25 76 81 134 161
328 179 433 7 43 15 48 61 36 19 -5 20 -9 12 -72 -22 -171 -99 -411 -150 -470
-54 -63 -24 -152 51 -152 67 0 105 65 76 130 -17 37 -17 39 10 106 49 122 74
224 100 398 37 249 52 336 58 342 5 6 266 -14 277 -21 11 -7 -36 -345 -59
-430 -48 -175 -141 -364 -192 -391 -53 -27 -65 -99 -24 -139 24 -25 65 -32
100 -19 26 11 48 62 40 101 -5 28 3 53 49 146 59 120 120 292 131 370 9 56 15
61 61 52 l35 -6 -7 -52 c-21 -179 -102 -447 -149 -497 -37 -39 -37 -89 0 -125
70 -71 178 22 127 109 l-19 33 33 89 c19 49 43 125 54 169 21 84 24 105 61
387 l24 178 29 0 c34 0 260 -21 264 -25 7 -6 -40 -344 -58 -416 -44 -176 -129
-362 -191 -420 -41 -38 -48 -67 -28 -112 23 -50 95 -62 134 -22 27 26 33 72
15 105 -8 16 -2 36 29 98 72 143 112 257 141 405 l11 57 37 0 c59 0 61 -5 51
-97 -19 -169 -91 -424 -135 -476 -39 -47 -26 -109 28 -131 82 -35 148 50 100
128 -18 29 -17 31 15 128 36 108 83 324 83 384 0 39 39 336 45 342 6 6 294
-21 306 -29 17 -10 -18 -304 -52 -438 -31 -120 -144 -380 -166 -381 -22 0 -53
-52 -53 -90 0 -62 57 -100 116 -75 47 19 61 54 46 110 -11 42 -10 47 42 157
61 129 88 207 114 327 l18 84 49 1 c44 1 50 4 59 28 13 38 -6 58 -57 58 l-40
0 7 83 c12 137 7 130 90 123 39 -4 95 -9 124 -12 l54 -7 -7 -46 c-28 -201 -74
-377 -140 -536 -57 -137 -95 -208 -131 -241 -42 -39 -52 -76 -31 -120 20 -41
66 -57 112 -39 50 19 71 89 41 130 -12 17 -11 26 13 75 15 30 47 102 71 160
24 58 45 106 46 108 2 3 308 -37 451 -59 69 -11 72 -13 88 -49 49 -108 171
-150 435 -150 164 0 242 29 317 115 l38 43 107 4 107 5 5 -71 c3 -39 8 -150
12 -246 3 -96 10 -181 16 -187 21 -26 53 -11 169 78 l119 90 136 -125 c75 -69
144 -126 154 -126 10 0 26 8 35 17 15 14 16 31 11 112 -3 53 -9 177 -12 277
l-7 181 729 6 c401 4 864 7 1030 7 201 0 312 4 335 12 53 18 87 45 116 96 38
64 47 -108 -87 1757 -130 1800 -139 1927 -150 1961 -15 45 -61 84 -122 104
-49 16 -53 20 -59 54 -3 20 -11 42 -17 48 -6 6 -67 30 -134 53 -134 46 -135
47 -137 131 -1 22 -7 48 -13 57 -24 32 -388 129 -604 162 -286 43 -706 46
-961 6 -433 -66 -802 -212 -1112 -439 -15 -10 -24 -8 -59 18 -42 30 -42 31
-42 93 -1 176 -80 327 -208 395 -80 43 -127 48 -662 72 -430 20 -1043 49
-1454 70 -248 12 -291 12 -343 -5z m302 -87 c2 -2 -12 -35 -31 -73 -41 -84
-74 -227 -58 -253 13 -20 52 -28 66 -14 6 6 16 44 23 86 15 88 49 167 92 216
l31 35 628 -32 c346 -17 653 -32 683 -32 l53 -1 -18 -27 c-53 -82 -98 -221
-92 -287 3 -28 6 -31 38 -31 l35 0 17 83 c20 96 49 159 98 215 l35 39 222 -11
c122 -6 234 -16 249 -21 l26 -10 -40 -30 c-103 -74 -142 -184 -177 -500 -27
-246 -103 -923 -136 -1200 -11 -96 -56 -492 -99 -880 -123 -1096 -129 -1142
-134 -1147 -2 -3 -105 5 -228 16 -123 12 -227 21 -231 21 -4 0 -4 20 0 45 7
52 -7 75 -43 75 -26 0 -44 -31 -44 -75 0 -13 -3 -26 -8 -29 -4 -2 -298 22
-652 55 -355 32 -662 59 -684 59 l-39 0 6 39 c6 45 -13 81 -42 81 -26 0 -38
-18 -46 -67 l-7 -43 -51 5 c-167 17 -265 25 -306 25 -71 0 -72 2 -56 110 19
131 207 1613 304 2410 110 893 109 887 133 944 44 104 107 169 195 202 28 11
70 13 161 10 68 -2 125 -6 127 -8z m4299 -188 c232 -19 397 -50 638 -117 l127
-36 5 -41 c3 -22 8 -90 11 -151 6 -116 98 -1627 165 -2696 22 -349 40 -649 40
-666 l0 -30 -115 33 c-477 139 -1035 177 -1527 104 -416 -62 -838 -223 -1091
-417 -32 -25 -59 -44 -61 -42 -1 2 0 814 3 1803 l6 1800 80 58 c283 204 742
359 1175 397 136 12 405 12 544 1z m-2091 -28 c28 -31 57 -108 63 -170 l7 -61
-122 61 c-66 33 -121 66 -121 73 0 19 49 75 85 96 38 24 67 24 88 1z m-143
-227 c71 -30 214 -113 288 -167 l52 -39 -1 -962 c-1 -529 -5 -1338 -8 -1798
l-6 -837 -80 59 c-159 116 -403 223 -627 275 -56 13 -78 22 -78 34 0 8 12 110
25 225 14 116 62 527 105 915 44 388 102 903 130 1145 77 677 130 1145 130
1161 0 18 1 18 70 -11z m-2690 -25 c0 -34 -293 -2394 -355 -2862 -19 -141 -39
-307 -44 -370 -11 -125 -45 -328 -65 -386 -12 -36 -15 -37 -66 -40 -29 -2 -56
0 -61 5 -4 4 3 136 17 293 62 725 105 1223 114 1315 12 126 156 1787 166 1913
3 51 11 95 16 98 13 9 219 52 251 53 20 1 27 -4 27 -19z m5877 -84 c119 -41
108 -18 122 -243 12 -207 83 -1240 126 -1833 14 -190 41 -577 60 -860 19 -283
39 -563 43 -622 4 -60 5 -108 1 -108 -4 0 -53 15 -110 34 -230 75 -517 133
-804 161 -213 21 -701 16 -893 -9 -278 -37 -565 -102 -778 -177 -126 -44 -321
-128 -335 -145 -6 -7 -19 -39 -28 -71 l-17 -57 -44 3 c-61 3 -111 14 -110 24
0 4 0 21 0 38 0 80 262 258 550 374 610 245 1425 267 2134 58 67 -20 135 -38
152 -40 46 -7 63 21 57 100 -2 34 -19 316 -38 627 -59 959 -164 2662 -168
2718 -2 28 -1 52 3 52 4 0 38 -11 77 -24z m-6267 -119 c0 -3 -76 -869 -145
-1657 -109 -1237 -155 -1778 -155 -1808 0 -23 8 -40 26 -57 23 -21 37 -25 91
-25 62 0 64 -1 57 -22 -21 -69 -26 -73 -106 -70 -81 4 -124 22 -147 64 -13 22
-13 47 -4 170 17 210 97 1127 148 1706 25 276 54 605 65 730 11 125 33 380 49
567 16 187 33 348 36 358 8 18 50 46 73 47 6 0 12 -1 12 -3z m6539 -71 c19
-20 23 -57 56 -521 19 -275 42 -590 50 -700 8 -110 42 -582 75 -1050 33 -467
67 -941 75 -1053 19 -260 19 -322 -1 -350 -36 -51 5 -49 -1099 -53 l-1030 -4
-3 48 -3 47 783 2 c431 0 884 2 1007 3 l225 2 23 27 c28 33 28 23 3 377 -11
156 -29 419 -40 584 -26 379 -105 1506 -125 1770 -37 493 -60 865 -56 897 2
12 39 -4 60 -26z m-6415 -3041 c-1 -17 -7 -63 -14 -103 -11 -65 -14 -72 -35
-72 -13 0 -26 4 -30 9 -3 5 2 53 12 106 16 93 17 96 42 93 22 -3 26 -8 25 -33z
m526 -29 c0 -7 -5 -39 -10 -72 -6 -32 -13 -74 -16 -91 -4 -29 -9 -33 -35 -33
-46 0 -46 8 -13 190 4 23 9 25 39 22 19 -2 35 -10 35 -16z m545 -38 c2 -2 -3
-48 -10 -103 -8 -55 -15 -101 -15 -103 0 -3 -73 9 -78 13 -2 2 2 49 9 105 l13
102 39 -5 c21 -3 40 -7 42 -9z m571 -52 c3 -2 -26 -199 -30 -203 -2 -3 -25 -1
-51 2 -43 7 -46 9 -41 34 3 14 8 58 11 96 4 39 9 74 12 78 4 6 91 0 99 -7z
m1074 -143 c207 -69 387 -170 516 -287 57 -52 61 -58 55 -88 l-7 -33 -82 -3
c-77 -3 -82 -2 -82 18 0 11 -7 36 -15 56 -12 29 -27 41 -90 70 -104 48 -286
107 -434 140 l-123 28 6 75 c4 41 9 78 12 82 6 10 124 -18 244 -58z m2659 -53
c274 -14 459 -38 671 -86 132 -30 330 -86 330 -93 0 -3 -412 -8 -916 -10 -771
-3 -918 -1 -925 10 -14 22 -11 129 4 134 34 11 291 38 437 44 91 5 174 9 185
9 11 1 107 -3 214 -8z m-935 -147 c3 -49 11 -216 16 -373 6 -157 12 -309 14
-337 1 -29 0 -53 -3 -53 -3 1 -53 46 -111 100 -61 58 -113 100 -125 100 -11 0
-63 -34 -115 -75 -52 -41 -98 -75 -101 -75 -3 0 -9 109 -13 243 -3 133 -9 287
-12 343 l-6 100 103 29 c91 25 322 82 340 84 4 1 10 -38 13 -86z m-1879 -12
c128 -29 245 -65 362 -112 94 -38 102 -43 108 -72 18 -90 40 -107 138 -107
124 0 397 -24 394 -34 -1 -6 -27 -24 -57 -39 l-55 -29 -165 5 c-91 3 -182 11
-203 17 -54 16 -105 64 -113 107 -5 27 -14 38 -38 48 -17 7 -141 28 -276 45
-135 18 -249 36 -253 40 -7 6 4 62 28 147 2 6 12 10 22 8 10 -2 59 -13 108
-24z m1339 -73 c11 -43 7 -148 -6 -153 -29 -10 -275 -10 -273 0 2 6 6 22 9 37
5 20 19 34 49 50 43 22 197 87 208 88 4 0 9 -10 13 -22z"/>
<path d="M4549 8099 c-89 -84 -164 -159 -167 -167 -8 -22 12 -47 39 -50 19 -2
54 26 163 128 76 71 141 130 145 129 3 0 53 -65 111 -145 58 -80 111 -150 117
-156 7 -6 24 -7 38 -4 49 13 33 49 -103 236 -105 142 -133 176 -155 178 -23 3
-52 -21 -188 -149z"/>
<path d="M3962 8157 c-6 -7 -18 -69 -26 -137 -15 -121 -15 -125 4 -144 16 -17
23 -18 45 -8 14 6 25 20 25 29 1 10 7 67 14 128 9 71 11 116 5 127 -11 21 -52
24 -67 5z"/>
<path d="M5426 8078 c-8 -13 -20 -78 -27 -147 -12 -117 -11 -125 6 -137 23
-17 27 -17 48 -1 25 17 57 268 37 292 -18 22 -47 19 -64 -7z"/>
<path d="M4509 7685 c-85 -80 -158 -154 -163 -165 -6 -13 -5 -25 4 -35 27 -33
56 -17 191 110 74 69 136 125 139 124 3 0 52 -65 110 -145 57 -79 113 -147
123 -150 23 -7 60 24 54 46 -2 8 -61 93 -131 188 -100 134 -133 172 -151 172
-15 0 -71 -46 -176 -145z"/>
<path d="M3923 7720 c-23 -9 -24 -15 -44 -182 -9 -77 -9 -101 1 -113 18 -22
47 -18 64 8 13 20 36 177 36 246 0 35 -24 53 -57 41z"/>
<path d="M5377 7636 c-8 -9 -20 -66 -30 -152 -15 -127 -15 -140 0 -156 45 -49
67 -9 86 152 15 123 15 136 0 152 -19 22 -37 23 -56 4z"/>
<path d="M4322 7112 c-155 -152 -282 -284 -282 -293 0 -9 81 -130 181 -269 99
-139 198 -279 220 -312 35 -51 44 -59 68 -56 37 4 591 532 591 563 0 11 -84
137 -186 280 -103 143 -202 284 -222 313 -27 41 -40 52 -61 52 -20 0 -86 -60
-309 -278z m493 -97 l185 -260 -167 -163 c-93 -89 -202 -193 -244 -232 l-76
-70 -188 263 -187 262 239 232 c131 128 241 231 245 230 4 -1 91 -119 193
-262z"/>
<path d="M4457 6927 c-65 -62 -117 -119 -117 -127 0 -14 48 -84 150 -217 22
-29 47 -53 55 -53 18 0 236 204 247 231 5 12 -16 49 -69 126 -90 129 -111 153
-132 153 -9 -1 -69 -51 -134 -113z m184 -73 l51 -76 -63 -64 c-35 -35 -68 -64
-74 -64 -5 0 -33 33 -62 73 l-51 72 71 67 c40 37 73 67 74 68 1 0 26 -34 54
-76z"/>
<path d="M3852 7253 c-6 -10 -15 -74 -22 -142 -13 -117 -12 -125 5 -137 23
-17 27 -17 48 -1 22 16 54 262 36 283 -16 20 -56 17 -67 -3z"/>
<path d="M5320 7155 c-14 -17 -43 -239 -35 -272 7 -32 45 -41 65 -15 22 27 47
267 29 288 -15 18 -43 18 -59 -1z"/>
<path d="M3803 6808 c-6 -7 -18 -69 -27 -138 -15 -121 -15 -126 4 -144 16 -16
23 -18 44 -8 21 9 25 20 32 79 5 37 8 102 9 143 0 73 -1 75 -26 78 -14 2 -30
-3 -36 -10z"/>
<path d="M5263 6698 c-10 -13 -33 -189 -33 -253 0 -29 4 -36 26 -41 16 -4 31
-2 39 7 18 19 46 258 34 281 -11 21 -52 24 -66 6z"/>
<path d="M3750 6365 c-19 -23 -44 -263 -29 -281 16 -20 56 -18 67 4 6 9 16 73
23 141 12 118 12 124 -6 137 -24 18 -40 18 -55 -1z"/>
<path d="M5212 6247 c-6 -7 -16 -70 -23 -140 -12 -116 -11 -129 4 -144 13 -14
21 -14 42 -5 14 6 25 20 25 29 1 10 7 68 14 128 8 68 10 117 4 128 -10 20 -51
23 -66 4z"/>
<path d="M4186 6164 c-9 -8 -16 -23 -16 -32 0 -19 228 -336 262 -364 11 -10
24 -18 29 -18 17 0 344 312 347 332 5 27 -17 50 -44 46 -12 -2 -84 -61 -162
-135 l-139 -132 -98 137 c-140 195 -145 200 -179 166z"/>
<path d="M3700 5925 c-14 -16 -43 -241 -34 -267 12 -38 70 -27 78 15 3 12 11
71 17 131 12 102 11 110 -6 122 -24 18 -40 18 -55 -1z"/>
<path d="M5162 5807 c-14 -16 -38 -247 -29 -271 7 -19 50 -21 65 -3 16 19 38
245 26 265 -14 22 -48 27 -62 9z"/>
<path d="M4118 5755 c-10 -22 -7 -31 23 -73 189 -268 237 -332 254 -336 11 -3
29 2 42 12 57 45 319 298 325 313 4 11 0 27 -11 41 -15 17 -23 20 -39 13 -11
-6 -84 -70 -161 -143 l-140 -132 -97 137 c-53 76 -106 150 -116 166 -25 35
-64 37 -80 2z"/>
<path d="M3640 5478 c-5 -13 -14 -74 -20 -137 -10 -98 -10 -115 3 -128 10 -10
24 -13 40 -9 29 7 30 11 48 164 9 80 9 105 -1 117 -19 23 -59 19 -70 -7z"/>
<path d="M5117 5378 c-23 -17 -54 -263 -36 -284 16 -20 57 -17 67 4 6 9 15 73
22 141 13 117 12 125 -5 137 -23 17 -27 17 -48 2z"/>
<path d="M7887 7821 c-135 -150 -149 -334 -37 -501 26 -39 30 -54 30 -116 0
-39 -3 -99 -6 -133 l-7 -62 -33 32 c-19 18 -35 46 -39 67 -16 86 -83 178 -169
234 -118 76 -173 74 -163 -8 7 -62 59 -166 107 -214 23 -23 75 -57 115 -77 62
-29 81 -45 129 -105 l56 -71 -5 -166 c-3 -91 -8 -213 -12 -271 l-5 -105 -22
29 c-11 16 -51 64 -88 108 -41 47 -68 88 -68 101 0 39 -29 139 -60 205 -36 77
-133 178 -208 216 -69 35 -153 56 -224 56 -77 0 -87 -17 -70 -128 34 -225 194
-385 429 -430 l86 -17 69 -80 c69 -81 132 -187 153 -259 14 -46 37 -66 61 -51
8 6 26 37 39 69 32 80 80 147 162 228 l68 68 77 10 c152 21 249 70 340 168 99
109 165 320 113 358 -42 31 -202 6 -306 -46 -126 -64 -211 -179 -258 -350 -19
-67 -27 -80 -76 -125 -30 -27 -71 -70 -91 -95 l-37 -45 6 199 c4 110 7 233 7
274 l0 74 72 74 c39 41 76 74 82 74 34 0 155 72 194 114 54 59 94 146 90 195
-3 33 -6 36 -36 39 -39 4 -140 -40 -191 -84 -41 -34 -107 -133 -116 -173 -3
-15 -24 -45 -47 -67 l-41 -39 6 134 6 133 46 67 c97 142 110 267 42 404 -67
134 -109 156 -170 88z m95 -124 c19 -34 23 -58 23 -132 0 -86 -2 -94 -35 -148
l-35 -58 -21 26 c-46 58 -65 159 -44 235 13 48 68 133 80 125 6 -4 20 -25 32
-48z m-362 -450 c44 -35 95 -117 73 -117 -19 0 -89 69 -112 110 -21 37 -22 42
-7 37 10 -4 30 -17 46 -30z m657 -24 c-24 -46 -119 -124 -134 -110 -12 12 52
91 96 119 25 15 46 26 49 24 2 -2 -3 -17 -11 -33z m-974 -292 c144 -50 244
-173 273 -333 l6 -38 -33 6 c-188 36 -320 166 -353 347 -7 36 -6 37 22 37 16
0 54 -9 85 -19z m1322 -68 c-19 -105 -105 -219 -204 -272 -57 -30 -201 -67
-201 -51 0 20 40 122 62 162 68 114 195 195 312 197 l38 1 -7 -37z"/>
<path d="M7144 6400 c-28 -11 -54 -48 -54 -78 0 -13 13 -37 29 -53 33 -32 65
-37 99 -13 52 36 48 110 -9 139 -32 17 -36 17 -65 5z"/>
<path d="M8552 6327 c-30 -32 -29 -87 1 -115 52 -49 137 -13 137 57 0 70 -91
109 -138 58z"/>
<path d="M7779 5860 c-142 -11 -239 -26 -378 -60 -218 -53 -271 -85 -224 -132
20 -19 21 -19 119 11 400 124 866 126 1281 5 88 -25 117 -25 127 3 13 33 -20
59 -110 86 -236 71 -562 106 -815 87z"/>
<path d="M7750 5524 c-239 -29 -513 -91 -557 -127 -18 -13 -16 -52 2 -67 13
-11 31 -8 103 14 384 119 863 126 1252 20 145 -40 148 -40 161 -10 14 30 1 52
-41 68 -50 19 -257 68 -355 83 -96 16 -487 28 -565 19z"/>
<path d="M1754 6586 c-70 -31 -87 -115 -35 -167 24 -24 38 -29 76 -29 38 0 52
5 76 29 80 80 -14 213 -117 167z"/>
<path d="M10683 6584 c-39 -19 -67 -74 -58 -114 18 -80 117 -110 177 -53 35
34 43 72 24 117 -11 26 -26 41 -50 51 -44 19 -53 18 -93 -1z"/>
<path d="M1786 5954 c-19 -19 -20 -31 -1 -164 95 -671 359 -1355 747 -1932 50
-76 62 -88 87 -88 28 0 61 26 61 49 0 6 -42 76 -93 154 -112 170 -161 256
-256 445 -224 448 -382 953 -442 1417 -6 50 -18 100 -26 113 -16 26 -54 29
-77 6z"/>
<path d="M10667 5958 c-12 -10 -21 -54 -37 -171 -59 -454 -199 -908 -414
-1343 -94 -191 -147 -285 -262 -462 -106 -166 -107 -168 -94 -191 12 -23 42
-35 69 -26 50 15 328 490 451 770 184 417 306 830 355 1208 21 155 20 204 -4
217 -26 13 -44 13 -64 -2z"/>
<path d="M2842 3524 c-52 -36 -22 -81 203 -313 634 -652 1476 -1109 2375
-1290 301 -60 322 -61 336 -5 11 45 -17 59 -165 84 -260 42 -642 149 -916 257
-602 236 -1240 675 -1645 1130 -155 173 -146 167 -188 137z"/>
<path d="M9579 3478 c-353 -422 -847 -807 -1367 -1067 -381 -191 -834 -341
-1237 -411 -157 -27 -165 -31 -165 -75 0 -54 26 -61 142 -41 860 154 1601 499
2233 1039 198 170 525 516 525 556 0 25 -32 51 -62 51 -18 0 -37 -15 -69 -52z"/>
<path d="M6243 3268 c-5 -7 -15 -33 -22 -58 -35 -120 -122 -229 -224 -280 -33
-16 -66 -30 -73 -30 -7 0 -18 -9 -24 -20 -16 -29 3 -56 47 -70 122 -39 231
-158 272 -297 30 -103 71 -98 110 13 27 80 80 164 127 202 18 15 68 45 111 67
64 33 78 45 78 64 0 26 -3 28 -86 64 -108 47 -189 145 -233 279 -20 62 -27 73
-48 76 -14 2 -29 -3 -35 -10z m60 -227 c29 -52 150 -171 173 -171 25 0 15 -15
-30 -43 -53 -33 -115 -99 -147 -155 -13 -23 -27 -42 -30 -42 -4 0 -12 14 -20
32 -13 32 -125 152 -169 181 -24 16 -25 17 -5 29 42 25 144 131 166 174 13 24
26 44 29 44 3 0 17 -22 33 -49z"/>
<path d="M5175 3023 c-33 -5 -65 -29 -65 -49 0 -23 52 -146 89 -209 48 -83
154 -185 232 -224 92 -45 194 -64 305 -57 100 6 138 16 147 40 10 27 -3 45
-47 65 -48 21 -66 43 -122 151 -111 212 -308 316 -539 283z m259 -116 c79 -36
164 -124 205 -212 18 -38 42 -82 53 -97 l19 -28 -43 0 c-58 0 -146 24 -211 56
-75 39 -154 125 -205 224 l-44 85 29 5 c48 9 138 -6 197 -33z"/>
<path d="M7165 3017 c-143 -37 -263 -137 -334 -279 -52 -105 -66 -122 -121
-151 -52 -27 -66 -67 -32 -86 33 -18 201 -25 279 -11 195 32 360 173 443 379
33 80 38 122 16 141 -22 17 -191 22 -251 7z m165 -88 c0 -26 -78 -156 -122
-205 -63 -68 -126 -110 -206 -134 -92 -29 -200 -25 -152 5 6 4 29 43 51 87 84
167 210 257 362 258 42 0 67 -4 67 -11z"/>
<path d="M4934 2640 c-28 -11 -54 -48 -54 -77 0 -36 42 -76 80 -76 37 0 80 39
80 73 0 35 -23 69 -53 80 -16 5 -30 10 -31 9 -1 0 -11 -4 -22 -9z"/>
<path d="M7550 2637 c-68 -35 -56 -136 18 -150 56 -11 110 44 96 98 -12 48
-70 75 -114 52z"/>
<path d="M6194 1946 c-26 -26 -34 -42 -34 -70 0 -74 43 -116 116 -116 62 0
115 73 100 136 -4 15 -20 39 -36 55 -42 43 -100 41 -146 -5z"/>
</g>
</svg>
