<svg version="1.0" xmlns="http://www.w3.org/2000/svg"
 width="1254.000000pt" height="1254.000000pt" viewBox="0 0 1254.000000 1254.000000"
 preserveAspectRatio="xMidYMid meet">
<metadata>
Created by potrace 1.16, written by Peter Selinger 2001-2019
</metadata>
<g transform="translate(0.000000,1254.000000) scale(0.100000,-0.100000)"
fill="#000000" stroke="none">
<path d="M4636 10448 c-9 -13 -16 -44 -16 -73 -1 -126 -68 -320 -158 -451 -77
-114 -219 -233 -337 -282 -64 -28 -160 -52 -202 -52 -34 0 -73 -29 -73 -54 0
-8 8 -24 19 -37 15 -18 32 -24 93 -30 296 -28 571 -306 644 -652 7 -37 14 -91
14 -118 0 -40 5 -55 25 -74 29 -30 49 -31 75 -5 15 15 20 33 20 70 0 114 56
296 125 410 77 126 192 236 314 299 89 46 129 58 231 71 79 10 100 24 100 65
0 34 -30 52 -97 59 -228 25 -461 203 -582 443 -42 84 -80 221 -88 313 -3 41
-12 85 -19 98 -19 30 -67 30 -88 0z m84 -436 c55 -115 99 -180 176 -261 78
-83 141 -131 237 -182 l69 -36 -55 -26 c-177 -81 -379 -298 -443 -478 -17 -47
-34 -64 -34 -34 0 26 -85 180 -135 246 -91 118 -228 232 -331 275 -36 15 -37
17 -19 30 10 8 23 14 27 14 5 0 44 23 88 50 80 52 202 171 257 250 40 59 113
205 113 226 0 25 6 16 50 -74z"/>
<path d="M8680 10101 c-38 -38 -46 -71 -25 -114 36 -76 144 -77 180 0 47 99
-78 191 -155 114z"/>
<path d="M9812 9571 c-7 -4 -19 -37 -27 -73 -33 -157 -98 -226 -260 -275 -27
-7 -30 -13 -30 -47 0 -43 8 -50 72 -66 103 -26 190 -123 214 -239 18 -92 24
-101 63 -101 42 0 44 4 61 85 29 139 97 218 219 257 66 22 71 25 74 54 4 37
-19 64 -54 64 -65 0 -159 72 -201 153 -13 27 -31 79 -38 115 -14 67 -25 82
-60 82 -11 0 -26 -4 -33 -9z m67 -290 c17 -27 49 -63 71 -79 l39 -28 -45 -38
c-25 -21 -57 -56 -72 -78 l-26 -40 -15 23 c-8 13 -40 49 -72 81 l-56 56 44 37
c24 20 55 54 70 76 14 21 27 39 28 39 1 0 16 -22 34 -49z"/>
<path d="M7575 9370 c-474 -58 -792 -203 -1099 -500 -216 -209 -338 -401 -544
-855 -235 -518 -416 -792 -713 -1080 -251 -243 -453 -368 -698 -432 -130 -34
-345 -42 -479 -19 -507 88 -837 561 -718 1030 36 140 84 224 186 327 128 128
244 179 412 179 187 0 327 -81 397 -229 22 -47 26 -70 26 -141 0 -76 -3 -91
-30 -139 -43 -77 -91 -113 -160 -119 -51 -4 -56 -3 -82 27 -31 35 -71 41 -97
15 -46 -46 19 -133 115 -153 97 -20 193 13 266 92 75 81 105 165 104 287 -1
123 -42 222 -135 318 -108 112 -265 169 -441 159 -190 -11 -351 -88 -481 -230
-239 -261 -289 -659 -124 -992 179 -362 554 -575 992 -563 70 1 124 0 120 -3
-4 -4 -54 -38 -112 -76 -246 -164 -494 -381 -711 -621 -144 -159 -415 -492
-518 -636 -31 -43 -96 -124 -145 -180 -110 -126 -229 -283 -335 -446 -101
-155 -96 -150 -129 -150 -107 0 -139 -175 -42 -225 97 -50 209 38 181 141 -9
33 -5 41 87 178 116 173 260 361 345 450 l62 65 137 33 c76 17 140 29 142 27
3 -3 1 -36 -5 -73 -10 -63 -18 -79 -114 -217 -98 -141 -228 -351 -310 -501
-26 -48 -43 -68 -56 -68 -33 0 -78 -29 -94 -60 -56 -108 48 -217 159 -165 49
24 70 66 62 131 -6 52 -5 55 65 176 94 161 226 370 306 484 l65 92 109 51 c61
29 123 54 139 58 l30 6 0 -93 0 -92 -84 -132 c-85 -132 -243 -410 -310 -543
-21 -43 -43 -73 -52 -73 -28 0 -75 -31 -94 -63 -65 -106 48 -220 160 -162 49
26 76 105 51 153 -6 12 10 50 56 137 100 187 227 406 297 514 l64 98 84 31
c47 17 101 33 120 37 44 8 48 -2 48 -133 l0 -94 -55 -84 c-73 -111 -221 -370
-298 -521 -58 -114 -64 -122 -100 -133 -90 -27 -106 -180 -22 -218 104 -47
212 46 174 151 -12 34 -10 39 90 226 105 196 235 421 277 477 18 25 38 35 106
53 46 13 99 21 118 19 33 -3 35 -5 42 -48 4 -25 4 -78 1 -119 -6 -69 -11 -82
-62 -165 -95 -152 -157 -265 -246 -448 -79 -162 -88 -176 -116 -182 -17 -3
-44 -19 -60 -35 -25 -25 -29 -37 -29 -81 0 -43 5 -56 28 -80 61 -60 158 -43
196 34 17 34 18 45 8 83 l-12 44 105 207 c103 205 232 430 264 465 20 21 135
55 199 59 44 3 47 2 53 -27 4 -16 7 -68 8 -114 1 -78 -1 -87 -33 -140 -91
-152 -252 -490 -321 -674 -15 -39 -25 -50 -61 -66 -49 -22 -74 -62 -74 -118 0
-91 98 -142 178 -93 55 34 76 122 41 166 -15 19 221 539 326 717 29 51 65 74
164 108 103 36 105 34 116 -98 5 -62 3 -78 -16 -115 -62 -120 -156 -355 -215
-538 -37 -113 -68 -210 -70 -217 -1 -6 -18 -19 -36 -27 -62 -30 -85 -104 -53
-166 21 -40 53 -60 98 -60 102 0 155 90 110 185 l-17 35 68 202 c63 191 185
489 221 544 13 20 150 97 206 116 7 2 7 18 -1 50 -11 41 -9 55 9 111 12 35 33
75 46 87 14 13 25 29 25 37 0 20 14 17 114 -25 50 -22 100 -42 111 -46 17 -7
13 -11 -27 -32 -31 -16 -48 -31 -48 -43 0 -10 -7 -35 -15 -55 l-15 -37 26 7
c26 7 26 6 13 -13 -19 -27 -98 -113 -104 -113 -3 0 -5 9 -5 21 0 11 -5 29 -10
40 -10 18 -12 18 -55 -4 -49 -25 -50 -28 -35 -125 10 -61 10 -65 -34 -175 -44
-112 -81 -235 -110 -358 -22 -97 -56 -301 -56 -339 0 -22 -9 -40 -28 -58 -39
-36 -52 -64 -52 -107 0 -74 47 -121 121 -119 104 3 153 121 84 202 l-24 29 15
104 c30 207 85 425 154 607 43 113 65 143 295 402 164 184 416 494 598 737
185 246 156 231 457 244 241 10 331 21 460 56 304 81 598 300 715 533 l33 66
188 109 c427 248 605 310 889 310 220 0 383 -47 540 -155 337 -233 426 -706
198 -1052 -123 -188 -323 -288 -552 -275 -258 13 -441 179 -441 400 0 164 88
277 215 277 60 0 105 -40 105 -92 0 -55 33 -83 78 -67 33 12 44 50 31 110 -30
137 -190 204 -336 140 -103 -45 -185 -165 -205 -301 -30 -202 98 -431 292
-522 103 -49 167 -62 295 -62 133 1 219 20 330 74 184 89 318 254 390 480 37
114 46 314 21 441 -73 363 -354 629 -743 705 -112 22 -326 22 -437 0 -44 -9
-81 -14 -83 -12 -2 2 9 11 24 21 97 64 466 408 656 613 364 392 457 544 457
745 -1 147 -48 242 -241 482 -352 438 -469 651 -604 1100 -36 117 -66 177
-123 237 -107 115 -291 185 -607 234 -116 18 -656 28 -770 14z m530 -110 c215
-15 495 -61 495 -81 0 -5 -6 -9 -13 -9 -7 0 -46 -16 -87 -36 -327 -156 -595
-534 -818 -1149 -71 -198 -128 -383 -254 -835 -110 -394 -195 -676 -261 -865
-162 -462 -342 -842 -584 -1229 -187 -299 -749 -1026 -793 -1026 -58 0 -317
112 -477 206 -243 142 -432 284 -737 553 -389 344 -613 474 -909 532 -54 10
-122 19 -152 19 -30 0 -55 3 -55 6 0 12 173 207 295 333 249 257 465 424 882
682 369 229 513 337 703 528 295 296 463 558 713 1107 200 439 337 646 559
842 375 331 857 467 1493 422z m700 -191 c51 -14 116 -81 133 -136 16 -55 15
-159 -3 -219 -8 -27 -35 -83 -60 -124 -141 -231 -301 -639 -416 -1056 -46
-170 -114 -447 -170 -699 -170 -763 -333 -1309 -440 -1475 -108 -168 -309
-320 -533 -404 -126 -48 -253 -67 -486 -75 -118 -4 -216 -6 -218 -5 -2 1 29
53 69 115 156 248 299 521 426 817 142 331 260 683 398 1187 254 922 392 1292
605 1614 216 326 499 514 695 460z m264 -529 c87 -225 241 -479 444 -732 152
-189 197 -249 197 -258 0 -4 -25 -10 -56 -13 -119 -12 -251 -98 -499 -323
-315 -287 -488 -410 -696 -499 l-81 -35 6 37 c21 117 156 673 201 832 110 381
240 717 365 941 38 69 70 132 70 140 0 25 16 -3 49 -90z m709 -1144 c49 -49
37 -186 -25 -296 -165 -291 -762 -884 -1233 -1224 -161 -117 -430 -285 -430
-270 0 4 15 57 34 118 45 146 94 326 156 576 28 113 54 213 58 223 5 12 41 32
93 52 256 99 448 230 792 543 76 69 165 147 198 174 161 129 294 168 357 104z
m-6338 -2191 c-7 -9 -25 -51 -40 -93 l-27 -77 -93 -23 c-51 -12 -95 -20 -98
-18 -2 3 35 55 84 116 l87 110 50 0 c44 0 48 -2 37 -15z m206 4 c32 -6 63 -14
67 -18 5 -5 -39 -32 -97 -62 -58 -29 -107 -51 -110 -48 -8 8 57 139 68 139 7
0 39 -5 72 -11z m309 -106 c41 -21 75 -40 75 -44 0 -3 -37 -20 -82 -37 -46
-16 -91 -33 -102 -38 -16 -6 -18 -3 -11 27 8 44 35 129 41 129 2 0 37 -17 79
-37z m-219 -38 c-3 -8 -8 -38 -12 -66 -5 -40 -4 -50 7 -48 8 1 28 -3 44 -10
24 -11 39 -11 75 -1 71 20 109 23 125 10 10 -8 29 -10 55 -6 39 6 40 6 30 -20
-6 -15 -13 -59 -17 -99 l-6 -72 -61 -12 c-33 -7 -81 -21 -105 -32 -24 -10 -45
-19 -47 -19 -2 0 -4 24 -4 54 0 61 -7 86 -24 86 -6 1 -27 23 -46 51 -35 50
-35 50 -80 44 -25 -4 -80 -22 -123 -40 l-78 -34 3 50 3 50 58 24 c32 13 77 36
100 52 72 48 113 64 103 38z m526 -162 c39 -32 80 -66 92 -75 11 -9 19 -18 16
-20 -11 -8 -168 -52 -201 -56 -30 -3 -37 0 -47 23 -19 42 -15 82 12 107 14 13
30 35 35 51 6 15 13 27 16 27 3 0 38 -26 77 -57z m138 -213 c0 -11 7 -20 15
-20 9 0 18 -7 21 -15 4 -9 15 -20 25 -26 17 -9 22 -5 35 26 17 42 8 46 117
-49 37 -32 67 -62 67 -67 0 -13 -122 -49 -167 -49 -37 0 -50 6 -87 40 -46 42
-56 40 -56 -14 0 -19 -8 -23 -82 -33 -46 -7 -93 -15 -104 -19 -21 -6 -22 -2
-26 88 -4 97 0 108 38 108 12 0 32 9 45 19 16 12 34 17 50 14 14 -2 41 0 60 5
48 14 49 14 49 -8z m314 -280 c-4 -8 -9 -51 -11 -95 l-5 -80 -87 -17 c-48 -10
-95 -20 -104 -24 -15 -5 -17 4 -17 85 0 50 -1 94 -2 98 -2 4 14 10 35 14 21 3
45 12 52 20 9 9 37 14 80 14 55 0 64 -2 59 -15z m212 -57 l77 -58 -44 -19 -43
-18 37 -34 c20 -19 46 -34 57 -34 14 0 20 -7 20 -21 0 -11 9 -32 20 -46 11
-14 20 -41 20 -59 0 -40 -24 -59 -90 -69 -25 -4 -67 -16 -95 -26 -27 -11 -51
-19 -52 -19 -2 0 -3 21 -3 48 0 26 -5 65 -10 87 -7 32 -6 42 5 51 13 10 10 16
-20 38 -26 20 -35 35 -35 55 0 16 6 31 13 34 8 3 19 36 26 82 10 58 16 75 27
71 7 -3 48 -31 90 -63z m296 -196 c37 -21 70 -42 73 -47 4 -6 -143 -80 -160
-80 -7 0 -6 86 1 133 4 21 9 36 13 35 3 -2 36 -20 73 -41z m88 -252 c0 -73 -1
-75 -27 -81 -16 -4 -45 -15 -65 -25 -21 -11 -39 -19 -42 -19 -2 0 -7 19 -11
43 -3 23 -8 54 -11 70 -4 18 -1 27 8 27 7 0 40 13 73 29 33 16 63 30 68 30 4
1 7 -33 7 -74z"/>
<path d="M6859 8463 c-104 -97 -205 -280 -349 -628 -261 -634 -412 -916 -679
-1270 -166 -220 -415 -480 -633 -660 -90 -73 -108 -93 -108 -116 0 -34 24 -59
55 -59 63 0 502 414 691 650 326 409 490 704 771 1385 146 355 241 531 338
625 40 38 46 77 17 103 -29 26 -49 20 -103 -30z"/>
<path d="M3264 9040 c-56 -22 -72 -103 -29 -145 56 -56 155 -18 155 60 0 67
-65 110 -126 85z"/>
<path d="M2631 6206 c-32 -18 -50 -53 -51 -97 0 -73 75 -124 142 -96 63 27 89
82 64 141 -8 18 -24 41 -37 50 -28 19 -85 20 -118 2z"/>
<path d="M6872 4061 c-7 -4 -22 -48 -33 -97 -51 -234 -192 -387 -389 -424 -54
-10 -90 -36 -90 -66 0 -24 39 -54 70 -54 17 0 67 -14 111 -31 155 -60 261
-200 297 -395 13 -69 21 -90 40 -102 29 -19 69 -3 76 30 36 194 72 275 160
364 68 68 143 108 233 127 72 14 93 30 93 67 0 36 -13 45 -85 60 -147 29 -264
119 -329 252 -37 75 -66 172 -66 219 0 44 -51 74 -88 50z m155 -464 c27 -26
74 -65 106 -84 l57 -36 -52 -30 c-73 -42 -156 -130 -199 -211 l-36 -68 -43 78
c-47 85 -119 161 -192 202 -27 15 -48 29 -48 32 0 3 28 21 62 40 75 43 146
121 188 207 l32 66 39 -74 c21 -40 60 -95 86 -122z"/>
<path d="M8153 3720 c-32 -13 -55 -55 -57 -100 -2 -76 80 -127 151 -94 70 34
84 115 29 170 -35 35 -75 43 -123 24z"/>
</g>
</svg>
