<svg version="1.0" xmlns="http://www.w3.org/2000/svg"
 width="1254.000000pt" height="1254.000000pt" viewBox="0 0 1254.000000 1254.000000"
 preserveAspectRatio="xMidYMid meet">
<metadata>
Created by potrace 1.16, written by Peter Selinger 2001-2019
</metadata>
<g transform="translate(0.000000,1254.000000) scale(0.100000,-0.100000)"
fill="#000000" stroke="none">
<path d="M6265 11321 c-64 -27 -82 -114 -32 -157 39 -34 96 -33 131 2 68 69
-10 192 -99 155z"/>
<path d="M6205 10681 c-136 -61 -163 -238 -51 -327 l34 -27 -73 -121 c-40 -67
-134 -228 -210 -359 -94 -161 -141 -235 -149 -229 -6 5 -132 100 -281 212
-148 112 -273 206 -277 210 -5 3 1 24 12 45 36 70 23 169 -29 229 -43 49 -149
71 -218 45 -40 -15 -82 -57 -104 -104 -50 -107 11 -236 125 -267 l42 -11 53
-281 c118 -624 154 -802 163 -813 15 -19 2061 -19 2075 0 6 6 36 143 67 302
57 295 146 773 146 785 0 3 20 11 44 18 145 38 195 221 89 324 -46 45 -79 58
-144 58 -52 0 -112 -24 -140 -56 -52 -60 -65 -159 -29 -229 11 -21 19 -39 17
-40 -67 -51 -556 -420 -564 -427 -8 -7 -19 3 -35 32 -13 23 -107 183 -209 357
l-185 316 42 42 c123 124 31 336 -146 335 -14 0 -43 -9 -65 -19z m147 -109
c56 -55 37 -137 -38 -168 -42 -17 -69 -11 -106 24 -53 49 -42 133 23 165 43
22 86 15 121 -21z m-13 -365 c30 -50 132 -227 228 -392 96 -165 180 -303 186
-307 7 -4 19 -8 27 -8 9 0 159 108 334 240 175 132 320 240 322 240 3 0 2 -15
-1 -32 -23 -133 -104 -563 -140 -751 -25 -125 -45 -230 -45 -232 0 -3 -436 -5
-970 -5 l-970 0 -4 23 c-5 19 -103 538 -166 875 -12 63 -20 115 -18 117 3 3
168 -118 477 -352 112 -85 170 -123 185 -121 27 4 52 44 295 463 107 184 197
335 200 335 3 0 30 -42 60 -93z m-1221 38 c35 -41 30 -99 -12 -141 -26 -26
-42 -34 -71 -34 -51 0 -105 53 -105 102 0 101 122 148 188 73z m2460 22 c55
-27 68 -109 25 -157 -76 -85 -212 -14 -182 94 20 71 85 98 157 63z"/>
<path d="M6252 9683 c-42 -36 -222 -287 -222 -310 0 -30 208 -301 238 -309 12
-4 29 -1 38 7 36 30 224 283 224 302 0 23 -213 312 -236 321 -21 8 -19 8 -42
-11z m103 -203 c41 -54 75 -102 75 -106 0 -10 -142 -194 -150 -194 -8 0 -139
166 -147 186 -4 10 132 212 144 214 1 0 36 -45 78 -100z"/>
<path d="M8550 9859 c-7 -11 -9 -27 -6 -35 3 -8 45 -39 93 -71 619 -399 1155
-1012 1439 -1643 55 -123 60 -130 88 -130 28 0 46 18 46 45 0 30 -166 361
-257 510 -309 510 -745 958 -1255 1289 -92 60 -130 69 -148 35z"/>
<path d="M3755 9756 c-343 -235 -682 -557 -927 -883 -96 -127 -200 -282 -273
-408 -78 -134 -215 -415 -215 -441 0 -26 18 -44 46 -44 27 0 27 0 81 120 272
602 789 1210 1351 1587 61 41 112 82 112 90 0 28 -21 53 -44 53 -12 0 -71 -33
-131 -74z"/>
<path d="M4434 9386 c-3 -8 -4 -24 -2 -35 4 -25 316 -311 339 -311 10 0 25 10
33 22 19 27 10 45 -52 101 -25 23 -94 86 -152 139 -79 74 -112 97 -133 98 -15
0 -30 -6 -33 -14z"/>
<path d="M7908 9258 c-84 -77 -157 -147 -161 -155 -11 -17 17 -63 38 -63 19 0
331 278 340 303 12 31 -4 57 -35 57 -23 0 -59 -28 -182 -142z"/>
<path d="M4146 8794 c-20 -19 -21 -48 -2 -63 9 -8 87 -11 262 -9 l249 3 3 30
c6 52 -8 55 -264 55 -198 0 -235 -2 -248 -16z"/>
<path d="M7922 8803 c-22 -9 -34 -41 -22 -63 10 -19 21 -20 261 -20 l249 0 12
25 c9 21 8 28 -7 45 -17 19 -30 20 -249 19 -127 0 -237 -3 -244 -6z"/>
<path d="M5266 8734 c-19 -18 -20 -28 -6 -55 10 -19 32 -19 1013 -19 767 0
1006 3 1015 12 7 7 12 21 12 33 0 12 -5 26 -12 33 -9 9 -247 12 -1009 12 -894
0 -999 -2 -1013 -16z"/>
<path d="M4826 8244 c-179 -56 -300 -254 -350 -574 -9 -52 -43 -331 -76 -620
-136 -1188 -204 -1751 -244 -2030 -24 -162 -40 -302 -36 -310 15 -31 -50 -300
-107 -445 -96 -241 -126 -299 -162 -315 -33 -13 -61 -54 -61 -90 0 -86 105
-125 163 -60 28 31 35 76 18 109 -8 13 7 55 58 172 38 85 83 196 101 247 l33
92 59 0 60 0 -7 -32 c-26 -130 -109 -451 -119 -458 -71 -58 -71 -57 -71 -104
0 -62 29 -91 91 -91 38 0 50 5 70 28 27 32 32 92 10 122 -11 16 -9 31 15 113
16 52 45 168 65 256 20 89 40 166 45 172 5 6 20 60 35 120 14 60 29 112 32
116 5 5 330 -16 338 -21 0 -1 -7 -43 -17 -93 -10 -51 -19 -105 -19 -119 0 -36
-71 -256 -132 -412 -37 -95 -56 -130 -72 -136 -32 -13 -56 -45 -63 -83 -4 -29
0 -41 25 -69 25 -28 37 -34 72 -34 34 0 47 6 66 28 26 30 32 83 13 118 -8 16
0 44 39 142 55 137 94 245 116 328 l16 56 52 -5 c29 -2 55 -6 57 -8 6 -5 -39
-235 -75 -387 -23 -96 -29 -109 -54 -122 -59 -31 -59 -130 1 -160 43 -23 77
-18 110 14 22 23 29 39 29 68 0 21 -6 46 -14 55 -10 14 -10 29 5 85 9 37 33
151 53 253 21 102 41 192 46 202 5 9 21 68 36 132 l28 116 50 -1 c71 0 266
-16 271 -21 9 -9 -45 -302 -70 -383 -14 -44 -48 -144 -76 -221 -46 -129 -54
-144 -87 -165 -65 -43 -66 -131 -1 -164 43 -23 77 -18 110 14 31 32 38 71 18
115 -10 20 -4 45 39 163 41 114 71 206 118 362 3 10 16 12 56 7 29 -4 54 -9
56 -10 3 -4 -60 -336 -82 -428 -10 -42 -22 -65 -50 -91 -30 -29 -36 -41 -36
-76 0 -57 33 -91 88 -91 80 0 124 75 85 142 -19 32 -19 35 -1 103 10 39 34
153 53 255 20 102 40 194 45 205 5 11 22 71 36 133 l26 114 57 -6 c31 -3 102
-8 159 -12 82 -5 102 -9 102 -21 0 -19 -27 -189 -41 -263 -6 -30 -43 -151 -81
-268 -63 -191 -74 -214 -99 -227 -65 -34 -79 -106 -30 -156 41 -40 91 -40 132
0 31 32 36 64 18 115 -10 27 -6 46 35 158 25 70 62 183 83 250 20 68 37 125
39 127 2 2 27 0 57 -3 l54 -7 -14 -77 c-8 -42 -29 -152 -48 -244 -32 -162 -35
-169 -69 -202 -30 -27 -36 -40 -36 -72 1 -42 13 -64 47 -82 86 -46 175 46 126
130 -18 32 -18 35 -2 108 10 41 32 154 49 250 17 96 38 191 45 210 8 19 24 80
35 135 12 54 23 101 25 103 7 7 325 -10 325 -17 0 -18 -51 -300 -60 -336 -6
-22 -39 -125 -73 -229 -58 -176 -64 -191 -95 -209 -39 -23 -52 -45 -52 -87 0
-45 16 -70 57 -86 82 -35 157 47 118 129 -15 31 -14 37 3 78 24 56 105 302
130 394 l20 70 52 -2 c29 -2 55 -5 58 -8 3 -3 -15 -113 -40 -245 -46 -239 -46
-240 -82 -273 -29 -28 -36 -42 -36 -73 0 -49 20 -79 64 -94 83 -27 151 60 108
140 -15 28 -17 42 -9 75 5 22 29 141 53 265 24 124 56 281 71 349 l27 123 93
-4 c50 -2 96 -7 100 -11 12 -13 -60 -434 -114 -660 -21 -91 -29 -110 -49 -119
-31 -15 -57 -71 -49 -108 15 -67 111 -95 160 -45 29 28 34 97 10 129 -9 12
-11 25 -5 40 15 41 78 359 105 531 14 94 34 217 45 275 10 58 22 125 25 150 3
25 8 56 11 70 l4 25 154 -3 c91 -2 170 1 194 8 91 24 142 99 151 224 6 77 7
80 35 87 37 10 82 53 107 101 27 53 39 151 47 398 l7 215 63 7 c71 8 136 40
168 85 51 71 49 30 49 1043 0 872 -1 950 -18 1010 -39 143 -107 245 -198 295
l-54 30 -1600 2 c-1399 1 -1606 0 -1649 -13z m506 -101 c-51 -72 -122 -247
-122 -300 0 -27 35 -46 61 -32 10 5 27 41 39 81 30 98 73 181 122 234 l41 44
833 0 834 0 -30 -48 c-36 -60 -72 -153 -100 -263 -21 -81 -21 -82 -2 -102 30
-29 59 -15 72 36 42 164 96 284 153 345 l31 32 273 0 274 0 -40 -53 c-51 -67
-92 -158 -125 -273 -35 -125 -52 -225 -81 -489 -13 -126 -68 -626 -120 -1110
-131 -1205 -185 -1668 -198 -1681 -6 -6 -521 28 -529 35 -3 3 -2 31 2 61 21
142 21 147 5 164 -9 9 -22 16 -28 16 -32 -1 -42 -23 -57 -127 l-16 -108 -65 2
c-145 5 -1654 111 -1675 118 -7 2 -6 35 4 107 17 116 14 138 -21 138 -37 0
-46 -19 -63 -126 -9 -55 -19 -102 -22 -105 -7 -7 -558 34 -566 42 -2 2 4 58
15 124 22 146 82 597 109 830 66 570 85 744 130 1140 92 808 111 927 174 1069
34 77 89 150 133 177 72 45 97 48 341 49 l233 0 -19 -27z m2767 -7 c77 -49
132 -161 151 -308 7 -56 10 -367 8 -963 -3 -825 -4 -882 -21 -913 -24 -43 -72
-72 -122 -72 l-40 0 0 973 c0 912 -1 974 -18 1000 -38 58 -99 41 -145 -41 -46
-83 -87 -328 -113 -687 -6 -84 -13 -552 -15 -1060 -5 -819 -7 -913 -22 -942
-15 -30 -15 -33 1 -51 21 -23 23 -109 3 -157 -27 -64 -60 -75 -233 -75 -84 0
-153 4 -153 8 0 5 9 80 20 168 25 210 136 1215 205 1874 66 624 77 714 105
845 37 167 85 278 153 352 80 87 152 102 236 49z m-119 -2146 c-17 -732 -23
-784 -89 -828 l-23 -16 5 940 c5 883 9 1035 37 1304 12 110 56 345 68 364 12
19 14 -1249 2 -1764z m-3633 -1315 c9 -3 10 -12 3 -32 -5 -15 -16 -54 -25 -86
l-16 -58 -62 7 c-34 4 -64 8 -65 10 -4 3 28 154 34 166 4 6 105 1 131 -7z
m640 -51 l29 -6 -20 -84 -20 -84 -62 0 c-35 0 -65 3 -67 8 -3 4 2 44 11 90
l16 82 42 0 c23 0 55 -3 71 -6z m673 -56 c-1 -7 -9 -47 -18 -88 l-18 -75 -64
0 -65 0 1 30 c1 17 7 56 13 88 l12 57 70 0 c49 0 69 -4 69 -12z m638 -43 c2
-2 -5 -41 -15 -87 l-19 -83 -63 2 c-35 1 -64 3 -66 5 -1 2 5 43 14 92 l16 88
65 -6 c35 -4 66 -9 68 -11z m596 -31 c54 -8 54 -10 30 -115 l-16 -70 -61 3
-62 3 2 40 c2 22 8 64 14 93 11 57 11 57 93 46z"/>
<path d="M5920 7709 c-105 -100 -195 -190 -201 -201 -13 -25 6 -58 34 -58 14
1 82 57 196 165 l174 165 135 -171 c117 -147 138 -170 160 -167 35 4 49 30 34
60 -7 13 -76 104 -155 203 -95 119 -151 181 -165 183 -17 3 -67 -40 -212 -179z"/>
<path d="M5172 7652 c-12 -12 -21 -41 -26 -78 -3 -32 -13 -106 -20 -163 -10
-70 -11 -111 -5 -123 11 -21 52 -24 67 -5 8 10 52 293 52 339 0 18 -26 48 -41
48 -5 0 -17 -8 -27 -18z"/>
<path d="M6963 7578 c-14 -17 -20 -49 -38 -211 -9 -76 -13 -147 -10 -157 8
-26 34 -33 60 -16 19 13 23 31 39 178 22 194 20 212 -15 216 -14 2 -30 -3 -36
-10z"/>
<path d="M5868 7274 c-104 -97 -188 -181 -188 -188 0 -16 32 -46 48 -46 7 0
87 68 178 152 91 83 169 147 172 142 4 -6 60 -76 126 -157 93 -116 123 -147
142 -147 29 0 53 41 37 62 -238 303 -285 358 -306 358 -14 -1 -86 -61 -209
-176z"/>
<path d="M5098 7103 c-15 -17 -48 -249 -48 -330 0 -65 74 -65 84 0 7 39 36
288 36 304 0 16 -28 43 -44 43 -7 0 -20 -8 -28 -17z"/>
<path d="M6892 7003 c-5 -10 -17 -93 -27 -186 -19 -181 -16 -197 31 -197 34 0
41 22 59 208 18 176 16 192 -31 192 -13 0 -27 -8 -32 -17z"/>
<path d="M5962 6968 c-26 -24 -159 -149 -296 -278 -137 -129 -271 -255 -298
-281 -26 -25 -48 -52 -48 -61 0 -20 507 -653 545 -680 5 -4 16 -8 23 -8 28 0
692 623 692 650 0 9 -64 98 -142 197 -79 98 -194 244 -257 323 -112 144 -145
180 -162 180 -5 0 -31 -19 -57 -42z m124 -165 c130 -162 340 -428 365 -461
l24 -34 -30 -25 c-16 -14 -145 -133 -285 -263 -140 -131 -259 -239 -265 -241
-10 -3 -50 44 -313 369 l-155 193 44 44 c80 80 534 504 540 505 3 0 37 -39 75
-87z"/>
<path d="M5827 6477 c-73 -68 -133 -133 -135 -143 -4 -28 205 -284 233 -284
24 0 285 244 285 267 0 14 -191 260 -214 275 -24 16 -42 4 -169 -115z m209
-72 c33 -41 60 -79 62 -83 1 -4 -36 -42 -82 -85 l-85 -77 -65 77 c-36 43 -66
81 -66 84 0 10 157 159 167 159 6 0 37 -34 69 -75z"/>
<path d="M5032 6557 c-15 -17 -22 -52 -26 -127 -2 -36 -10 -100 -17 -143 -11
-69 -11 -79 3 -94 22 -21 66 -10 73 20 3 12 7 47 8 77 2 42 -1 55 -13 55 -8 0
-16 8 -18 18 -3 15 8 22 30 18 23 -3 37 156 16 177 -16 16 -43 15 -56 -1z"/>
<path d="M6833 6448 c-4 -7 -11 -51 -14 -98 -4 -47 -12 -122 -19 -167 -10 -66
-10 -86 0 -98 15 -18 54 -20 68 -2 5 6 18 87 27 179 14 135 15 171 5 183 -15
18 -56 20 -67 3z"/>
<path d="M5186 6384 c-20 -19 -20 -48 -1 -64 19 -16 45 -9 62 17 13 19 12 24
-6 42 -25 25 -35 26 -55 5z"/>
<path d="M6660 6336 c-28 -35 11 -93 48 -70 35 22 22 84 -18 84 -10 0 -23 -7
-30 -14z"/>
<path d="M4962 6017 c-18 -21 -54 -347 -41 -363 14 -17 53 -18 67 -1 16 20 53
337 41 359 -11 21 -52 24 -67 5z"/>
<path d="M6781 5897 c-13 -16 -44 -287 -39 -343 3 -36 6 -39 36 -42 20 -2 34
2 37 10 8 21 35 269 35 319 0 25 -5 50 -12 57 -16 16 -43 15 -57 -1z"/>
<path d="M5522 5698 c-7 -7 -12 -20 -12 -31 0 -17 258 -335 309 -381 17 -15
26 -17 44 -9 38 19 387 344 387 362 0 23 -20 41 -45 41 -13 0 -84 -57 -185
-149 -114 -103 -169 -146 -177 -139 -6 5 -69 78 -140 163 -128 155 -151 173
-181 143z"/>
<path d="M4901 5471 c-14 -14 -22 -52 -36 -176 -18 -160 -16 -186 16 -193 8
-1 23 3 33 11 14 10 22 43 37 163 23 183 23 179 3 198 -20 21 -30 20 -53 -3z"/>
<path d="M6727 5342 c-22 -24 -57 -335 -41 -360 14 -22 48 -27 63 -9 6 8 20
88 31 178 18 146 18 165 5 186 -18 28 -36 29 -58 5z"/>
<path d="M5463 5323 c-36 -14 -9 -58 149 -249 89 -108 168 -198 175 -201 18
-7 45 12 139 98 45 41 129 117 187 169 108 97 124 123 91 150 -25 22 -54 3
-211 -140 -82 -74 -158 -143 -169 -152 -20 -18 -23 -15 -165 157 -141 171
-157 184 -196 168z"/>
<path d="M7560 5134 c-22 -26 -1 -68 36 -72 43 -4 72 28 56 63 -9 20 -19 25
-46 25 -18 0 -39 -7 -46 -16z"/>
<path d="M2187 7639 c-218 -23 -411 -115 -575 -273 -208 -200 -325 -516 -292
-788 28 -237 110 -414 270 -582 193 -202 425 -300 710 -299 483 1 883 345 960
826 19 117 8 300 -25 412 -60 203 -185 388 -348 513 -187 144 -456 218 -700
191z m366 -123 c304 -103 511 -317 598 -618 29 -101 36 -277 16 -383 -20 -109
-68 -229 -126 -317 -218 -334 -598 -481 -985 -382 -237 61 -454 247 -566 487
-138 294 -98 644 105 906 84 109 182 189 310 253 145 73 221 88 415 84 136 -3
165 -7 233 -30z"/>
<path d="M2224 7253 c-90 -135 -124 -240 -124 -383 0 -135 38 -254 114 -354
l36 -46 0 -118 -1 -117 -28 61 c-92 198 -243 328 -430 370 -79 18 -117 13
-126 -15 -9 -29 23 -168 55 -235 83 -174 242 -279 447 -293 l83 -6 0 -54 c0
-47 3 -55 25 -65 38 -17 55 4 55 68 l0 54 48 0 c169 1 350 89 433 211 52 77
75 132 94 228 25 124 10 137 -124 106 -180 -43 -350 -192 -417 -367 -29 -74
-34 -66 -34 51 l0 113 45 68 c71 106 97 186 102 310 6 127 -10 208 -63 312
-60 119 -90 158 -124 158 -23 0 -35 -10 -66 -57z m110 -136 c70 -144 81 -271
37 -400 -22 -62 -72 -157 -83 -157 -4 0 -26 38 -49 84 -56 114 -70 206 -46
319 16 80 79 227 97 227 5 0 25 -33 44 -73z m-394 -607 c70 -45 139 -126 183
-214 20 -41 37 -77 37 -80 0 -19 -154 29 -212 66 -88 56 -165 169 -184 271
l-6 38 65 -24 c36 -13 89 -39 117 -57z m876 38 c-23 -114 -120 -240 -220 -287
-54 -26 -164 -56 -172 -48 -7 7 50 115 92 174 53 74 130 135 211 169 82 34 97
32 89 -8z"/>
<path d="M9950 7621 c-591 -130 -947 -748 -759 -1316 91 -274 286 -495 543
-616 149 -69 215 -83 421 -83 160 -1 189 2 260 22 620 180 923 854 646 1437
-76 159 -209 312 -357 411 -95 63 -164 95 -283 130 -119 36 -344 43 -471 15z
m378 -87 c277 -57 516 -242 645 -499 81 -162 116 -347 97 -513 -46 -406 -346
-738 -739 -817 -126 -26 -317 -17 -431 20 -323 104 -546 337 -642 672 -19 65
-23 103 -23 223 0 173 18 248 95 405 131 269 390 467 672 514 87 14 243 12
326 -5z"/>
<path d="M9801 7107 c-36 -19 -341 -388 -341 -414 0 -23 217 -288 466 -569
150 -169 206 -224 231 -224 30 0 206 194 524 575 156 187 169 205 169 221 0
17 -315 396 -343 411 -16 9 -109 13 -352 13 -243 0 -336 -4 -354 -13z m279
-82 c0 -15 -138 -221 -168 -251 l-35 -35 -137 3 -138 3 94 115 c98 118 114
134 114 105 0 -9 7 -30 16 -47 l16 -30 24 23 c22 21 25 29 19 71 l-7 48 101 0
c56 0 101 -2 101 -5z m345 -43 c-6 -44 -4 -50 18 -65 25 -16 26 -16 45 24 l20
40 102 -120 101 -121 -145 0 c-124 0 -146 2 -146 15 0 8 -14 24 -31 34 -27 16
-158 209 -159 234 0 4 45 7 101 7 l101 0 -7 -48z m-185 -135 c34 -54 60 -101
57 -103 -2 -3 -68 -3 -146 -2 l-142 3 56 90 c94 149 85 139 100 124 7 -8 40
-58 75 -112z m-266 -449 c95 -308 91 -292 77 -284 -6 4 -42 44 -80 89 -38 45
-129 152 -201 237 -72 85 -141 167 -151 183 l-20 27 148 0 149 0 78 -252z
m340 225 c-4 -16 -38 -136 -75 -268 -38 -132 -69 -248 -69 -257 0 -21 -19 -34
-24 -16 -2 7 -19 67 -36 133 -18 66 -52 189 -76 273 -24 84 -44 155 -44 157 0
3 74 5 165 5 l165 0 -6 -27z m379 5 c-11 -13 -80 -95 -153 -183 -141 -169
-241 -287 -273 -320 l-19 -20 5 20 c3 11 30 101 60 200 31 99 65 213 77 253
l22 72 151 0 150 0 -20 -22z"/>
<path d="M2253 5466 c-37 -17 -53 -43 -53 -86 0 -42 15 -67 51 -86 62 -32 134
14 134 87 0 69 -68 113 -132 85z"/>
<path d="M10159 5375 c-84 -47 -47 -175 51 -175 76 0 118 97 68 155 -28 32
-83 41 -119 20z"/>
<path d="M2478 5043 c-9 -10 -18 -48 -22 -87 -9 -90 -56 -236 -101 -311 -73
-121 -182 -206 -308 -239 -74 -19 -77 -22 -77 -56 0 -35 7 -40 94 -62 87 -23
142 -55 215 -126 98 -97 165 -248 177 -399 7 -84 22 -113 60 -113 38 0 51 23
57 109 12 155 78 303 182 407 66 67 133 106 222 129 57 15 73 27 73 55 0 28
-16 40 -75 55 -198 52 -346 226 -395 465 -11 52 -20 109 -20 127 0 55 -50 83
-82 46z m54 -340 c44 -121 154 -257 257 -318 28 -16 51 -32 51 -35 0 -3 -19
-16 -42 -29 -99 -56 -199 -174 -252 -295 l-32 -76 -24 58 c-54 132 -172 271
-268 317 -23 11 -42 22 -42 25 0 3 14 11 31 19 94 41 220 192 270 320 13 34
26 61 29 61 3 0 13 -21 22 -47z"/>
<path d="M9802 4933 c-5 -10 -13 -45 -17 -78 -18 -149 -103 -321 -198 -399
-54 -44 -129 -82 -192 -96 -70 -17 -100 -33 -103 -55 -4 -34 12 -46 84 -62
200 -45 338 -187 394 -407 11 -44 20 -95 20 -113 0 -50 16 -73 49 -73 39 0 46
12 59 101 24 163 104 321 199 397 52 41 153 89 207 97 53 9 66 21 66 56 0 32
-17 43 -80 53 -20 4 -67 21 -105 40 -72 34 -158 114 -203 187 -35 58 -69 158
-82 244 -16 110 -23 125 -59 125 -19 0 -34 -7 -39 -17z m59 -315 c33 -101 145
-233 246 -290 l53 -30 -57 -34 c-84 -49 -166 -141 -217 -245 l-44 -87 -42 84
c-50 103 -134 196 -219 244 -33 19 -61 37 -61 40 0 3 21 16 46 30 97 51 221
196 254 295 6 19 15 35 19 35 4 0 14 -19 22 -42z"/>
<path d="M8883 3549 c-151 -40 -258 -104 -365 -217 -107 -114 -167 -254 -183
-428 l-8 -79 -70 -83 c-38 -45 -102 -112 -141 -149 -84 -79 -254 -206 -328
-247 l-53 -29 55 59 c113 119 200 267 236 399 21 80 32 329 14 350 -59 71
-340 -116 -448 -296 -88 -150 -113 -348 -68 -544 8 -33 14 -60 13 -61 -160
-75 -486 -170 -717 -210 -116 -19 -130 -26 -130 -59 0 -46 21 -50 143 -31 225
36 531 125 736 216 l85 37 60 -42 c154 -107 282 -148 461 -148 169 0 302 35
453 122 86 49 91 71 27 128 -135 123 -357 203 -527 191 -32 -2 -58 -2 -58 1 0
3 28 29 61 56 56 46 172 167 243 255 23 28 43 39 109 58 293 84 489 305 568
639 27 113 20 133 -48 132 -27 0 -81 -9 -120 -20z m87 -80 c0 -27 -64 -200
-95 -255 -92 -165 -258 -298 -415 -333 l-42 -9 7 56 c8 71 45 181 81 247 39
71 156 183 234 224 60 32 189 80 218 81 6 0 12 -5 12 -11z m-1009 -545 c-14
-120 -49 -227 -103 -319 -51 -86 -236 -281 -252 -265 -7 7 -11 61 -11 138 0
98 4 140 19 182 33 96 79 172 147 240 72 72 187 146 203 130 6 -6 5 -45 -3
-106z m334 -599 c74 -15 210 -78 260 -120 l29 -24 -68 -31 c-116 -53 -207 -73
-336 -73 -81 -1 -134 4 -179 17 -63 17 -168 66 -225 105 l-29 19 39 20 c187
95 343 122 509 87z"/>
<path d="M3360 3490 c-21 -39 40 -232 113 -361 108 -191 274 -318 477 -366
l75 -18 125 -126 c69 -69 144 -142 167 -160 l41 -35 -66 4 c-179 10 -385 -64
-524 -188 -65 -58 -62 -81 16 -128 135 -82 293 -125 461 -126 179 0 307 41
463 150 63 44 63 44 95 28 70 -37 340 -133 467 -167 151 -41 391 -87 450 -87
50 0 70 28 46 64 -12 19 -28 25 -78 30 -95 11 -333 62 -467 101 -151 43 -337
117 -334 132 20 96 33 198 33 248 0 218 -106 423 -284 550 -80 57 -182 105
-223 105 -42 0 -48 -21 -47 -150 2 -226 79 -409 252 -599 71 -79 72 -79 30
-56 -140 78 -357 253 -475 382 l-80 88 -6 71 c-16 166 -76 292 -197 415 -98
98 -190 152 -334 193 -110 32 -181 34 -196 6z m241 -111 c91 -35 199 -109 258
-175 58 -67 118 -193 133 -281 7 -40 9 -75 6 -78 -9 -9 -154 42 -205 71 -98
58 -208 174 -257 273 -28 56 -71 166 -80 205 -7 28 -7 28 31 21 21 -4 72 -20
114 -36z m929 -381 c127 -76 222 -189 272 -324 19 -50 22 -80 23 -196 0 -75
-4 -140 -8 -144 -10 -11 -168 147 -223 222 -62 87 -102 179 -125 286 -17 86
-26 198 -14 198 3 0 36 -19 75 -42z m-114 -678 c43 -11 117 -39 164 -61 l85
-41 -25 -20 c-47 -39 -185 -97 -270 -114 -141 -28 -324 -2 -470 67 l-65 31 30
24 c49 39 179 103 242 118 87 21 216 20 309 -4z"/>
<path d="M2857 3312 c-10 -10 -17 -24 -17 -30 0 -21 153 -196 305 -347 164
-165 406 -365 440 -365 27 0 45 18 45 46 0 15 -18 35 -57 65 -189 141 -373
313 -545 511 -67 77 -128 138 -138 138 -9 0 -24 -8 -33 -18z"/>
<path d="M9453 3217 c-154 -173 -377 -372 -575 -515 -66 -47 -88 -69 -88 -86
0 -27 18 -46 43 -46 37 0 288 195 481 373 124 115 306 316 306 338 0 23 -27
49 -49 49 -9 0 -62 -51 -118 -113z"/>
<path d="M6185 1988 c-32 -18 -44 -40 -45 -80 0 -55 36 -93 90 -93 35 0 47 6
71 33 33 36 36 60 14 102 -25 48 -83 65 -130 38z"/>
</g>
</svg>
