<svg version="1.0" xmlns="http://www.w3.org/2000/svg"
 width="1254.000000pt" height="1254.000000pt" viewBox="0 0 1254.000000 1254.000000"
 preserveAspectRatio="xMidYMid meet">
<metadata>
Created by potrace 1.16, written by Peter Selinger 2001-2019
</metadata>
<g transform="translate(0.000000,1254.000000) scale(0.100000,-0.100000)"
fill="#000000" stroke="none">
<path d="M2108 10956 c-132 -47 -212 -139 -238 -271 -8 -44 -10 -450 -8 -1505
l3 -1445 26 -56 c37 -79 90 -133 167 -171 l67 -33 1120 0 1120 0 47 22 c71 32
141 103 174 176 l29 62 0 1490 0 1490 -26 55 c-34 70 -99 136 -169 169 l-55
26 -1110 2 c-895 2 -1117 0 -1147 -11z m2227 -107 c54 -14 118 -67 148 -123
21 -39 22 -54 25 -318 l3 -278 -1265 0 -1266 0 0 278 c1 268 1 278 23 321 26
52 78 97 133 116 32 12 224 14 1097 15 740 0 1071 -3 1102 -11z m173 -1966
c-3 -1079 -4 -1130 -22 -1163 -26 -49 -64 -88 -111 -113 l-40 -22 -1095 0
-1095 0 -41 22 c-47 25 -91 73 -111 120 -11 27 -13 236 -13 1158 l0 1125 1265
0 1265 0 -2 -1127z"/>
<path d="M3525 10656 c-17 -7 -45 -29 -62 -49 -87 -99 -53 -240 69 -292 112
-46 236 29 246 150 2 30 2 65 -2 79 -9 36 -65 96 -103 112 -41 17 -109 17
-148 0z m110 -102 c8 -4 23 -20 31 -36 12 -24 13 -33 2 -55 -29 -61 -104 -68
-133 -13 -35 67 27 131 100 104z"/>
<path d="M4015 10656 c-39 -17 -93 -78 -101 -114 -3 -15 -7 -32 -9 -39 -8 -24
23 -114 46 -140 31 -33 95 -63 138 -63 56 0 119 37 152 88 61 96 23 225 -78
268 -40 17 -109 17 -148 0z m110 -102 c26 -10 46 -59 36 -87 -28 -72 -114 -74
-140 -4 -24 63 37 116 104 91z"/>
<path d="M2252 10544 c-30 -20 -30 -68 0 -88 19 -14 67 -16 323 -16 333 0 345
2 345 60 0 58 -12 60 -345 60 -256 0 -304 -2 -323 -16z"/>
<path d="M3102 9769 c-72 -12 -189 -52 -265 -90 -293 -148 -490 -428 -537
-763 -44 -313 105 -675 362 -881 360 -287 847 -286 1212 4 237 189 382 516
363 820 -16 248 -114 460 -296 641 -137 137 -302 227 -483 264 -84 17 -266 20
-356 5z m314 -114 c166 -29 314 -107 444 -235 147 -144 232 -313 260 -519 33
-245 -64 -523 -252 -713 -329 -333 -857 -339 -1192 -13 -172 168 -266 388
-266 626 0 235 88 448 255 614 200 200 474 288 751 240z"/>
<path d="M3152 9510 c-375 -68 -642 -424 -592 -793 39 -286 223 -511 490 -599
84 -27 109 -31 210 -32 131 0 203 16 314 69 181 87 311 244 378 455 33 107 33
283 0 390 -41 130 -87 206 -187 306 -73 74 -106 98 -175 132 -47 23 -112 49
-145 57 -75 20 -223 27 -293 15z m258 -122 c25 -6 77 -25 115 -44 168 -80 291
-236 330 -419 23 -110 21 -131 -16 -144 -62 -22 -131 -14 -185 21 -165 105
-281 110 -427 19 -118 -74 -176 -74 -298 0 -85 51 -157 72 -218 63 l-43 -7 7
34 c24 112 77 215 151 298 146 161 368 229 584 179z m-569 -647 c30 -15 76
-40 102 -54 102 -55 203 -44 332 35 67 41 73 43 150 43 78 0 83 -1 146 -42 81
-53 169 -78 230 -64 24 5 45 8 47 6 7 -7 -20 -79 -56 -150 -69 -134 -217 -254
-371 -299 -69 -20 -227 -21 -301 -1 -77 20 -186 77 -243 126 -53 46 -132 152
-142 190 -5 21 0 29 32 50 48 31 53 59 17 102 -36 43 -58 50 -79 27 -22 -25
-35 -17 -35 20 0 32 10 37 76 39 28 1 59 -8 95 -28z"/>
<path d="M9539 10656 c-19 -9 -26 -24 -36 -84 -6 -41 -19 -97 -29 -125 -39
-122 -148 -263 -248 -322 -59 -34 -168 -75 -201 -75 -29 0 -65 -32 -65 -58 0
-34 25 -53 90 -67 86 -20 113 -31 187 -78 131 -81 228 -232 259 -402 18 -96
34 -125 69 -125 33 0 55 31 65 96 42 263 216 461 446 509 77 16 94 28 94 65 0
37 -14 47 -105 70 -149 38 -271 129 -348 261 -41 71 -87 202 -87 252 0 67 -44
107 -91 83z m61 -348 c39 -78 85 -140 142 -194 44 -43 149 -114 168 -114 24 0
6 -17 -43 -40 -78 -38 -214 -177 -262 -269 -35 -68 -39 -73 -51 -56 -8 10 -14
23 -14 28 0 6 -25 47 -56 94 -60 90 -141 164 -224 204 -27 13 -49 26 -49 29
-1 3 23 16 52 30 81 39 214 177 263 272 21 43 40 78 41 78 1 0 16 -28 33 -62z"/>
<path d="M6170 10624 c-442 -37 -785 -114 -1144 -254 -86 -34 -107 -46 -112
-65 -8 -33 -2 -56 18 -69 20 -12 27 -10 266 73 283 99 584 165 881 192 296 26
743 -1 1057 -65 428 -88 861 -256 1173 -456 88 -57 122 -62 147 -25 28 43 8
66 -139 154 -162 96 -274 153 -433 220 -331 138 -700 234 -1069 276 -133 15
-548 27 -645 19z"/>
<path d="M9528 8998 c-36 -29 -30 -52 33 -139 397 -549 641 -1193 720 -1899
17 -150 17 -602 1 -750 -20 -172 -59 -400 -93 -540 -42 -171 -135 -449 -203
-605 -58 -133 -65 -162 -44 -183 18 -18 63 -15 80 6 38 43 156 340 221 557
114 379 167 739 167 1136 0 816 -237 1580 -701 2259 -118 174 -138 191 -181
158z"/>
<path d="M10345 8765 c-56 -55 -11 -155 70 -155 51 0 85 36 85 90 0 56 -34 90
-90 90 -30 0 -47 -6 -65 -25z"/>
<path d="M5634 8760 c-275 -40 -474 -238 -569 -566 -14 -49 -46 -183 -71 -299
-174 -805 -360 -1510 -711 -2690 -41 -141 -71 -259 -68 -272 8 -32 -59 -220
-132 -373 -80 -168 -153 -278 -232 -353 -69 -65 -78 -95 -35 -124 25 -16 28
-16 61 2 75 41 235 272 310 447 l37 87 50 -6 c28 -3 55 -9 59 -13 14 -13 -39
-170 -93 -279 -28 -55 -72 -124 -99 -153 -58 -65 -66 -84 -46 -114 34 -53 84
-25 164 91 70 101 124 218 156 340 29 111 27 105 81 263 l39 114 45 -6 c25 -3
107 -10 183 -17 75 -7 137 -16 137 -21 0 -4 -16 -59 -34 -121 -86 -280 -197
-497 -310 -607 -47 -45 -59 -83 -34 -108 19 -19 63 -14 93 10 76 59 200 268
274 458 l29 75 56 -1 c31 -1 59 -4 62 -7 8 -7 -42 -188 -71 -260 -31 -75 -85
-163 -130 -210 -29 -30 -36 -45 -33 -70 2 -24 9 -34 31 -41 36 -13 50 -4 108
67 80 100 162 289 189 439 6 35 32 127 58 206 l47 143 40 -5 c22 -3 114 -13
204 -21 90 -9 167 -18 172 -21 4 -2 2 -21 -5 -42 -7 -20 -21 -71 -31 -112 -25
-105 -127 -362 -181 -454 -25 -43 -70 -103 -100 -132 -57 -58 -65 -81 -36
-107 35 -32 66 -21 124 42 80 89 150 215 210 377 l53 145 29 -5 c16 -3 42 -6
58 -6 l30 0 -7 -47 c-21 -143 -111 -362 -179 -437 -42 -46 -51 -68 -37 -94 13
-24 39 -32 69 -21 30 11 108 120 148 206 38 83 78 210 95 303 10 54 85 332 95
351 3 6 385 -29 392 -36 2 -2 -8 -55 -23 -117 -61 -258 -169 -502 -275 -621
-64 -72 -71 -94 -42 -120 30 -27 59 -20 103 26 90 92 168 235 236 427 l38 110
35 0 c19 0 46 -3 59 -7 22 -5 23 -9 17 -55 -19 -140 -96 -330 -171 -423 -48
-58 -55 -84 -29 -109 38 -38 88 -5 157 105 67 105 112 234 146 414 11 55 34
153 52 218 l33 117 32 0 c34 0 211 -16 282 -26 42 -5 43 -7 37 -32 -4 -15 -18
-72 -30 -127 -13 -55 -44 -154 -68 -220 -69 -188 -126 -292 -214 -387 -23 -26
-43 -54 -43 -62 0 -15 45 -56 62 -56 4 0 29 19 53 41 90 83 183 251 246 446
l33 103 56 -7 c30 -3 57 -7 59 -9 6 -5 -20 -134 -41 -204 -29 -96 -92 -220
-138 -270 -44 -49 -50 -78 -20 -105 29 -27 64 -12 111 48 84 105 163 312 188
492 5 39 23 117 40 174 17 58 31 112 31 121 0 9 11 26 23 39 20 18 34 67 83
280 l59 259 110 -1 c92 -1 118 2 156 19 105 49 146 114 180 287 11 56 21 103
23 105 2 2 33 5 68 7 35 2 77 9 93 16 99 43 187 146 227 268 18 54 22 92 23
211 1 80 3 154 3 165 2 18 8 20 64 17 79 -5 130 10 177 54 56 50 74 104 120
354 227 1257 222 1225 228 1400 6 162 -5 254 -42 367 -45 134 -139 254 -238
304 -93 48 -62 47 -1607 52 -800 2 -1478 1 -1506 -3z m346 -109 c0 -4 -13 -38
-30 -74 -16 -37 -30 -75 -30 -86 0 -27 37 -52 63 -42 24 9 25 10 73 119 l37
82 66 0 c308 2 1456 -2 1459 -4 2 -2 -13 -43 -33 -91 -34 -82 -35 -89 -20
-111 17 -26 43 -31 67 -11 9 6 35 58 59 115 l43 102 283 0 c182 0 283 -4 283
-10 0 -5 -4 -10 -8 -10 -13 0 -91 -109 -122 -170 -34 -68 -84 -223 -99 -310
-129 -748 -276 -1459 -561 -2720 -66 -294 -131 -579 -142 -633 l-22 -99 -75 7
c-169 14 -489 45 -528 51 -37 4 -43 9 -43 29 0 41 -64 49 -82 10 -6 -14 -18
-25 -27 -25 -9 0 -131 11 -271 25 -387 39 -1075 105 -1163 112 -43 3 -79 9
-82 12 -2 4 12 58 31 121 18 63 34 127 34 141 0 34 -23 53 -55 45 -21 -5 -29
-20 -53 -99 -16 -50 -35 -116 -42 -144 -8 -29 -19 -53 -24 -53 -6 0 -148 14
-316 30 -168 17 -306 30 -307 30 -9 0 4 49 72 275 207 696 369 1273 469 1678
69 278 83 338 202 867 82 363 98 419 150 525 87 179 242 293 429 318 61 8 315
7 315 -2z m2696 -31 c91 -39 163 -130 211 -265 27 -78 28 -86 27 -275 l-1
-195 -86 -480 c-48 -264 -107 -591 -131 -726 -24 -136 -51 -260 -60 -277 -24
-47 -53 -62 -119 -62 l-59 0 6 28 c7 34 124 674 176 962 119 665 127 727 111
837 -20 132 -78 203 -168 203 -72 0 -121 -35 -161 -115 -29 -59 -37 -93 -97
-431 -43 -250 -214 -1185 -305 -1679 -10 -55 -46 -250 -80 -433 -33 -184 -66
-346 -71 -360 -15 -39 -67 -90 -107 -103 -21 -7 -61 -9 -108 -4 -63 6 -74 9
-70 23 8 26 96 418 181 802 150 679 282 1324 380 1863 50 279 66 347 102 431
47 113 131 214 211 255 62 32 145 33 218 1z m-64 -377 c40 -45 47 -145 22
-312 -34 -228 -273 -1536 -319 -1741 -19 -85 -46 -213 -60 -285 -37 -185 -63
-228 -147 -241 -67 -11 -68 -10 -41 133 143 771 332 1814 388 2133 37 212 54
272 87 307 26 27 49 29 70 6z m-4187 -3375 c3 -3 -7 -41 -22 -84 -31 -86 -24
-82 -110 -69 l-31 6 26 80 27 81 52 -4 c29 -3 55 -7 58 -10z m702 -72 c1 -1
-10 -39 -24 -84 l-27 -82 -58 0 c-36 0 -58 4 -58 11 0 7 10 47 22 91 l22 80
60 -7 c34 -3 62 -8 63 -9z m716 -66 c22 0 37 -5 37 -12 0 -7 -12 -50 -26 -96
l-25 -84 -52 7 c-64 9 -70 14 -58 51 5 16 17 55 26 88 14 52 18 57 38 52 12
-3 39 -6 60 -6z m766 -76 c4 -4 -24 -119 -39 -158 -8 -21 -16 -26 -44 -26 -19
0 -46 4 -59 9 l-25 10 19 78 c11 43 22 83 24 90 3 8 22 10 62 6 32 -3 60 -7
62 -9z m672 -64 c17 0 16 -5 -6 -86 -13 -47 -26 -88 -29 -91 -5 -6 -116 6
-116 12 0 6 30 138 37 159 4 16 12 18 50 12 25 -3 54 -6 64 -6z"/>
<path d="M5890 8357 c-18 -10 -29 -34 -52 -115 -31 -108 -31 -148 0 -154 24
-6 61 12 67 31 33 111 53 206 45 221 -13 25 -33 30 -60 17z"/>
<path d="M6486 8191 c-110 -87 -206 -167 -213 -177 -10 -15 -10 -24 0 -44 25
-50 47 -40 243 116 102 81 189 143 193 137 125 -184 210 -298 229 -306 21 -10
27 -8 49 17 13 16 22 34 19 41 -3 8 -62 95 -132 194 -119 168 -130 181 -158
181 -25 -1 -72 -33 -230 -159z"/>
<path d="M7512 8318 c-16 -20 -71 -228 -65 -244 10 -27 42 -37 67 -21 17 12
29 40 49 119 15 56 27 110 27 119 0 34 -56 54 -78 27z"/>
<path d="M5777 7965 c-8 -8 -28 -67 -43 -131 l-29 -116 23 -18 c22 -18 57 -17
69 3 3 5 19 60 34 121 25 100 27 113 13 133 -17 26 -46 30 -67 8z"/>
<path d="M6410 7804 c-102 -80 -197 -156 -212 -169 -45 -38 -33 -95 19 -95 15
0 85 49 195 136 94 75 178 137 186 138 8 1 56 -60 108 -134 52 -74 101 -143
109 -152 21 -26 62 -23 81 6 20 32 21 30 -130 246 -102 145 -123 170 -145 170
-18 0 -81 -44 -211 -146z"/>
<path d="M7407 7918 c-19 -30 -60 -199 -55 -228 4 -33 31 -47 61 -33 21 10 29
28 53 128 31 127 28 147 -19 153 -18 2 -30 -4 -40 -20z"/>
<path d="M5679 7564 c-22 -26 -69 -236 -58 -256 11 -21 62 -24 76 -5 6 6 23
63 38 125 26 108 27 113 10 132 -22 24 -48 26 -66 4z"/>
<path d="M6287 7385 c-114 -91 -210 -172 -214 -181 -3 -8 -1 -26 5 -40 22 -47
51 -32 239 116 98 77 180 140 184 140 7 0 134 -177 192 -267 22 -35 33 -43 57
-43 20 0 35 8 46 25 19 30 28 13 -134 250 -99 145 -116 165 -140 165 -20 0
-83 -44 -235 -165z"/>
<path d="M7306 7518 c-23 -38 -61 -227 -49 -247 13 -21 57 -26 72 -7 15 18 61
189 61 227 0 50 -57 68 -84 27z"/>
<path d="M5587 7167 c-18 -13 -67 -188 -67 -239 0 -38 33 -55 65 -34 26 17 35
42 62 174 17 82 17 84 -2 98 -23 17 -36 18 -58 1z"/>
<path d="M6350 7128 c-30 -23 -164 -129 -297 -235 -169 -134 -244 -200 -249
-218 -5 -21 23 -68 166 -282 95 -142 181 -266 190 -277 12 -13 26 -17 42 -13
13 4 158 111 323 239 264 205 300 237 303 263 3 30 -24 71 -307 478 -74 105
-88 108 -171 45z m215 -294 c124 -182 145 -218 134 -229 -21 -21 -483 -375
-489 -375 -3 0 -69 96 -148 213 l-143 212 38 33 c43 38 453 362 458 362 1 0
69 -97 150 -216z"/>
<path d="M6223 6759 c-90 -71 -113 -95 -113 -115 0 -15 27 -64 67 -119 50 -73
72 -95 89 -95 12 0 62 30 111 66 115 87 143 114 143 136 0 10 -30 63 -67 118
-56 85 -70 100 -92 100 -17 -1 -64 -31 -138 -91z m152 -76 c14 -21 25 -41 25
-45 0 -3 -26 -25 -57 -47 l-58 -41 -17 23 c-41 53 -43 65 -17 86 13 10 35 28
49 39 35 30 46 27 75 -15z"/>
<path d="M7219 7128 c-20 -16 -72 -222 -64 -249 9 -28 53 -36 75 -13 10 11 29
66 43 124 21 87 23 108 12 125 -15 24 -45 30 -66 13z"/>
<path d="M5489 6770 c-24 -14 -77 -235 -63 -258 14 -21 57 -27 71 -10 13 15
63 198 63 227 0 22 -25 51 -43 51 -7 0 -19 -5 -28 -10z"/>
<path d="M7121 6731 c-14 -9 -60 -186 -61 -232 0 -37 24 -55 57 -43 24 8 30
21 56 124 22 88 26 120 18 137 -11 24 -44 30 -70 14z"/>
<path d="M5381 6366 c-16 -19 -71 -225 -64 -243 9 -23 41 -35 63 -23 27 14 34
31 61 143 25 107 22 130 -23 135 -14 2 -30 -4 -37 -12z"/>
<path d="M7032 6339 c-12 -5 -24 -20 -28 -36 -3 -15 -15 -63 -26 -107 -22 -92
-21 -126 7 -136 47 -17 61 2 90 121 14 61 24 122 21 134 -7 26 -32 36 -64 24z"/>
<path d="M5826 6144 c-9 -8 -16 -24 -16 -35 0 -16 208 -337 250 -386 25 -29
60 -8 270 155 218 169 239 192 210 228 -27 32 -61 15 -236 -121 -95 -75 -180
-138 -187 -141 -9 -3 -50 51 -120 156 -89 133 -111 160 -131 160 -14 0 -32 -7
-40 -16z"/>
<path d="M5279 5973 c-9 -10 -28 -64 -43 -120 -21 -79 -24 -107 -16 -123 12
-23 52 -27 73 -6 23 23 73 225 60 245 -14 23 -56 25 -74 4z"/>
<path d="M6928 5938 c-17 -14 -68 -185 -68 -229 0 -37 24 -55 58 -43 23 8 30
21 53 104 15 52 28 109 28 126 2 49 -35 70 -71 42z"/>
<path d="M5714 5735 c-9 -14 -14 -31 -11 -37 2 -7 62 -97 131 -200 111 -165
130 -188 154 -188 18 0 88 47 239 161 184 140 213 165 213 188 0 33 -17 51
-46 51 -12 0 -97 -57 -199 -135 -98 -74 -182 -135 -186 -135 -5 0 -41 48 -80
108 -123 183 -147 212 -174 212 -15 0 -31 -10 -41 -25z"/>
<path d="M5176 5595 c-9 -9 -20 -35 -27 -58 -6 -23 -19 -73 -29 -110 -19 -67
-19 -68 0 -87 24 -24 32 -25 58 -2 20 17 72 178 72 224 0 45 -43 63 -74 33z"/>
<path d="M6826 5547 c-17 -13 -65 -179 -66 -228 0 -56 67 -65 88 -12 14 35 52
186 52 206 0 19 -27 47 -44 47 -7 0 -20 -6 -30 -13z"/>
<path d="M6718 5153 c-8 -10 -28 -67 -43 -127 l-29 -109 23 -18 c49 -40 66
-20 107 129 21 77 25 108 17 120 -14 24 -56 27 -75 5z"/>
<path d="M2507 7128 c-18 -29 -37 -205 -47 -428 -28 -655 115 -1309 421 -1919
131 -263 371 -631 418 -644 31 -8 66 15 69 46 2 19 -9 43 -41 84 -65 85 -175
253 -244 373 -256 445 -417 928 -490 1470 -25 186 -25 697 0 879 19 143 15
161 -38 161 -25 0 -38 -6 -48 -22z"/>
<path d="M8838 5105 c-79 -29 -197 -126 -273 -225 -23 -30 -73 -104 -110 -164
-105 -168 -164 -242 -405 -505 -263 -289 -327 -368 -371 -456 -83 -170 -7
-303 251 -434 186 -95 203 -116 274 -326 21 -60 52 -137 69 -170 82 -154 246
-247 410 -232 64 6 97 27 97 61 0 44 -14 51 -108 51 -80 1 -96 4 -155 33 -108
53 -146 109 -219 322 -22 63 -50 133 -63 155 -40 70 -124 139 -236 195 -133
67 -185 105 -215 156 -30 52 -30 92 1 153 34 67 88 133 342 412 281 310 287
318 390 479 48 74 105 160 128 190 92 119 215 210 285 210 54 0 126 -47 247
-161 199 -188 243 -209 431 -209 130 0 179 -11 236 -55 34 -26 50 -45 169
-208 72 -97 131 -137 277 -188 172 -59 230 -101 230 -164 0 -31 -15 -62 -79
-160 -29 -44 -56 -100 -66 -139 -18 -67 -18 -124 1 -345 6 -61 4 -80 -11 -108
-16 -30 -81 -81 -89 -72 -2 2 -18 56 -36 119 -54 193 -146 465 -184 543 -45
94 -104 150 -182 173 -31 9 -71 14 -89 11 -29 -5 -34 -2 -48 28 -46 97 -140
151 -244 142 -35 -4 -63 -3 -63 2 0 18 -85 103 -121 121 -50 26 -128 26 -179
0 -21 -11 -42 -25 -45 -31 -5 -7 -24 -8 -56 -4 -68 10 -130 -21 -165 -81 -42
-71 -37 -127 29 -349 83 -279 175 -651 163 -662 -2 -2 -38 37 -80 87 -86 102
-151 153 -214 171 -168 47 -298 -113 -216 -267 14 -26 51 -84 83 -129 32 -44
134 -192 227 -330 197 -291 287 -391 451 -499 101 -67 137 -105 187 -203 18
-37 54 -50 85 -34 39 21 37 55 -9 128 -59 94 -99 134 -218 215 -154 106 -229
193 -493 577 -186 271 -229 341 -229 368 0 70 68 94 144 49 23 -13 94 -84 158
-159 70 -80 130 -140 149 -147 41 -17 81 -3 93 33 21 59 -40 352 -160 769 -41
142 -74 269 -74 282 0 52 55 89 105 70 31 -12 84 -146 201 -513 41 -129 79
-240 85 -248 14 -16 61 -17 77 -1 7 7 12 22 12 33 0 37 -211 679 -244 744 -14
26 -14 30 0 35 54 21 120 -11 157 -76 33 -55 86 -199 177 -471 60 -182 76
-220 96 -229 18 -8 29 -7 49 6 14 9 25 23 25 32 0 8 -43 143 -95 299 -52 156
-95 289 -95 295 0 15 57 12 90 -5 53 -28 79 -82 194 -415 56 -163 67 -186 90
-194 20 -8 30 -6 46 9 11 10 20 25 20 34 0 9 -29 104 -65 211 -36 107 -65 196
-65 197 0 2 10 3 23 3 34 0 93 -45 122 -94 45 -78 165 -440 237 -721 30 -116
31 -127 33 -355 1 -144 6 -245 12 -261 19 -43 125 -233 141 -251 29 -34 92
-10 92 35 0 8 -30 71 -67 139 l-68 123 3 190 c2 132 -1 214 -11 268 l-14 78
41 21 c111 55 152 136 142 277 -23 333 -31 295 103 508 36 56 48 117 37 178
-15 79 -127 161 -291 215 -146 48 -183 77 -293 230 -79 111 -134 163 -207 196
-54 25 -74 28 -210 33 -142 6 -153 8 -198 34 -27 16 -100 78 -163 138 -127
120 -183 163 -245 184 -51 18 -132 18 -181 0z"/>
<path d="M2288 4575 c-32 -18 -52 -72 -39 -106 19 -51 68 -75 118 -58 61 20
82 110 34 153 -26 24 -81 29 -113 11z"/>
<path d="M3020 3882 c-14 -11 -24 -37 -30 -76 -30 -187 -130 -340 -268 -410
-28 -14 -83 -35 -124 -46 -93 -25 -115 -51 -83 -96 9 -14 34 -25 74 -33 138
-27 278 -134 339 -261 34 -71 62 -167 62 -215 0 -43 25 -75 59 -75 40 0 51 19
67 112 38 226 195 399 398 440 62 12 79 26 79 64 0 35 -11 43 -79 60 -164 43
-276 133 -344 276 -21 46 -44 112 -50 148 -7 36 -17 76 -23 89 -17 34 -51 44
-77 23z m69 -338 c42 -80 113 -161 189 -211 31 -21 57 -43 57 -48 0 -6 -24
-26 -55 -46 -72 -47 -159 -143 -196 -218 -16 -34 -31 -61 -34 -61 -3 0 -17 26
-33 58 -52 109 -125 183 -252 258 -16 9 -11 14 41 44 81 45 164 135 205 220
19 38 36 70 39 70 3 0 20 -30 39 -66z"/>
<path d="M4180 3400 c-23 -23 -26 -49 -7 -72 6 -9 59 -47 117 -85 501 -332
1060 -537 1646 -604 163 -18 226 -20 459 -16 362 6 575 37 888 127 231 68 561
204 603 251 22 24 11 66 -20 80 -19 9 -38 4 -112 -31 -332 -157 -676 -255
-1064 -302 -135 -16 -572 -16 -715 0 -591 68 -1136 267 -1629 593 -65 44 -125
79 -132 79 -8 0 -23 -9 -34 -20z"/>
</g>
</svg>
