<svg version="1.0" xmlns="http://www.w3.org/2000/svg"
 width="1254.000000pt" height="1254.000000pt" viewBox="0 0 1254.000000 1254.000000"
 preserveAspectRatio="xMidYMid meet">
<metadata>
Created by potrace 1.16, written by Peter Selinger 2001-2019
</metadata>
<g transform="translate(0.000000,1254.000000) scale(0.100000,-0.100000)"
fill="#000000" stroke="none">
<path d="M6689 9311 c-75 -75 4 -184 106 -145 21 8 45 56 45 89 0 38 -50 85
-90 85 -22 0 -41 -9 -61 -29z"/>
<path d="M4641 9143 c-15 -12 -27 -41 -36 -88 -19 -88 -66 -186 -108 -221 -40
-34 -125 -73 -174 -81 -48 -7 -73 -29 -73 -63 0 -36 24 -54 90 -69 145 -31
229 -124 264 -291 15 -75 32 -100 67 -100 33 0 56 34 69 100 30 164 117 258
270 294 36 9 70 23 77 33 31 42 1 86 -67 97 -147 23 -249 135 -280 306 -12 64
-36 100 -65 100 -7 0 -22 -8 -34 -17z m56 -290 c19 -43 112 -138 143 -148 28
-9 25 -20 -9 -34 -38 -16 -109 -88 -136 -140 l-23 -42 -30 54 c-30 54 -84 105
-135 128 -35 16 -34 24 3 39 34 14 121 103 144 148 9 18 18 32 21 32 2 0 12
-17 22 -37z"/>
<path d="M9454 9096 c-38 -38 -44 -77 -19 -126 19 -37 43 -50 95 -50 61 0 100
41 100 105 0 100 -105 142 -176 71z"/>
<path d="M7375 8845 c-295 -65 -520 -278 -571 -540 -56 -293 130 -555 395
-555 167 0 276 82 213 160 -22 27 -58 29 -108 5 -55 -26 -105 -29 -170 -10
-77 22 -153 96 -180 176 -26 77 -24 187 6 264 85 222 313 368 575 368 177 0
322 -59 445 -182 86 -85 127 -150 164 -261 113 -337 -20 -739 -324 -982 -253
-203 -566 -297 -940 -285 -323 11 -552 69 -1125 287 -391 149 -742 276 -870
315 -638 194 -1110 220 -1570 88 -451 -129 -866 -405 -1155 -769 -96 -121
-143 -195 -143 -226 0 -39 29 -68 69 -68 36 0 30 -6 151 159 260 355 702 653
1144 770 419 111 828 89 1398 -76 177 -51 374 -121 821 -291 658 -250 853
-304 1190 -333 476 -39 943 117 1223 411 336 351 410 859 180 1229 -111 178
-292 303 -499 346 -88 18 -236 18 -319 0z"/>
<path d="M2745 8182 c-79 -15 -97 -130 -26 -167 42 -21 65 -19 100 11 71 59
16 173 -74 156z"/>
<path d="M10420 8130 c-14 -5 -108 -32 -210 -60 -637 -179 -1140 -406 -1517
-684 -126 -93 -374 -336 -460 -451 -286 -382 -427 -832 -410 -1310 6 -167 34
-360 84 -578 l27 -118 -27 -55 c-15 -31 -55 -101 -89 -157 -161 -268 -318
-423 -545 -539 -110 -56 -129 -78 -111 -129 15 -43 49 -52 112 -29 64 24 197
103 273 162 118 91 267 261 351 400 l23 36 87 6 c367 26 610 75 887 177 508
189 919 512 1205 949 74 113 205 376 255 514 130 354 204 813 205 1264 0 141
-17 511 -26 550 -11 52 -55 72 -114 52z m-5 -254 c12 -175 0 -715 -19 -856
-90 -659 -304 -1140 -681 -1529 -194 -200 -380 -334 -640 -462 -240 -117 -485
-194 -745 -234 -122 -18 -320 -33 -320 -24 0 7 173 330 195 363 10 15 58 39
134 70 193 76 381 129 629 177 92 17 120 68 62 111 -25 18 -28 18 -180 -12
-192 -38 -277 -60 -409 -105 -58 -19 -106 -35 -108 -35 -12 0 271 428 359 544
l53 70 130 43 c170 57 396 116 570 148 77 14 158 29 180 33 63 11 81 75 30
108 -20 13 -37 12 -150 -6 -172 -28 -335 -63 -484 -106 -68 -19 -125 -34 -126
-32 -5 5 178 224 308 368 67 74 230 243 363 375 133 132 243 247 244 255 7 50
-16 80 -62 80 -24 0 -52 -21 -155 -117 -152 -143 -435 -439 -605 -635 -69 -78
-138 -156 -152 -173 l-27 -30 6 30 c3 17 10 115 15 219 9 165 8 192 -5 213
-18 26 -60 31 -89 10 -16 -12 -20 -36 -27 -163 -9 -149 -37 -470 -43 -489 -2
-5 -41 -62 -86 -125 -174 -242 -390 -577 -505 -784 -26 -46 -40 -64 -45 -55
-17 30 -61 313 -70 449 -17 237 17 507 90 731 40 121 142 330 217 444 309 469
845 823 1663 1099 155 52 437 135 462 136 13 0 17 -17 23 -104z"/>
<path d="M3755 6790 c-382 -28 -748 -166 -1068 -403 -207 -153 -507 -495 -507
-578 0 -32 38 -69 71 -69 30 0 45 16 125 130 77 110 273 308 394 398 256 190
552 314 865 363 117 18 398 15 529 -5 315 -50 624 -164 1147 -427 538 -269
807 -361 1145 -389 359 -30 743 68 1019 261 154 108 185 151 145 202 -31 40
-71 36 -129 -11 -171 -142 -395 -243 -636 -288 -120 -23 -396 -25 -517 -5
-258 42 -449 113 -928 346 -501 243 -638 302 -880 375 -278 84 -534 117 -775
100z"/>
<path d="M3680 5845 c-276 -44 -562 -190 -730 -373 -169 -183 -257 -385 -267
-612 -15 -328 140 -607 412 -741 105 -51 179 -70 300 -76 127 -6 218 12 333
68 250 121 380 407 291 644 -40 107 -112 147 -158 89 -12 -15 -21 -31 -21 -36
0 -5 15 -39 32 -76 27 -57 32 -78 32 -137 -2 -166 -110 -309 -285 -377 -68
-26 -245 -36 -328 -18 -163 35 -332 169 -405 322 -101 210 -85 473 42 685 137
230 372 395 667 470 76 19 137 26 251 30 356 13 645 -79 1163 -369 567 -318
802 -422 1100 -485 115 -25 145 -27 346 -27 189 0 234 3 318 22 136 30 234 64
362 126 178 86 229 134 203 190 -6 14 -23 30 -39 36 -26 11 -37 8 -126 -43
-305 -173 -622 -228 -978 -171 -278 45 -501 138 -995 414 -534 298 -782 401
-1075 445 -121 18 -329 18 -445 0z"/>
<path d="M5397 4435 c-9 -8 -18 -34 -22 -57 -19 -117 -84 -196 -182 -223 -78
-21 -87 -27 -91 -59 -5 -39 20 -61 82 -75 105 -23 175 -105 192 -224 7 -54 33
-75 78 -63 19 5 28 16 37 49 32 116 41 136 82 174 44 40 72 54 145 73 29 8 46
19 54 35 18 40 -9 69 -85 89 -112 30 -167 97 -192 231 -4 22 -11 46 -17 53
-14 17 -63 15 -81 -3z m96 -292 c16 -18 37 -35 48 -38 28 -9 24 -19 -20 -48
-21 -14 -49 -42 -62 -63 -21 -34 -24 -36 -33 -18 -14 23 -63 74 -96 97 -18 13
-21 19 -12 24 27 11 83 67 99 97 l16 31 16 -25 c9 -13 29 -39 44 -57z"/>
<path d="M9318 4438 c-9 -7 -21 -37 -27 -67 -21 -100 -64 -146 -160 -175 -59
-17 -71 -28 -71 -63 0 -26 30 -48 79 -57 80 -15 131 -74 156 -181 9 -41 17
-52 39 -60 36 -12 58 3 69 46 31 123 64 162 164 194 54 18 70 27 77 48 13 34
-12 62 -62 72 -93 17 -139 64 -166 169 -9 32 -21 65 -27 72 -14 17 -50 18 -71
2z m56 -228 c14 -25 36 -44 74 -65 1 -1 -21 -25 -49 -54 -29 -28 -53 -50 -54
-49 -21 38 -42 62 -65 77 l-30 18 39 31 c22 18 42 41 46 52 9 28 18 25 39 -10z"/>
<path d="M8147 3689 c-11 -6 -25 -26 -33 -45 -38 -90 76 -164 146 -94 29 29
27 94 -5 125 -26 27 -75 33 -108 14z"/>
</g>
</svg>
