<svg version="1.0" xmlns="http://www.w3.org/2000/svg"
 width="1254.000000pt" height="1254.000000pt" viewBox="0 0 1254.000000 1254.000000"
 preserveAspectRatio="xMidYMid meet">
<metadata>
Created by potrace 1.16, written by Peter Selinger 2001-2019
</metadata>
<g transform="translate(0.000000,1254.000000) scale(0.100000,-0.100000)"
fill="#000000" stroke="none">
<path d="M9410 10714 c-600 -142 -1054 -278 -1415 -424 -276 -112 -609 -300
-795 -449 -390 -314 -674 -725 -841 -1216 -47 -139 -54 -127 -53 90 0 128 5
180 23 259 23 98 23 99 3 118 -13 14 -27 18 -40 14 -21 -7 -293 -286 -454
-466 -559 -624 -970 -1274 -1165 -1845 -113 -331 -169 -730 -144 -1039 7 -76
10 -140 8 -143 -6 -6 -72 134 -102 217 -14 41 -35 115 -45 164 -20 96 -36 122
-68 112 -50 -16 -142 -385 -162 -648 -30 -382 83 -793 324 -1183 31 -49 56
-95 56 -101 0 -14 -239 -219 -467 -401 -176 -140 -466 -359 -676 -508 -83 -59
-146 -112 -159 -133 -49 -79 -27 -191 47 -248 51 -39 146 -46 203 -16 155 80
810 568 1153 857 l91 77 91 -26 c225 -63 370 -80 620 -73 259 7 398 39 659
149 91 39 122 57 131 75 10 22 8 28 -10 43 -18 14 -50 18 -180 23 -163 5 -355
34 -318 47 11 4 64 10 117 14 260 17 601 105 884 226 527 226 1054 659 1409
1160 82 117 195 306 237 397 22 50 53 92 117 158 152 160 267 328 386 568 88
176 148 327 143 359 -6 41 -42 34 -136 -27 -114 -74 -321 -175 -449 -219 -106
-36 -283 -87 -283 -81 0 2 44 27 98 55 122 66 351 217 462 307 449 362 719
795 873 1398 110 431 158 831 159 1315 0 342 -21 599 -73 879 -28 147 -48 173
-135 177 -32 2 -88 -4 -124 -12z m114 -123 c12 -19 56 -327 71 -491 19 -228
19 -653 0 -880 -48 -544 -172 -1055 -338 -1385 -205 -410 -543 -758 -990
-1019 -142 -84 -382 -197 -532 -252 -71 -26 -138 -54 -147 -62 -24 -20 -23
-65 2 -87 18 -16 33 -17 152 -12 304 15 670 105 946 233 50 23 92 40 92 38 0
-3 -25 -55 -56 -115 -275 -538 -706 -881 -1333 -1059 -165 -47 -308 -75 -461
-90 -153 -15 -157 -16 -176 -45 -14 -21 -14 -30 -4 -55 16 -39 40 -44 148 -36
236 19 571 98 787 184 176 71 234 100 438 219 26 15 -88 -154 -207 -307 -103
-133 -388 -420 -531 -534 -243 -195 -523 -360 -787 -465 -327 -130 -644 -191
-1081 -207 -182 -7 -189 -8 -204 -30 -28 -44 -7 -74 88 -121 88 -45 267 -108
338 -119 23 -4 41 -10 41 -13 0 -4 -44 -16 -97 -27 -78 -15 -140 -19 -308 -19
-225 0 -328 14 -527 70 -48 14 -104 25 -126 25 -44 0 -45 -1 -253 -175 -335
-281 -1024 -785 -1073 -785 -26 0 -56 32 -56 59 0 34 11 44 183 165 715 504
1420 1113 1962 1696 811 873 1480 1737 2858 3693 152 215 166 246 131 281 -16
17 -61 21 -80 8 -6 -4 -180 -243 -386 -532 -689 -967 -959 -1329 -1498 -2013
-261 -331 -645 -785 -966 -1142 -169 -188 -879 -915 -893 -915 -13 0 -115 172
-171 285 -69 142 -130 319 -160 465 -31 148 -38 396 -16 548 9 62 19 119 23
128 4 11 22 -17 55 -82 74 -147 205 -318 253 -330 29 -7 62 10 70 35 3 11 -4
86 -16 168 -27 187 -37 543 -20 694 61 525 293 1070 714 1674 186 266 461 601
685 835 l101 105 1 -96 c0 -114 20 -235 56 -351 36 -114 59 -156 89 -164 52
-13 65 9 110 191 157 632 512 1139 1044 1492 138 92 348 202 542 284 294 124
839 293 1304 404 203 48 202 48 209 36z"/>
<path d="M9095 4715 c-19 -18 -25 -35 -25 -69 0 -37 5 -48 31 -70 43 -36 91
-35 130 3 38 39 39 87 3 130 -22 26 -33 31 -70 31 -34 0 -51 -6 -69 -25z"/>
<path d="M8643 4143 c-11 -10 -64 -69 -119 -132 -208 -241 -514 -482 -839
-663 -459 -256 -1040 -445 -1650 -537 -270 -41 -635 -71 -877 -71 -105 0 -120
-2 -138 -20 -26 -26 -25 -60 0 -88 19 -20 30 -22 148 -22 159 0 423 15 612 36
1114 118 2061 509 2673 1103 172 167 297 313 297 347 0 53 -67 82 -107 47z"/>
<path d="M9170 3480 c-8 -4 -67 -60 -130 -122 -548 -541 -1273 -815 -2350
-888 -80 -5 -192 -10 -250 -10 -124 0 -150 -11 -150 -64 0 -20 8 -40 20 -51
19 -17 36 -18 228 -12 966 30 1740 257 2299 674 196 146 404 348 418 406 5 20
1 32 -19 51 -27 27 -41 31 -66 16z"/>
<path d="M4253 2485 c-92 -40 -59 -185 43 -185 54 0 94 40 94 93 0 51 -15 76
-55 93 -41 17 -42 17 -82 -1z"/>
</g>
</svg>
