<svg version="1.0" xmlns="http://www.w3.org/2000/svg"
 width="1254.000000pt" height="1254.000000pt" viewBox="0 0 1254.000000 1254.000000"
 preserveAspectRatio="xMidYMid meet">
<metadata>
Created by potrace 1.16, written by Peter Selinger 2001-2019
</metadata>
<g transform="translate(0.000000,1254.000000) scale(0.100000,-0.100000)"
fill="#000000" stroke="none">
<path d="M6413 10696 c-50 -23 -68 -79 -41 -129 17 -34 39 -46 80 -47 55 0 93
36 93 89 0 71 -67 115 -132 87z"/>
<path d="M8087 10688 c-30 -30 -44 -90 -58 -256 -44 -518 185 -932 644 -1165
l89 -45 72 -163 c40 -90 101 -220 135 -288 34 -68 61 -125 59 -126 -2 -2 -28
12 -58 32 -210 134 -485 189 -753 148 -184 -28 -460 -138 -473 -189 -3 -14 -3
-34 1 -45 11 -34 253 -271 340 -333 167 -118 347 -195 514 -219 103 -15 316
-6 421 16 41 9 129 35 195 57 l119 40 21 -29 c55 -77 190 -238 285 -341 315
-342 357 -410 445 -712 138 -477 170 -1002 89 -1483 -207 -1227 -976 -2271
-2089 -2833 -252 -127 -545 -240 -800 -309 -130 -35 -166 -68 -135 -125 19
-35 58 -32 220 14 680 196 1276 533 1749 991 355 344 621 709 831 1140 340
699 466 1461 359 2164 -46 303 -97 495 -250 951 -61 179 -125 381 -144 449
l-35 125 69 137 c71 143 119 270 147 399 21 94 24 367 6 455 -38 175 -98 330
-189 483 -65 111 -84 132 -120 132 -52 0 -207 -200 -288 -373 -149 -313 -148
-611 0 -912 56 -112 119 -204 206 -299 27 -30 49 -58 49 -63 0 -9 100 -343
117 -391 14 -39 -266 277 -388 439 -201 266 -403 623 -555 980 l-56 131 19 96
c13 73 18 142 17 277 -1 161 -3 190 -27 277 -53 199 -150 361 -302 506 -104
100 -193 163 -324 228 -119 59 -143 63 -174 32z m197 -190 c312 -190 496 -481
507 -803 4 -110 0 -225 -9 -225 -4 0 -14 15 -21 33 -30 66 -249 480 -265 498
-32 38 -96 14 -96 -37 0 -13 59 -141 130 -284 72 -143 128 -260 124 -260 -16
0 -136 92 -202 154 -172 163 -261 349 -292 612 -16 134 -1 364 25 364 6 0 51
-24 99 -52z m1570 -1027 c89 -173 136 -363 136 -546 0 -167 -28 -293 -110
-489 -27 -65 -35 -76 -41 -59 -13 36 -38 274 -45 433 -7 165 -15 190 -59 190
-12 0 -30 -9 -41 -21 -26 -29 -31 -215 -9 -418 8 -84 14 -156 12 -158 -7 -6
-64 88 -96 157 -64 142 -76 201 -75 365 0 134 3 160 28 240 35 115 101 248
173 349 65 92 56 95 127 -43z m-1191 -795 c159 -47 279 -120 414 -249 46 -44
81 -82 79 -84 -2 -3 -60 11 -128 31 -448 128 -512 141 -541 111 -23 -22 -22
-58 2 -79 11 -10 116 -45 233 -77 317 -89 390 -111 381 -120 -12 -12 -199 -47
-288 -55 -148 -12 -344 29 -492 105 -32 16 -97 57 -145 91 -107 76 -276 236
-263 249 20 18 175 71 266 91 137 29 357 23 482 -14z"/>
<path d="M5280 10180 c-743 -153 -1383 -511 -1930 -1076 -571 -591 -933 -1331
-1034 -2114 -14 -113 -10 -142 24 -160 57 -30 92 14 104 130 10 89 52 305 82
420 149 564 425 1073 836 1536 528 597 1278 1018 2048 1149 94 16 124 31 135
66 6 19 -10 59 -29 71 -20 14 -100 7 -236 -22z"/>
<path d="M5855 9133 c-264 -33 -506 -153 -687 -341 -126 -131 -226 -296 -259
-426 l-12 -48 -57 6 c-31 4 -97 2 -146 -4 -288 -32 -534 -166 -710 -385 -209
-260 -277 -612 -175 -914 l30 -86 -27 -19 c-57 -40 -171 -166 -216 -238 -218
-350 -233 -786 -42 -1168 164 -327 475 -548 855 -607 l106 -17 63 -58 c221
-204 479 -315 897 -383 200 -33 253 -46 310 -80 54 -31 104 -103 136 -195 53
-152 29 -621 -61 -1165 -31 -185 -27 -181 -61 -79 -34 101 -70 170 -139 264
-36 49 -50 80 -59 127 -18 96 -75 262 -121 354 -63 126 -125 214 -220 313
-210 220 -456 344 -807 408 -104 18 -169 22 -533 27 -239 3 -424 2 -437 -3
-36 -14 -36 -40 -4 -145 156 -502 453 -876 854 -1078 113 -56 265 -107 387
-129 128 -24 380 -24 509 0 75 14 228 56 297 83 18 7 107 -137 142 -230 46
-122 65 -262 58 -413 -5 -102 -42 -351 -87 -591 -11 -54 -10 -65 4 -87 32 -48
109 -46 134 4 6 14 28 77 48 140 105 329 272 598 539 866 138 138 274 253 413
347 l68 47 120 -22 c102 -19 155 -22 350 -22 211 0 240 2 356 27 581 123 1021
478 1317 1064 117 232 228 509 217 544 -9 28 -41 32 -123 14 -40 -8 -193 -31
-340 -50 -309 -41 -512 -80 -667 -128 -628 -194 -1023 -569 -1236 -1172 -23
-66 -47 -126 -52 -133 -6 -7 -49 -40 -96 -72 -312 -214 -611 -522 -772 -796
-24 -40 -44 -72 -46 -71 -1 1 13 77 31 167 98 487 144 810 171 1211 16 242 25
282 93 432 30 66 33 68 104 102 60 29 108 41 278 69 222 38 336 67 467 122
172 71 304 158 447 295 87 82 97 89 134 89 60 0 226 34 318 65 394 134 684
483 760 915 22 130 15 360 -16 479 -64 247 -212 469 -383 576 -39 24 -47 34
-42 52 17 69 26 190 21 268 -24 375 -310 701 -716 818 -107 31 -270 49 -369
41 l-77 -7 -12 94 c-64 489 -418 852 -899 924 -89 14 -253 18 -328 8z m400
-153 c363 -99 624 -390 690 -769 8 -46 15 -112 15 -147 0 -56 3 -65 24 -80 22
-14 38 -14 139 -3 254 27 514 -46 707 -200 101 -81 173 -168 226 -277 51 -103
74 -197 74 -301 0 -70 -19 -194 -38 -243 -14 -36 2 -66 45 -88 280 -144 465
-533 423 -892 -6 -56 -20 -134 -30 -174 -91 -346 -352 -624 -687 -729 -79 -25
-183 -45 -183 -34 0 2 16 31 36 63 50 82 117 225 149 316 26 74 27 79 11 103
-14 22 -24 25 -74 25 -84 0 -214 -17 -315 -41 -48 -12 -90 -20 -92 -17 -2 2
10 24 27 48 71 105 136 269 162 410 20 105 20 139 -1 162 -19 21 -66 24 -81 6
-6 -7 -21 -62 -35 -123 -52 -232 -133 -383 -286 -535 -74 -73 -119 -108 -196
-151 -147 -84 -253 -167 -412 -324 -79 -77 -143 -139 -143 -138 0 2 8 47 17
101 26 151 23 426 -6 562 -55 258 -164 487 -343 722 -92 122 -108 114 -253
-117 -104 -165 -178 -342 -226 -535 -20 -84 -23 -119 -24 -305 0 -169 4 -227
19 -294 10 -47 21 -91 24 -99 2 -8 -62 53 -144 136 -164 165 -306 276 -475
372 -144 82 -198 148 -255 315 -35 105 -44 285 -20 423 20 116 20 141 -1 164
-43 47 -89 8 -114 -97 -50 -212 -30 -440 56 -649 7 -17 5 -18 -21 -13 -158 35
-232 47 -330 57 -100 11 -117 10 -138 -4 -14 -8 -27 -24 -31 -35 -12 -38 112
-316 200 -450 20 -29 33 -56 31 -59 -12 -11 -153 34 -252 82 -110 53 -228 138
-294 212 -252 281 -343 686 -233 1039 55 174 168 344 289 431 118 86 121 92
79 174 -50 98 -69 193 -69 335 0 150 20 237 84 365 124 246 337 417 606 486
87 22 117 25 241 23 169 -3 171 -2 198 99 39 147 114 279 227 398 130 137 253
216 424 273 130 44 180 50 349 47 116 -3 168 -9 230 -26z m-203 -2932 c172
-261 252 -492 265 -774 13 -280 -50 -541 -217 -892 l-63 -133 -108 216 c-158
317 -209 472 -230 692 -21 225 22 457 128 693 36 81 153 280 163 280 4 0 32
-37 62 -82z m-1569 -609 c372 -75 690 -268 985 -599 124 -139 265 -331 225
-307 -5 3 -92 19 -195 36 -427 72 -642 168 -864 386 -140 138 -243 290 -317
468 l-16 37 40 0 c23 0 87 -9 142 -21z m3227 -23 c0 -15 -70 -155 -115 -231
-138 -230 -322 -405 -541 -513 -155 -77 -274 -111 -545 -157 -85 -14 -163 -28
-173 -32 -18 -5 -17 -2 4 33 59 97 204 279 305 379 233 234 489 390 773 470
120 34 292 64 292 51z m1309 -768 c-107 -272 -248 -525 -396 -708 -86 -106
-253 -264 -356 -337 -310 -218 -694 -323 -1082 -294 -81 6 -154 15 -163 20
-19 11 170 124 704 421 220 122 407 230 418 240 21 21 24 63 6 85 -7 8 -26 15
-42 15 -30 0 -505 -257 -924 -500 -114 -66 -209 -120 -211 -120 -8 0 52 141
102 239 79 154 162 268 290 396 288 290 677 456 1255 536 85 11 209 29 275 39
66 10 126 18 132 19 9 1 6 -15 -8 -51z m-4662 -373 c335 -42 578 -152 784
-355 113 -112 166 -186 229 -316 40 -82 92 -225 85 -233 -2 -2 -46 21 -97 52
-140 82 -273 152 -483 254 -239 115 -503 238 -533 247 -52 17 -94 -51 -59 -97
6 -9 142 -77 302 -152 450 -211 836 -418 816 -438 -4 -4 -59 -19 -122 -34
-103 -25 -133 -27 -304 -27 -173 0 -200 2 -295 26 -178 45 -281 89 -425 183
-204 132 -377 327 -512 575 -40 75 -133 296 -133 318 0 19 594 16 747 -3z"/>
<path d="M5329 7947 c-164 -72 -265 -140 -376 -255 -156 -159 -280 -419 -299
-622 -6 -60 -4 -70 15 -89 11 -11 28 -21 36 -21 28 0 62 45 70 91 57 370 300
669 650 800 74 27 98 75 57 112 -27 25 -68 21 -153 -16z"/>
<path d="M6731 7954 c-12 -15 -21 -30 -21 -34 0 -22 47 -61 93 -76 246 -80
422 -281 486 -554 26 -112 56 -141 109 -104 29 20 29 73 2 180 -58 226 -217
431 -416 536 -85 44 -178 78 -215 78 -10 0 -27 -12 -38 -26z"/>
<path d="M2167 6289 c-27 -16 -49 -67 -42 -98 21 -98 170 -100 188 -3 7 34
-15 87 -41 101 -26 14 -81 14 -105 0z"/>
<path d="M9427 6289 c-11 -6 -25 -27 -33 -46 -31 -72 26 -143 102 -129 107 21
95 187 -13 186 -21 0 -46 -5 -56 -11z"/>
<path d="M2382 5649 c-31 -12 -45 -54 -37 -114 18 -149 140 -550 235 -777 456
-1085 1308 -1922 2388 -2347 205 -80 424 -151 468 -151 56 0 86 67 46 103 -9
8 -85 36 -167 62 -1273 393 -2282 1379 -2705 2644 -21 65 -60 201 -85 302 -60
246 -63 255 -78 266 -21 17 -41 21 -65 12z"/>
<path d="M6513 2325 c-28 -20 -46 -75 -34 -106 25 -67 113 -87 157 -36 53 62
14 157 -65 157 -20 0 -46 -7 -58 -15z"/>
</g>
</svg>
