<svg version="1.0" xmlns="http://www.w3.org/2000/svg"
 width="1254.000000pt" height="1254.000000pt" viewBox="0 0 1254.000000 1254.000000"
 preserveAspectRatio="xMidYMid meet">
<metadata>
Created by potrace 1.16, written by Peter Selinger 2001-2019
</metadata>
<g transform="translate(0.000000,1254.000000) scale(0.100000,-0.100000)"
fill="#000000" stroke="none">
<path d="M6264 10740 c-32 -13 -64 -59 -64 -92 0 -84 77 -131 150 -93 37 19
50 43 50 90 0 47 -13 71 -50 90 -32 17 -54 18 -86 5z"/>
<path d="M7818 10206 c-34 -17 -38 -78 -6 -100 12 -9 32 -16 43 -16 11 0 84
-18 163 -40 434 -122 835 -347 1151 -644 208 -197 420 -494 532 -746 44 -99
71 -123 113 -100 49 25 44 49 -37 214 -169 342 -407 637 -709 879 -316 253
-740 456 -1145 546 -64 15 -87 16 -105 7z"/>
<path d="M4560 10190 c-410 -75 -851 -281 -1200 -563 -132 -106 -342 -322
-438 -450 -124 -165 -302 -475 -302 -526 0 -46 71 -69 102 -33 9 9 41 67 71
127 137 275 360 552 617 767 319 268 746 474 1159 558 131 26 141 32 141 74 0
60 -27 68 -150 46z"/>
<path d="M6137 10040 c-804 -469 -1638 -808 -2487 -1010 -269 -64 -259 -54
-262 -253 -2 -78 -3 -540 -3 -1027 l0 -885 -207 -3 -208 -2 0 185 c0 184 0
186 -25 210 -29 30 -79 33 -115 8 -57 -39 -582 -499 -718 -629 -75 -72 -82
-82 -82 -117 0 -21 5 -47 10 -57 23 -43 684 -636 782 -702 48 -33 87 -35 119
-9 23 19 24 25 29 208 l5 188 205 0 205 0 12 -155 c33 -430 151 -842 355
-1242 76 -150 194 -348 220 -371 40 -34 98 -12 98 37 0 12 -36 83 -81 157
-257 426 -407 858 -466 1334 -13 111 -16 327 -20 1505 -2 756 -2 1394 2 1417
7 49 -6 43 225 98 806 191 1576 502 2372 957 75 43 147 78 158 78 12 0 121
-56 243 -124 787 -439 1534 -732 2337 -916 74 -18 140 -36 147 -42 17 -13 19
-2601 3 -2804 -27 -343 -89 -619 -207 -919 -293 -747 -847 -1401 -1636 -1933
-224 -151 -533 -329 -747 -430 -99 -47 -121 -53 -158 -49 -29 3 -115 40 -246
105 -488 245 -918 533 -1320 884 -110 97 -140 112 -198 101 -53 -10 -44 -33
48 -121 377 -362 887 -712 1428 -979 213 -105 278 -128 335 -118 21 3 114 43
207 89 888 434 1621 1058 2074 1766 282 439 460 919 520 1396 11 87 21 179 22
204 l3 45 223 3 222 2 0 -169 c0 -93 4 -181 10 -195 15 -40 55 -61 95 -50 39
10 317 245 607 513 210 193 223 207 231 241 9 42 -14 75 -123 177 -194 181
-623 557 -680 596 -34 24 -74 21 -107 -7 l-28 -24 -3 -186 -3 -186 -220 0
-219 0 0 1035 c0 1117 2 1085 -52 1118 -12 8 -57 22 -98 32 -835 185 -1623
487 -2375 910 -265 150 -276 155 -335 155 -47 0 -66 -6 -123 -40z m-3279
-3091 c-1 -147 1 -172 16 -187 14 -15 49 -18 264 -22 l247 -5 3 -185 c1 -102
0 -209 -3 -237 l-6 -53 -243 0 c-307 0 -282 19 -279 -206 1 -90 -2 -164 -6
-164 -21 0 -691 601 -691 619 0 18 680 621 692 614 4 -2 7 -80 6 -174z m7057
-54 c232 -203 455 -410 452 -419 -6 -18 -277 -268 -487 -450 l-195 -169 -5
172 c-5 167 -6 174 -29 192 -21 18 -42 19 -277 19 l-254 0 0 235 0 235 259 0
260 0 20 26 c19 25 21 40 21 196 l0 170 73 -64 c39 -35 113 -100 162 -143z"/>
<path d="M6195 9489 c-22 -12 -76 -42 -120 -67 -457 -259 -1010 -504 -1520
-673 -155 -52 -249 -80 -592 -175 -90 -25 -83 76 -83 -1182 0 -649 4 -1163 10
-1238 20 -255 67 -509 131 -710 64 -203 189 -496 223 -524 17 -13 21 -12 42
13 36 42 30 79 -35 233 -141 335 -213 633 -241 994 -6 80 -10 574 -10 1217 l0
1082 53 15 c287 80 376 106 528 156 497 164 1052 408 1509 664 85 48 162 88
170 88 8 1 78 -32 155 -74 688 -371 1208 -584 1950 -798 61 -18 116 -37 123
-42 16 -13 18 -2091 2 -2299 -48 -619 -268 -1170 -671 -1675 -348 -437 -889
-863 -1452 -1146 -96 -48 -103 -50 -137 -38 -80 28 -403 198 -583 306 l-192
116 -95 14 c-126 18 -126 18 -109 -2 18 -22 152 -117 284 -200 245 -156 655
-364 717 -364 44 0 155 50 343 155 1098 614 1797 1497 1970 2486 49 276 48
258 52 1494 5 1206 4 1233 -35 1254 -9 5 -100 32 -202 61 -611 172 -1197 407
-1745 697 -332 176 -345 183 -374 183 -14 0 -44 -10 -66 -21z"/>
<path d="M5295 8616 c-198 -49 -331 -205 -395 -465 -11 -42 -62 -409 -115
-816 -115 -890 -187 -1446 -220 -1695 -13 -102 -36 -277 -50 -390 -34 -279
-51 -361 -96 -460 -20 -47 -62 -157 -93 -245 -84 -243 -97 -271 -136 -297 -67
-45 -72 -141 -9 -173 46 -24 87 -19 120 15 28 27 30 35 28 92 -2 54 4 77 40
163 23 55 57 145 76 200 18 55 51 141 72 190 l39 90 67 3 c81 4 80 7 38 -128
-17 -52 -39 -133 -51 -180 -12 -47 -35 -129 -53 -183 -27 -84 -36 -100 -64
-117 -59 -35 -62 -139 -5 -169 39 -21 97 -13 126 16 25 25 27 33 23 83 -3 45
4 81 44 205 26 83 52 175 58 205 5 30 25 100 44 155 l34 100 79 -4 c43 -2 82
-5 85 -7 7 -4 -53 -253 -108 -449 -33 -118 -40 -133 -75 -163 -34 -30 -38 -39
-38 -81 0 -34 5 -53 18 -64 84 -76 201 -5 172 103 -9 35 -6 55 29 172 22 73
49 174 60 223 11 50 31 126 44 170 l23 79 84 -3 c47 -1 86 -4 88 -6 4 -3 -34
-166 -96 -420 -35 -143 -39 -152 -77 -187 -36 -33 -40 -42 -40 -84 0 -38 5
-50 28 -70 64 -55 167 -11 167 71 0 20 -4 44 -9 53 -6 12 -1 48 18 113 16 53
38 143 51 200 12 57 35 151 50 209 l27 105 84 -3 c46 -2 87 -7 90 -10 4 -4 -8
-72 -27 -152 -19 -80 -48 -206 -65 -280 -30 -127 -34 -137 -70 -171 -33 -31
-39 -42 -39 -78 0 -34 6 -49 29 -72 42 -42 92 -40 137 5 36 36 41 62 24 113
-9 24 -4 54 24 164 19 74 42 172 51 219 9 47 26 121 38 165 l23 80 83 -2 c45
-1 86 -4 89 -8 4 -3 -4 -45 -16 -93 -12 -48 -31 -134 -42 -192 -38 -200 -65
-283 -104 -322 -70 -70 -26 -174 72 -171 27 1 43 9 64 32 30 33 35 68 18 117
-8 24 -3 59 30 187 22 87 40 170 41 185 0 15 13 77 27 137 l28 110 86 0 c48 0
89 -3 92 -6 3 -3 -3 -41 -14 -84 -11 -43 -25 -108 -31 -144 -6 -36 -26 -127
-44 -202 -30 -121 -38 -140 -70 -172 -46 -46 -48 -92 -6 -139 33 -37 82 -43
125 -14 39 25 50 61 37 116 -11 41 -8 62 29 210 22 90 40 172 40 183 0 11 12
69 27 129 l27 108 76 0 c109 0 109 0 82 -112 -12 -51 -29 -133 -38 -183 -8
-49 -26 -132 -39 -184 -20 -79 -28 -97 -57 -121 -28 -24 -33 -34 -33 -73 0
-110 131 -142 181 -45 14 27 15 39 5 79 -11 42 -9 59 23 185 19 76 38 162 41
189 7 48 51 230 59 243 2 4 42 5 88 2 l83 -5 -3 -30 c-2 -16 -12 -64 -22 -105
-10 -41 -21 -97 -25 -125 -3 -27 -20 -107 -36 -176 -25 -106 -34 -128 -53
-139 -29 -15 -46 -50 -46 -93 0 -102 146 -126 186 -31 13 31 13 42 2 78 -12
37 -11 50 14 141 15 54 37 151 48 215 11 63 28 147 38 185 l18 70 46 3 c26 2
59 -1 75 -5 l29 -8 -13 -70 c-7 -38 -17 -99 -23 -135 -6 -36 -23 -126 -37
-200 -24 -120 -30 -139 -60 -173 -44 -49 -45 -96 -4 -138 82 -82 211 18 157
123 -12 23 -11 39 10 135 13 59 28 144 35 188 16 115 48 275 60 297 14 26 33
146 64 398 14 118 37 294 50 390 14 96 47 346 75 555 50 374 70 529 190 1416
33 246 69 495 80 554 34 175 83 286 162 364 59 60 91 54 132 -26 43 -85 45
-118 49 -1012 3 -535 1 -865 -5 -880 -22 -59 -97 -111 -160 -111 -17 0 -18 28
-18 458 0 456 9 659 45 1002 8 80 22 178 31 218 18 85 13 118 -21 134 -34 15
-71 -11 -84 -59 -13 -47 -57 -442 -71 -623 -17 -240 -22 -813 -11 -1299 8
-344 7 -478 0 -488 -9 -10 -46 -13 -142 -13 -112 0 -132 -2 -143 -17 -19 -26
-17 -57 6 -78 17 -16 35 -17 150 -13 l131 5 -7 -31 c-24 -116 -122 -193 -269
-212 -56 -7 -95 -36 -95 -69 0 -26 29 -55 56 -55 45 1 162 32 219 58 81 38
125 79 162 149 51 96 56 144 52 498 l-4 320 50 6 c115 14 201 86 234 194 17
57 17 108 11 935 -8 977 -5 938 -80 1063 -40 67 -105 119 -168 137 -36 9 -798
30 -1877 50 -626 12 -586 12 -650 -4z m285 -111 c0 -4 -7 -20 -16 -37 -10 -19
-14 -44 -11 -63 4 -23 0 -34 -13 -43 -20 -12 -50 -92 -50 -133 0 -38 32 -56
63 -36 22 14 57 103 57 144 0 11 9 32 20 46 12 14 30 46 41 71 11 25 23 48 28
51 6 3 1360 -21 1387 -25 1 0 -4 -17 -11 -37 -7 -20 -11 -43 -8 -50 5 -13 53
-43 68 -43 3 0 20 29 37 65 l30 66 242 -7 c132 -4 243 -8 245 -10 2 -2 -13
-22 -32 -44 -63 -75 -127 -218 -156 -350 -12 -56 -109 -769 -282 -2070 -38
-289 -80 -608 -94 -710 -14 -102 -27 -205 -30 -230 -3 -25 -13 -94 -22 -154
l-16 -109 -161 7 c-89 4 -189 9 -224 13 l-63 6 7 73 c7 72 6 73 -20 85 -39 18
-63 -10 -77 -89 -13 -74 35 -69 -391 -42 -172 11 -468 29 -658 40 -189 12
-347 23 -349 25 -2 3 1 35 7 72 13 75 0 113 -38 113 -32 0 -47 -26 -59 -105
l-13 -76 -101 6 c-56 4 -151 10 -212 13 l-110 7 1 30 c1 17 18 152 38 300 19
149 69 531 111 850 42 319 91 699 110 845 19 146 57 443 85 660 57 440 61 463
97 573 46 143 142 253 251 289 45 15 292 26 292 13z"/>
<path d="M7026 8298 c-8 -13 -19 -42 -26 -65 -14 -56 -1 -83 41 -83 24 0 33 6
44 33 7 17 16 48 20 68 6 31 3 39 -16 53 -32 22 -46 20 -63 -6z"/>
<path d="M6183 8255 c-32 -24 -121 -97 -198 -162 -154 -130 -170 -156 -121
-189 32 -20 23 -26 221 140 83 69 155 124 160 123 6 -2 62 -71 127 -153 91
-117 122 -150 143 -152 32 -4 55 13 55 42 0 20 -265 370 -293 388 -21 14 -34
8 -94 -37z"/>
<path d="M5456 8054 c-9 -8 -16 -17 -16 -20 0 -2 -7 -50 -15 -107 -9 -56 -13
-112 -10 -124 6 -25 31 -33 62 -20 25 11 28 20 44 154 10 83 10 104 0 117 -17
20 -45 20 -65 0z"/>
<path d="M6967 8017 c-13 -9 -22 -44 -34 -141 -17 -125 -17 -129 2 -142 23
-17 36 -18 58 -1 18 12 46 159 47 238 0 54 -34 75 -73 46z"/>
<path d="M6159 7882 c-67 -45 -367 -305 -372 -322 -7 -26 20 -60 47 -60 14 0
81 50 184 136 89 74 166 133 171 130 5 -4 56 -65 113 -138 121 -155 133 -168
153 -168 19 0 55 35 55 54 0 15 -259 350 -288 374 -21 16 -32 15 -63 -6z"/>
<path d="M5402 7662 c-20 -20 -38 -135 -26 -165 12 -33 66 -32 79 1 14 37 18
151 5 167 -17 20 -36 19 -58 -3z"/>
<path d="M6896 7558 c-8 -13 -20 -73 -27 -135 -10 -91 -10 -115 1 -127 16 -20
54 -21 70 -2 19 24 44 234 31 262 -14 31 -55 32 -75 2z"/>
<path d="M6095 7485 c-70 -48 -336 -267 -342 -281 -3 -9 -1 -26 5 -40 23 -48
55 -33 215 96 82 66 152 120 155 120 4 -1 56 -61 115 -135 84 -105 113 -135
132 -135 28 0 55 24 55 49 0 21 -255 333 -280 343 -12 4 -31 -2 -55 -17z"/>
<path d="M5350 7335 c-7 -8 -19 -71 -27 -140 -17 -139 -12 -159 36 -153 36 4
47 33 61 164 11 92 11 116 0 129 -16 19 -54 19 -70 0z"/>
<path d="M5948 7068 c-68 -57 -131 -109 -141 -117 -16 -13 -22 -11 -52 19 -26
25 -39 31 -59 26 -13 -3 -28 -15 -31 -27 -6 -18 -1 -30 40 -85 8 -11 -11 -34
-78 -97 -48 -45 -87 -89 -87 -97 0 -9 34 -60 75 -115 41 -54 75 -102 75 -105
0 -3 -20 -23 -45 -43 -50 -42 -59 -79 -25 -97 23 -12 28 -10 86 36 l40 33 80
-107 c96 -129 108 -142 135 -142 13 0 63 36 121 88 165 144 159 140 172 117 6
-10 23 -32 37 -47 31 -31 65 -28 81 8 9 19 5 30 -22 67 -18 25 -31 50 -29 55
2 5 42 42 89 82 47 40 88 78 92 84 16 23 6 46 -59 130 l-66 87 47 48 c42 43
47 51 37 70 -16 29 -46 26 -91 -9 -21 -16 -42 -30 -46 -29 -5 0 -54 58 -109
130 -55 71 -103 129 -107 129 -3 0 -13 3 -21 6 -10 3 -60 -32 -139 -98z m297
-243 l146 -190 -48 -44 c-75 -68 -367 -311 -374 -311 -4 0 -33 35 -65 78 -32
42 -77 101 -101 130 -23 29 -65 85 -92 125 l-49 74 165 144 c237 207 244 212
259 197 7 -7 79 -98 159 -203z"/>
<path d="M5933 6769 c-104 -90 -105 -97 -20 -207 83 -109 93 -109 205 -6 54
50 82 83 82 97 0 12 -29 59 -65 105 -84 106 -91 106 -202 11z m126 -80 l23
-31 -32 -32 -31 -31 -30 34 -29 35 33 28 c17 15 35 27 38 28 3 0 16 -14 28
-31z"/>
<path d="M6839 7123 c-8 -9 -19 -52 -26 -97 -22 -148 -16 -186 33 -186 35 0
44 22 59 141 12 100 12 117 -1 137 -17 26 -46 29 -65 5z"/>
<path d="M5300 6892 c-17 -14 -23 -40 -37 -144 -12 -103 -13 -131 -3 -143 16
-19 54 -19 69 -1 14 17 44 214 39 259 -4 39 -38 54 -68 29z"/>
<path d="M6772 6673 c-5 -16 -15 -72 -22 -126 -13 -111 -8 -127 41 -127 37 0
43 14 59 148 14 115 9 132 -40 132 -21 0 -30 -7 -38 -27z"/>
<path d="M5243 6443 c-17 -6 -29 -57 -43 -181 -13 -111 -8 -132 34 -132 40 0
48 15 62 121 19 145 18 176 -5 189 -21 11 -29 11 -48 3z"/>
<path d="M6731 6273 c-18 -15 -24 -39 -37 -138 -15 -118 -15 -120 5 -136 24
-19 57 -15 70 10 5 9 15 70 22 135 13 113 12 119 -6 132 -24 18 -28 18 -54 -3z"/>
<path d="M5642 6168 c-29 -29 -12 -63 113 -220 102 -128 130 -158 150 -158 17
0 81 45 205 146 193 156 208 175 156 209 -32 21 -36 19 -207 -121 -77 -63
-142 -114 -143 -114 -2 0 -32 37 -67 83 -143 186 -172 210 -207 175z"/>
<path d="M5170 5965 c-7 -8 -19 -71 -28 -140 -12 -101 -13 -127 -2 -140 15
-18 54 -20 69 -2 9 12 41 202 41 248 0 41 -55 64 -80 34z"/>
<path d="M6662 5827 c-14 -16 -45 -225 -37 -254 8 -32 51 -41 75 -17 26 26 50
244 31 268 -16 19 -54 21 -69 3z"/>
<path d="M5550 5781 c-5 -11 -10 -27 -10 -36 0 -15 252 -338 286 -366 11 -9
23 -10 39 -3 13 5 108 79 210 163 153 128 185 159 185 181 0 32 -17 50 -46 50
-13 0 -84 -52 -183 -135 -89 -74 -165 -135 -170 -135 -4 0 -61 68 -127 150
-101 128 -122 150 -146 150 -17 0 -31 -7 -38 -19z"/>
<path d="M5111 5516 c-6 -8 -19 -70 -28 -140 -17 -137 -13 -156 33 -156 36 0
50 35 64 162 11 95 11 120 0 133 -16 19 -54 20 -69 1z"/>
<path d="M6602 5387 c-6 -7 -18 -67 -28 -134 -19 -134 -15 -153 32 -153 37 0
51 35 65 157 10 91 10 115 -1 127 -15 19 -54 21 -68 3z"/>
<path d="M5497 5372 c-9 -10 -17 -27 -17 -38 0 -21 268 -347 299 -364 11 -5
28 -7 38 -3 31 11 392 305 398 324 10 31 -12 59 -46 59 -24 0 -63 -27 -191
-132 -89 -73 -164 -133 -167 -133 -3 1 -62 68 -131 150 -74 89 -134 151 -146
153 -11 2 -28 -6 -37 -16z"/>
<path d="M2097 7932 c-10 -10 -17 -24 -17 -30 0 -21 192 -496 208 -514 26 -31
69 -22 90 18 9 17 -6 62 -88 268 -54 136 -104 254 -111 262 -16 20 -63 17 -82
-4z"/>
<path d="M10372 7902 c-19 -12 -214 -499 -210 -525 2 -12 15 -28 29 -36 50
-28 65 -6 172 256 53 132 97 248 97 257 0 47 -48 73 -88 48z"/>
<path d="M1510 7440 c-21 -21 -25 -46 -11 -68 18 -30 377 -271 402 -272 30 0
59 28 59 57 0 24 -21 43 -125 113 -44 30 -122 85 -174 122 -51 38 -102 68
-112 68 -11 0 -28 -9 -39 -20z"/>
<path d="M10785 7285 c-203 -142 -225 -166 -190 -205 10 -11 29 -20 42 -20 15
0 88 43 181 107 219 149 232 159 232 192 0 32 -27 61 -56 60 -10 0 -104 -60
-209 -134z"/>
<path d="M1456 6564 c-18 -18 -20 -47 -6 -75 10 -18 23 -19 208 -19 213 0 222
2 222 51 0 55 -13 59 -220 59 -158 0 -191 -3 -204 -16z"/>
<path d="M10677 6522 c-24 -26 -21 -68 5 -86 18 -13 56 -16 200 -16 165 0 180
2 198 20 25 25 26 62 2 83 -16 15 -45 17 -204 17 -166 0 -187 -2 -201 -18z"/>
<path d="M2739 4981 c-40 -41 -41 -98 -1 -142 24 -26 36 -32 72 -32 37 0 48 5
73 33 26 29 29 38 24 79 -7 59 -41 91 -98 91 -31 0 -47 -7 -70 -29z"/>
<path d="M9517 4960 c-52 -41 -44 -136 14 -165 73 -38 149 6 149 86 0 60 -37
99 -96 99 -26 0 -51 -7 -67 -20z"/>
<path d="M3097 4252 c-27 -30 -20 -59 37 -155 340 -578 951 -1102 1587 -1363
126 -52 164 -56 181 -19 24 52 4 72 -122 124 -520 214 -1013 596 -1366 1056
-57 75 -161 230 -194 290 -18 33 -40 66 -48 73 -23 17 -56 15 -75 -6z"/>
<path d="M9242 4219 c-52 -93 -165 -267 -230 -354 -345 -461 -787 -806 -1327
-1036 -88 -37 -112 -51 -119 -72 -12 -33 15 -77 47 -77 60 0 404 164 601 287
381 236 750 595 992 963 81 124 144 240 144 267 0 30 -26 53 -61 53 -23 0 -34
-7 -47 -31z"/>
<path d="M6182 2255 c-38 -32 -48 -72 -28 -118 17 -42 41 -57 91 -57 48 0 83
25 96 70 29 97 -82 170 -159 105z"/>
</g>
</svg>
