<svg version="1.0" xmlns="http://www.w3.org/2000/svg"
 width="1254.000000pt" height="1254.000000pt" viewBox="0 0 1254.000000 1254.000000"
 preserveAspectRatio="xMidYMid meet">
<metadata>
Created by potrace 1.16, written by Peter Selinger 2001-2019
</metadata>
<g transform="translate(0.000000,1254.000000) scale(0.100000,-0.100000)"
fill="#000000" stroke="none">
<path d="M6248 11264 c-17 -9 -32 -28 -39 -53 -15 -51 3 -90 53 -114 33 -16
40 -17 72 -3 23 10 42 27 52 49 42 88 -50 169 -138 121z"/>
<path d="M5650 11194 c-910 -109 -1737 -465 -2425 -1043 -128 -107 -381 -357
-492 -485 -101 -118 -109 -139 -60 -166 l28 -15 72 80 c127 144 419 430 542
531 558 461 1252 793 1953 934 148 30 355 61 495 75 73 7 97 22 97 60 0 47
-26 51 -210 29z"/>
<path d="M6778 11190 c-21 -13 -24 -63 -5 -77 6 -6 73 -18 147 -27 546 -70
1114 -259 1600 -533 443 -250 896 -625 1196 -988 54 -66 103 -123 109 -127 28
-21 75 6 75 43 0 54 -414 492 -651 690 -623 517 -1369 860 -2152 988 -229 38
-297 44 -319 31z"/>
<path d="M5787 10405 c-545 -89 -984 -461 -1122 -952 -3 -8 -17 -8 -57 3 -75
22 -310 30 -404 14 -229 -37 -458 -168 -611 -350 -78 -92 -173 -280 -204 -400
-23 -90 -31 -259 -16 -355 l7 -50 -93 -2 c-442 -8 -800 -350 -824 -788 -14
-269 104 -525 323 -701 153 -122 391 -196 583 -181 95 7 110 13 117 44 12 47
-9 54 -167 57 -133 2 -151 4 -239 35 -52 18 -113 43 -136 56 -175 103 -295
252 -356 445 -19 64 -23 95 -23 210 1 121 4 143 29 215 85 246 271 419 526
490 69 19 224 25 297 12 36 -6 46 -4 64 14 14 14 19 28 15 42 -30 100 -38 169
-32 272 6 116 20 181 60 281 124 305 410 523 741 564 110 14 196 7 338 -27
129 -31 131 -31 158 76 92 364 413 687 814 820 400 133 834 75 1184 -159 115
-77 225 -181 307 -289 74 -97 164 -270 190 -361 25 -92 40 -95 162 -37 323
154 665 133 959 -59 102 -66 159 -118 235 -212 91 -115 156 -263 182 -414 10
-53 30 -61 122 -48 102 14 156 13 258 -5 230 -40 451 -185 581 -380 170 -257
179 -595 23 -859 -34 -58 -39 -72 -29 -92 10 -24 22 -28 96 -38 73 -10 197
-80 259 -146 69 -76 97 -123 132 -225 50 -150 32 -350 -46 -506 -128 -255
-372 -435 -650 -479 -131 -20 -314 -6 -427 34 -44 16 -78 7 -88 -23 -11 -35
11 -59 72 -76 243 -71 503 -53 719 49 116 55 168 91 262 180 133 126 222 279
263 452 17 74 20 110 17 214 -4 109 -9 136 -37 210 -70 189 -211 334 -379 391
-34 11 -62 24 -62 29 0 4 13 36 30 71 55 118 73 208 73 364 1 156 -13 228 -64
348 -94 223 -276 409 -497 509 -125 57 -240 80 -399 80 -131 1 -143 2 -143 18
0 10 -13 57 -29 105 -110 323 -383 577 -721 671 -117 32 -327 44 -448 24 -92
-14 -219 -53 -285 -87 l-48 -24 -15 38 c-70 168 -106 234 -189 344 -199 266
-499 454 -847 530 -124 27 -387 34 -511 14z"/>
<path d="M2312 9113 c-123 -178 -304 -527 -416 -800 -129 -314 -251 -770 -297
-1111 -14 -104 -9 -125 34 -130 35 -4 53 27 62 108 18 175 103 541 181 785
104 321 267 680 443 971 50 83 91 156 91 162 0 19 -31 42 -55 42 -15 0 -31
-11 -43 -27z"/>
<path d="M10112 9088 c-22 -22 -13 -47 74 -190 300 -501 521 -1118 609 -1703
21 -142 27 -155 64 -155 49 0 56 19 42 118 -21 156 -89 474 -135 634 -129 446
-307 854 -529 1211 -51 83 -64 97 -87 97 -14 0 -31 -5 -38 -12z"/>
<path d="M4951 8505 c-144 -41 -263 -145 -343 -301 -79 -153 -51 -38 -463
-1884 -90 -404 -227 -1018 -305 -1365 -77 -346 -139 -640 -137 -653 6 -33 -77
-359 -113 -443 -63 -148 -227 -389 -266 -389 -55 0 -105 -70 -85 -121 36 -94
170 -75 176 26 2 25 14 50 42 83 90 107 188 277 239 412 15 41 29 77 30 79 2
2 32 0 68 -4 l65 -7 -6 -31 c-34 -180 -165 -467 -213 -467 -29 0 -69 -39 -76
-74 -6 -36 7 -72 35 -93 20 -15 76 -17 102 -3 27 15 52 68 45 96 -4 16 4 39
28 76 78 123 133 259 165 411 16 74 106 376 114 383 1 1 88 -6 192 -15 180
-15 190 -17 187 -36 -8 -56 -67 -287 -85 -335 -74 -197 -225 -431 -287 -443
-62 -13 -94 -75 -67 -133 12 -23 26 -36 49 -42 66 -18 118 22 118 88 0 26 7
43 25 60 65 61 179 253 236 399 l38 96 63 0 63 0 -4 -40 c-12 -144 -151 -455
-202 -455 -35 0 -69 -44 -69 -90 0 -81 85 -119 146 -66 23 19 28 32 29 72 2
38 11 64 42 114 73 118 120 244 148 394 13 65 100 354 110 365 6 5 378 -29
384 -35 3 -3 -6 -51 -19 -107 -12 -56 -26 -122 -31 -147 -27 -163 -233 -530
-298 -530 -11 0 -33 -12 -50 -26 -25 -20 -31 -34 -31 -64 0 -57 31 -90 84 -90
52 0 84 29 93 85 4 23 25 63 54 101 90 119 182 295 219 422 14 46 23 49 103
36 45 -8 46 -19 16 -137 -45 -179 -126 -335 -190 -368 -21 -10 -43 -28 -49
-38 -17 -33 -11 -78 14 -108 19 -22 32 -28 66 -28 58 0 95 41 87 96 -3 26 1
45 15 65 67 99 131 261 163 412 13 64 42 180 63 256 l39 140 49 -3 c105 -5
334 -28 340 -33 10 -10 -46 -259 -78 -348 -52 -143 -116 -264 -206 -383 -34
-45 -49 -57 -71 -57 -54 0 -90 -68 -66 -126 21 -50 77 -70 126 -44 25 14 52
67 46 91 -3 12 14 41 48 84 65 82 144 223 191 341 19 49 39 100 45 112 6 16
15 22 25 18 9 -3 36 -6 61 -6 l46 0 -7 -50 c-12 -88 -56 -222 -108 -328 -45
-93 -54 -104 -89 -119 -39 -15 -69 -54 -69 -88 0 -33 30 -73 63 -84 64 -22
117 20 117 92 0 27 11 57 34 96 69 115 111 231 145 402 15 76 89 357 96 367 4
5 390 -31 398 -37 11 -11 -56 -295 -92 -386 -41 -105 -103 -218 -171 -310 -44
-60 -60 -75 -81 -75 -42 0 -79 -42 -79 -90 0 -56 34 -90 89 -90 32 0 44 6 65
31 16 18 26 43 26 61 0 21 12 45 35 74 80 98 199 321 235 441 l13 42 61 -6
c34 -3 63 -7 65 -9 8 -7 -31 -179 -56 -248 -41 -115 -102 -224 -130 -231 -70
-17 -98 -113 -47 -160 39 -36 87 -34 126 5 25 26 29 36 25 68 -3 30 3 50 34
102 52 88 104 227 124 330 18 96 25 127 70 295 l32 120 54 -1 c30 0 89 -4 132
-8 70 -7 77 -10 77 -30 0 -40 -77 -330 -115 -431 -39 -105 -104 -241 -137
-287 -11 -16 -27 -28 -37 -28 -32 0 -66 -47 -66 -92 0 -78 91 -116 152 -64 23
20 28 32 28 78 1 39 7 63 24 86 69 97 162 353 216 593 21 90 43 178 50 194 7
17 15 50 19 75 3 25 13 79 22 121 l16 77 97 4 c83 3 103 7 143 31 51 30 89 71
118 127 19 36 41 134 75 331 l17 96 72 5 c55 4 85 12 125 33 115 63 137 114
195 467 25 152 46 279 46 283 0 3 26 5 58 5 68 1 119 18 168 55 42 32 90 104
105 157 7 30 160 945 276 1653 24 152 24 375 -1 475 -28 114 -78 211 -147 285
-75 80 -140 112 -252 126 -69 8 -646 33 -2082 89 -1383 54 -1423 55 -1494 35z
m547 -100 c1 -1 -13 -26 -33 -56 -42 -64 -86 -168 -113 -264 -24 -85 -17 -115
26 -115 38 0 46 11 67 90 27 104 98 239 153 293 l48 47 629 -25 c347 -13 765
-29 930 -36 165 -6 306 -13 313 -15 9 -3 6 -13 -12 -37 -33 -43 -84 -154 -101
-218 -13 -47 -12 -52 6 -70 40 -40 60 -22 108 101 40 99 78 159 125 195 l33
25 224 -9 c123 -6 263 -11 312 -13 48 -1 87 -5 87 -8 0 -3 -14 -19 -31 -36
-71 -67 -147 -213 -191 -364 -20 -71 -114 -524 -317 -1525 -71 -352 -180 -885
-241 -1185 -61 -300 -137 -675 -169 -833 -32 -158 -61 -290 -63 -292 -3 -3
-81 2 -174 10 -93 8 -225 19 -294 25 -171 15 -173 16 -166 44 4 16 -1 32 -12
46 -27 33 -69 21 -80 -23 -6 -22 -15 -33 -30 -35 -12 -2 -297 22 -634 52 -767
70 -1286 116 -1297 116 -5 0 0 37 11 83 58 244 66 295 51 316 -16 24 -45 27
-65 7 -8 -7 -34 -98 -58 -202 -24 -104 -44 -190 -45 -192 -2 -3 -678 58 -682
61 -2 3 30 148 192 872 135 604 296 1325 460 2060 63 286 127 563 140 615 50
198 106 311 197 397 61 57 82 69 158 95 50 16 79 18 295 12 132 -3 241 -7 243
-9z m3130 -154 c22 -11 60 -43 86 -72 120 -133 158 -329 121 -616 -34 -258
-276 -1690 -292 -1726 -21 -48 -72 -93 -120 -106 -45 -13 -54 -13 -71 -2 -15
9 -6 64 133 851 204 1153 210 1201 160 1307 -68 147 -221 115 -287 -60 -11
-28 -46 -191 -79 -361 -105 -545 -149 -776 -184 -956 -79 -407 -247 -1306
-326 -1740 -29 -160 -59 -301 -70 -321 -23 -47 -69 -85 -117 -99 -39 -10 -115
-14 -124 -5 -6 6 -5 10 147 760 70 341 178 872 240 1180 328 1612 334 1639
402 1768 58 109 142 192 221 218 39 12 115 3 160 -20z m-71 -403 c36 -71 27
-144 -147 -1128 -50 -283 -134 -769 -185 -1078 -63 -378 -100 -576 -113 -600
-27 -53 -82 -93 -136 -99 -73 -9 -76 -5 -60 74 7 37 29 158 49 268 62 338 114
619 165 885 119 618 272 1414 290 1508 27 139 60 201 107 202 7 0 20 -15 30
-32z m-4609 -3603 c1 -1 -12 -48 -30 -105 l-32 -102 -65 6 c-35 3 -66 7 -68
10 -4 3 5 43 38 169 l10 39 72 -7 c40 -4 73 -8 75 -10z m728 -68 c3 -3 -9 -51
-26 -107 l-31 -102 -62 7 c-34 4 -64 9 -66 11 -4 4 37 191 45 205 3 6 132 -6
140 -14z m735 -66 c4 -3 -5 -49 -20 -101 -25 -90 -28 -95 -56 -98 -16 -2 -48
-1 -71 3 l-42 6 25 97 c13 53 26 99 28 102 5 8 128 0 136 -9z m705 -59 l41 -7
-27 -98 c-15 -54 -29 -99 -31 -101 -2 -2 -32 -1 -66 2 -43 3 -63 9 -63 17 0 8
9 54 21 104 l21 91 31 -1 c18 0 50 -4 73 -7z m779 -74 c6 -6 -1 -38 -31 -144
l-14 -51 -58 4 c-85 6 -82 3 -62 80 9 37 20 81 24 97 7 28 7 28 71 24 35 -2
67 -7 70 -10z"/>
<path d="M6135 7829 c-116 -94 -216 -178 -222 -187 -20 -25 -15 -50 12 -68 32
-21 25 -25 252 162 119 98 179 141 187 135 6 -5 67 -86 136 -180 126 -172 153
-197 189 -174 40 25 25 54 -124 253 -181 242 -170 230 -198 230 -14 0 -97 -61
-232 -171z"/>
<path d="M7346 7808 c-18 -30 -68 -271 -60 -292 10 -26 53 -32 74 -10 26 27
77 289 60 309 -19 22 -58 18 -74 -7z"/>
<path d="M5297 7807 c-12 -8 -28 -57 -47 -147 -36 -164 -37 -177 -6 -191 46
-21 60 -1 91 133 41 179 41 183 14 202 -28 19 -30 19 -52 3z"/>
<path d="M6055 7354 c-190 -155 -245 -206 -245 -224 0 -15 38 -50 54 -50 7 0
98 70 202 155 104 85 191 155 194 155 3 0 48 -59 100 -131 179 -246 176 -244
214 -216 39 28 25 56 -128 265 -129 175 -152 202 -175 202 -20 0 -77 -41 -216
-156z"/>
<path d="M7246 7314 c-9 -8 -18 -25 -21 -37 -3 -12 -21 -98 -41 -190 -34 -160
-34 -170 -18 -188 21 -24 46 -24 66 -1 15 16 89 344 88 389 0 21 -25 43 -49
43 -5 0 -17 -7 -25 -16z"/>
<path d="M5177 7295 c-9 -8 -18 -29 -22 -47 -3 -18 -18 -86 -32 -150 -25 -114
-26 -118 -8 -138 21 -23 34 -25 59 -7 13 9 28 58 52 163 40 176 38 159 18 178
-20 20 -48 20 -67 1z"/>
<path d="M6059 6938 c-42 -35 -100 -84 -130 -109 -30 -25 -168 -141 -306 -258
-175 -147 -253 -218 -253 -232 0 -11 95 -156 212 -322 117 -166 230 -328 252
-359 29 -43 46 -58 63 -58 16 0 86 51 206 149 556 455 582 477 584 502 2 17
-67 123 -250 384 -205 292 -257 361 -277 363 -18 2 -46 -15 -101 -60z m298
-363 c99 -143 188 -272 197 -286 l16 -26 -92 -76 c-51 -42 -150 -122 -219
-179 -69 -57 -173 -142 -231 -190 -58 -49 -110 -88 -115 -88 -4 0 -31 33 -59
73 -234 331 -364 517 -364 522 0 8 33 37 362 311 290 243 291 243 308 221 9
-12 98 -139 197 -282z"/>
<path d="M5901 6464 c-103 -85 -151 -132 -151 -146 0 -11 46 -85 102 -164 87
-124 105 -144 128 -144 40 0 333 246 328 274 -3 12 -49 85 -103 164 -86 123
-103 142 -126 142 -20 0 -67 -33 -178 -126z m228 -83 l61 -90 -97 -80 c-54
-44 -100 -81 -103 -80 -5 0 -111 153 -118 169 -2 6 183 170 193 170 1 0 30
-40 64 -89z"/>
<path d="M5057 6768 c-15 -23 -67 -243 -67 -283 0 -41 53 -62 79 -31 6 7 25
77 43 156 34 153 33 172 -15 178 -18 2 -30 -4 -40 -20z"/>
<path d="M7111 6696 c-20 -24 -76 -306 -64 -325 13 -21 56 -26 71 -8 20 24 77
307 65 326 -13 21 -57 26 -72 7z"/>
<path d="M4952 6263 c-16 -14 -30 -58 -56 -178 -33 -148 -34 -160 -19 -177 19
-21 56 -24 70 -5 13 15 73 287 73 327 0 19 -7 33 -19 40 -25 13 -25 13 -49 -7z"/>
<path d="M7000 6175 c-12 -15 -70 -261 -70 -300 0 -42 54 -62 80 -30 12 14 69
258 70 297 0 39 -55 63 -80 33z"/>
<path d="M4822 5718 c-6 -7 -25 -79 -42 -161 -26 -119 -30 -150 -20 -162 14
-17 66 -20 75 -4 10 15 65 265 65 292 0 13 -5 28 -12 35 -16 16 -53 15 -66 0z"/>
<path d="M6890 5655 c-19 -23 -70 -286 -59 -307 11 -21 62 -24 76 -5 10 13 63
250 63 283 0 40 -54 61 -80 29z"/>
<path d="M5498 5612 c-20 -4 -34 -43 -24 -67 3 -8 69 -105 147 -215 101 -141
150 -202 166 -207 29 -7 28 -7 292 206 202 162 214 177 171 216 -25 23 -45 15
-126 -52 -153 -127 -315 -255 -318 -252 -7 8 -212 296 -236 331 -25 38 -42 47
-72 40z"/>
<path d="M4710 5205 c-7 -8 -24 -66 -37 -128 -35 -160 -38 -184 -23 -202 15
-18 54 -20 68 -2 5 6 25 79 43 161 35 159 34 178 -13 184 -14 2 -31 -4 -38
-13z"/>
<path d="M6788 5163 c-8 -10 -27 -78 -42 -152 -25 -126 -26 -134 -10 -152 21
-24 46 -24 66 -1 12 14 68 242 68 279 0 17 -29 43 -49 43 -10 0 -25 -8 -33
-17z"/>
<path d="M5366 5145 c-9 -9 -16 -24 -16 -34 0 -13 156 -243 301 -443 11 -16
29 -28 42 -28 14 0 99 62 227 165 284 229 273 219 265 247 -21 66 -51 53 -270
-122 -110 -88 -204 -159 -210 -157 -5 2 -56 68 -113 148 -163 229 -166 234
-188 237 -12 2 -29 -4 -38 -13z"/>
<path d="M6682 4677 c-19 -22 -72 -289 -62 -308 14 -25 40 -31 65 -15 21 14
35 62 71 253 10 54 -2 83 -35 83 -16 0 -33 -6 -39 -13z"/>
<path d="M1545 6646 c-73 -32 -70 -145 4 -176 79 -32 160 46 127 123 -7 18
-20 38 -28 44 -24 20 -70 24 -103 9z"/>
<path d="M10867 6555 c-29 -30 -36 -58 -25 -102 11 -42 42 -63 94 -63 85 0
125 100 65 161 -39 39 -97 40 -134 4z"/>
<path d="M2410 6289 c-86 -9 -198 -46 -287 -95 -65 -36 -81 -60 -63 -94 16
-29 50 -25 122 14 104 57 197 80 318 79 139 0 220 -27 391 -128 144 -86 218
-117 328 -135 136 -23 265 2 419 78 77 39 97 60 87 92 -12 37 -48 34 -136 -9
-114 -55 -202 -74 -309 -68 -110 6 -190 36 -339 126 -139 84 -248 126 -362
141 -46 5 -86 9 -89 9 -3 -1 -39 -5 -80 -10z"/>
<path d="M1576 6038 c-12 -20 -12 -40 4 -159 115 -856 423 -1606 943 -2296 84
-113 104 -133 126 -133 65 0 66 46 3 125 -88 109 -228 311 -316 455 -352 574
-576 1212 -661 1880 -9 68 -21 130 -27 137 -17 21 -56 15 -72 -9z"/>
<path d="M10861 5942 c-15 -14 -24 -55 -45 -202 -116 -808 -440 -1577 -931
-2204 -40 -52 -79 -104 -85 -116 -14 -25 1 -56 32 -66 27 -8 62 28 178 181
415 551 712 1213 856 1910 38 180 75 465 64 485 -14 25 -47 31 -69 12z"/>
<path d="M2300 5730 c-93 -24 -235 -93 -255 -124 -18 -27 -11 -52 17 -67 15
-8 37 -1 108 35 106 55 192 77 303 77 139 0 219 -25 376 -121 55 -33 128 -74
164 -90 124 -58 274 -74 410 -44 75 17 208 73 239 101 33 30 17 83 -24 83 -10
0 -50 -16 -88 -35 -195 -98 -394 -88 -583 30 -121 76 -246 135 -325 156 -99
25 -241 25 -342 -1z"/>
<path d="M9895 5500 c-83 -22 -155 -53 -250 -109 -80 -47 -193 -86 -280 -96
-120 -13 -299 37 -408 115 -64 46 -90 50 -112 16 -23 -34 -8 -57 62 -99 157
-95 262 -127 411 -127 136 0 213 22 388 111 185 95 231 109 349 109 100 0 175
-17 243 -56 47 -27 75 -25 93 7 5 11 7 28 4 39 -7 24 -108 74 -190 95 -81 20
-223 18 -310 -5z"/>
<path d="M9815 4984 c-47 -10 -123 -41 -230 -94 -182 -91 -245 -110 -360 -110
-140 0 -262 41 -383 126 -56 40 -68 46 -91 38 -19 -7 -27 -17 -29 -40 -3 -28
3 -35 72 -83 182 -126 397 -170 592 -121 48 12 137 49 229 95 83 41 177 82
210 90 116 29 248 14 356 -41 48 -24 52 -24 75 -9 19 12 24 24 22 43 -2 22
-15 33 -68 60 -118 59 -255 75 -395 46z"/>
<path d="M2942 3148 c-28 -28 -12 -56 101 -164 676 -656 1530 -1093 2425
-1243 222 -37 277 -39 292 -11 15 27 4 59 -23 69 -12 5 -53 12 -92 16 -176 18
-502 90 -735 162 -262 81 -631 242 -875 383 -339 195 -721 485 -960 729 -71
72 -105 87 -133 59z"/>
<path d="M9377 2981 c-700 -658 -1605 -1079 -2549 -1185 -70 -8 -131 -17 -137
-21 -17 -10 -13 -72 5 -79 64 -24 439 34 769 119 749 194 1436 576 1998 1111
64 61 87 90 87 108 0 25 -24 46 -53 46 -9 0 -62 -44 -120 -99z"/>
<path d="M6204 1813 c-32 -6 -64 -45 -70 -85 -5 -27 -1 -40 20 -65 50 -60 132
-48 162 23 20 48 -1 99 -50 119 -20 8 -37 14 -38 14 -2 -1 -13 -4 -24 -6z"/>
</g>
</svg>
