<svg version="1.0" xmlns="http://www.w3.org/2000/svg"
 width="1254.000000pt" height="1254.000000pt" viewBox="0 0 1254.000000 1254.000000"
 preserveAspectRatio="xMidYMid meet">
<metadata>
Created by potrace 1.16, written by Peter Selinger 2001-2019
</metadata>
<g transform="translate(0.000000,1254.000000) scale(0.100000,-0.100000)"
fill="#000000" stroke="none">
<path d="M6209 11201 c-38 -39 -39 -87 -3 -130 33 -40 89 -43 131 -7 23 20 28
32 28 71 0 39 -5 51 -28 71 -40 34 -90 32 -128 -5z"/>
<path d="M5440 11065 c-583 -82 -1207 -335 -1720 -699 -351 -250 -755 -653
-1008 -1007 -66 -91 -71 -108 -46 -133 27 -28 51 -18 90 37 548 760 1277 1304
2103 1571 196 64 518 133 696 151 92 10 107 18 103 58 -3 32 -3 32 -63 34 -33
0 -103 -5 -155 -12z"/>
<path d="M6962 11068 c-16 -16 -15 -53 1 -66 6 -5 53 -15 102 -21 703 -90
1406 -412 1980 -906 229 -198 540 -542 700 -777 61 -89 92 -112 120 -88 29 24
16 61 -57 164 -210 293 -502 611 -758 822 -576 475 -1228 772 -1912 869 -126
18 -161 18 -176 3z"/>
<path d="M6170 10713 c-120 -121 -167 -234 -158 -381 7 -100 30 -164 109 -292
76 -123 96 -170 105 -245 8 -62 29 -84 63 -66 14 8 21 29 29 82 11 76 29 116
110 248 66 106 92 178 99 266 11 137 -36 261 -140 372 -57 61 -101 93 -128 93
-6 0 -46 -35 -89 -77z m158 -87 c116 -127 143 -295 70 -442 -31 -62 -121 -213
-128 -213 -10 0 -123 200 -148 261 -21 55 -24 73 -19 145 4 63 12 97 32 138
25 52 118 165 135 165 4 0 30 -24 58 -54z"/>
<path d="M5540 10057 c-55 -19 -67 -50 -53 -146 16 -106 53 -183 123 -251 128
-126 326 -180 665 -180 412 0 640 91 741 295 29 58 37 87 41 152 4 50 1 87 -6
100 -16 30 -98 47 -209 41 -79 -4 -99 -9 -165 -41 -132 -65 -229 -201 -272
-383 l-17 -71 -87 -7 c-48 -3 -100 -4 -116 0 -28 5 -32 10 -48 81 -45 201
-177 360 -336 407 -64 19 -210 20 -261 3z m250 -94 c129 -46 224 -173 264
-355 6 -25 4 -28 -21 -28 -61 1 -172 32 -250 70 -129 64 -198 157 -205 280
l-3 45 40 6 c53 8 120 1 175 -18z m1135 20 l47 -6 -4 -51 c-10 -115 -87 -221
-203 -276 -63 -30 -209 -70 -257 -70 l-26 0 14 60 c39 170 156 302 298 336 63
15 71 16 131 7z"/>
<path d="M5020 9777 c-52 -26 -62 -104 -19 -143 27 -24 91 -24 117 -1 44 40
34 115 -19 142 -34 18 -47 18 -79 2z"/>
<path d="M7445 9779 c-33 -19 -45 -41 -45 -80 0 -48 26 -78 72 -86 32 -5 41
-1 68 25 37 37 40 80 8 116 -26 30 -74 41 -103 25z"/>
<path d="M3355 9276 c-99 -44 -131 -175 -64 -260 43 -55 52 -56 384 -56 l305
0 0 -403 c0 -300 3 -406 12 -415 16 -16 53 -15 67 1 7 10 12 139 13 413 l3
399 168 3 167 2 0 -188 c0 -198 3 -212 46 -212 39 0 43 19 46 211 l3 184 150
0 150 0 3 -114 c1 -64 8 -121 14 -128 15 -19 56 -16 67 5 5 9 9 67 8 127 l0
110 139 0 139 0 3 -123 c3 -120 3 -123 27 -134 20 -9 28 -8 45 7 17 15 20 33
22 134 l3 116 135 0 135 0 5 -129 c4 -108 8 -131 23 -140 12 -8 22 -8 35 0 14
9 18 32 22 140 l5 129 628 3 627 2 0 -138 c0 -155 7 -176 55 -170 l30 3 5 150
5 150 135 0 135 0 5 -149 c5 -137 7 -150 26 -163 18 -12 24 -11 42 4 20 17 22
29 24 163 l3 145 139 0 138 0 -1 -147 c-1 -90 2 -156 9 -168 12 -23 52 -27 69
-7 6 8 12 75 13 168 l3 154 150 0 150 0 1 -164 c1 -143 4 -166 19 -177 10 -8
25 -10 38 -5 21 8 22 16 27 177 l5 169 173 3 172 2 0 -208 c0 -148 3 -211 12
-220 18 -18 56 -14 68 7 6 12 10 101 10 220 l0 200 314 3 c299 3 316 4 342 24
103 77 80 248 -39 293 -20 8 -891 11 -2905 11 -2381 -1 -2882 -3 -2907 -14z
m5797 -90 c42 -32 42 -103 -1 -125 -14 -8 -885 -11 -2888 -11 -2514 0 -2871 2
-2890 15 -40 28 -37 89 6 122 24 19 5749 18 5773 -1z"/>
<path d="M2386 8888 c-40 -53 -211 -409 -275 -572 -141 -360 -243 -757 -297
-1148 -19 -141 -14 -162 35 -156 37 4 47 33 70 208 66 487 236 1018 475 1487
81 158 85 169 70 190 -20 32 -49 29 -78 -9z"/>
<path d="M10067 8904 c-17 -17 -2 -57 92 -248 105 -211 204 -453 266 -646 81
-252 169 -640 196 -865 14 -120 20 -135 59 -135 50 0 52 19 24 210 -81 562
-270 1144 -517 1590 -46 85 -55 95 -82 98 -17 2 -34 0 -38 -4z"/>
<path d="M4745 8481 c-152 -43 -271 -146 -348 -301 -62 -125 -90 -229 -132
-500 -20 -124 -90 -569 -156 -990 -111 -709 -210 -1327 -309 -1932 -43 -266
-46 -298 -29 -330 9 -16 5 -53 -16 -162 -30 -159 -60 -254 -116 -374 -63 -135
-106 -201 -145 -217 -43 -18 -69 -69 -60 -118 8 -44 34 -67 84 -74 33 -4 44
-1 72 24 27 24 32 36 32 71 0 23 -3 46 -6 51 -3 5 26 70 64 144 39 74 86 179
105 233 l34 99 51 -1 c28 -1 54 -4 57 -7 9 -9 -36 -195 -79 -325 -35 -105 -45
-125 -69 -138 -86 -44 -52 -184 44 -184 53 0 97 41 97 90 0 22 -5 50 -11 63
-8 19 -3 45 30 144 22 66 50 169 61 229 12 60 29 136 39 169 10 33 27 96 37
140 9 44 21 84 25 89 5 5 84 4 193 -4 159 -11 186 -15 186 -29 0 -16 -32 -197
-51 -286 -15 -71 -93 -266 -144 -360 -36 -66 -50 -83 -78 -93 -34 -12 -67 -59
-67 -96 0 -47 51 -96 100 -96 71 0 124 87 91 149 -7 12 -1 30 22 66 43 69 120
250 148 346 l23 81 55 -6 c30 -4 57 -8 58 -10 8 -8 -41 -220 -76 -328 -32 -96
-45 -123 -75 -151 -31 -30 -36 -41 -36 -79 0 -51 26 -84 75 -94 87 -17 151 82
101 158 -14 22 -14 28 5 78 24 64 99 351 99 381 0 11 9 45 19 77 11 31 27 98
37 147 9 50 20 94 24 98 7 8 356 -15 365 -25 9 -9 -55 -331 -81 -413 -40 -121
-149 -345 -169 -345 -9 0 -30 -13 -46 -29 -58 -59 -28 -155 53 -168 33 -5 41
-2 73 30 35 35 47 83 27 114 -5 7 17 63 53 135 33 68 79 179 100 247 l40 123
52 -4 c29 -3 55 -7 57 -9 7 -7 -42 -236 -75 -347 -27 -92 -37 -112 -70 -143
-33 -30 -39 -42 -39 -75 0 -50 20 -79 65 -94 85 -28 156 68 111 149 -12 21
-11 32 6 80 25 74 65 233 88 351 34 175 76 370 81 374 7 7 358 -19 366 -27 3
-4 -3 -60 -15 -125 -12 -64 -22 -127 -22 -138 0 -39 -79 -261 -136 -383 -45
-95 -62 -123 -81 -127 -56 -14 -88 -90 -62 -147 24 -53 110 -64 154 -20 25 25
27 33 22 83 -4 51 0 64 51 170 30 63 74 174 97 245 32 96 48 130 59 129 9 0
36 -1 61 -2 41 -2 45 -4 41 -24 -22 -102 -70 -295 -87 -348 -33 -104 -40 -118
-59 -123 -29 -8 -54 -68 -46 -111 14 -74 113 -99 164 -41 26 31 30 90 7 123
-11 15 -13 27 -7 39 18 34 81 259 97 343 9 47 29 139 45 205 16 66 32 141 35
166 4 25 10 50 13 55 7 10 369 -10 379 -20 2 -2 -5 -57 -16 -122 -11 -66 -22
-138 -25 -161 -10 -71 -74 -252 -133 -376 -49 -101 -62 -120 -89 -132 -67 -28
-82 -122 -27 -165 77 -60 187 17 155 110 -10 26 -5 42 43 142 56 119 104 248
125 336 l12 52 54 0 c37 0 56 -4 60 -13 7 -18 -38 -232 -76 -366 -24 -82 -37
-110 -57 -125 -52 -39 -60 -110 -17 -157 39 -43 122 -31 149 22 19 36 19 63 0
103 -15 31 -14 39 20 155 37 130 75 303 75 344 0 13 6 40 14 58 7 19 24 87 36
153 l23 119 91 -7 c213 -15 216 -16 216 -45 0 -39 -35 -235 -59 -327 -43 -170
-145 -434 -166 -434 -7 0 -25 -14 -39 -31 -68 -81 9 -198 105 -159 50 21 73
88 48 143 -9 19 -6 35 16 86 90 216 157 463 190 702 4 36 11 49 30 57 28 13
39 47 56 177 l12 93 131 4 c123 3 134 5 185 33 93 51 143 130 162 255 6 41 13
84 15 95 2 15 16 24 46 32 53 14 122 72 149 125 31 60 46 150 65 385 l18 213
35 5 c137 22 210 90 245 230 9 33 25 197 36 365 11 168 38 582 61 920 54 812
51 918 -31 1087 -66 134 -169 210 -298 219 -64 4 -586 21 -1997 64 -363 11
-793 25 -955 30 -390 13 -453 12 -525 -9z m535 -87 c0 -3 -13 -24 -29 -47 -66
-97 -101 -188 -131 -345 -20 -105 -20 -106 -1 -125 25 -25 69 -16 75 16 3 12
14 67 24 122 30 154 98 291 176 350 l33 25 489 -15 c269 -8 629 -20 799 -25
171 -6 361 -10 423 -10 61 0 112 -3 112 -6 0 -4 -17 -32 -37 -63 -67 -100
-110 -237 -138 -434 -8 -54 4 -77 40 -77 34 0 42 17 61 125 36 215 107 368
197 424 35 21 37 21 303 11 148 -5 287 -10 309 -10 l39 0 -35 -37 c-122 -129
-177 -281 -224 -613 -38 -274 -172 -1244 -216 -1570 -81 -601 -240 -1700 -260
-1797 l-10 -51 -52 4 c-29 2 -171 13 -316 24 -146 11 -266 22 -267 23 -2 2 6
60 17 130 16 101 18 131 9 143 -15 17 -54 18 -68 2 -5 -7 -20 -69 -32 -138
-11 -68 -23 -126 -25 -129 -3 -2 -71 1 -152 8 -229 18 -496 38 -1023 76 -606
45 -711 53 -717 58 -2 3 8 76 22 165 32 201 32 208 1 216 -28 7 -52 0 -59 -17
-3 -7 -17 -90 -33 -185 l-28 -172 -30 0 c-69 0 -658 49 -664 55 -3 3 31 234
77 513 99 602 136 831 195 1212 214 1356 269 1694 286 1754 59 208 167 341
320 396 49 17 82 19 298 20 133 0 242 -3 242 -6z m2994 -105 c46 -13 116 -75
149 -132 42 -72 67 -173 73 -292 5 -95 -68 -1309 -115 -1918 -14 -178 -62
-261 -161 -274 l-40 -6 5 44 c3 24 21 242 40 484 20 242 55 667 80 945 24 278
46 532 48 565 6 84 -9 187 -33 236 -41 80 -126 86 -191 12 -57 -65 -81 -148
-103 -358 -21 -195 -107 -1224 -156 -1865 -80 -1065 -80 -1059 -130 -1130 -11
-15 -43 -40 -72 -54 -45 -22 -65 -26 -144 -26 -51 0 -95 3 -97 8 -3 4 20 171
49 372 47 324 201 1420 253 1810 173 1281 173 1280 286 1450 77 116 159 157
259 129z m-27 -430 c18 -68 16 -110 -27 -609 -46 -539 -71 -845 -100 -1195
-56 -685 -81 -963 -91 -995 -15 -47 -54 -97 -90 -115 -32 -17 -31 -18 -29 45
3 113 164 2145 195 2480 24 253 42 337 85 408 26 42 42 37 57 -19z m-4258
-3468 c12 -7 10 -24 -9 -100 l-22 -91 -59 0 c-38 0 -59 4 -59 12 0 6 8 51 17
100 l17 88 50 0 c28 0 57 -4 65 -9z m720 -57 c2 -2 -7 -47 -20 -101 l-24 -97
-55 3 c-30 1 -58 6 -62 9 -4 4 0 41 7 82 26 133 17 122 88 114 34 -4 64 -8 66
-10z m691 -61 c0 -9 -8 -56 -17 -105 l-17 -88 -50 0 c-80 0 -81 2 -61 114 l17
96 64 0 c53 0 64 -3 64 -17z m694 -70 c-1 -18 -9 -67 -19 -108 l-17 -76 -61 7
c-34 4 -63 7 -64 8 -1 1 5 37 13 81 25 139 16 126 87 123 l62 -3 -1 -32z m713
-26 c0 -1 -8 -49 -20 -106 l-20 -103 -59 5 c-33 3 -61 7 -63 9 -3 3 19 141 30
187 6 23 8 23 68 16 34 -3 63 -7 64 -8z"/>
<path d="M6098 7892 c-19 -15 -114 -99 -211 -187 -177 -159 -195 -183 -165
-213 25 -25 57 -12 120 46 215 200 291 263 303 250 7 -7 63 -78 124 -158 142
-185 147 -190 165 -190 21 0 46 28 46 51 0 22 -292 404 -320 419 -25 13 -22
14 -62 -18z"/>
<path d="M5080 7685 c-7 -8 -23 -83 -36 -167 -22 -141 -23 -153 -7 -170 22
-24 50 -23 67 5 20 33 58 304 45 328 -12 23 -52 25 -69 4z"/>
<path d="M7052 7583 c-28 -24 -72 -314 -52 -338 15 -18 54 -20 68 -2 11 13 52
256 52 308 0 18 -7 32 -19 39 -25 13 -25 13 -49 -7z"/>
<path d="M5860 7265 c-116 -103 -196 -182 -198 -195 -4 -27 15 -50 42 -50 13
0 87 59 194 155 l174 154 22 -27 c13 -15 71 -91 130 -169 113 -151 133 -165
169 -125 23 25 21 36 -11 74 -16 18 -84 106 -151 196 -105 138 -127 162 -150
162 -19 0 -74 -43 -221 -175z"/>
<path d="M4992 7153 c-5 -10 -20 -84 -32 -165 -20 -121 -21 -149 -11 -162 16
-19 55 -21 69 -3 11 13 52 243 54 300 1 16 -5 33 -13 38 -23 14 -58 10 -67 -8z"/>
<path d="M6975 7056 c-15 -10 -23 -45 -40 -162 -13 -87 -19 -156 -14 -165 19
-38 74 -29 84 14 2 12 11 72 20 132 9 61 18 120 21 132 3 14 -3 30 -16 43 -24
24 -30 24 -55 6z"/>
<path d="M5983 6947 c-20 -12 -247 -215 -553 -496 -109 -100 -146 -140 -148
-160 -2 -22 14 -49 70 -122 41 -52 161 -208 267 -346 167 -221 196 -253 219
-253 21 0 103 68 377 311 193 171 353 317 357 323 21 32 28 22 -326 481 -229
297 -219 287 -263 262z m184 -314 c286 -373 303 -397 290 -410 -46 -45 -603
-533 -609 -533 -4 0 -43 46 -85 101 -43 56 -144 188 -225 293 -81 105 -148
194 -148 197 0 9 605 559 614 559 2 0 75 -93 163 -207z"/>
<path d="M5805 6430 c-74 -66 -139 -130 -145 -141 -13 -24 -11 -28 115 -192
96 -126 120 -143 158 -110 223 197 277 247 277 261 0 10 -25 49 -56 87 -31 39
-81 103 -112 143 -41 54 -60 72 -78 72 -17 0 -67 -38 -159 -120z m225 -87 l64
-86 -89 -83 c-50 -46 -94 -82 -100 -80 -5 1 -39 40 -75 86 l-64 84 89 83 c49
46 94 83 99 83 6 -1 40 -40 76 -87z"/>
<path d="M4912 6637 c-11 -13 -52 -247 -52 -296 0 -16 7 -34 15 -41 17 -14 61
-6 68 13 3 8 15 80 27 160 18 119 20 150 10 162 -15 18 -54 20 -68 2z"/>
<path d="M6891 6526 c-6 -7 -21 -82 -33 -165 -20 -139 -20 -153 -6 -168 19
-18 63 -11 71 10 3 8 15 80 27 160 18 119 20 150 10 162 -16 19 -54 20 -69 1z"/>
<path d="M4830 6115 c-20 -24 -63 -315 -49 -331 14 -17 65 -19 74 -3 12 18 53
302 47 319 -12 32 -51 40 -72 15z"/>
<path d="M6813 6008 c-5 -7 -20 -82 -33 -167 l-23 -155 23 -18 c20 -16 26 -17
43 -5 26 17 31 36 53 197 15 106 15 131 5 144 -16 19 -55 21 -68 4z"/>
<path d="M4742 5583 c-5 -10 -20 -84 -32 -165 -19 -120 -21 -150 -10 -163 15
-19 54 -20 69 -2 14 17 53 259 49 306 -3 32 -6 36 -35 39 -23 2 -34 -2 -41
-15z"/>
<path d="M5438 5569 c-36 -21 -20 -56 100 -210 179 -234 197 -254 218 -257 18
-3 132 91 407 333 40 36 43 45 27 76 -21 39 -57 23 -162 -68 -279 -244 -258
-229 -277 -206 -9 12 -71 94 -139 182 -122 160 -137 172 -174 150z"/>
<path d="M6730 5468 c-17 -42 -49 -301 -39 -320 10 -19 45 -24 67 -9 16 10 54
246 50 306 -3 37 -5 40 -35 43 -26 3 -35 -1 -43 -20z"/>
<path d="M5347 5122 c-10 -10 -17 -25 -17 -34 0 -12 242 -342 315 -430 32 -39
57 -24 280 168 218 188 236 209 203 242 -30 30 -46 19 -355 -248 l-82 -70
-137 182 c-168 225 -172 228 -207 190z"/>
<path d="M4667 5062 c-10 -11 -17 -36 -17 -60 0 -41 1 -42 35 -42 39 0 55 20
55 69 0 20 -7 34 -19 41 -27 14 -35 13 -54 -8z"/>
<path d="M6667 4958 c-19 -15 -52 -205 -43 -244 5 -19 13 -24 36 -24 38 0 45
15 64 133 19 118 19 112 0 131 -19 19 -35 20 -57 4z"/>
<path d="M2692 7608 c-18 -18 -14 -56 7 -68 13 -6 224 -10 616 -10 392 0 603
4 616 10 21 12 25 50 7 68 -17 17 -1229 17 -1246 0z"/>
<path d="M8912 7608 c-7 -7 -12 -21 -12 -33 0 -45 0 -45 475 -45 475 0 475 0
475 45 0 12 -5 26 -12 33 -17 17 -909 17 -926 0z"/>
<path d="M2822 7257 c-6 -7 -12 -64 -14 -127 l-3 -115 -107 -5 c-68 -3 -112
-10 -120 -18 -9 -9 -14 -51 -16 -127 l-4 -115 -26 0 c-96 -1 -185 -10 -198
-21 -12 -10 -14 -36 -12 -142 3 -111 6 -131 21 -141 12 -8 22 -8 35 0 14 9 17
29 20 113 l3 101 108 0 c142 0 141 -1 141 148 l0 112 99 0 c139 0 140 2 143
150 l3 115 100 0 100 0 3 -115 c3 -149 4 -150 148 -150 l104 0 0 -112 c0 -62
5 -120 10 -128 7 -11 37 -16 121 -20 l112 -5 -2 -83 c-2 -90 13 -132 47 -132
36 0 42 20 42 151 0 103 -3 129 -16 140 -10 8 -46 12 -108 12 -51 -1 -99 3
-107 8 -10 6 -14 36 -14 119 0 141 2 140 -147 140 l-109 0 2 115 c1 79 -3 120
-11 130 -17 20 -332 22 -348 2z"/>
<path d="M9326 7248 c-12 -17 -16 -49 -16 -130 l0 -108 -103 0 c-67 0 -109 -4
-120 -12 -14 -11 -17 -34 -19 -130 l-3 -118 -108 -4 c-63 -3 -114 -9 -123 -16
-11 -10 -14 -41 -14 -139 0 -130 6 -151 41 -151 30 0 39 25 44 121 l4 94 111
5 c84 4 113 9 120 20 5 8 10 66 10 128 l0 112 104 0 c144 0 145 1 148 148 l3
113 100 2 100 2 3 -115 c3 -148 4 -150 143 -150 l99 0 0 -108 c0 -152 0 -152
141 -152 l109 0 0 -91 c0 -97 10 -129 40 -129 42 0 50 24 50 149 0 78 -4 123
-12 134 -10 13 -35 17 -123 19 l-110 3 -3 115 c-4 151 -3 150 -139 150 l-103
0 0 108 c0 158 8 152 -195 152 -158 0 -164 -1 -179 -22z"/>
<path d="M2965 6652 c-6 -4 -66 -69 -133 -145 -85 -96 -122 -145 -122 -162 0
-30 252 -315 279 -315 25 0 38 12 170 160 79 87 121 143 121 157 0 15 -45 72
-132 168 -128 141 -153 159 -183 137z m164 -252 l49 -55 -92 -103 -91 -102
-63 67 c-35 38 -76 84 -92 104 l-29 36 91 103 92 103 43 -49 c24 -27 66 -74
92 -104z"/>
<path d="M9348 6520 c-68 -78 -127 -151 -132 -164 -8 -22 4 -39 114 -163 138
-155 147 -163 171 -163 21 0 289 293 289 316 0 8 -24 41 -53 72 -29 31 -86 95
-127 142 -41 47 -79 88 -85 92 -32 24 -56 5 -177 -132z m244 -72 l88 -101 -30
-36 c-16 -20 -57 -65 -90 -101 l-60 -65 -90 95 c-49 52 -89 100 -87 107 2 13
169 203 177 202 3 0 44 -46 92 -101z"/>
<path d="M1739 6521 c-38 -39 -39 -87 -3 -130 21 -25 33 -31 66 -31 100 0 136
129 48 175 -44 23 -78 19 -111 -14z"/>
<path d="M10681 6536 c-86 -48 -52 -176 47 -176 86 0 125 99 63 161 -32 32
-70 37 -110 15z"/>
<path d="M2330 6225 c-15 -19 -14 -243 2 -262 7 -9 42 -13 118 -13 l108 0 4
-121 c5 -152 4 -151 143 -148 l100 2 3 -114 c1 -62 8 -119 14 -126 16 -20 331
-19 347 1 8 9 14 58 15 123 2 59 4 110 5 113 0 3 45 4 99 2 139 -5 141 -2 147
148 l5 115 107 3 c59 1 113 8 120 14 9 7 13 44 13 132 0 125 -6 146 -41 146
-34 0 -49 -39 -49 -127 l0 -83 -103 0 c-137 0 -137 0 -137 -148 l0 -112 -108
0 c-141 0 -140 1 -144 -145 l-3 -110 -100 0 -100 0 -3 110 c-4 145 -3 145
-139 145 l-103 0 0 114 c0 149 3 146 -141 146 l-109 0 0 93 c0 95 -8 117 -41
117 -9 0 -22 -7 -29 -15z"/>
<path d="M8832 6228 c-18 -18 -17 -252 1 -266 7 -6 62 -13 123 -14 l109 -3 3
-121 c3 -118 3 -121 28 -133 14 -6 67 -11 119 -11 l95 0 0 -108 c0 -148 -8
-142 197 -142 137 0 163 2 174 17 10 11 14 47 14 125 l0 108 101 0 c142 0 143
1 146 150 l3 115 105 3 c141 4 140 3 140 148 0 118 -9 144 -49 144 -33 0 -41
-22 -41 -117 l0 -93 -109 0 c-89 0 -111 -3 -122 -17 -10 -11 -15 -52 -17 -130
l-4 -113 -102 0 c-136 0 -136 0 -136 -148 l0 -112 -105 0 -105 0 0 113 c0 148
1 147 -143 147 l-107 0 0 113 c0 61 -5 119 -10 127 -7 11 -37 16 -122 20
l-113 5 -3 95 c-2 60 -7 97 -15 102 -18 11 -41 10 -55 -4z"/>
<path d="M1815 5817 c-14 -22 -13 -37 10 -169 51 -300 98 -486 190 -763 197
-593 489 -1115 886 -1585 137 -162 152 -176 184 -162 44 20 33 54 -52 151
-376 426 -698 973 -890 1511 -103 290 -199 665 -234 915 -6 50 -19 98 -27 108
-21 24 -49 21 -67 -6z"/>
<path d="M10648 5823 c-8 -10 -21 -58 -28 -108 -55 -401 -191 -866 -370 -1271
-186 -420 -466 -858 -769 -1201 -81 -92 -96 -124 -69 -151 7 -7 19 -12 28 -12
35 0 267 271 437 510 181 254 424 703 538 994 136 348 246 755 299 1116 13 83
13 98 0 118 -17 26 -45 29 -66 5z"/>
<path d="M2622 5168 c-7 -7 -12 -21 -12 -33 0 -45 1 -45 471 -45 394 0 449 2
463 16 9 8 16 22 16 29 0 7 -7 21 -16 29 -14 14 -69 16 -463 16 -334 0 -450
-3 -459 -12z"/>
<path d="M8465 5156 c-13 -19 -14 -29 -5 -45 11 -21 13 -21 770 -21 757 0 759
0 770 21 9 16 8 26 -5 45 l-15 24 -750 0 -750 0 -15 -24z"/>
<path d="M8325 3260 c-215 -34 -378 -197 -430 -430 -9 -41 -20 -81 -24 -89 -4
-8 -36 -24 -72 -36 -123 -42 -224 -100 -409 -233 -98 -71 -216 -131 -314 -161
-87 -27 -92 -26 -67 5 37 47 61 129 61 208 0 59 -5 82 -27 127 -53 103 -162
146 -255 100 -69 -33 -104 -117 -58 -141 23 -12 60 2 60 24 0 24 36 46 74 46
47 0 99 -47 114 -104 21 -74 -14 -182 -80 -248 -50 -50 -86 -67 -160 -75 -71
-7 -88 -16 -88 -48 0 -41 22 -48 128 -41 267 19 468 91 674 241 136 100 136
100 268 100 130 0 171 -13 267 -85 57 -44 96 -51 113 -21 15 30 5 45 -68 94
-75 52 -134 80 -206 98 l-49 12 49 20 c33 13 91 22 179 28 72 5 155 16 185 25
118 34 221 109 293 213 62 90 106 271 81 335 -11 29 -150 50 -239 36z m119
-87 l38 -6 -5 -42 c-19 -138 -113 -272 -232 -330 -57 -28 -169 -55 -232 -55
-53 0 -54 9 -17 118 56 169 164 275 314 308 66 15 83 16 134 7z"/>
<path d="M4147 3223 c-2 -10 -8 -25 -12 -35 -5 -13 4 -18 51 -28 90 -19 134
-37 192 -81 83 -63 146 -175 176 -311 l6 -28 -59 0 c-127 0 -228 38 -313 118
-70 65 -109 137 -132 245 -6 24 -11 27 -46 27 -37 0 -40 -2 -40 -27 0 -45 25
-127 56 -184 93 -171 268 -268 484 -269 81 0 149 -13 215 -40 l30 -12 -61 -13
c-71 -15 -126 -42 -204 -97 -66 -47 -78 -70 -50 -98 11 -11 23 -20 28 -20 4 0
38 22 76 50 82 60 171 90 265 90 101 0 156 -21 267 -102 214 -155 400 -222
681 -243 101 -8 123 -1 123 39 0 32 -19 46 -60 46 -103 0 -200 61 -246 156
-64 132 -10 280 100 272 33 -2 44 -9 61 -35 22 -36 38 -45 60 -37 47 19 33 93
-25 134 -82 58 -216 22 -275 -74 -52 -86 -46 -234 15 -330 16 -25 26 -46 21
-46 -5 0 -40 9 -77 21 -90 27 -232 102 -325 171 -151 111 -274 180 -401 222
l-72 25 -22 89 c-48 195 -157 335 -312 398 -72 30 -167 33 -175 7z"/>
<path d="M4984 2996 c-73 -73 -27 -186 76 -186 92 0 139 87 90 168 -38 62
-114 70 -166 18z m100 -68 c8 -14 7 -22 -6 -35 -16 -16 -19 -16 -37 1 -16 15
-18 23 -10 38 12 22 37 20 53 -4z"/>
<path d="M7394 2996 c-28 -28 -34 -42 -34 -76 0 -34 6 -48 34 -76 29 -29 41
-34 81 -34 38 0 52 5 76 29 24 24 29 38 29 76 0 40 -5 52 -34 81 -28 28 -42
34 -76 34 -34 0 -48 -6 -76 -34z m105 -65 c15 -26 -21 -60 -44 -41 -15 13 -20
42 -8 53 13 13 42 7 52 -12z"/>
<path d="M3315 2945 c-46 -45 -27 -133 32 -156 33 -12 88 5 108 34 25 35 19
94 -11 122 -37 34 -96 34 -129 0z"/>
<path d="M9035 2868 c-22 -26 -26 -39 -21 -67 17 -111 181 -104 181 7 0 58
-34 92 -91 92 -35 0 -47 -5 -69 -32z"/>
<path d="M3676 2631 c-11 -12 -15 -27 -12 -39 8 -23 175 -145 366 -266 256
-164 679 -360 955 -444 215 -66 574 -142 669 -142 43 0 63 22 50 57 -9 26 -15
28 -174 54 -388 64 -743 179 -1090 353 -231 117 -387 212 -659 401 -71 51 -81
53 -105 26z"/>
<path d="M8642 2525 c-252 -171 -548 -334 -792 -435 -268 -112 -600 -205 -870
-245 -146 -21 -149 -22 -156 -50 -15 -62 25 -67 238 -31 542 92 1042 296 1573
643 142 93 185 130 185 158 0 22 -25 46 -47 45 -4 -1 -63 -38 -131 -85z"/>
<path d="M6205 2447 c-37 -31 -39 -88 -4 -122 57 -56 149 -20 149 60 0 75 -87
112 -145 62z"/>
<path d="M6195 1815 c-19 -18 -25 -35 -25 -69 0 -37 5 -48 31 -70 78 -66 185
13 145 107 -17 42 -41 57 -91 57 -25 0 -43 -8 -60 -25z"/>
</g>
</svg>
