<svg version="1.0" xmlns="http://www.w3.org/2000/svg"
 width="1254.000000pt" height="1254.000000pt" viewBox="0 0 1254.000000 1254.000000"
 preserveAspectRatio="xMidYMid meet">
<metadata>
Created by potrace 1.16, written by Peter Selinger 2001-2019
</metadata>
<g transform="translate(0.000000,1254.000000) scale(0.100000,-0.100000)"
fill="#000000" stroke="none">
<path d="M6092 10318 c-7 -7 -12 -26 -12 -43 0 -102 -77 -273 -159 -356 -57
-56 -166 -119 -207 -119 -43 0 -72 -54 -41 -77 6 -6 30 -14 52 -18 107 -19
235 -127 295 -248 17 -34 38 -101 47 -147 19 -102 24 -114 50 -118 27 -4 53
23 53 57 0 44 28 142 61 209 59 121 190 231 297 248 49 8 66 25 58 58 -4 18
-16 26 -52 35 -72 18 -142 58 -201 114 -70 66 -136 195 -153 298 -16 100 -25
119 -53 119 -13 0 -28 -5 -35 -12z m157 -440 c25 -29 72 -68 104 -89 l58 -37
-47 -23 c-61 -31 -161 -139 -205 -222 l-36 -68 -32 66 c-38 77 -121 170 -191
215 -28 18 -50 33 -50 35 0 2 23 17 50 35 71 45 150 137 190 219 l34 70 40
-75 c21 -41 60 -98 85 -126z"/>
<path d="M2713 10249 c-57 -17 -73 -49 -73 -153 l0 -91 -47 -19 c-53 -22 -127
-85 -149 -128 -8 -16 -33 -35 -62 -48 -82 -36 -135 -104 -150 -192 -7 -38 -9
-40 -78 -67 -159 -62 -238 -150 -281 -314 -21 -81 -24 -336 -4 -361 16 -19 57
-21 68 -3 4 6 6 64 5 127 -5 187 36 333 111 396 33 28 117 73 158 84 25 7 27
5 44 -49 9 -31 33 -87 52 -124 l34 -69 -10 -86 c-17 -145 -60 -675 -101 -1262
-6 -80 -12 -162 -15 -182 -7 -48 22 -82 57 -69 25 9 28 26 43 244 8 116 10
120 67 98 l23 -9 -9 -171 c-9 -180 -6 -201 35 -201 37 0 46 38 52 198 3 85 8
156 11 159 3 3 24 2 47 -3 l41 -9 2 -180 1 -180 30 -3 c49 -6 55 14 55 182 -1
143 -2 153 -25 191 -14 22 -25 48 -25 58 0 9 -2 17 -5 17 -20 0 -272 53 -278
59 -9 9 69 1028 80 1040 2 3 32 -22 66 -56 75 -73 160 -132 250 -172 l67 -30
-1 -198 c-1 -109 -4 -301 -8 -428 -6 -229 -6 -230 -28 -233 -41 -6 -45 -84 -6
-90 22 -3 22 -4 16 -157 -7 -166 -2 -185 43 -185 12 0 26 6 31 13 12 19 23
315 29 809 l5 447 52 -7 c60 -8 119 -9 197 -2 l55 5 2 -160 c3 -172 20 -806
30 -1075 3 -91 10 -171 15 -177 15 -19 55 -16 66 4 6 10 8 82 5 174 l-6 157
24 4 c21 3 24 8 24 43 0 36 -3 40 -25 40 l-25 0 -6 155 c-4 85 -10 315 -14
510 l-8 355 64 31 c89 44 179 114 236 184 39 49 49 56 54 41 11 -28 47 -318
64 -511 14 -166 45 -692 41 -697 -1 -2 -54 -10 -117 -18 -176 -24 -180 -26
-207 -84 -23 -48 -24 -53 -15 -216 7 -143 11 -170 26 -179 12 -8 22 -8 35 0
15 10 17 32 20 192 l2 180 39 4 c38 3 39 2 45 -32 3 -19 6 -91 6 -160 0 -97 4
-131 16 -148 18 -26 37 -28 60 -5 15 15 16 35 9 189 l-7 171 24 6 c12 4 32 7
44 7 21 0 21 -5 26 -165 5 -169 12 -195 48 -195 43 0 44 10 31 408 -19 619
-52 998 -112 1295 -15 75 -17 102 -8 118 6 12 21 61 33 110 l22 89 71 -34
c115 -55 165 -110 210 -230 11 -27 18 -94 22 -201 l6 -160 26 -3 c43 -5 52 19
57 143 11 292 -101 469 -351 554 -45 16 -50 20 -67 70 -23 70 -45 98 -113 146
-32 22 -70 58 -86 81 -37 52 -94 99 -148 121 l-43 18 0 96 c0 111 -15 141 -78
159 -46 12 -495 12 -539 -1z m522 -89 c6 -5 10 -87 9 -212 -1 -184 -3 -207
-22 -243 -29 -58 -102 -121 -153 -135 -85 -23 -192 13 -269 90 -69 69 -71 79
-73 297 -1 128 2 198 9 204 21 17 477 16 499 -1z m-592 -347 c2 -89 3 -93 42
-149 187 -271 535 -241 639 53 11 32 13 60 7 113 -4 39 -5 72 -3 75 3 2 19 -5
36 -17 94 -65 126 -118 126 -212 0 -100 -41 -195 -136 -313 -21 -26 -23 -33
-11 -33 9 0 23 -10 32 -22 l16 -23 49 53 c65 70 116 176 133 275 12 74 14 77
29 60 31 -34 48 -91 48 -161 0 -141 -63 -275 -190 -403 -98 -99 -186 -149
-310 -175 -290 -61 -627 126 -775 431 -79 162 -81 261 -7 334 l35 36 18 -73
c21 -82 64 -173 114 -242 41 -55 139 -150 156 -150 15 0 49 29 49 42 0 6 -34
47 -76 91 -153 165 -205 345 -127 438 29 34 82 71 96 66 5 -1 9 -44 10 -94z"/>
<path d="M3203 9258 c-88 -42 -185 -48 -281 -19 -87 26 -86 26 -100 -4 -15
-32 0 -47 73 -74 74 -28 148 -35 218 -22 66 12 168 55 191 80 13 14 12 19 -9
44 -13 15 -25 27 -27 26 -2 0 -31 -14 -65 -31z"/>
<path d="M9283 10240 c-45 -27 -60 -56 -67 -130 -9 -98 -25 -141 -62 -177 -43
-40 -135 -76 -178 -68 -19 4 -50 0 -76 -10 -153 -56 -218 -75 -252 -75 -82 0
-192 -88 -247 -199 -42 -82 -66 -189 -96 -422 -26 -212 -40 -290 -80 -457 -35
-146 -33 -161 28 -190 53 -25 281 -86 365 -97 l52 -7 0 -229 c0 -218 1 -229
20 -239 14 -8 26 -8 40 0 19 10 20 23 22 233 l3 222 54 -3 c79 -4 255 14 339
36 39 10 72 18 72 17 0 -1 -13 -41 -30 -89 -48 -143 -113 -442 -139 -643 -5
-37 -19 -128 -30 -202 -17 -101 -19 -137 -10 -147 14 -17 55 -18 65 -3 4 7 17
75 30 151 12 77 25 142 28 145 2 3 19 2 36 -2 32 -7 32 -8 27 -54 -29 -231
-31 -259 -18 -275 17 -20 45 -21 60 -2 7 8 20 76 28 151 15 127 15 139 0 165
-9 15 -17 37 -17 48 0 25 -15 37 -67 52 -37 12 -41 16 -37 39 71 409 145 658
221 750 l20 25 32 -27 c18 -14 49 -32 70 -38 l39 -11 13 -97 c15 -104 18 -561
5 -643 -7 -46 -8 -48 -42 -48 -23 0 -34 -5 -34 -14 0 -26 -20 -28 -29 -3 -8
20 -19 25 -62 31 -61 8 -72 1 -67 -45 2 -26 8 -35 28 -39 28 -7 28 -4 14 -213
-6 -103 1 -127 37 -127 39 0 46 23 54 180 7 149 7 152 28 146 12 -3 31 -6 41
-6 18 0 19 -7 13 -139 -5 -125 -4 -141 12 -155 22 -20 35 -20 55 0 22 22 23
238 1 280 -20 40 -19 60 7 86 31 31 37 83 37 348 1 207 -8 360 -24 440 -5 20
1 31 25 49 41 30 47 24 109 -102 65 -131 107 -305 136 -560 4 -31 13 -63 21
-71 20 -21 17 -39 -10 -65 -32 -30 -42 -70 -21 -85 13 -9 17 -40 22 -154 7
-156 13 -174 58 -154 l25 12 0 229 c0 338 -43 623 -127 830 -18 46 -32 86 -29
88 2 3 13 0 24 -6 45 -24 254 -74 375 -90 l132 -17 -4 -186 c-1 -102 0 -196 4
-207 9 -30 40 -44 65 -31 19 10 20 21 20 215 l0 205 23 0 c78 1 263 22 291 34
19 8 37 23 40 34 4 11 -9 105 -28 208 -19 104 -42 263 -51 354 -40 406 -89
565 -209 686 -80 79 -281 174 -371 174 -110 0 -241 71 -265 144 -6 18 -15 68
-19 110 -17 147 -35 156 -323 156 -193 0 -216 -2 -245 -20z m462 -81 c8 -8 19
-52 25 -99 20 -151 71 -211 229 -272 41 -16 77 -31 79 -33 5 -4 -108 -211
-185 -339 -113 -188 -298 -456 -311 -451 -8 3 -35 5 -60 5 -41 0 -49 4 -63 28
-217 374 -406 715 -425 765 -4 11 -1 17 8 17 7 0 45 15 84 34 116 55 157 118
173 267 4 38 11 72 15 76 23 23 409 25 431 2z m-762 -486 c52 -104 268 -495
361 -652 31 -52 56 -97 56 -100 -1 -4 -9 -16 -20 -29 l-19 -22 -37 25 c-20 14
-45 25 -55 25 -12 0 -19 7 -19 18 0 9 -38 55 -85 102 -79 79 -86 83 -110 72
-14 -6 -25 -20 -25 -30 0 -24 109 -142 214 -231 106 -90 106 -106 2 -96 -166
16 -329 65 -503 151 -61 31 -119 54 -129 52 -26 -5 -41 -34 -28 -55 14 -24
231 -133 329 -165 112 -37 271 -68 349 -68 77 0 82 -9 39 -71 -30 -41 -100
-73 -218 -100 -87 -20 -346 -17 -465 5 -114 20 -318 75 -326 87 -2 4 11 76 31
158 19 83 48 255 65 383 17 128 37 260 45 293 23 94 73 184 123 222 24 18 47
33 51 33 3 0 23 -34 44 -75 43 -87 127 -220 204 -322 39 -52 61 -73 77 -73 24
0 46 17 46 36 0 7 -48 79 -106 160 -101 139 -157 235 -166 278 -2 15 10 22 72
41 41 12 86 27 100 33 47 20 54 15 103 -85z m1413 -18 c96 -63 165 -204 199
-402 8 -48 24 -176 35 -283 11 -107 34 -262 49 -345 16 -82 28 -151 26 -153
-8 -8 -140 -22 -216 -22 -249 0 -504 50 -687 137 -70 33 -73 36 -67 61 4 15 8
28 10 30 1 2 56 -5 121 -14 94 -13 158 -15 304 -10 194 7 230 15 230 55 0 40
-22 44 -145 31 -115 -12 -189 -10 -375 12 -138 16 -138 16 -136 82 1 44 -2 55
-13 51 -14 -5 -51 21 -51 36 0 4 51 84 113 176 137 206 228 355 319 529 l69
133 82 -35 c45 -19 105 -50 133 -69z m-784 -794 c44 -35 62 -147 34 -214 -13
-32 -68 -87 -86 -87 -5 0 -10 26 -12 58 -3 51 -6 57 -26 60 -18 3 -26 -5 -40
-39 l-18 -42 -27 32 c-46 55 -36 164 21 224 22 23 34 27 78 27 36 0 59 -6 76
-19z"/>
<path d="M10082 9157 c-42 -40 -113 -102 -157 -136 -44 -35 -81 -65 -83 -66
-8 -7 30 -65 42 -65 33 0 336 261 336 289 0 14 -37 51 -51 51 -5 0 -45 -33
-87 -73z"/>
<path d="M5373 10015 c-333 -70 -644 -180 -933 -328 -215 -110 -251 -138 -234
-181 13 -34 55 -31 124 8 328 187 731 337 1105 411 144 28 164 40 149 82 -8
25 -15 28 -54 30 -25 1 -95 -9 -157 -22z"/>
<path d="M6770 10020 c-19 -36 1 -68 47 -75 376 -61 671 -157 1039 -340 127
-63 235 -115 241 -115 20 0 45 39 40 62 -9 32 -242 160 -472 258 -230 98 -641
212 -815 227 -63 5 -69 4 -80 -17z"/>
<path d="M6565 9248 c-51 -27 -60 -84 -20 -123 49 -49 125 -16 125 55 0 60
-55 96 -105 68z"/>
<path d="M6435 8774 c-208 -28 -401 -92 -540 -178 -128 -81 -238 -219 -280
-356 -14 -45 -24 -60 -57 -80 -110 -69 -218 -221 -251 -355 -60 -242 11 -542
182 -769 43 -56 49 -69 42 -93 -36 -124 -153 -257 -451 -508 -159 -133 -396
-377 -486 -497 -94 -126 -212 -325 -261 -440 -20 -46 -50 -114 -68 -153 -46
-98 -119 -286 -167 -429 -37 -108 -45 -123 -72 -136 -18 -9 -39 -31 -49 -52
-53 -109 77 -200 159 -111 26 28 33 88 14 122 -7 13 0 47 25 122 41 128 110
307 159 414 l37 81 95 42 c52 23 100 42 107 42 8 0 13 -24 15 -69 3 -61 0 -75
-26 -122 -63 -113 -145 -333 -188 -503 -14 -56 -21 -68 -50 -85 -39 -23 -60
-83 -45 -124 40 -104 191 -78 191 33 0 23 -5 51 -11 62 -9 16 -8 35 1 77 32
143 111 365 176 493 23 45 33 53 97 83 40 18 84 36 99 40 l26 7 7 -80 c6 -72
5 -83 -18 -128 -71 -141 -148 -381 -192 -600 -3 -11 -16 -26 -30 -32 -14 -7
-32 -28 -40 -46 -44 -104 78 -195 156 -117 34 34 39 83 14 136 -15 30 -14 40
15 160 39 164 102 353 143 430 32 59 33 59 115 88 45 17 85 27 88 24 4 -3 9
-46 13 -94 7 -83 6 -91 -19 -143 -62 -124 -133 -370 -160 -552 -10 -67 -16
-82 -46 -112 -29 -29 -34 -41 -34 -80 0 -64 31 -96 94 -96 37 0 48 5 70 31 30
35 36 103 11 135 -20 26 -18 60 10 201 28 146 86 336 125 414 31 60 51 71 154
85 l46 7 0 -98 c0 -87 -4 -107 -36 -194 -60 -158 -114 -414 -114 -535 0 -36
-7 -52 -35 -86 -47 -56 -49 -108 -6 -151 52 -51 128 -33 157 37 16 38 10 76
-17 115 -17 24 -17 35 -8 120 16 148 56 331 96 440 l37 100 51 13 c99 28 102
28 108 3 3 -12 9 -54 13 -93 6 -64 3 -82 -24 -165 -50 -153 -74 -290 -88 -507
-6 -90 -10 -107 -30 -129 -24 -26 -33 -89 -18 -128 8 -19 55 -45 84 -45 86 0
129 112 68 177 -19 21 -20 30 -14 130 15 225 69 496 108 535 21 21 127 53 138
42 4 -5 13 -44 19 -86 9 -62 8 -84 -3 -116 -32 -89 -58 -287 -63 -477 -5 -169
-7 -192 -25 -211 -27 -30 -34 -84 -14 -122 56 -108 215 -34 176 82 -6 18 -20
42 -30 51 -18 16 -20 32 -20 135 0 142 15 304 41 429 10 51 19 95 19 97 0 2
27 17 60 34 57 29 80 31 80 10 0 -5 4 -20 10 -35 9 -22 13 -24 31 -15 28 16
39 2 14 -18 -40 -33 -72 -386 -56 -616 10 -142 9 -161 -5 -177 -9 -10 -18 -35
-21 -57 -11 -83 56 -139 130 -108 43 17 57 41 57 96 0 33 -6 48 -31 72 -30 31
-30 32 -41 186 -8 114 -8 191 1 291 18 212 16 207 77 253 30 22 54 43 54 47
-1 3 -12 19 -25 36 l-24 29 -31 -23 c-18 -12 -33 -21 -34 -19 -12 13 -26 50
-26 67 0 14 -6 21 -19 21 -10 0 -36 18 -57 39 l-38 40 -47 -18 -47 -18 -11 58
c-9 43 -16 59 -28 59 -9 0 -33 18 -53 40 l-37 40 -52 -16 c-29 -8 -55 -13 -58
-10 -3 3 -8 26 -11 52 -4 42 -12 54 -67 108 l-62 61 -49 -7 c-56 -8 -64 -1
-64 54 0 30 -7 44 -35 70 -20 17 -45 47 -57 66 -18 30 -25 33 -52 28 -17 -3
-47 -8 -67 -12 l-36 -6 -5 58 c-3 38 -10 60 -19 63 -19 6 -85 72 -91 91 -4 13
-12 13 -59 3 -30 -7 -64 -15 -76 -19 -21 -6 -23 -3 -23 32 0 56 -9 84 -26 77
-8 -3 -32 12 -55 36 -46 46 -65 49 -128 21 -56 -26 -57 -25 -64 9 -5 25 -13
31 -42 37 -31 6 -57 29 -91 83 -2 1 -26 -5 -54 -14 -28 -9 -53 -15 -55 -13 -2
2 18 44 44 93 43 81 51 90 79 93 l32 3 -6 -43 c-6 -41 -4 -44 24 -54 20 -8 38
-26 52 -54 20 -39 24 -42 52 -36 16 3 50 15 74 25 l44 20 -17 35 c-9 20 -20
36 -25 36 -4 0 -31 -9 -60 -20 -29 -11 -54 -20 -56 -20 -2 0 -2 21 0 48 l3 47
50 -3 c43 -3 54 0 73 21 29 31 62 26 62 -9 0 -14 13 -35 30 -51 42 -37 42 -81
0 -90 -37 -7 -42 -15 -34 -48 4 -17 13 -25 29 -25 27 0 51 -25 60 -62 8 -32
19 -34 95 -16 40 9 49 15 44 27 -4 9 -9 27 -12 40 -4 22 -8 23 -51 18 -25 -3
-53 -8 -62 -12 -13 -5 -17 4 -22 57 -3 34 -4 65 -1 67 5 5 95 -43 139 -73 17
-12 44 -28 60 -36 41 -21 43 -69 3 -88 -40 -19 -36 -82 5 -82 11 0 29 -7 39
-17 17 -15 18 -13 18 55 0 42 4 72 10 72 6 0 49 -29 95 -65 47 -36 90 -65 95
-65 19 0 40 -33 40 -65 0 -37 -25 -69 -46 -61 -8 3 -14 -1 -14 -9 0 -8 6 -15
14 -15 8 0 26 -15 40 -32 l26 -33 0 68 c0 37 3 67 8 67 4 0 39 -31 77 -70 43
-44 78 -70 91 -70 31 0 46 -23 42 -67 -3 -36 -5 -38 -35 -37 -32 2 -33 1 -33
-42 0 -38 3 -44 21 -44 11 0 29 -5 39 -10 16 -9 21 -6 26 15 4 14 4 44 0 65
-3 22 -3 40 0 40 7 0 117 -100 122 -111 1 -4 -21 -9 -50 -13 -28 -4 -55 -9
-59 -12 -4 -2 2 -20 14 -39 18 -28 28 -34 56 -35 25 0 32 3 27 15 -3 8 -1 26
4 40 7 19 17 25 39 25 35 0 54 -26 49 -68 -2 -21 -9 -28 -30 -30 -21 -3 -28
-9 -28 -25 0 -33 11 -43 53 -50 l37 -6 0 55 0 54 42 -30 c37 -27 43 -29 58
-15 26 24 40 18 40 -18 0 -21 8 -41 19 -51 11 -10 25 -31 31 -47 15 -35 0 -59
-36 -59 -13 0 -24 -4 -24 -9 0 -24 14 -41 33 -41 12 0 36 -14 53 -31 24 -24
38 -30 56 -26 32 8 68 44 68 67 0 27 37 26 45 0 7 -23 -10 -50 -31 -50 -9 0
-14 -12 -14 -34 0 -53 10 -54 78 -10 2 1 -4 26 -12 55 -9 29 -16 54 -16 57 0
2 13 1 29 -3 23 -5 31 -1 45 20 9 14 26 29 37 34 16 5 3 14 -63 39 -216 82
-391 210 -733 536 -206 196 -279 259 -413 353 -183 128 -419 232 -567 249 -30
4 -55 10 -55 14 0 11 78 119 141 195 75 91 254 266 399 391 216 185 253 219
324 300 60 68 137 181 149 218 2 6 21 -3 43 -20 113 -90 251 -147 394 -165
214 -26 467 52 695 212 114 81 308 274 406 404 199 266 365 609 410 850 7 39
14 72 15 73 7 10 100 -67 168 -139 99 -105 167 -238 198 -385 17 -85 19 -122
15 -259 -7 -187 -27 -297 -93 -495 -76 -226 -199 -456 -367 -683 -30 -40 -124
-157 -211 -259 -202 -242 -352 -442 -450 -598 -91 -147 -229 -423 -281 -565
-38 -101 -85 -247 -89 -275 -10 -70 -21 -93 -57 -124 -38 -32 -39 -36 -33 -75
5 -30 11 -41 20 -37 10 4 14 -2 14 -19 0 -16 -5 -24 -17 -23 -10 0 -30 -4 -45
-10 -30 -12 -29 -22 6 -90 10 -20 15 -91 19 -292 3 -192 9 -291 22 -359 16
-87 16 -97 1 -122 -28 -47 -17 -115 23 -146 9 -7 35 -13 58 -13 55 0 93 42 93
102 0 34 -6 46 -36 74 -32 30 -37 43 -49 117 -24 150 -36 374 -26 502 32 411
211 918 470 1331 68 106 198 284 208 284 5 0 19 -34 31 -75 53 -166 184 -328
364 -449 48 -33 86 -62 83 -64 -2 -3 -38 -26 -80 -51 -41 -25 -151 -97 -243
-160 -197 -135 -367 -221 -506 -256 -54 -14 -108 -25 -120 -25 -53 0 -87 -60
-51 -90 13 -11 32 -10 103 4 239 47 403 130 782 395 46 33 124 80 172 106 48
25 90 51 94 56 16 26 -8 60 -64 88 -86 44 -199 127 -273 200 -113 112 -179
233 -201 368 l-11 62 124 148 c305 363 454 590 559 850 187 468 205 884 50
1183 -70 134 -194 270 -317 348 -36 23 -46 37 -63 88 -56 167 -174 263 -404
329 -185 53 -505 70 -731 39z m570 -99 c194 -34 317 -86 398 -167 85 -85 104
-168 72 -320 -71 -334 -304 -745 -581 -1024 -346 -349 -738 -461 -1056 -304
-184 92 -338 277 -416 502 -32 92 -36 117 -40 230 -4 110 -1 137 18 200 12 40
33 93 47 118 23 41 110 140 123 140 3 0 6 -44 7 -98 3 -183 78 -345 198 -427
89 -61 158 -80 290 -79 139 0 216 19 361 89 267 129 478 345 679 695 95 166
125 214 156 251 26 32 19 66 -16 75 -48 12 -74 -21 -218 -281 -139 -251 -326
-462 -523 -591 l-82 -54 -38 16 c-244 102 -444 418 -432 682 l3 67 -35 0 c-45
0 -60 -28 -60 -116 0 -138 68 -319 173 -459 57 -76 175 -185 235 -217 17 -10
32 -21 32 -24 0 -17 -150 -43 -240 -42 -105 0 -177 21 -246 72 -134 96 -188
354 -122 571 63 204 203 340 440 425 109 39 258 72 378 85 119 12 388 4 495
-15z m-800 -4077 c25 -12 45 -25 45 -28 0 -4 -17 -12 -37 -19 -21 -7 -44 -15
-50 -17 -9 -4 -13 7 -13 40 0 25 2 46 5 46 2 0 25 -10 50 -22z"/>
<path d="M6439 8165 c-128 -24 -283 -87 -318 -129 -10 -12 -9 -21 4 -45 8 -17
18 -31 21 -31 3 0 43 18 87 40 139 68 214 83 421 85 162 1 180 3 192 20 19 26
18 51 -3 61 -34 14 -324 14 -404 -1z"/>
<path d="M9686 7685 c-22 -23 -20 -42 9 -69 24 -22 25 -28 27 -171 3 -128 5
-149 21 -159 12 -8 22 -8 35 0 15 10 17 32 17 210 l0 199 -46 3 c-33 2 -51 -2
-63 -13z"/>
<path d="M2437 7358 c-30 -22 -98 -308 -132 -548 -64 -468 -17 -1091 119
-1555 25 -85 39 -102 79 -91 38 9 41 37 13 136 -91 314 -138 679 -138 1060 1
311 34 577 107 848 26 99 29 120 17 138 -12 19 -47 25 -65 12z"/>
<path d="M10054 7210 c-29 -11 -36 -35 -23 -83 22 -82 58 -307 74 -467 33
-311 7 -722 -62 -1029 l-17 -73 23 -19 c29 -23 33 -23 60 -1 14 11 26 42 36
92 94 451 96 950 5 1420 -12 58 -25 115 -30 127 -12 29 -40 43 -66 33z"/>
<path d="M7238 6953 c-9 -10 -26 -38 -38 -63 -35 -69 -140 -226 -216 -320 -88
-110 -256 -277 -474 -471 -271 -240 -400 -373 -516 -532 -48 -65 -52 -78 -28
-101 31 -31 51 -18 125 80 92 123 268 301 479 484 285 247 476 451 607 645 57
86 133 228 133 251 0 42 -45 58 -72 27z"/>
<path d="M9366 6109 c-55 -43 -23 -129 49 -129 70 0 100 76 50 125 -30 30 -64
32 -99 4z"/>
<path d="M2887 6028 c-56 -43 -26 -137 44 -138 60 0 93 86 49 130 -23 23 -68
26 -93 8z"/>
<path d="M9520 5364 c-342 -95 -553 -412 -601 -904 l-13 -130 -136 0 c-143 0
-188 -8 -207 -38 -28 -46 -211 -877 -234 -1062 -22 -182 2 -357 64 -462 38
-65 115 -132 183 -159 l59 -24 503 -3 c467 -3 502 -4 501 -20 0 -9 -6 -69 -13
-132 -8 -71 -10 -122 -4 -132 10 -21 51 -24 66 -5 5 6 16 67 23 135 7 71 17
122 23 122 6 0 28 -5 49 -11 l37 -10 1 -87 c1 -48 4 -116 8 -152 l6 -65 35 0
35 0 2 150 1 150 37 3 37 3 -3 -115 c-2 -80 1 -119 10 -130 15 -18 41 -10 41
14 0 10 8 35 17 56 13 31 17 83 21 250 l4 211 28 10 29 11 7 -75 c3 -41 4
-108 0 -149 -6 -66 -5 -75 14 -94 19 -19 24 -20 43 -7 21 14 22 22 24 183 l2
169 30 9 c17 5 34 6 38 2 4 -3 11 -62 15 -129 13 -184 18 -201 50 -205 41 -5
47 18 38 143 -5 61 -9 134 -9 163 l-1 52 39 0 38 0 7 -92 c3 -50 6 -122 6
-159 0 -48 5 -72 16 -83 18 -19 20 -19 46 -5 19 10 20 17 14 297 -7 387 -24
515 -91 719 -33 99 -84 211 -130 283 l-22 35 38 44 c51 57 79 135 82 228 l2
74 115 -3 115 -3 11 -90 c7 -49 38 -272 70 -495 47 -336 57 -430 58 -550 1
-128 -2 -154 -23 -220 -20 -58 -35 -84 -71 -120 -25 -25 -57 -52 -69 -60 -23
-15 -23 -17 -7 -48 20 -39 32 -40 82 -6 74 49 126 126 160 239 15 48 18 92 18
215 0 135 -9 212 -63 590 -34 239 -66 470 -72 513 -10 67 -15 81 -41 102 -28
24 -35 25 -168 25 -113 0 -139 3 -144 15 -3 8 -12 72 -21 142 -31 249 -79 417
-160 555 -85 145 -213 258 -348 306 -91 33 -260 41 -347 16z m413 -148 c111
-71 214 -208 267 -354 42 -114 102 -399 83 -390 -5 1 -33 18 -63 35 l-56 33
-12 107 c-26 235 -96 407 -217 531 -39 39 -67 72 -62 72 4 0 31 -15 60 -34z
m-220 5 c177 -61 289 -224 337 -491 26 -148 26 -197 0 -205 -11 -3 -32 -19
-47 -36 -16 -16 -38 -29 -52 -29 -54 0 -107 -26 -160 -77 l-55 -53 -259 0
-260 0 7 148 c9 184 21 272 52 381 33 117 73 195 134 263 100 112 184 140 303
99z m-458 -172 c-73 -142 -108 -306 -121 -581 l-6 -138 -64 0 -64 0 0 41 c0
65 29 245 55 349 34 130 109 279 180 358 32 35 59 61 61 59 2 -1 -17 -41 -41
-88z m962 -643 c73 -53 100 -86 114 -140 13 -48 6 -173 -11 -208 -15 -28 -61
-78 -72 -78 -5 0 -30 17 -56 38 -26 20 -64 46 -84 56 -34 18 -35 21 -31 65 3
25 11 68 19 95 19 67 18 89 -8 148 -18 42 -19 51 -7 59 32 20 77 9 136 -35z
m-203 -57 c3 -17 6 -43 6 -56 0 -20 -4 -24 -17 -18 -10 4 -46 18 -81 30 -35
13 -65 25 -68 28 -10 10 82 47 117 47 33 0 37 -3 43 -31z m-356 -116 c-50 -98
-69 -196 -71 -363 -2 -114 1 -141 17 -173 27 -54 65 -71 139 -62 47 5 59 4 55
-7 -32 -83 -92 -406 -124 -668 -13 -113 -27 -224 -30 -247 l-5 -43 -472 0
c-513 0 -541 2 -616 55 -111 76 -161 265 -132 501 17 134 198 974 217 1005 6
11 1027 12 1022 2z m215 0 c4 -3 -2 -12 -13 -20 -11 -8 -20 -23 -20 -35 0 -16
4 -19 23 -14 53 17 109 19 118 5 16 -25 9 -46 -30 -95 -50 -64 -66 -97 -80
-165 -8 -38 -9 -70 -2 -98 l9 -42 -46 -21 c-70 -30 -118 -34 -142 -13 -17 15
-20 31 -20 104 0 187 30 322 82 379 16 17 33 22 68 22 26 0 50 -3 53 -7z m203
-242 c191 -110 336 -437 375 -848 6 -67 9 -129 6 -138 -4 -10 -19 -15 -46 -15
-59 0 -194 -28 -273 -56 -38 -14 -72 -24 -74 -22 -2 3 -11 101 -19 219 -21
290 -42 470 -70 616 -16 82 -21 132 -16 150 11 36 53 123 60 123 4 0 29 -13
57 -29z m-162 -401 c26 -224 38 -346 51 -518 27 -358 28 -363 63 -411 35 -48
40 -76 16 -85 -28 -11 -42 -7 -70 19 -25 23 -34 25 -78 21 -34 -4 -69 0 -106
12 -48 15 -55 21 -58 46 -9 71 69 604 120 821 16 72 32 141 35 154 8 33 19 9
27 -59z"/>
<path d="M5250 5273 c-38 -7 -42 -16 -25 -57 15 -35 17 -37 53 -31 80 13 77
11 77 55 l0 40 -40 -1 c-22 -1 -51 -4 -65 -6z"/>
<path d="M5465 5043 c3 -10 9 -30 12 -45 5 -26 9 -28 52 -28 60 0 70 8 68 53
l-2 37 -69 0 c-61 0 -67 -2 -61 -17z"/>
<path d="M2146 4921 c-16 -17 -16 -26 -6 -78 7 -32 12 -97 12 -144 0 -82 -1
-89 -30 -126 -42 -52 -101 -181 -116 -256 -8 -34 -23 -78 -35 -98 -29 -49 -62
-180 -66 -269 -3 -41 -16 -124 -29 -185 -56 -245 -77 -545 -57 -805 16 -204
20 -229 42 -241 21 -11 54 1 61 23 3 7 -1 72 -8 143 -31 317 -13 593 63 942 5
22 8 23 107 17 223 -14 487 36 721 137 l89 39 29 -30 29 -30 -21 -167 c-36
-295 -66 -644 -92 -1085 -13 -219 -11 -238 31 -238 34 0 43 28 52 178 5 81 11
148 12 149 1 1 19 -3 39 -9 l37 -11 2 -170 c3 -149 5 -171 21 -181 12 -8 22
-8 35 0 15 10 17 31 20 169 2 144 4 156 20 150 9 -5 29 -10 43 -12 25 -5 26
-8 33 -95 3 -50 6 -128 6 -173 0 -50 5 -86 12 -93 17 -17 44 -15 64 5 15 15
16 34 9 176 -7 173 -6 177 45 177 25 0 27 -4 37 -77 6 -43 23 -103 37 -133 14
-30 26 -63 26 -72 0 -22 26 -24 34 -3 3 9 -1 82 -9 163 -14 137 -14 148 2 160
9 6 20 12 23 12 4 0 10 -66 14 -147 3 -82 11 -152 17 -160 15 -18 34 -16 55 4
14 15 16 31 11 121 -5 78 -10 109 -23 123 -16 18 -16 22 -1 70 11 34 17 86 17
150 0 88 2 99 20 109 24 13 26 10 39 -79 6 -35 18 -75 28 -90 9 -14 20 -50 24
-79 9 -64 11 -67 38 -52 26 13 26 19 -3 198 l-22 144 20 14 c11 8 26 14 32 14
12 0 26 -50 39 -142 4 -26 16 -57 26 -69 10 -12 19 -28 19 -35 0 -7 5 -25 10
-40 l11 -28 20 21 21 20 -27 154 c-15 85 -31 188 -36 229 -34 289 -125 561
-235 706 -42 54 -46 71 -48 178 -4 152 -88 398 -159 464 -36 34 -43 112 -23
232 25 144 91 130 -604 130 -567 0 -588 -1 -604 -19z m1118 -217 l-1 -145 -41
-42 -42 -41 -82 -1 c-89 0 -130 -15 -173 -61 l-22 -24 -58 20 c-32 11 -173 49
-314 85 -141 35 -265 67 -276 70 -19 6 -20 15 -20 146 l0 139 515 0 515 0 -1
-146z m-1033 -220 c24 -9 166 -46 315 -84 287 -72 414 -116 376 -133 -17 -8
-20 -17 -17 -56 5 -73 -11 -91 -122 -144 -109 -51 -235 -90 -363 -113 -105
-18 -319 -29 -384 -20 l-48 8 5 43 c11 76 37 179 51 198 13 17 17 17 95 -3
107 -28 123 -25 126 22 l2 37 -74 18 c-102 23 -109 30 -93 79 21 65 68 164 78
164 5 0 29 -7 53 -16z m1122 -23 c10 -17 24 -48 32 -70 12 -35 12 -41 -1 -52
-10 -8 -14 -26 -12 -48 3 -31 7 -36 30 -39 22 -3 29 -11 38 -40 5 -20 10 -54
10 -75 l0 -38 -44 26 -43 25 -6 -42 c-5 -40 -4 -43 52 -97 105 -101 195 -259
255 -446 26 -82 66 -277 66 -320 0 -25 -27 -43 -141 -96 l-37 -17 -12 96 c-38
307 -122 566 -241 738 -30 44 -30 46 -16 77 9 17 13 35 10 40 -3 5 -9 43 -13
85 -4 42 -11 87 -15 99 -6 18 -2 25 19 34 34 16 34 48 0 88 l-25 31 26 35 c33
43 46 44 68 6z m-182 -94 c47 -32 79 -91 78 -147 -1 -49 -20 -112 -35 -116 -5
-1 -27 34 -49 79 -37 75 -46 86 -108 127 -68 45 -68 45 -46 63 32 26 117 23
160 -6z m-118 -165 c9 -10 36 -61 61 -113 24 -51 59 -110 78 -130 18 -20 52
-70 76 -111 118 -208 176 -437 203 -808 13 -178 20 -164 -94 -201 -50 -17 -95
-24 -147 -24 -67 0 -77 -3 -96 -24 -25 -29 -47 -20 -42 16 3 24 -4 29 -72 57
-71 30 -75 33 -78 66 -7 66 70 917 87 961 6 18 14 4 43 -72 57 -149 97 -337
98 -452 0 -60 14 -87 44 -87 42 0 49 22 42 118 -15 186 -63 369 -141 539 -30
66 -36 73 -72 82 -78 21 -88 57 -44 157 22 49 30 53 54 26z"/>
<path d="M2586 4231 c-79 -5 -101 -9 -110 -23 -8 -13 -8 -23 0 -35 10 -16 29
-18 160 -18 204 0 232 10 178 60 -29 27 -26 27 -228 16z"/>
<path d="M5987 4680 c-52 -9 -58 -18 -44 -62 12 -39 20 -42 66 -29 19 5 24 13
25 49 1 24 0 44 -3 46 -3 1 -23 -1 -44 -4z"/>
<path d="M4118 3219 c-11 -6 -18 -22 -18 -39 0 -34 19 -50 169 -140 498 -298
1100 -484 1673 -516 138 -7 158 -2 158 42 0 43 -20 50 -154 57 -274 14 -621
82 -906 177 -283 94 -523 206 -774 360 -62 39 -117 70 -122 70 -5 0 -17 -5
-26 -11z"/>
<path d="M7835 3024 c-314 -164 -641 -280 -970 -345 -60 -11 -118 -25 -127
-30 -28 -15 -24 -67 6 -80 49 -23 447 74 691 166 297 113 597 264 603 304 4
26 -24 62 -47 60 -9 -1 -79 -34 -156 -75z"/>
<path d="M6369 2647 c-44 -34 -49 -83 -13 -126 51 -61 144 -26 144 54 0 66
-81 111 -131 72z"/>
</g>
</svg>
