<?xml version="1.0" standalone="no"?>
<!DOCTYPE svg PUBLIC "-//W3C//DTD SVG 20010904//EN"
 "http://www.w3.org/TR/2001/REC-SVG-20010904/DTD/svg10.dtd">
<svg version="1.0" xmlns="http://www.w3.org/2000/svg"
 width="632.000000pt" height="571.000000pt" viewBox="0 0 632.000000 571.000000"
 preserveAspectRatio="xMidYMid meet">
<metadata>
Created by potrace 1.16, written by Peter Selinger 2001-2019
</metadata>
<g transform="translate(0.000000,571.000000) scale(0.100000,-0.100000)"
fill="#000000" stroke="none">
<path d="M710 5373 c-96 -17 -209 -71 -274 -131 -67 -63 -133 -195 -150 -302
-6 -38 -9 -1379 -6 -2828 l1 -922 -36 -98 c-20 -53 -52 -132 -72 -174 -34 -73
-35 -79 -20 -96 12 -14 14 -21 6 -29 -16 -16 -3 -43 19 -43 26 0 45 25 38 48
-4 12 9 54 32 108 21 49 51 124 67 167 19 54 31 75 38 68 15 -15 -15 -173 -48
-251 -14 -36 -32 -77 -38 -92 -9 -23 -8 -31 4 -43 9 -9 23 -13 33 -9 38 14
101 185 115 308 5 43 12 80 15 83 15 16 21 -17 20 -110 -1 -79 -7 -120 -27
-180 -22 -68 -23 -79 -10 -92 18 -19 28 -19 47 0 36 37 72 230 61 332 -4 41
-1 88 10 145 9 45 19 93 21 106 4 22 7 22 149 22 l145 0 -7 -88 c-4 -60 -18
-121 -44 -200 -26 -76 -36 -123 -32 -142 9 -46 -4 -83 -27 -77 -20 5 -40 -25
-21 -31 6 -2 8 -17 4 -34 -7 -35 11 -52 39 -37 12 7 18 21 18 45 0 19 5 45 12
57 7 12 33 83 59 157 53 152 76 181 65 79 -10 -88 -32 -171 -67 -247 -35 -77
-35 -78 -7 -93 19 -10 25 -8 44 15 28 32 84 202 84 255 0 35 -2 39 -22 33 -23
-6 -23 -1 -2 114 4 24 1 36 -17 52 -19 18 -21 28 -16 72 3 28 9 55 12 60 3 6
31 10 62 10 l55 0 -7 -52 c-4 -29 -13 -66 -21 -83 -12 -25 -13 -45 -4 -121 12
-101 4 -181 -29 -276 -19 -54 -19 -57 -2 -72 26 -23 48 -11 65 37 30 82 36
124 37 247 0 69 8 168 17 220 l17 95 144 0 145 0 -4 -60 c-1 -33 -3 -69 -3
-80 0 -27 -83 -269 -113 -328 -25 -48 -24 -67 2 -67 17 0 18 -12 3 -27 -18
-18 -2 -45 23 -41 19 2 23 10 24 43 1 22 12 63 24 90 13 28 40 97 61 155 35
100 59 136 59 90 0 -54 -44 -228 -70 -281 -34 -66 -36 -81 -16 -98 26 -22 52
5 85 83 57 136 81 299 46 312 -8 4 -15 12 -15 19 0 8 -11 27 -25 43 -20 23
-23 36 -19 68 12 88 8 84 74 84 44 0 60 -4 60 -14 0 -40 -22 -121 -35 -129
-18 -9 -20 -48 -4 -64 19 -19 6 -246 -19 -321 -18 -56 -19 -64 -5 -78 9 -8 22
-13 30 -10 8 3 16 6 18 6 2 0 14 30 26 67 18 54 23 97 25 210 2 77 6 154 10
170 4 15 12 57 18 93 l11 65 147 3 146 3 -5 -83 c-5 -88 -50 -244 -105 -366
-35 -79 -35 -92 -3 -92 29 0 30 -3 9 -35 -15 -23 -15 -25 1 -31 26 -10 50 19
36 44 -9 16 -4 34 23 93 59 130 106 282 106 347 0 33 3 74 6 91 6 31 7 31 66
31 l60 0 -7 -48 c-12 -84 -15 -92 -41 -92 -33 0 -45 -30 -38 -94 6 -50 4 -57
-20 -81 -15 -15 -30 -41 -33 -58 -3 -18 -23 -74 -43 -125 -33 -81 -36 -95 -23
-107 20 -21 29 -19 52 11 38 49 83 197 96 317 4 31 10 57 14 57 14 0 20 -124
10 -196 -5 -38 -17 -93 -26 -122 -16 -49 -16 -54 0 -70 25 -24 48 -6 68 54 26
76 33 147 19 190 -17 50 -13 140 6 179 8 16 20 65 26 107 l11 78 149 0 149 0
-6 -87 c-4 -55 -18 -123 -37 -180 -17 -54 -27 -101 -23 -113 9 -27 -13 -90
-31 -90 -7 0 -21 -11 -30 -25 -15 -24 -15 -27 0 -44 9 -10 14 -25 10 -34 -9
-25 26 -35 42 -12 7 10 11 22 8 27 -3 5 9 43 27 86 17 42 45 119 61 170 35
113 54 122 44 20 -8 -89 -28 -169 -63 -249 -23 -54 -25 -62 -11 -76 26 -25 53
0 86 79 32 76 37 95 46 164 5 36 3 42 -12 40 -15 -1 -17 10 -20 84 -2 64 -7
88 -19 97 -13 10 -15 22 -7 75 l9 63 58 3 c57 3 57 3 57 -25 -1 -47 -18 -106
-33 -115 -13 -7 -13 -15 0 -71 20 -83 12 -230 -18 -315 -20 -59 -20 -65 -5
-80 55 -55 109 109 105 318 -2 99 4 159 27 267 4 21 10 22 102 25 l97 3 0 30
c0 30 0 30 -62 33 l-63 3 0 58 c0 64 -16 96 -43 85 -14 -5 -17 -19 -17 -75 l0
-69 -830 0 -830 0 0 64 c0 71 -17 99 -45 76 -10 -9 -15 -32 -15 -76 l0 -64
-70 0 -70 0 0 1598 c0 1018 4 1640 11 1717 18 215 70 413 133 513 l26 42 65 0
c36 0 65 -2 65 -5 0 -2 -10 -24 -21 -49 -24 -49 -20 -76 11 -76 15 0 27 16 49
65 l30 65 814 0 815 0 -19 -51 c-23 -59 -19 -82 12 -77 24 3 30 12 55 81 l17
47 73 0 c41 0 74 -2 74 -5 0 -3 -6 -16 -14 -28 -27 -40 -75 -200 -95 -317 -34
-188 -39 -336 -37 -1164 1 -740 2 -790 19 -800 12 -8 22 -8 35 0 16 10 17 68
23 910 4 771 8 912 22 994 25 148 54 246 94 329 l38 76 312 3 311 2 -42 -63
c-24 -36 -55 -103 -73 -157 -61 -183 -63 -223 -63 -1109 0 -733 1 -802 16
-808 9 -3 24 -2 33 4 14 9 17 91 22 839 5 811 6 831 28 928 49 219 139 366
225 366 75 0 151 -91 201 -240 55 -166 60 -227 60 -705 0 -490 -4 -529 -67
-655 -26 -50 -41 -69 -70 -83 -33 -16 -40 -17 -66 -3 -35 18 -52 43 -80 117
-37 99 -44 224 -40 704 4 463 5 472 45 540 11 19 12 19 32 1 42 -38 45 -67 48
-613 4 -492 5 -523 22 -533 13 -6 24 -5 35 3 16 11 17 55 14 547 l-3 535 -24
52 c-27 61 -56 83 -108 83 -52 0 -76 -19 -104 -82 l-24 -53 -3 -821 c-2 -712
-1 -823 12 -833 11 -9 20 -10 35 -1 20 10 21 19 21 190 0 166 8 215 25 160 9
-28 64 -67 106 -75 24 -4 49 -1 75 10 81 34 128 104 166 247 20 77 22 112 26
498 4 450 -3 568 -43 725 -33 132 -77 219 -144 286 -42 42 -68 58 -103 67 -35
9 -457 12 -1685 11 -901 -1 -1649 -4 -1663 -6z m318 -80 c-88 -172 -131 -350
-148 -620 -5 -84 -10 -820 -10 -1696 l0 -1547 -257 2 -258 3 -3 1695 c-2 1171
1 1721 8 1780 24 184 130 320 290 371 43 14 91 18 218 18 90 1 162 -2 160 -6z
m-546 -3938 c3 -3 0 -33 -6 -67 -9 -53 -14 -63 -36 -68 -14 -4 -41 -5 -59 -2
l-34 5 6 58 c3 32 8 62 12 68 6 11 107 16 117 6z"/>
<path d="M1175 5076 c-9 -13 -18 -46 -22 -75 -5 -42 -3 -52 11 -57 24 -9 35 5
52 70 12 45 12 61 3 72 -16 20 -26 18 -44 -10z"/>
<path d="M2880 5070 c-6 -11 -14 -43 -17 -70 -5 -41 -3 -51 11 -56 29 -11 45
17 48 81 3 49 0 60 -14 63 -9 2 -22 -6 -28 -18z"/>
<path d="M1811 4885 c-169 -168 -194 -197 -185 -212 6 -10 18 -19 27 -21 10
-2 83 63 189 167 l173 170 167 -172 c145 -150 168 -171 185 -161 10 6 19 18
21 27 3 17 -353 397 -372 397 -5 0 -98 -88 -205 -195z"/>
<path d="M1132 4857 c-6 -6 -12 -39 -14 -72 -3 -58 -2 -60 22 -60 23 0 26 5
34 57 4 32 6 65 2 73 -7 18 -30 20 -44 2z"/>
<path d="M2843 4858 c-18 -23 -25 -124 -9 -137 34 -28 64 34 54 115 -3 31 -28
43 -45 22z"/>
<path d="M1110 4645 c-16 -41 -13 -210 4 -224 26 -21 36 12 38 129 3 102 1
115 -14 118 -12 2 -21 -6 -28 -23z"/>
<path d="M1854 4532 c-126 -122 -232 -233 -207 -219 6 4 18 4 27 1 13 -5 13
-10 4 -27 -13 -26 114 88 227 202 44 45 84 81 90 81 6 0 82 -72 170 -160 160
-160 194 -184 203 -137 4 22 -342 387 -367 387 -9 -1 -75 -58 -147 -128z"/>
<path d="M2826 4578 c-22 -30 -22 -151 -1 -168 8 -7 22 -10 30 -6 12 4 15 23
15 85 0 111 -12 135 -44 89z"/>
<path d="M2820 4270 c-6 -11 -10 -55 -8 -98 3 -66 6 -77 22 -80 27 -6 36 15
36 85 0 95 -24 141 -50 93z"/>
<path d="M1106 4254 c-13 -13 -16 -32 -14 -88 3 -68 4 -71 28 -71 24 0 25 2
28 76 2 56 -1 79 -12 88 -11 9 -17 8 -30 -5z"/>
<path d="M1832 4117 c-130 -131 -154 -167 -116 -181 10 -4 56 32 143 114 l128
119 118 -120 c65 -65 121 -119 125 -119 11 0 30 24 30 38 0 23 -253 281 -275
282 -13 0 -69 -49 -153 -133z"/>
<path d="M1094 3987 c-3 -8 -4 -45 -2 -83 3 -66 4 -69 28 -69 24 0 25 4 28 60
4 78 -3 105 -29 105 -11 0 -22 -6 -25 -13z"/>
<path d="M4831 3986 c-8 -9 -11 -66 -9 -182 l3 -169 30 0 30 0 3 169 c2 168
-2 196 -33 196 -7 0 -18 -6 -24 -14z"/>
<path d="M2814 3976 c-3 -7 -4 -42 -2 -77 2 -53 6 -64 22 -67 10 -2 22 2 27
10 10 15 12 92 3 126 -7 24 -41 31 -50 8z"/>
<path d="M1803 3798 l-153 -152 -75 73 c-51 50 -80 71 -91 67 -9 -3 -18 -6
-20 -6 -2 0 -4 -10 -4 -22 0 -14 25 -47 67 -90 l67 -68 -87 -88 c-48 -49 -87
-96 -87 -103 0 -7 39 -53 87 -101 l87 -87 -72 -75 c-40 -40 -72 -78 -72 -83 0
-14 23 -33 40 -33 8 0 47 31 85 70 l69 70 156 -155 c86 -85 163 -155 170 -155
7 0 84 70 170 155 l156 155 69 -70 c55 -55 75 -70 95 -68 47 6 36 36 -41 114
l-74 74 88 88 c48 48 87 94 87 102 0 8 -39 54 -87 103 l-88 89 73 68 c57 53
73 73 70 91 -6 46 -37 34 -114 -42 l-73 -73 -159 152 c-88 84 -166 152 -173
152 -7 0 -81 -68 -166 -152z m402 -162 l230 -224 -232 -233 -232 -233 -233
232 -233 231 230 225 c127 124 232 225 235 225 3 1 109 -100 235 -223z"/>
<path d="M1852 3527 c-56 -56 -102 -109 -102 -117 0 -20 200 -220 220 -220 20
0 220 201 220 220 0 20 -201 220 -220 220 -9 0 -61 -46 -118 -103z m190 -54
l67 -68 -68 -66 -69 -66 -70 68 -71 68 67 65 c37 36 69 66 72 66 3 0 36 -30
72 -67z"/>
<path d="M1102 3738 c-18 -18 -16 -142 3 -158 29 -24 45 5 45 79 0 60 -10 91
-30 91 -3 0 -11 -5 -18 -12z"/>
<path d="M2822 3738 c-19 -19 -16 -157 3 -164 31 -12 45 15 45 85 0 60 -10 91
-30 91 -3 0 -11 -5 -18 -12z"/>
<path d="M5606 3654 c-3 -8 -11 -12 -16 -9 -20 12 -200 -196 -200 -231 0 -28
36 -42 55 -23 71 75 154 186 159 214 4 18 13 36 21 39 8 3 15 10 15 16 0 16
-27 12 -34 -6z"/>
<path d="M1106 3487 c-14 -10 -16 -26 -14 -92 3 -69 6 -80 22 -83 28 -6 36 15
36 94 0 79 -13 103 -44 81z"/>
<path d="M2817 3483 c-4 -3 -7 -41 -7 -83 0 -83 11 -106 42 -89 15 8 18 22 18
79 0 37 -3 75 -6 84 -6 16 -35 22 -47 9z"/>
<path d="M4165 3294 c-204 -132 -420 -236 -644 -308 -135 -43 -409 -106 -464
-106 -15 0 -36 -9 -47 -20 -19 -19 -20 -34 -20 -443 0 -597 15 -747 95 -997
148 -456 504 -840 1014 -1095 60 -30 119 -57 132 -60 17 -4 63 14 164 63 624
307 1009 813 1084 1422 10 76 14 446 12 938 -1 169 -1 173 -23 181 -13 5 -95
23 -183 39 -343 66 -633 180 -927 365 -58 37 -110 67 -115 67 -4 0 -39 -21
-78 -46z m420 -234 c77 -37 192 -87 255 -110 132 -48 377 -113 498 -131 l84
-13 -5 -520 c-4 -429 -7 -536 -21 -606 -107 -554 -454 -988 -1020 -1276 l-129
-66 -51 23 c-28 13 -91 45 -141 72 -441 240 -764 603 -900 1011 -77 231 -87
336 -83 900 l3 458 168 34 c334 67 713 223 961 394 l39 27 101 -64 c56 -36
164 -95 241 -133z"/>
<path d="M4115 3015 c-220 -129 -516 -244 -770 -300 -66 -15 -124 -30 -128
-34 -5 -5 -6 -219 -4 -477 4 -513 5 -520 73 -729 91 -275 306 -559 577 -759
89 -66 240 -158 320 -197 68 -32 70 -32 216 51 484 274 775 658 863 1140 19
102 21 159 24 497 1 211 -1 404 -4 429 -8 54 4 48 -172 89 -252 60 -524 167
-742 293 -60 34 -116 62 -125 61 -10 0 -67 -29 -128 -64z m211 -61 c242 -139
575 -268 817 -315 l69 -13 -4 -410 c-5 -456 -11 -514 -73 -703 -102 -308 -323
-584 -633 -791 -108 -73 -234 -142 -257 -142 -9 0 -58 23 -109 51 -456 258
-729 602 -827 1047 -20 89 -22 134 -26 522 l-5 425 64 12 c106 20 304 80 440
134 124 49 347 158 418 205 19 12 38 23 41 23 3 1 41 -20 85 -45z"/>
<path d="M4059 2587 c-67 -44 -86 -125 -48 -204 23 -47 211 -233 236 -233 9 0
62 46 119 102 115 113 141 158 131 230 -14 105 -133 163 -218 105 l-34 -23
-34 23 c-45 31 -107 31 -152 0z m138 -82 c32 -32 73 -47 73 -26 0 4 12 20 26
35 71 70 173 -21 118 -104 -25 -37 -157 -170 -169 -170 -14 0 -159 148 -174
177 -18 35 -13 72 14 98 34 35 70 32 112 -10z"/>
<path d="M3893 2081 c-54 -39 -83 -78 -83 -111 0 -24 -4 -28 -41 -33 -69 -9
-129 -81 -129 -154 0 -51 11 -65 124 -153 53 -41 96 -77 96 -81 0 -4 -42 -41
-93 -82 -108 -87 -120 -100 -115 -124 7 -36 48 -18 159 71 123 98 118 97 189
37 l31 -26 -87 -65 c-108 -80 -112 -83 -142 -84 -31 -1 -51 -30 -37 -52 6 -8
22 -23 37 -32 26 -15 28 -15 70 22 75 66 207 166 217 166 16 0 90 -54 90 -65
0 -5 -56 -48 -125 -94 -102 -68 -124 -88 -122 -105 6 -45 47 -31 182 63 l130
89 133 -90 c136 -91 178 -106 178 -63 0 14 -35 44 -120 103 -66 46 -121 87
-123 91 -2 5 20 25 48 45 27 20 50 40 50 44 0 5 -9 17 -19 26 -22 20 -39 14
-102 -35 -20 -16 -40 -29 -44 -29 -11 0 -95 54 -95 61 0 3 21 20 46 39 25 18
79 61 119 96 40 35 75 64 79 64 3 0 89 -64 191 -141 l185 -142 -56 -38 c-30
-22 -58 -39 -63 -39 -4 0 -18 11 -31 25 -27 29 -52 32 -70 10 -11 -14 -6 -23
35 -65 27 -28 58 -50 69 -50 10 0 34 11 52 25 25 19 34 34 36 63 3 34 6 37 34
38 43 1 54 10 54 44 0 24 -15 39 -111 111 l-111 82 34 26 c207 161 219 176
200 248 -16 61 -77 123 -121 123 -16 0 -36 3 -45 6 -10 4 -41 -18 -89 -63 -73
-68 -294 -257 -327 -280 -15 -11 -25 -7 -64 25 -25 20 -46 42 -45 47 0 6 90
88 200 183 l199 173 29 -22 c33 -24 61 -20 61 10 0 27 -62 91 -89 91 -12 0
-65 -39 -127 -92 -59 -51 -124 -107 -144 -125 l-36 -31 -145 124 c-79 68 -149
124 -155 124 -6 0 -29 -13 -51 -29z m173 -158 l125 -108 -48 -42 c-26 -24 -52
-43 -56 -43 -5 0 -23 11 -41 25 -40 30 -52 31 -66 5 -9 -16 -6 -27 15 -54 l26
-34 -50 -41 -49 -41 -103 83 c-94 74 -104 86 -107 118 -3 30 2 41 28 63 17 14
37 26 44 26 7 0 33 -17 57 -38 80 -68 76 -66 103 -45 l25 20 -60 59 c-32 32
-59 62 -59 66 0 12 71 88 81 88 5 0 66 -48 135 -107z m678 -64 c20 -16 26 -29
26 -58 0 -46 -4 -51 -118 -140 l-93 -73 -39 27 c-71 49 -71 50 -3 113 107 99
173 152 187 152 7 0 25 -9 40 -21z m-608 -273 l54 -44 -49 -36 c-27 -20 -52
-36 -55 -36 -4 0 -29 17 -57 37 l-50 38 48 42 c26 23 49 42 51 43 2 0 28 -20
58 -44z"/>
<path d="M1102 3208 c-7 -7 -12 -44 -12 -95 0 -70 3 -84 18 -92 32 -17 42 6
42 94 0 73 -9 105 -30 105 -3 0 -11 -5 -18 -12z"/>
<path d="M2817 3213 c-4 -3 -7 -45 -7 -93 0 -93 10 -116 42 -99 15 8 18 22 18
85 0 41 -5 84 -10 95 -11 19 -31 25 -43 12z"/>
<path d="M1101 2916 c-8 -9 -11 -46 -9 -103 3 -86 3 -88 28 -88 25 0 25 2 28
88 3 83 -5 117 -28 117 -4 0 -13 -6 -19 -14z"/>
<path d="M2822 2918 c-8 -8 -12 -45 -12 -100 0 -70 3 -90 15 -94 33 -13 45 15
45 100 0 74 -9 106 -30 106 -3 0 -11 -5 -18 -12z"/>
<path d="M1692 2858 c-7 -7 -12 -19 -12 -27 0 -20 270 -291 290 -291 8 0 78
62 154 139 140 140 152 160 114 185 -15 9 -36 -8 -143 -114 l-125 -125 -123
123 c-67 67 -127 122 -133 122 -5 0 -15 -5 -22 -12z"/>
<path d="M5747 2863 c-4 -3 -7 -17 -7 -29 0 -32 19 -35 189 -32 119 3 146 6
154 19 6 9 7 24 4 33 -6 14 -28 16 -170 16 -90 0 -167 -3 -170 -7z"/>
<path d="M2822 2628 c-19 -19 -16 -177 3 -184 32 -13 45 15 45 95 0 69 -9 101
-30 101 -3 0 -11 -5 -18 -12z"/>
<path d="M1102 2618 c-18 -18 -16 -162 3 -178 12 -10 18 -10 30 0 30 25 17
190 -15 190 -3 0 -11 -5 -18 -12z"/>
<path d="M1597 2513 c-4 -3 -7 -14 -7 -22 0 -17 368 -391 385 -391 6 0 95 85
199 189 138 139 187 194 182 206 -3 9 -6 19 -6 21 0 2 -10 4 -23 4 -16 0 -71
-49 -187 -165 l-165 -165 -165 165 c-155 155 -190 181 -213 158z"/>
<path d="M1102 2338 c-16 -16 -16 -150 0 -166 7 -7 17 -8 30 -1 33 18 23 179
-12 179 -3 0 -11 -5 -18 -12z"/>
<path d="M2821 2336 c-7 -9 -11 -42 -9 -87 3 -63 6 -74 22 -77 27 -6 36 15 36
89 0 78 -21 110 -49 75z"/>
<path d="M1101 2076 c-7 -9 -11 -41 -9 -82 3 -58 6 -69 22 -72 27 -6 36 15 36
84 0 73 -21 104 -49 70z"/>
<path d="M1594 2075 c-3 -8 -4 -19 -2 -24 1 -5 88 -95 191 -200 161 -164 190
-190 206 -181 11 5 97 91 193 190 176 185 200 221 150 228 -18 3 -56 -31 -183
-162 -89 -91 -167 -166 -173 -166 -6 0 -85 74 -175 165 -158 159 -194 185
-207 150z"/>
<path d="M2822 2078 c-19 -19 -16 -147 3 -154 29 -11 45 16 45 73 0 76 -20
109 -48 81z"/>
<path d="M1102 1828 c-19 -19 -16 -157 3 -164 31 -12 45 15 45 85 0 60 -10 91
-30 91 -3 0 -11 -5 -18 -12z"/>
<path d="M2822 1828 c-19 -19 -16 -157 3 -164 31 -12 45 15 45 85 0 60 -10 91
-30 91 -3 0 -11 -5 -18 -12z"/>
</g>
</svg>
