<?xml version="1.0" standalone="no"?>
<!DOCTYPE svg PUBLIC "-//W3C//DTD SVG 20010904//EN"
 "http://www.w3.org/TR/2001/REC-SVG-20010904/DTD/svg10.dtd">
<svg version="1.0" xmlns="http://www.w3.org/2000/svg"
 width="610.000000pt" height="640.000000pt" viewBox="0 0 610.000000 640.000000"
 preserveAspectRatio="xMidYMid meet">
<metadata>
Created by potrace 1.16, written by Peter Selinger 2001-2019
</metadata>
<g transform="translate(0.000000,640.000000) scale(0.100000,-0.100000)"
fill="#000000" stroke="none">
<path d="M2805 5699 c-441 -50 -850 -200 -1216 -445 -259 -173 -527 -440 -708
-704 -471 -688 -591 -1555 -320 -2328 93 -268 138 -324 204 -257 33 32 31 58
-9 153 -250 584 -256 1256 -16 1859 126 317 307 589 555 838 319 321 681 533
1123 659 756 215 1590 42 2222 -461 87 -70 340 -311 340 -325 0 -4 -115 -8
-255 -8 l-256 0 -24 -25 c-32 -31 -32 -59 0 -90 l24 -25 340 0 c360 0 380 2
400 47 7 16 11 139 11 374 0 403 -1 409 -70 409 -68 0 -70 -7 -70 -307 l0
-262 -117 118 c-138 137 -250 232 -385 325 -365 252 -796 411 -1237 455 -117
12 -431 12 -536 0z"/>
<path d="M2860 4393 c-878 -405 -1155 -536 -1166 -551 -19 -24 -20 -1570 -1
-1595 6 -9 131 -71 277 -138 146 -66 364 -166 485 -221 407 -186 597 -268 621
-268 14 0 226 93 472 206 246 113 542 249 657 301 116 53 218 103 228 111 16
14 17 65 17 808 l0 794 -24 16 c-21 13 -509 240 -1184 549 -89 41 -170 75
-180 74 -9 0 -100 -39 -202 -86z m428 -135 c122 -56 222 -105 222 -108 0 -3
-78 -41 -173 -84 -94 -44 -359 -166 -588 -272 l-417 -194 -226 102 c-124 56
-226 105 -226 108 0 3 122 62 272 130 149 69 414 191 587 272 174 80 318 147
321 147 3 1 105 -45 228 -101z m697 -320 c77 -36 168 -78 203 -93 34 -15 62
-31 62 -35 0 -4 -35 -23 -77 -43 -43 -19 -204 -93 -358 -165 -154 -71 -383
-177 -509 -235 l-229 -106 -298 136 c-165 74 -299 138 -299 142 0 3 176 87
392 186 215 99 480 221 587 271 l195 91 96 -42 c52 -24 158 -72 235 -107z
m-1883 -359 l187 -84 1 -276 c0 -345 -12 -323 159 -290 l44 9 78 -74 c81 -77
112 -90 143 -58 14 13 16 50 16 251 0 218 1 235 17 229 10 -4 75 -33 145 -64
l127 -57 1 -702 0 -702 -97 43 c-183 81 -691 312 -1055 480 l-78 35 0 678 c0
373 3 688 6 699 6 21 6 21 62 -5 32 -15 141 -65 244 -112z m2231 -1260 c-9 -9
-102 -52 -745 -348 -240 -111 -442 -201 -447 -201 -8 0 -11 216 -11 694 l0
695 98 46 c53 25 324 150 602 278 l505 233 3 -695 c1 -382 -1 -698 -5 -702z
m-1831 1080 c51 -23 99 -46 106 -52 9 -7 12 -57 12 -188 0 -99 -3 -179 -7
-179 -4 0 -24 16 -44 36 -39 38 -51 41 -121 30 l-48 -7 0 200 c0 111 2 201 5
201 3 0 47 -19 97 -41z"/>
<path d="M5385 4175 c-32 -31 -31 -48 6 -142 150 -373 219 -793 190 -1143 -28
-326 -101 -594 -240 -885 -122 -253 -251 -439 -445 -642 -421 -439 -972 -712
-1567 -774 -162 -17 -503 -7 -652 20 -547 97 -1001 332 -1382 715 l-130 131
268 5 c251 5 270 6 283 24 23 32 17 72 -12 95 -26 20 -38 21 -366 21 l-339 0
-24 -25 -25 -24 0 -368 c0 -412 0 -413 64 -413 65 0 66 6 66 300 l0 263 128
-126 c219 -218 419 -364 667 -487 732 -361 1542 -386 2260 -70 325 144 561
306 810 555 362 362 593 766 714 1250 46 185 62 311 68 540 6 235 -9 409 -53
618 -44 207 -162 546 -201 575 -26 19 -62 14 -88 -13z"/>
</g>
</svg>
