<?xml version="1.0" standalone="no"?>
<!DOCTYPE svg PUBLIC "-//W3C//DTD SVG 20010904//EN"
 "http://www.w3.org/TR/2001/REC-SVG-20010904/DTD/svg10.dtd">
<svg version="1.0" xmlns="http://www.w3.org/2000/svg"
 width="676.000000pt" height="571.000000pt" viewBox="0 0 676.000000 571.000000"
 preserveAspectRatio="xMidYMid meet">
<metadata>
Created by potrace 1.16, written by Peter Selinger 2001-2019
</metadata>
<g transform="translate(0.000000,571.000000) scale(0.100000,-0.100000)"
fill="#000000" stroke="none">
<path d="M5592 5368 c-6 -7 -18 -42 -27 -77 -44 -173 -132 -264 -291 -306 -64
-16 -84 -30 -84 -55 0 -24 18 -36 64 -44 166 -30 261 -124 306 -303 23 -87 42
-111 74 -90 13 9 25 39 37 90 10 43 26 92 35 110 48 93 138 160 259 192 69 18
78 25 73 56 -3 20 -13 26 -69 40 -170 41 -254 127 -300 307 -10 42 -25 79 -32
84 -18 11 -33 10 -45 -4z m58 -248 c36 -71 81 -118 149 -157 28 -15 51 -30 51
-33 0 -3 -18 -13 -39 -23 -65 -30 -128 -93 -162 -163 l-32 -65 -26 53 c-30 64
-111 147 -168 174 -23 10 -43 22 -43 26 0 4 28 22 62 40 65 35 120 94 152 166
10 23 21 42 22 42 2 0 17 -27 34 -60z"/>
<path d="M717 5189 c-86 -20 -178 -86 -236 -169 -49 -70 -76 -140 -91 -237 -7
-46 -10 -629 -8 -1813 l3 -1745 23 -63 c44 -122 114 -201 227 -254 67 -31 75
-33 185 -33 102 1 121 4 170 27 30 14 76 44 102 67 25 22 48 41 51 41 13 0 20
-81 24 -253 4 -177 3 -189 -17 -214 -24 -30 -25 -54 -5 -92 16 -32 33 -41 74
-41 63 0 99 92 56 141 -18 19 -20 36 -19 198 l0 176 104 0 104 0 1 -174 c1
-153 -1 -176 -17 -197 -10 -12 -21 -36 -24 -53 -5 -25 -1 -36 24 -61 38 -38
79 -40 112 -5 29 31 32 85 7 113 -15 16 -17 43 -17 201 l0 182 103 -3 102 -3
3 -173 c2 -163 1 -174 -19 -202 -45 -60 -9 -140 62 -140 65 0 103 90 59 138
-18 20 -20 35 -20 202 l0 180 105 0 105 0 0 -180 c0 -167 -1 -181 -20 -200
-29 -29 -27 -84 5 -115 74 -75 180 35 115 118 -19 24 -20 38 -18 199 l3 173
101 3 102 3 6 -68 c3 -37 4 -118 3 -178 -2 -98 -5 -114 -25 -139 -12 -16 -22
-37 -22 -48 0 -27 26 -74 45 -82 83 -32 159 59 105 126 -17 23 -19 42 -20 194
0 93 -1 175 0 182 0 9 28 12 105 12 l105 0 0 -176 c0 -161 -2 -178 -20 -201
-30 -38 -27 -96 6 -122 81 -64 174 34 114 119 -19 27 -20 42 -18 202 l3 173
103 3 102 3 0 -182 c0 -166 -2 -183 -20 -206 -24 -30 -25 -54 -5 -92 16 -32
33 -41 73 -41 70 1 103 87 54 143 -12 14 -15 50 -16 188 -1 94 1 175 5 180 3
6 48 9 105 7 l99 -3 3 -173 c2 -163 1 -174 -19 -202 -30 -40 -28 -89 6 -117
43 -37 96 -29 120 18 20 38 19 62 -5 92 -18 23 -20 40 -20 206 l0 181 105 0
105 0 0 -180 c0 -167 -2 -182 -20 -202 -28 -31 -26 -83 5 -113 51 -52 137 -15
137 59 0 25 -7 45 -21 60 -20 22 -21 31 -19 197 l3 174 102 3 102 3 7 -27 c12
-48 -5 -337 -21 -354 -29 -32 -29 -74 0 -108 40 -48 103 -44 130 9 20 38 19
62 -5 92 -18 23 -20 40 -20 206 l0 181 105 0 105 0 0 -176 c0 -161 -2 -178
-20 -201 -64 -82 33 -186 114 -122 33 26 36 84 6 122 -19 24 -20 38 -18 199
l3 173 103 3 c56 1 102 -1 102 -5 1 -4 1 -85 2 -180 1 -161 -1 -173 -21 -198
-67 -86 53 -187 123 -104 31 37 33 67 6 102 -18 23 -20 40 -20 206 l0 181 105
0 105 0 0 -180 c0 -167 -2 -182 -20 -202 -28 -31 -26 -83 5 -113 31 -32 75
-32 111 -1 36 30 38 84 6 119 -21 22 -22 32 -22 200 0 117 4 177 10 177 6 0
22 11 35 25 25 24 25 26 25 204 0 150 -3 182 -16 195 -19 19 -38 20 -53 3 -6
-8 -12 -77 -13 -178 l-3 -164 -1735 -2 c-954 -1 -1750 0 -1767 3 l-33 5 0
1877 c0 1247 -4 1899 -11 1942 -13 83 -54 172 -109 233 l-42 47 409 -2 408 -3
5 -1889 c5 -1785 6 -1889 23 -1900 12 -8 22 -8 35 0 16 11 17 114 20 1903 l2
1892 103 -3 102 -3 5 -1983 c5 -2111 3 -2007 50 -1995 10 3 21 15 24 26 3 12
6 905 6 1985 0 1599 2 1962 13 1962 21 0 171 -139 187 -173 12 -25 21 -32 45
-32 45 0 46 36 3 66 -28 20 -148 138 -148 146 0 2 294 2 653 1 l652 -3 5
-1889 c5 -1785 6 -1889 22 -1900 13 -8 23 -8 35 0 17 11 18 115 23 1900 l5
1889 98 3 97 3 0 -1704 c0 -1667 0 -1704 19 -1721 30 -27 61 -6 62 42 1 20 2
789 3 1707 l1 1670 240 0 c222 -1 243 -2 285 -22 110 -51 181 -150 200 -280 6
-41 10 -488 10 -1139 0 -1173 -3 -1112 55 -1086 l25 12 0 1097 c0 1176 0 1175
-50 1274 -52 104 -138 178 -242 211 -57 17 -138 18 -1931 17 -1056 -1 -1888
-5 -1910 -10z m238 -104 c75 -36 139 -110 167 -193 l23 -67 2 -1532 c1 -843
-1 -1533 -6 -1533 -4 0 -16 10 -27 21 -63 70 -183 119 -292 119 -121 0 -224
-40 -304 -118 l-48 -46 0 1527 c0 1515 0 1528 21 1590 72 218 280 323 464 232z
m2 -3295 c61 -27 137 -102 164 -163 23 -49 24 -64 24 -247 0 -192 0 -196 -27
-246 -55 -105 -152 -170 -271 -181 -141 -13 -281 66 -344 195 -28 56 -28 60
-28 242 0 183 0 186 28 238 70 132 196 199 352 186 33 -3 79 -14 102 -24z"/>
<path d="M756 1625 c-46 -16 -89 -56 -111 -100 -22 -47 -21 -234 1 -278 62
-123 207 -151 304 -58 45 43 60 89 60 191 0 131 -35 205 -114 241 -48 22 -87
23 -140 4z m137 -105 c26 -29 27 -35 27 -136 0 -103 -1 -106 -29 -135 -41 -41
-98 -41 -143 0 -32 29 -33 32 -36 124 -4 110 10 150 61 173 44 19 87 10 120
-26z"/>
<path d="M2828 4850 c-73 -77 -135 -145 -137 -151 -2 -6 7 -13 19 -16 13 -3
19 -11 16 -19 -12 -31 17 -9 136 106 l126 120 157 -153 c122 -117 164 -152
184 -152 20 0 27 6 29 24 3 20 -29 56 -175 203 -122 122 -185 178 -200 178
-15 0 -63 -43 -155 -140z"/>
<path d="M2727 4382 c-136 -136 -250 -250 -253 -254 -3 -3 -3 -16 1 -27 4 -14
15 -21 33 -21 22 0 71 44 252 225 l225 224 230 -224 c188 -183 235 -224 255
-222 18 1 26 9 28 27 2 21 -38 66 -246 273 -136 136 -254 247 -262 247 -8 0
-126 -112 -263 -248z"/>
<path d="M6034 4362 c-6 -4 -16 -29 -23 -57 -16 -64 -53 -127 -88 -151 -15
-10 -55 -28 -88 -39 -82 -29 -82 -51 0 -80 34 -11 75 -31 92 -43 35 -24 78
-105 88 -164 4 -20 14 -39 22 -42 17 -7 43 10 43 28 0 7 7 37 16 67 26 86 90
140 197 163 20 5 27 12 27 31 0 20 -7 26 -42 36 -107 28 -166 86 -188 182 -17
70 -30 87 -56 69z m44 -185 c14 -27 40 -55 67 -72 l45 -28 -44 -28 c-26 -17
-53 -47 -67 -74 -13 -25 -26 -45 -29 -45 -3 0 -14 16 -25 36 -18 34 -62 77
-99 99 -15 9 -12 14 28 42 24 17 55 50 68 72 13 23 25 41 28 41 3 0 15 -19 28
-43z"/>
<path d="M5185 4273 c-16 -89 -63 -139 -153 -163 -36 -9 -43 -15 -40 -32 2
-16 17 -26 57 -40 80 -27 108 -58 135 -152 9 -30 17 -41 31 -41 15 0 24 13 38
58 23 72 68 119 130 137 85 23 85 55 -1 79 -66 19 -110 63 -129 132 -14 49
-20 59 -39 59 -17 0 -23 -8 -29 -37z m92 -159 l42 -40 -35 -27 c-18 -15 -41
-41 -50 -58 l-15 -31 -28 44 c-15 23 -40 49 -54 57 -15 8 -27 17 -27 20 1 3
15 15 33 26 17 11 41 35 52 52 18 28 21 30 30 15 6 -9 29 -35 52 -58z"/>
<path d="M2834 4088 c-74 -73 -137 -144 -141 -157 -5 -20 15 -44 138 -167 79
-79 151 -144 159 -144 20 0 300 281 300 301 0 21 -282 299 -304 299 -9 0 -78
-60 -152 -132z m258 -68 l103 -99 -103 -103 -103 -102 -102 102 -102 102 100
100 c55 55 101 100 102 100 1 0 48 -45 105 -100z"/>
<path d="M2620 3650 c-6 -11 -8 -25 -5 -30 3 -5 76 -78 161 -162 l155 -152
-104 -105 c-56 -59 -112 -117 -122 -131 -20 -24 -20 -24 -1 -10 13 10 17 11
12 2 -4 -7 -2 -19 4 -27 10 -12 5 -22 -24 -51 -19 -19 -31 -34 -26 -32 11 4
92 79 216 201 l101 99 160 -156 c88 -86 167 -156 175 -156 19 0 38 20 38 40 0
8 -70 85 -155 170 l-155 155 156 156 c127 127 155 160 152 180 -2 16 -11 25
-26 27 -18 3 -58 -30 -186 -151 l-162 -155 -155 154 c-159 158 -187 176 -209
134z"/>
<path d="M6041 3535 c-37 -17 -126 -97 -541 -490 -367 -348 -753 -711 -1005
-947 -178 -166 -203 -193 -224 -245 -14 -32 -78 -178 -143 -325 -65 -147 -118
-272 -118 -277 0 -6 9 -16 21 -24 16 -12 29 -13 57 -5 41 10 48 12 402 124
l245 77 60 56 c34 31 128 119 210 196 83 76 386 360 675 629 841 783 798 742
810 788 25 90 1 132 -193 335 -118 123 -170 145 -256 108z m138 -108 c18 -18
78 -81 132 -141 130 -143 130 -149 22 -258 -43 -43 -81 -78 -84 -78 -4 0 -82
82 -174 182 l-167 182 73 69 c41 37 83 72 94 77 30 14 66 2 104 -33z m-265
-244 c33 -36 61 -72 61 -78 0 -6 -117 -121 -260 -256 -984 -922 -1179 -1104
-1185 -1104 -10 0 -130 133 -130 143 0 5 111 112 248 239 136 127 459 431 717
676 259 245 474 446 479 446 5 1 36 -29 70 -66z m200 -219 l69 -76 -29 -28
c-16 -15 -99 -92 -184 -171 -85 -79 -287 -267 -449 -419 -162 -151 -330 -307
-373 -347 -44 -40 -145 -134 -226 -210 -81 -75 -159 -148 -175 -162 l-27 -25
-63 69 c-34 38 -62 74 -62 81 0 6 153 155 340 329 638 596 950 889 1025 962
41 40 77 73 80 73 3 0 36 -34 74 -76z m-1612 -1319 c88 -96 141 -163 134 -166
-6 -4 -80 -28 -164 -55 l-153 -48 -54 60 c-30 32 -54 63 -55 67 0 16 134 307
140 305 4 -2 73 -75 152 -163z m-297 -265 c21 -22 25 -31 14 -35 -62 -22 -99
-33 -99 -30 0 11 45 95 50 95 3 0 19 -13 35 -30z"/>
<path d="M2488 3339 c-44 -25 -3 -93 42 -69 26 14 26 56 1 70 -23 12 -22 12
-43 -1z"/>
<path d="M3418 3326 c-14 -32 -5 -54 27 -62 31 -8 55 10 55 40 0 49 -62 65
-82 22z"/>
<path d="M2827 2862 c-84 -85 -137 -145 -137 -157 0 -27 268 -295 295 -295 26
0 305 269 305 293 0 26 -279 296 -305 297 -13 0 -70 -50 -158 -138z m266 -254
c-54 -54 -102 -98 -107 -98 -12 0 -196 181 -196 194 0 6 44 55 97 108 l98 98
102 -102 103 -103 -97 -97z"/>
<path d="M2482 2528 c-7 -7 -12 -17 -12 -23 0 -21 497 -495 518 -495 13 0 110
87 264 236 195 190 243 242 243 263 0 21 -5 27 -27 29 -24 3 -58 -26 -248
-210 -122 -117 -224 -214 -229 -216 -4 -1 -108 94 -232 212 -220 211 -249 232
-277 204z"/>
<path d="M2530 2090 c-12 -7 -12 -13 -2 -32 22 -41 439 -438 460 -438 20 0
443 406 442 426 0 5 -6 19 -14 29 -11 15 -18 17 -35 10 -12 -6 -104 -90 -206
-188 l-185 -179 -48 40 c-26 22 -58 52 -72 67 -14 15 -77 76 -141 136 -117
109 -172 145 -199 129z"/>
<path d="M2623 1614 l-17 -26 185 -184 c102 -101 191 -184 199 -184 8 0 94 80
192 177 184 183 202 210 158 233 -19 10 -35 -2 -147 -107 -69 -65 -143 -138
-165 -162 l-39 -45 -163 162 c-89 89 -168 162 -174 162 -6 0 -19 -12 -29 -26z"/>
</g>
</svg>
