<?xml version="1.0" standalone="no"?>
<!DOCTYPE svg PUBLIC "-//W3C//DTD SVG 20010904//EN"
 "http://www.w3.org/TR/2001/REC-SVG-20010904/DTD/svg10.dtd">
<svg version="1.0" xmlns="http://www.w3.org/2000/svg"
 width="610.000000pt" height="726.000000pt" viewBox="0 0 610.000000 726.000000"
 preserveAspectRatio="xMidYMid meet">
<metadata>
Created by potrace 1.16, written by Peter Selinger 2001-2019
</metadata>
<g transform="translate(0.000000,726.000000) scale(0.100000,-0.100000)"
fill="#000000" stroke="none">
<path d="M2280 7099 c-165 -32 -282 -173 -318 -382 -13 -78 -14 -110 -3 -212
15 -158 36 -245 128 -518 l76 -227 -44 -48 -44 -48 -210 -9 c-198 -9 -213 -11
-265 -37 -45 -23 -119 -94 -420 -403 -389 -401 -421 -441 -438 -547 -5 -34 -5
-696 -1 -1600 12 -2136 9 -2003 38 -2060 37 -75 93 -131 163 -164 l63 -29
1150 -5 c1106 -5 1151 -6 1178 -24 18 -12 45 -55 76 -120 76 -158 130 -193
279 -181 95 8 116 1 197 -70 108 -95 155 -104 275 -50 43 19 92 35 109 35 18
0 63 -13 102 -30 133 -56 173 -51 278 39 36 32 76 63 88 69 12 7 65 12 123 12
154 0 181 18 252 171 40 86 59 102 169 148 122 51 152 95 164 246 4 50 14 104
22 120 9 17 46 62 83 101 99 104 110 164 55 294 -41 97 -41 117 0 236 53 152
40 207 -70 314 -70 67 -85 100 -85 187 -1 142 -36 216 -122 256 -29 13 -74 32
-101 42 -63 23 -94 55 -151 163 -36 67 -59 98 -89 119 -38 27 -47 28 -177 33
-99 4 -142 9 -156 20 -10 8 -42 34 -71 57 -117 98 -183 103 -332 29 -102 -52
-149 -58 -242 -30 -30 10 -81 17 -114 18 -85 0 -128 -26 -216 -129 -40 -48
-85 -93 -100 -101 -16 -8 -73 -23 -126 -34 -161 -34 -204 -77 -242 -251 -12
-53 -32 -111 -45 -129 -12 -18 -58 -61 -102 -95 -128 -99 -148 -155 -110 -312
29 -119 25 -155 -29 -266 -66 -137 -59 -200 36 -323 88 -114 91 -122 99 -259
6 -115 21 -172 50 -190 5 -3 10 -11 10 -16 0 -6 -381 -8 -1047 -7 l-1048 3
-48 24 c-62 30 -113 96 -126 164 -6 33 -11 704 -13 1822 l-3 1770 22 40 c40
74 738 788 798 816 35 16 67 19 277 19 l238 0 4 -22 c3 -13 12 -72 21 -133 9
-60 19 -118 21 -127 3 -11 -4 -22 -23 -31 -45 -24 -101 -84 -129 -139 -87
-171 -16 -382 155 -465 48 -23 69 -27 146 -28 108 0 158 19 233 89 172 161
135 435 -75 554 -9 5 -6 43 10 153 l21 147 195 7 c231 9 315 3 369 -24 58 -29
758 -752 786 -811 21 -44 21 -54 24 -819 2 -700 4 -777 19 -793 21 -24 49 -23
67 3 12 18 13 125 9 797 -6 874 -2 830 -83 930 -21 26 -200 210 -397 409 -433
438 -375 403 -676 403 l-203 0 -51 49 -52 50 70 203 c99 287 129 413 136 573
7 159 -7 249 -52 342 -43 90 -91 143 -162 180 -91 48 -175 61 -273 42z m196
-108 c58 -26 121 -86 148 -140 41 -83 51 -138 50 -276 -2 -165 -20 -248 -120
-550 l-76 -230 -113 0 -114 0 -60 175 c-34 96 -72 215 -86 265 -98 344 -64
620 89 723 61 40 94 50 176 51 43 0 79 -6 106 -18z m-38 -1289 c7 -5 10 -16 6
-25 -5 -14 -20 -17 -79 -17 -64 0 -73 2 -78 20 -3 10 0 21 7 24 19 8 130 6
144 -2z m18 -174 c-3 -18 -11 -72 -17 -120 -7 -47 -15 -91 -18 -96 -3 -6 -31
-12 -61 -13 l-55 -3 -17 104 c-9 58 -17 117 -17 133 l-1 27 96 0 96 0 -6 -32z
m-52 -327 c3 -4 1 -36 -5 -70 -10 -54 -14 -61 -34 -61 -20 0 -24 7 -34 63 -6
35 -11 67 -11 70 0 10 78 8 84 -2z m202 -176 c57 -197 -122 -372 -320 -313
-25 8 -61 32 -93 63 -83 81 -103 187 -53 285 24 48 68 100 84 100 18 0 39
-135 25 -162 -14 -26 -5 -85 17 -109 15 -16 19 -17 43 -4 14 8 43 30 65 50 21
19 46 35 56 35 27 0 37 19 50 100 17 113 15 111 65 59 31 -33 49 -63 61 -104z
m1839 -2045 c15 -6 52 -32 84 -60 89 -78 133 -93 266 -91 136 1 148 -6 202
-113 19 -39 45 -84 56 -100 26 -37 93 -79 177 -111 101 -39 113 -56 121 -173
10 -139 23 -175 94 -252 34 -36 69 -76 78 -90 24 -35 21 -87 -9 -161 -43 -104
-43 -157 0 -281 44 -127 43 -135 -49 -228 -82 -83 -105 -134 -112 -251 -8
-121 -23 -143 -126 -183 -108 -42 -148 -79 -197 -180 -58 -119 -61 -121 -189
-121 -128 -1 -152 -10 -244 -94 -81 -73 -102 -76 -202 -29 -92 42 -159 42
-251 -1 -97 -45 -121 -42 -196 25 -92 83 -121 94 -255 94 -103 0 -114 2 -140
24 -16 13 -39 50 -52 82 -61 151 -79 168 -253 249 -82 38 -95 63 -101 205 -5
136 -19 176 -97 269 -96 116 -99 138 -35 266 58 114 64 162 36 278 -31 132
-29 162 17 206 21 20 62 54 92 77 82 60 110 107 145 247 24 97 35 124 55 139
14 10 75 30 135 43 132 30 162 49 254 159 94 112 107 117 248 81 130 -33 171
-28 300 40 92 48 106 51 148 35z"/>
<path d="M4083 2581 c-68 -43 -89 -121 -53 -195 21 -44 221 -246 243 -246 5 0
59 48 118 107 118 116 146 163 136 229 -17 105 -133 159 -219 100 l-35 -23
-28 20 c-40 30 -121 34 -162 8z m114 -61 c17 -10 37 -28 43 -39 15 -30 43 -26
69 10 30 40 66 53 103 38 34 -14 48 -37 48 -79 0 -26 -16 -48 -95 -128 l-95
-97 -89 90 c-50 50 -93 103 -96 118 -9 35 10 81 38 95 31 15 38 14 74 -8z"/>
<path d="M3683 2314 c-15 -24 -15 -29 -2 -53 11 -20 22 -26 49 -26 27 0 38 6
49 26 13 24 13 29 -2 53 -12 18 -26 26 -47 26 -21 0 -35 -8 -47 -26z"/>
<path d="M4772 2328 c-17 -17 -15 -64 4 -82 48 -49 117 13 84 75 -12 22 -68
27 -88 7z"/>
<path d="M3465 1878 c-3 -8 -4 -95 -3 -193 l3 -180 24 0 24 0 1 142 c1 79 4
143 8 143 5 0 51 -65 105 -145 86 -130 99 -145 125 -145 l28 0 0 196 0 195
-22 -3 c-22 -3 -23 -7 -28 -152 l-5 -148 -100 148 c-84 125 -104 150 -128 152
-16 2 -29 -2 -32 -10z"/>
<path d="M3883 1875 c-32 -23 -46 -80 -28 -121 16 -38 41 -54 88 -54 72 0 116
74 83 138 -9 17 -25 36 -35 42 -29 15 -83 12 -108 -5z m83 -23 c26 -17 36 -53
24 -83 -18 -43 -57 -50 -87 -15 -29 34 -29 51 2 81 25 26 42 30 61 17z"/>
<path d="M4299 1875 c-46 -25 -64 -78 -64 -185 0 -104 14 -146 60 -176 55 -36
140 -10 171 53 25 52 26 204 1 250 -36 67 -106 92 -168 58z m86 -31 c31 -12
48 -65 48 -149 1 -92 -18 -141 -58 -151 -49 -12 -81 22 -91 98 -18 133 30 229
101 202z"/>
<path d="M4616 1847 c-35 -31 -48 -48 -43 -60 9 -23 19 -21 47 8 13 14 27 25
32 25 4 0 8 -72 8 -161 l0 -160 23 3 c22 3 22 4 22 193 0 182 -1 190 -20 193
-12 1 -40 -16 -69 -41z"/>
<path d="M4876 1878 c-3 -7 -7 -53 -10 -102 l-6 -88 27 6 c70 18 84 18 108 2
36 -24 48 -61 34 -103 -19 -57 -81 -72 -125 -28 -28 29 -37 30 -53 11 -17 -20
22 -63 67 -76 111 -29 206 81 157 183 -19 41 -71 70 -118 66 -37 -3 -37 -3
-37 51 l0 40 75 0 c73 0 75 1 75 25 0 25 0 25 -95 25 -68 0 -97 -4 -99 -12z"/>
<path d="M3443 1344 c-3 -9 -2 -24 4 -33 9 -14 87 -16 809 -19 439 -1 809 0
820 3 27 6 38 33 23 51 -10 12 -148 14 -831 14 -749 0 -819 -1 -825 -16z"/>
<path d="M3871 1098 c-16 -35 -47 -103 -70 -152 -39 -83 -45 -116 -23 -116 9
0 152 303 152 321 0 5 -7 9 -15 9 -10 0 -27 -25 -44 -62z"/>
<path d="M4124 1148 c-18 -8 -44 -46 -44 -63 0 -13 41 -3 47 11 3 8 17 20 31
25 36 14 72 -12 72 -52 0 -25 -14 -46 -75 -108 -47 -48 -75 -86 -75 -99 0 -21
4 -22 101 -22 90 0 100 2 97 18 -3 14 -16 18 -71 20 -37 2 -67 6 -67 10 0 3
27 34 60 67 33 33 64 74 69 91 10 37 -8 87 -38 103 -24 14 -79 13 -107 -1z"/>
<path d="M4365 1136 c-41 -41 -55 -126 -34 -211 14 -56 47 -87 92 -87 47 0 71
15 91 56 18 38 22 159 7 199 -26 67 -109 90 -156 43z m96 -25 c20 -16 24 -30
27 -92 4 -86 -8 -125 -43 -141 -22 -10 -29 -9 -47 9 -44 45 -43 189 2 225 28
22 32 22 61 -1z"/>
<path d="M4615 1136 c-27 -27 -45 -83 -45 -141 0 -95 40 -157 103 -157 76 0
110 48 111 157 1 113 -33 165 -109 165 -24 0 -44 -8 -60 -24z m96 -25 c21 -17
24 -29 27 -103 3 -73 1 -86 -18 -110 -25 -33 -50 -36 -74 -9 -42 46 -42 176 0
218 28 28 35 28 65 4z"/>
<path d="M1144 4350 c-30 -12 -65 -60 -62 -84 5 -32 45 -33 59 -2 7 14 20 28
30 31 23 8 32 34 18 51 -13 16 -16 16 -45 4z"/>
<path d="M1290 4345 c-10 -12 -10 -18 0 -30 10 -12 30 -15 84 -13 68 3 71 4
71 28 0 24 -3 25 -71 28 -54 2 -74 -1 -84 -13z"/>
<path d="M1554 4345 c-14 -35 3 -45 79 -45 82 0 112 15 87 45 -9 11 -33 15
-87 15 -56 0 -75 -4 -79 -15z"/>
<path d="M1797 4353 c-14 -14 -6 -42 14 -48 26 -9 52 15 43 38 -6 17 -44 23
-57 10z"/>
<path d="M1950 4345 c-24 -29 5 -45 80 -45 48 0 71 4 80 15 24 29 -5 45 -80
45 -48 0 -71 -4 -80 -15z"/>
<path d="M2220 4345 c-24 -29 5 -45 85 -45 52 0 76 4 85 15 24 29 -5 45 -85
45 -52 0 -76 -4 -85 -15z"/>
<path d="M2500 4345 c-10 -12 -10 -18 0 -30 10 -12 31 -15 94 -13 79 3 81 4
81 28 0 24 -2 25 -81 28 -63 2 -84 -1 -94 -13z"/>
<path d="M2787 4354 c-4 -4 -7 -15 -7 -25 0 -23 30 -31 101 -27 50 3 54 5 54
28 0 24 -3 25 -70 28 -39 1 -74 0 -78 -4z"/>
<path d="M3040 4345 c-24 -29 5 -45 80 -45 71 0 98 14 86 45 -8 21 -148 22
-166 0z"/>
<path d="M3304 4345 c-12 -31 15 -45 86 -45 75 0 104 16 80 45 -18 22 -158 21
-166 0z"/>
<path d="M3572 4348 c-19 -19 -14 -37 12 -49 13 -6 29 -22 35 -35 11 -25 19
-28 45 -18 25 9 19 48 -11 76 -35 32 -65 42 -81 26z"/>
<path d="M3643 4153 c-20 -7 -18 -159 2 -167 8 -3 21 2 30 10 21 21 21 127 -1
148 -8 9 -16 16 -17 15 -1 0 -8 -3 -14 -6z"/>
<path d="M1087 4143 c-4 -3 -7 -39 -7 -80 0 -78 13 -99 45 -73 15 13 21 112 9
144 -6 16 -35 22 -47 9z"/>
<path d="M2209 3934 c-130 -131 -164 -171 -164 -192 0 -59 33 -39 187 115
l149 148 146 -148 c110 -112 151 -147 167 -145 13 2 22 12 24 27 3 20 -26 54
-155 183 -87 88 -165 163 -174 168 -14 8 -49 -23 -180 -156z"/>
<path d="M3637 3893 c-4 -3 -7 -39 -7 -80 0 -78 13 -99 45 -73 19 15 21 130 3
148 -13 13 -31 16 -41 5z"/>
<path d="M1087 3883 c-4 -3 -7 -39 -7 -80 0 -78 13 -99 45 -73 19 15 21 130 3
148 -13 13 -31 16 -41 5z"/>
<path d="M2201 3613 c-135 -138 -162 -171 -159 -192 2 -18 10 -27 24 -29 16
-2 56 33 165 148 l143 150 152 -151 c156 -156 189 -176 189 -117 0 21 -35 62
-163 192 -90 91 -169 166 -177 166 -7 0 -86 -75 -174 -167z"/>
<path d="M3637 3633 c-3 -5 -7 -39 -8 -77 -3 -55 -1 -70 13 -79 12 -8 21 -7
32 2 20 16 22 131 4 149 -14 14 -35 16 -41 5z"/>
<path d="M1087 3623 c-4 -3 -7 -39 -7 -80 0 -78 13 -99 45 -73 15 13 21 112 9
144 -6 16 -35 22 -47 9z"/>
<path d="M2204 3274 l-159 -166 -137 141 c-76 77 -141 141 -146 141 -15 0 -32
-24 -32 -44 0 -11 52 -72 130 -151 72 -72 130 -135 130 -140 0 -4 -27 -36 -60
-71 -33 -34 -60 -67 -60 -73 0 -6 28 -40 61 -76 l62 -66 -24 -27 c-13 -15 -72
-77 -132 -138 -86 -88 -108 -116 -105 -135 7 -53 37 -35 180 108 l139 138 157
-163 c86 -89 164 -162 173 -162 9 0 87 74 172 164 l156 163 138 -138 c75 -77
144 -139 153 -139 18 0 40 19 40 33 0 6 -46 58 -103 116 -56 58 -117 123 -136
143 l-35 38 62 64 c34 35 62 70 62 78 0 8 -23 36 -51 63 -85 83 -89 69 65 224
75 76 136 143 136 149 0 11 -27 42 -37 42 -4 0 -70 -63 -148 -140 l-142 -141
-160 166 c-88 91 -167 165 -176 165 -8 0 -86 -75 -173 -166z m306 -61 c69 -71
163 -167 209 -214 l83 -87 -210 -213 -211 -214 -121 120 c-67 66 -161 163
-210 216 l-89 95 205 212 c113 117 209 212 212 212 4 0 63 -57 132 -127z"/>
<path d="M2267 3031 c-53 -54 -97 -106 -97 -116 0 -17 164 -197 199 -219 10
-6 41 19 113 90 55 55 104 107 109 117 9 16 -6 35 -92 123 -57 57 -110 104
-119 104 -9 0 -60 -44 -113 -99z m181 -54 l62 -63 -65 -64 -65 -64 -65 64 -65
64 62 63 c34 35 65 63 68 63 3 0 34 -28 68 -63z"/>
<path d="M3636 3382 c-4 -7 -9 -107 -7 -138 1 -18 32 -26 47 -13 17 14 19 111
4 140 -11 19 -35 26 -44 11z"/>
<path d="M1091 3366 c-7 -9 -11 -41 -9 -82 3 -58 6 -69 22 -72 27 -6 36 15 36
84 0 73 -21 104 -49 70z"/>
<path d="M3637 3133 c-4 -3 -7 -28 -7 -55 0 -52 17 -71 45 -48 15 13 20 65 9
94 -6 16 -35 22 -47 9z"/>
<path d="M1092 3108 c-19 -19 -16 -147 3 -154 30 -12 45 15 45 80 0 55 -11 86
-30 86 -3 0 -11 -5 -18 -12z"/>
<path d="M1612 2970 c-12 -5 -27 -22 -33 -37 -24 -64 76 -112 110 -52 19 34 8
73 -24 87 -14 7 -27 12 -28 11 -1 0 -12 -4 -25 -9z"/>
<path d="M3085 2956 c-30 -30 -32 -59 -5 -86 36 -36 89 -21 105 31 7 20 -17
69 -34 69 -5 0 -16 3 -25 6 -9 3 -26 -5 -41 -20z"/>
<path d="M1084 2846 c-3 -7 -4 -42 -2 -77 3 -61 4 -64 28 -64 23 0 25 4 28 54
4 74 -4 101 -29 101 -11 0 -22 -6 -25 -14z"/>
<path d="M1084 2597 c-3 -8 -4 -45 -2 -83 3 -66 4 -69 28 -69 25 0 25 1 25 80
0 75 -1 80 -23 83 -12 2 -24 -3 -28 -11z"/>
<path d="M2044 2416 c-3 -8 -4 -22 -2 -30 5 -23 318 -336 337 -336 9 0 90 74
180 164 132 133 162 167 159 187 -7 53 -37 35 -189 -117 l-149 -149 -148 148
c-140 140 -176 165 -188 133z"/>
<path d="M1084 2337 c-3 -8 -4 -43 -2 -78 3 -61 4 -64 28 -64 24 0 25 2 25 75
0 70 -1 75 -23 78 -12 2 -24 -3 -28 -11z"/>
<path d="M1092 2118 c-17 -17 -15 -93 3 -108 27 -23 46 6 43 64 -3 53 -20 70
-46 44z"/>
<path d="M2047 2103 c-23 -22 3 -58 155 -210 90 -90 170 -163 178 -163 9 0 89
74 179 164 131 132 162 169 159 188 -7 53 -39 33 -191 -119 l-147 -148 -147
148 c-136 135 -168 159 -186 140z"/>
<path d="M1084 1907 c-3 -8 -4 -43 -2 -78 3 -61 4 -64 28 -64 24 0 25 2 25 75
0 70 -1 75 -23 78 -12 2 -24 -3 -28 -11z"/>
<path d="M1092 1658 c-18 -18 -16 -132 3 -148 12 -10 18 -10 30 0 22 18 17
153 -5 158 -9 1 -21 -3 -28 -10z"/>
<path d="M1092 1403 c-13 -24 1 -56 34 -82 31 -25 67 -24 72 1 3 17 -68 98
-86 98 -6 0 -15 -8 -20 -17z"/>
<path d="M1299 1344 c-9 -11 -10 -20 -2 -32 8 -13 26 -17 78 -17 52 0 70 4 78
17 20 31 -8 48 -78 48 -45 0 -66 -4 -76 -16z"/>
<path d="M1553 1353 c-17 -6 -16 -38 1 -52 16 -14 42 -5 50 16 11 29 -19 50
-51 36z"/>
<path d="M1690 1341 c-17 -33 12 -51 80 -51 68 0 97 18 80 51 -9 16 -22 19
-80 19 -58 0 -71 -3 -80 -19z"/>
<path d="M1959 1344 c-24 -30 1 -49 67 -50 73 -1 91 3 98 23 12 30 -13 43 -84
43 -49 0 -71 -4 -81 -16z"/>
<path d="M2223 1344 c-13 -33 11 -49 78 -52 75 -3 112 14 93 45 -16 26 -161
32 -171 7z"/>
<path d="M2490 1344 c-11 -13 -10 -19 8 -36 18 -19 25 -20 47 -10 14 6 25 18
25 25 0 35 -57 50 -80 21z"/>
<path d="M2632 1348 c-33 -33 1 -58 80 -58 65 0 99 19 82 47 -9 14 -26 19 -80
21 -45 2 -74 -2 -82 -10z"/>
</g>
</svg>
