<?xml version="1.0" standalone="no"?>
<!DOCTYPE svg PUBLIC "-//W3C//DTD SVG 20010904//EN"
 "http://www.w3.org/TR/2001/REC-SVG-20010904/DTD/svg10.dtd">
<svg version="1.0" xmlns="http://www.w3.org/2000/svg"
 width="901.000000pt" height="640.000000pt" viewBox="0 0 901.000000 640.000000"
 preserveAspectRatio="xMidYMid meet">
<metadata>
Created by potrace 1.16, written by Peter Selinger 2001-2019
</metadata>
<g transform="translate(0.000000,640.000000) scale(0.100000,-0.100000)"
fill="#000000" stroke="none">
<path d="M2448 5471 c-71 -23 -112 -49 -165 -103 -51 -53 -88 -122 -103 -191
-7 -36 -10 -549 -8 -1707 l3 -1655 23 -58 c33 -81 116 -168 200 -209 l66 -33
241 -3 240 -4 17 -85 c31 -158 131 -314 261 -407 324 -231 758 -130 959 224
30 54 64 157 74 223 l6 47 1222 0 1221 0 17 -83 c28 -133 85 -236 187 -337
210 -209 487 -257 748 -129 187 92 340 300 359 488 l7 60 201 3 c181 3 206 5
247 24 57 26 118 85 144 139 19 39 20 67 23 799 2 657 0 767 -13 819 -17 68
-13 61 -360 557 -132 190 -296 426 -365 525 -147 214 -169 240 -235 271 l-50
24 -637 0 -637 0 -3 333 c-3 318 -4 334 -25 372 -27 50 -58 80 -105 100 -33
13 -238 15 -1870 14 -1741 0 -1836 -1 -1890 -18z m3726 -132 l26 -20 0 -1840
0 -1839 -969 0 -968 0 -13 62 c-46 234 -225 437 -450 509 -93 30 -237 36 -334
15 -247 -56 -447 -256 -503 -507 l-18 -81 -225 4 c-217 3 -227 4 -274 28 -53
27 -85 61 -119 124 l-22 41 0 1660 0 1660 21 45 c34 74 103 132 179 151 17 4
843 7 1836 8 l1806 1 27 -21z m1446 -821 c33 -23 71 -74 336 -452 76 -110 221
-317 322 -460 100 -144 193 -281 205 -306 l22 -45 3 -730 c2 -401 0 -745 -3
-763 -3 -18 -19 -48 -36 -67 -41 -47 -97 -57 -289 -53 l-154 3 -13 62 c-48
237 -245 449 -478 514 -82 23 -275 19 -360 -8 -159 -51 -308 -174 -381 -318
-43 -82 -68 -152 -79 -217 l-6 -38 -184 0 -185 0 0 1450 0 1450 624 0 623 0
33 -22z m-3890 -2424 c164 -38 313 -174 371 -339 30 -85 37 -239 14 -324 -39
-150 -146 -286 -275 -349 -158 -78 -312 -79 -465 -3 -332 164 -403 609 -140
875 130 132 312 183 495 140z m3763 1 c335 -87 502 -463 345 -776 -75 -150
-224 -261 -389 -289 -317 -54 -608 203 -609 535 0 304 230 542 525 544 39 1
97 -6 128 -14z"/>
<path d="M6711 4136 c-50 -28 -50 -26 -51 -563 0 -369 3 -509 12 -528 25 -56
9 -55 750 -55 661 0 684 1 715 20 38 23 47 50 41 130 -5 66 19 24 -341 610
-207 338 -224 363 -269 386 -38 20 -821 20 -857 0z m822 -148 c62 -83 517
-833 517 -853 0 -13 -82 -15 -630 -15 l-630 0 0 450 0 450 359 0 360 0 24 -32z"/>
<path d="M920 3843 c-49 -18 -66 -75 -32 -106 17 -15 65 -17 489 -17 443 0
471 1 486 18 18 19 22 59 9 79 -19 30 -70 33 -500 32 -240 0 -444 -3 -452 -6z"/>
<path d="M500 3194 c-8 -8 -13 -28 -13 -44 0 -63 -41 -60 694 -60 734 0 699
-3 699 60 0 63 35 60 -699 60 -592 0 -670 -2 -681 -16z"/>
<path d="M902 2564 c-15 -10 -22 -25 -22 -49 0 -66 -9 -65 500 -65 509 0 500
-1 500 65 0 66 9 65 -500 65 -396 0 -458 -2 -478 -16z"/>
</g>
</svg>
