<?xml version="1.0" standalone="no"?>
<!DOCTYPE svg PUBLIC "-//W3C//DTD SVG 20010904//EN"
 "http://www.w3.org/TR/2001/REC-SVG-20010904/DTD/svg10.dtd">
<svg version="1.0" xmlns="http://www.w3.org/2000/svg"
 width="781.000000pt" height="600.000000pt" viewBox="0 0 781.000000 600.000000"
 preserveAspectRatio="xMidYMid meet">
<metadata>
Created by potrace 1.16, written by Peter Selinger 2001-2019
</metadata>
<g transform="translate(0.000000,600.000000) scale(0.100000,-0.100000)"
fill="#000000" stroke="none">
<path d="M3915 5808 c-16 -6 -291 -192 -610 -413 -319 -221 -832 -576 -1140
-789 -308 -213 -568 -396 -577 -408 -10 -11 -18 -29 -18 -39 0 -27 36 -59 66
-59 17 0 147 85 397 258 205 142 491 341 637 442 262 182 580 403 1025 713
233 163 280 189 325 180 14 -2 189 -122 390 -265 318 -226 601 -427 1310 -928
573 -405 670 -470 700 -470 37 0 64 36 54 74 -7 28 0 23 -336 256 l-208 144 0
427 c0 416 0 427 -21 453 l-20 26 -254 0 -254 0 -20 -26 c-20 -25 -21 -39 -21
-240 0 -118 -3 -214 -6 -214 -4 0 -50 31 -103 69 -167 119 -719 512 -919 655
-107 76 -209 144 -228 152 -39 16 -125 17 -169 2z m1895 -864 l0 -356 -62 44
c-35 25 -116 82 -180 127 l-118 83 0 222 c0 123 3 226 7 229 3 4 84 7 180 7
l173 0 0 -356z"/>
<path d="M2584 4078 c-38 -30 -358 -292 -409 -335 l-40 -34 -5 -1182 -5 -1182
-52 -5 c-60 -6 -98 -31 -124 -80 -17 -31 -19 -59 -19 -240 0 -230 6 -255 69
-297 33 -22 41 -23 288 -23 l253 0 12 -28 c66 -161 147 -262 257 -321 150 -80
331 -82 487 -6 110 54 225 186 261 301 l17 54 1006 0 1006 0 19 -57 c71 -207
273 -353 490 -353 224 0 399 117 491 327 l33 78 259 5 259 5 49 30 c37 23 56
44 77 85 28 54 28 57 25 216 l-3 161 -37 59 -37 60 -5 340 c-5 372 -11 413
-67 513 -17 29 -116 189 -221 355 -105 165 -215 339 -244 386 -85 139 -178
214 -313 254 -46 14 -117 16 -473 16 -282 0 -426 -4 -440 -11 -11 -6 -22 -9
-24 -7 -2 3 -5 204 -6 448 -3 412 -4 445 -21 467 l-18 23 -1383 0 -1383 0 -29
-22z m889 -218 l-86 -130 -531 0 c-316 0 -526 4 -520 9 5 5 76 64 157 130
l149 121 459 0 459 0 -87 -130z m522 88 c-14 -24 -49 -82 -78 -130 l-52 -88
-178 0 -177 0 26 43 c15 23 54 81 86 130 l59 87 170 0 170 0 -26 -42z m1124
-88 l-122 -130 -508 0 -507 0 76 129 77 130 553 0 554 1 -123 -130z m186
-2508 c-3 -9 -34 -12 -122 -10 -65 2 -117 6 -115 11 1 4 2 523 2 1155 l1 1147
117 128 117 127 3 -1272 c1 -700 0 -1279 -3 -1286z m-1945 2008 l0 -260 25
-16 c31 -20 35 -18 162 63 l103 65 83 -52 c148 -96 150 -97 181 -77 l26 17 0
260 0 260 510 0 510 0 0 -1140 0 -1140 -1365 1 -1365 0 0 1140 0 1139 565 0
565 0 0 -260z m480 60 c0 -110 -2 -200 -5 -200 -2 0 -40 23 -83 50 -43 28 -89
50 -102 50 -13 0 -58 -22 -101 -50 -43 -27 -80 -50 -83 -50 -4 0 -6 90 -6 200
l0 200 190 0 190 0 0 -200z m2562 -383 c34 -17 76 -49 105 -81 42 -46 418
-632 525 -816 64 -111 68 -143 68 -512 l0 -328 -163 0 c-131 0 -167 -3 -185
-16 -26 -18 -28 -50 -5 -76 14 -16 35 -18 203 -18 247 0 235 8 235 -167 0
-140 -7 -164 -62 -200 -24 -16 -58 -18 -259 -21 l-232 -3 -7 58 c-31 286 -251
493 -525 493 -268 0 -495 -211 -519 -480 l-6 -65 -77 0 -78 0 -1 320 c0 176 0
672 0 1102 l1 781 26 32 26 31 437 -3 436 -3 57 -28z m-3207 -1814 c105 -36
196 -121 248 -231 30 -62 32 -75 32 -172 0 -100 -2 -109 -36 -180 -61 -129
-174 -216 -311 -241 -180 -33 -371 67 -451 238 -29 63 -31 76 -32 178 0 103 2
114 32 178 95 200 318 300 518 230z m3052 -5 c206 -76 319 -311 254 -526 -61
-200 -268 -330 -467 -293 -347 64 -473 490 -217 732 116 110 279 143 430 87z
m-3527 14 c0 -5 -14 -21 -31 -38 -81 -75 -144 -214 -152 -334 l-4 -55 -230 -3
c-177 -2 -233 1 -247 11 -20 15 -23 54 -18 269 1 99 5 130 18 142 13 14 58 16
340 16 178 0 324 -4 324 -8z m2588 -209 l-3 -218 -860 0 -860 0 -6 70 c-11
122 -64 238 -143 314 -20 19 -36 39 -36 43 0 4 430 8 955 8 l955 0 -2 -217z"/>
<path d="M3060 2866 c-199 -55 -322 -243 -289 -444 19 -121 37 -145 389 -498
214 -215 339 -333 365 -345 53 -24 128 -24 179 1 27 12 157 136 367 347 389
391 384 384 384 558 0 101 -2 115 -28 168 -80 161 -265 255 -435 218 -95 -20
-142 -50 -265 -170 l-118 -115 -112 113 c-62 62 -129 122 -149 132 -89 45
-201 59 -288 35z m224 -105 c32 -14 83 -56 159 -131 l112 -109 -51 -51 -51
-51 -175 178 c-97 97 -174 182 -171 187 9 14 124 -1 177 -23z m833 21 c8 -5
-132 -152 -409 -430 l-422 -422 -48 47 -47 47 182 185 c561 573 529 544 617
567 52 15 110 17 127 6z m-920 -234 l192 -193 -51 -53 -51 -54 -194 194 c-106
106 -193 198 -193 204 0 12 85 94 97 94 5 0 95 -87 200 -192z m1091 146 l44
-47 -438 -438 c-242 -242 -444 -439 -451 -439 -6 0 -30 21 -52 47 l-40 48 437
437 c240 241 441 438 446 438 5 0 29 -21 54 -46z m-1239 -329 l175 -174 -35
-42 c-62 -74 -57 -75 -168 35 -106 106 -146 166 -160 242 -9 47 -4 114 8 114
3 -1 84 -79 180 -175z m1319 102 c-7 -100 -36 -150 -164 -278 l-104 -104 -50
51 -51 50 180 177 c98 97 182 177 186 177 4 0 6 -33 3 -73z m-381 -494 l-47
-47 -50 49 -50 49 47 48 48 48 50 -50 50 -50 -48 -47z m-162 -163 l-50 -50
-50 50 -50 50 50 50 50 50 50 -50 50 -50 -50 -50z m-162 -68 c47 -47 47 -49
28 -66 -30 -27 -97 -33 -137 -11 -19 10 -34 23 -34 29 0 11 80 96 90 96 3 0
27 -22 53 -48z"/>
<path d="M5732 2810 c-61 -37 -63 -53 -60 -430 3 -324 4 -340 24 -367 47 -64
40 -63 564 -63 457 0 476 1 508 20 33 21 52 54 52 94 0 19 -352 596 -430 705
-40 57 -62 61 -357 61 -251 0 -270 -1 -301 -20z m567 -97 c17 -15 411 -635
411 -648 0 -3 -204 -5 -453 -5 -339 0 -456 3 -465 12 -9 9 -12 94 -12 323 0
229 3 314 12 323 9 9 78 12 249 12 211 0 239 -2 258 -17z"/>
<path d="M2961 998 c-78 -38 -124 -141 -102 -225 48 -179 278 -216 374 -62 64
104 20 249 -90 295 -49 21 -131 17 -182 -8z m170 -106 c87 -77 -10 -217 -115
-167 -40 19 -71 74 -62 110 3 13 18 37 32 54 36 43 99 44 145 3z"/>
<path d="M6047 1015 c-88 -22 -147 -101 -147 -196 0 -136 123 -233 251 -199
109 29 178 143 150 247 -32 117 -137 178 -254 148z m87 -95 c21 0 64 -49 71
-80 15 -67 -59 -140 -125 -125 -66 15 -103 108 -64 164 19 26 72 53 92 46 8
-3 19 -5 26 -5z"/>
<path d="M937 3172 c-22 -25 -21 -48 3 -72 19 -19 33 -20 473 -20 393 0 455 2
475 16 28 20 30 69 3 84 -13 6 -181 10 -479 10 -432 0 -460 -1 -475 -18z"/>
<path d="M470 2670 c-11 -11 -20 -27 -20 -35 0 -8 9 -24 20 -35 20 -20 33 -20
608 -20 558 0 590 1 605 18 22 24 21 55 -1 75 -17 15 -73 17 -605 17 -574 0
-587 0 -607 -20z"/>
<path d="M1100 2180 c-24 -24 -25 -38 -4 -68 l15 -22 384 0 c417 0 415 0 415
55 0 55 1 55 -411 55 -366 0 -380 -1 -399 -20z"/>
<path d="M786 1684 c-24 -23 -20 -61 8 -79 20 -14 81 -15 482 -12 253 2 467 7
476 11 26 12 32 44 14 71 l-16 25 -475 0 c-417 0 -475 -2 -489 -16z"/>
</g>
</svg>
