<?xml version="1.0" standalone="no"?>
<!DOCTYPE svg PUBLIC "-//W3C//DTD SVG 20010904//EN"
 "http://www.w3.org/TR/2001/REC-SVG-20010904/DTD/svg10.dtd">
<svg version="1.0" xmlns="http://www.w3.org/2000/svg"
 width="709.000000pt" height="724.000000pt" viewBox="0 0 709.000000 724.000000"
 preserveAspectRatio="xMidYMid meet">
<metadata>
Created by potrace 1.16, written by Peter Selinger 2001-2019
</metadata>
<g transform="translate(0.000000,724.000000) scale(0.100000,-0.100000)"
fill="#000000" stroke="none">
<path d="M2575 6490 c-252 -26 -484 -137 -667 -321 -215 -216 -328 -490 -328
-798 0 -332 117 -622 369 -914 164 -189 553 -543 958 -868 351 -282 439 -361
575 -517 53 -61 77 -58 147 21 30 34 89 95 131 135 76 75 104 98 455 383 450
366 868 756 999 932 134 181 225 373 267 567 30 138 33 362 6 490 -49 227
-150 416 -306 571 -358 356 -877 426 -1305 175 -80 -47 -252 -207 -293 -272
-15 -24 -31 -44 -35 -44 -4 0 -22 21 -39 47 -72 104 -212 227 -341 297 -171
95 -388 137 -593 116z m284 -150 c157 -32 259 -80 390 -183 109 -86 231 -255
231 -319 0 -40 27 -68 65 -68 38 0 65 28 65 68 0 64 119 226 234 318 94 76
227 144 341 175 64 18 109 22 225 23 175 1 261 -19 415 -94 440 -215 648 -705
509 -1199 -33 -117 -129 -307 -211 -416 -167 -222 -542 -569 -1098 -1016 -126
-101 -286 -239 -356 -307 l-127 -123 -38 46 c-57 70 -213 207 -489 429 -421
338 -775 657 -946 850 -242 272 -359 549 -359 846 0 497 365 916 855 983 80
11 204 5 294 -13z"/>
<path d="M705 5197 c-111 -37 -208 -124 -243 -220 -25 -67 -29 -155 -43 -997
-12 -736 -5 -1036 30 -1191 62 -274 170 -475 471 -872 601 -792 640 -875 640
-1359 0 -155 2 -170 20 -188 26 -26 64 -26 90 0 18 18 20 33 20 183 -1 522
-49 628 -628 1395 -213 283 -295 404 -369 550 -102 201 -138 357 -149 652 -7
195 13 1569 25 1696 7 68 14 89 40 127 43 63 105 98 184 104 111 9 200 -47
251 -156 21 -45 21 -60 24 -669 3 -599 2 -624 -16 -650 -68 -96 -91 -200 -68
-310 27 -128 62 -179 427 -612 427 -507 412 -490 438 -490 27 0 71 42 71 69 0
18 -149 200 -589 721 -191 227 -226 286 -226 390 0 165 127 265 335 263 138
-1 185 -24 300 -146 125 -133 410 -419 696 -697 141 -138 256 -259 296 -314
78 -104 156 -251 192 -359 54 -165 56 -191 56 -979 0 -534 3 -734 12 -753 14
-32 53 -43 87 -24 l26 15 3 729 c2 480 -1 758 -8 813 -40 304 -180 575 -432
832 -51 52 -227 225 -390 383 -163 158 -343 340 -400 404 -145 163 -234 213
-404 229 -70 6 -214 -14 -256 -37 -17 -9 -18 13 -18 533 0 326 -4 569 -11 608
-21 136 -103 251 -217 307 -45 22 -72 28 -141 30 -52 2 -102 -2 -126 -10z"/>
<path d="M6167 5196 c-57 -16 -146 -75 -180 -119 -40 -53 -75 -130 -86 -192
-7 -38 -11 -255 -11 -611 l0 -552 -60 19 c-146 45 -285 34 -420 -33 -77 -40
-94 -53 -201 -173 -64 -71 -213 -224 -330 -340 -601 -590 -639 -633 -748 -844
-59 -117 -94 -213 -127 -351 -16 -67 -18 -153 -21 -842 -4 -763 -4 -767 16
-787 27 -27 65 -27 91 -1 20 20 20 33 20 753 0 781 2 814 51 967 31 96 102
242 166 339 46 70 138 167 488 516 238 237 461 464 495 505 121 145 194 183
350 183 149 0 245 -47 295 -146 32 -65 34 -152 4 -231 -23 -62 -50 -98 -264
-352 -455 -541 -525 -627 -525 -643 0 -29 39 -71 65 -71 12 0 32 8 43 18 37
32 707 837 749 900 102 151 111 335 24 471 l-32 49 3 628 3 629 27 50 c32 62
70 98 128 124 119 54 268 -4 322 -125 16 -38 19 -98 29 -720 13 -772 8 -1213
-15 -1350 -9 -50 -29 -132 -46 -183 -74 -228 -164 -373 -548 -885 -347 -462
-440 -622 -493 -852 -16 -70 -22 -137 -26 -320 -6 -227 -5 -232 16 -253 24
-24 59 -27 87 -7 17 13 19 32 25 243 12 434 48 512 524 1148 407 543 512 731
576 1030 36 168 43 455 30 1315 -7 436 -17 805 -22 830 -24 105 -103 200 -207
248 -68 31 -189 40 -265 18z"/>
</g>
</svg>
