<?xml version="1.0" standalone="no"?>
<!DOCTYPE svg PUBLIC "-//W3C//DTD SVG 20010904//EN"
 "http://www.w3.org/TR/2001/REC-SVG-20010904/DTD/svg10.dtd">
<svg version="1.0" xmlns="http://www.w3.org/2000/svg"
 width="1945.000000pt" height="809.000000pt" viewBox="0 0 1945.000000 809.000000"
 preserveAspectRatio="xMidYMid meet">
<metadata>
Created by potrace 1.16, written by Peter Selinger 2001-2019
</metadata>
<g transform="translate(0.000000,809.000000) scale(0.100000,-0.100000)"
fill="#000000" stroke="none">
<path d="M9630 6158 c-316 -355 -470 -727 -470 -1137 0 -294 67 -517 284 -945
47 -93 84 -171 82 -173 -1 -2 -27 29 -56 69 -67 92 -233 258 -324 325 -226
167 -430 244 -648 246 -59 1 -111 -2 -115 -7 -4 -4 -8 -69 -7 -144 1 -158 21
-273 84 -464 22 -67 38 -123 36 -125 -9 -10 -137 77 -194 130 -66 64 -88 70
-53 13 32 -51 88 -98 193 -160 88 -52 97 -60 128 -118 120 -226 311 -439 485
-539 80 -46 171 -86 221 -95 19 -3 34 -10 34 -14 0 -4 -24 -24 -53 -44 -101
-69 -394 -123 -617 -112 -301 14 -513 86 -630 213 -56 61 -80 123 -80 204 0
154 113 279 252 279 117 0 202 -138 131 -212 -30 -32 -67 -36 -101 -12 -29 20
-52 12 -52 -18 2 -92 168 -106 230 -19 69 98 33 243 -76 307 -66 39 -175 45
-255 15 -72 -27 -147 -100 -186 -178 -25 -52 -28 -68 -28 -158 0 -88 3 -107
27 -158 88 -187 319 -306 657 -337 116 -11 313 -1 390 20 19 5 37 7 39 5 9 -8
-106 -54 -222 -89 -274 -83 -549 -104 -795 -60 -191 34 -454 142 -631 259 -91
60 -242 204 -298 283 l-40 58 30 49 c209 334 179 697 -81 977 -86 93 -251 199
-343 222 -17 4 -28 13 -28 24 0 32 -40 83 -77 98 -104 44 -205 -62 -158 -166
34 -75 127 -94 190 -38 l36 31 47 -22 c114 -56 237 -157 319 -263 52 -68 115
-199 134 -278 18 -78 16 -231 -5 -310 -22 -84 -91 -255 -102 -255 -5 0 -26 34
-46 75 -34 68 -53 118 -150 390 -36 101 -88 210 -101 210 -4 0 -6 -8 -3 -17 2
-10 17 -74 31 -143 39 -179 106 -380 170 -505 30 -60 55 -111 55 -113 0 -9
-78 43 -170 114 -118 90 -226 201 -284 292 -42 65 -108 210 -121 265 -11 45
-25 31 -25 -26 0 -121 69 -285 171 -406 87 -103 238 -224 408 -328 101 -61
171 -113 231 -169 102 -96 142 -127 238 -184 39 -23 72 -44 72 -45 0 -5 -116
29 -235 70 -392 133 -846 359 -1935 965 -885 492 -1367 691 -1855 766 -168 26
-552 26 -715 1 -680 -106 -1186 -445 -1346 -902 -25 -71 -28 -94 -29 -205 0
-132 10 -180 60 -280 99 -197 337 -265 459 -130 46 51 64 110 47 153 -7 18
-17 46 -22 64 -14 45 -56 76 -94 69 -88 -17 -84 -146 5 -146 36 0 39 -16 10
-53 -44 -55 -141 -60 -212 -11 -87 61 -139 180 -140 324 -3 315 289 654 723
842 306 132 597 185 957 175 583 -16 1056 -193 2167 -810 167 -93 226 -129
183 -114 -29 10 -161 36 -269 52 -362 55 -760 59 -1021 11 -63 -12 -74 -11
-214 20 -82 19 -284 72 -449 118 -611 173 -754 200 -1065 200 -185 1 -228 -2
-306 -21 -274 -65 -488 -212 -580 -399 -36 -72 -55 -154 -36 -154 5 0 39 40
75 88 260 351 624 458 1208 357 158 -27 437 -94 654 -156 77 -23 207 -58 288
-79 l149 -38 -54 -17 c-175 -58 -386 -186 -511 -311 -184 -184 -283 -398 -294
-634 -6 -135 13 -234 69 -348 42 -86 151 -197 228 -234 199 -93 437 -43 619
132 79 76 145 181 114 180 -5 0 -51 -34 -103 -76 -114 -90 -248 -158 -343
-175 -316 -54 -547 254 -471 629 34 169 113 310 249 448 211 213 468 328 853
383 173 25 438 39 428 22 -4 -6 -13 -11 -19 -11 -32 0 -159 -73 -212 -122 -35
-31 -87 -66 -125 -82 -164 -72 -370 -197 -433 -264 -25 -26 -33 -29 -77 -24
-44 4 -52 2 -80 -26 -41 -42 -42 -92 -1 -133 68 -67 184 -8 167 85 -6 31 -5
32 121 108 159 94 295 169 300 165 2 -2 -4 -21 -13 -43 -21 -48 -22 -156 -1
-204 17 -41 19 -37 41 75 52 267 262 421 601 442 154 9 414 -35 675 -114 153
-46 406 -147 502 -200 42 -23 167 -88 278 -144 110 -56 200 -102 200 -103 0
-2 -55 8 -122 20 -468 87 -890 34 -1131 -143 -49 -36 -49 -36 -79 -19 -62 37
-148 -15 -148 -90 0 -46 14 -70 50 -89 75 -39 150 5 150 88 l0 46 58 26 c87
41 250 92 349 110 88 17 434 33 422 21 -4 -4 -42 -15 -86 -26 -193 -46 -336
-123 -463 -250 -64 -64 -97 -106 -130 -170 -45 -85 -45 -85 -90 -90 -84 -11
-120 -51 -120 -132 1 -80 50 -128 131 -128 108 0 165 122 100 211 -12 16 -21
33 -21 38 0 5 27 45 59 88 161 214 425 348 751 383 164 18 356 -3 665 -71 99
-22 221 -53 271 -69 219 -70 463 -121 678 -141 163 -15 508 -7 631 16 371 67
685 210 930 423 118 102 191 195 260 331 l27 54 44 -83 c61 -114 97 -161 206
-266 228 -220 579 -388 957 -456 112 -20 157 -23 406 -23 245 1 297 4 415 24
156 27 364 77 500 120 214 67 492 123 702 141 273 23 536 -36 746 -166 91 -58
213 -171 270 -253 37 -52 40 -60 26 -72 -30 -25 -46 -71 -41 -118 4 -36 13
-52 41 -78 31 -28 43 -33 87 -33 46 0 55 4 90 39 35 35 39 44 39 91 0 47 -4
56 -39 91 -33 33 -45 39 -82 39 l-44 0 -37 73 c-74 143 -185 253 -339 336 -82
44 -219 94 -290 106 -24 4 -51 12 -59 17 -25 15 315 1 408 -17 118 -23 242
-60 336 -101 l81 -35 0 -45 c0 -39 5 -50 33 -75 46 -42 93 -40 138 5 45 45 47
95 5 136 -37 38 -70 45 -114 26 -36 -15 -38 -14 -89 21 -257 173 -631 222
-1099 143 -64 -11 -122 -20 -130 -20 -8 0 94 56 226 124 132 67 263 134 290
149 168 87 540 207 805 259 165 32 370 32 495 -1 257 -67 383 -202 435 -465
15 -72 27 -63 42 28 9 56 8 76 -6 128 -9 33 -15 62 -13 64 4 4 196 -106 317
-182 84 -53 95 -63 96 -89 1 -55 4 -62 30 -89 59 -58 164 -14 164 69 0 27 -8
44 -30 67 -28 28 -36 30 -80 26 -44 -5 -52 -2 -77 24 -64 68 -307 214 -445
269 -31 12 -77 44 -114 79 -56 52 -97 76 -214 128 -60 26 263 7 480 -29 405
-67 724 -247 896 -505 99 -149 140 -265 150 -424 21 -326 -216 -577 -491 -520
-119 24 -217 76 -356 188 -43 34 -80 62 -83 62 -35 0 75 -153 156 -217 207
-165 439 -187 627 -62 114 76 191 195 232 359 42 166 10 373 -87 561 -130 252
-358 443 -668 560 -82 31 -87 34 -60 41 16 4 191 50 389 102 662 175 809 201
1080 193 141 -4 187 -9 270 -31 237 -62 417 -187 544 -377 48 -71 67 -81 64
-32 -8 97 -92 230 -203 320 -73 60 -204 131 -298 162 -107 36 -281 61 -428 61
-266 0 -517 -50 -1148 -229 -138 -39 -306 -83 -375 -97 l-124 -26 -116 17
c-313 46 -855 21 -1180 -56 -46 -10 -86 -18 -88 -16 -5 5 406 231 702 386 637
334 1073 488 1495 532 156 16 449 6 610 -21 594 -99 1063 -409 1207 -797 37
-100 43 -247 14 -335 -12 -36 -34 -85 -50 -109 -71 -112 -216 -144 -281 -61
-30 37 -25 50 16 49 69 -2 99 79 49 128 -28 29 -54 31 -94 10 -29 -14 -41 -33
-41 -63 0 -8 -7 -24 -17 -34 -26 -29 -21 -97 10 -151 40 -67 113 -101 205 -95
83 6 138 33 204 99 126 127 171 360 107 564 -150 485 -723 853 -1449 930 -463
50 -918 -31 -1445 -255 -310 -132 -571 -266 -1360 -700 -944 -519 -1282 -682
-1680 -809 -71 -23 -136 -44 -143 -46 -30 -10 2 15 56 45 77 43 162 109 247
191 41 39 130 105 215 159 185 117 266 179 361 277 133 137 208 280 223 428 8
71 -7 106 -24 60 -90 -246 -170 -365 -338 -506 -83 -68 -222 -169 -235 -169
-2 0 13 33 33 73 49 93 102 229 134 341 35 118 86 367 75 360 -20 -12 -63
-114 -120 -283 -56 -163 -150 -381 -164 -381 -10 0 -72 143 -97 222 -19 59
-23 95 -22 193 0 107 3 129 31 207 39 110 107 220 189 303 63 64 198 159 262
185 30 12 34 11 47 -7 34 -48 135 -56 180 -13 55 51 57 127 5 179 -70 69 -184
40 -208 -52 -7 -26 -18 -35 -75 -58 -392 -158 -607 -582 -487 -957 18 -57 89
-209 123 -262 13 -22 -28 -84 -120 -181 -156 -165 -394 -303 -668 -388 -321
-100 -655 -88 -1024 35 -196 66 -220 82 -86 57 115 -21 367 -21 480 1 278 54
446 155 527 315 30 61 33 73 33 161 0 86 -3 101 -32 162 -36 76 -93 136 -161
170 -39 19 -63 23 -138 23 -83 0 -94 -2 -140 -30 -131 -82 -151 -266 -35 -342
49 -33 119 -32 160 3 52 44 33 108 -21 70 -73 -51 -154 27 -123 118 18 50 39
72 91 92 114 43 256 -37 300 -169 22 -66 15 -166 -16 -227 -115 -226 -535
-337 -1000 -264 -147 23 -239 51 -297 91 -29 19 -53 39 -53 43 0 4 13 10 29
13 16 4 65 20 108 37 222 85 440 302 606 601 27 47 46 70 72 82 75 36 177 111
230 170 30 33 55 64 55 69 0 20 -27 3 -83 -55 -52 -52 -192 -145 -203 -134 -2
1 15 58 37 127 61 191 81 304 83 462 0 75 -3 140 -7 144 -14 14 -218 7 -296
-10 -146 -32 -301 -108 -465 -229 -93 -68 -270 -245 -336 -335 -24 -34 -45
-60 -47 -58 -2 2 42 95 98 207 204 412 256 581 266 869 4 139 2 184 -15 285
-55 319 -219 643 -448 884 -53 55 -100 101 -104 101 -4 0 -45 -42 -90 -92z
m142 -94 c112 -121 237 -319 302 -475 79 -193 116 -372 116 -570 0 -283 -59
-476 -284 -925 -58 -117 -108 -223 -112 -238 -3 -14 -10 -26 -14 -26 -5 0 -10
334 -13 743 -4 678 -10 843 -33 951 -9 43 -20 16 -35 -89 -9 -63 -14 -319 -18
-850 l-6 -759 -138 279 c-77 154 -152 312 -168 352 -190 477 -133 975 164
1423 58 87 175 230 188 230 5 0 28 -21 51 -46z m-1077 -1644 c359 -91 737
-452 905 -864 l40 -98 -30 -71 c-17 -40 -39 -85 -49 -101 l-20 -30 -114 115
c-62 63 -160 164 -216 224 -57 61 -99 103 -95 95 10 -20 201 -257 213 -264 4
-3 50 -51 101 -106 l92 -99 -53 -56 c-60 -64 -77 -67 -185 -34 -416 126 -764
647 -819 1226 -4 39 -4 77 0 84 10 16 126 6 230 -21z m2291 -37 c-31 -306
-126 -581 -280 -812 -163 -243 -385 -412 -599 -457 l-72 -15 -52 56 c-29 31
-53 59 -53 63 0 4 57 68 126 142 139 149 299 338 292 346 -3 2 -100 -97 -217
-221 -117 -125 -218 -225 -224 -223 -16 5 -75 124 -83 167 -9 44 12 104 88
251 76 149 165 274 275 384 235 237 517 382 747 385 l58 1 -6 -67z"/>
<path d="M7925 4558 c-15 -14 -28 -38 -31 -59 -5 -31 -1 -42 24 -70 61 -68
162 -33 162 56 0 84 -92 127 -155 73z"/>
<path d="M11396 4554 c-48 -49 -25 -142 40 -158 39 -10 92 11 109 44 23 44 19
78 -14 111 -40 39 -97 41 -135 3z"/>
<path d="M6446 4248 c-53 -75 47 -153 103 -82 25 32 26 52 5 82 -11 16 -25 22
-54 22 -29 0 -43 -6 -54 -22z"/>
<path d="M12886 4248 c-21 -30 -20 -50 5 -82 39 -49 119 -26 119 35 0 43 -26
69 -70 69 -29 0 -43 -6 -54 -22z"/>
</g>
</svg>
