<?xml version="1.0" standalone="no"?>
<!DOCTYPE svg PUBLIC "-//W3C//DTD SVG 20010904//EN"
 "http://www.w3.org/TR/2001/REC-SVG-20010904/DTD/svg10.dtd">
<svg version="1.0" xmlns="http://www.w3.org/2000/svg"
 width="521.000000pt" height="766.000000pt" viewBox="0 0 521.000000 766.000000"
 preserveAspectRatio="xMidYMid meet">
<metadata>
Created by potrace 1.16, written by Peter Selinger 2001-2019
</metadata>
<g transform="translate(0.000000,766.000000) scale(0.100000,-0.100000)"
fill="#000000" stroke="none">
<path d="M2495 6626 c-513 -81 -939 -437 -1115 -931 -72 -204 -73 -210 -77
-736 l-4 -477 -162 -4 c-132 -4 -173 -9 -220 -26 -121 -44 -219 -147 -257
-270 -20 -63 -20 -97 -20 -1562 0 -1464 0 -1499 20 -1562 37 -121 130 -222
250 -271 l55 -22 1700 -3 c1242 -2 1716 0 1760 8 167 32 303 170 335 340 14
72 14 2947 0 3021 -32 169 -170 307 -340 339 -29 5 -108 10 -176 10 l-122 0
-5 478 c-4 473 -4 478 -30 584 -138 569 -587 992 -1152 1083 -108 18 -329 18
-440 1z m462 -141 c254 -48 454 -156 649 -350 159 -157 253 -306 319 -510 57
-175 65 -260 65 -729 l0 -416 -199 0 -198 0 -2 413 c-1 406 -1 416 -26 512
-32 126 -88 238 -169 341 -86 109 -168 174 -301 239 -144 70 -233 90 -395 88
-147 -1 -236 -21 -368 -83 -203 -95 -349 -252 -441 -475 -54 -130 -61 -191
-62 -557 0 -183 -3 -366 -6 -405 l-5 -73 -194 0 -194 0 0 418 c0 441 6 524 50
682 28 99 106 262 177 369 70 105 221 258 325 329 284 194 643 270 975 207z
m-12 -579 c250 -85 428 -280 495 -540 18 -73 20 -110 20 -483 l0 -403 -751 0
-750 0 3 428 3 427 27 80 c69 203 200 355 387 449 121 61 194 77 351 73 116
-3 147 -7 215 -31z m1520 -1590 c65 -30 112 -77 144 -146 l26 -55 0 -1485 c0
-1250 -2 -1493 -14 -1534 -20 -67 -105 -159 -168 -180 -42 -14 -223 -16 -1758
-16 l-1711 0 -52 26 c-56 28 -100 72 -134 137 l-23 42 0 1511 0 1510 30 59
c32 63 100 124 159 143 20 6 622 10 1741 11 l1710 1 50 -24z"/>
<path d="M2597 3406 c-66 -19 -152 -73 -194 -121 -20 -22 -50 -69 -67 -105
-29 -61 -31 -72 -31 -175 0 -98 3 -116 27 -167 14 -31 45 -76 67 -101 23 -24
41 -53 41 -64 0 -11 -15 -119 -34 -239 -19 -120 -44 -288 -57 -371 l-23 -153
24 -25 23 -25 329 0 329 0 24 25 c14 13 25 28 25 32 0 4 -27 179 -59 388 l-58
380 42 45 c23 25 54 72 71 105 27 55 29 69 29 170 0 103 -2 114 -32 178 -40
84 -111 155 -197 197 -53 27 -79 33 -148 36 -52 2 -101 -2 -131 -10z m233
-151 c92 -46 150 -144 150 -250 0 -83 -26 -142 -92 -208 -46 -47 -58 -66 -58
-91 1 -17 25 -182 54 -366 29 -184 51 -338 49 -342 -2 -5 -108 -8 -234 -8
l-230 0 6 33 c20 116 105 675 105 694 0 16 -17 40 -50 70 -71 65 -100 129
-100 217 0 47 7 85 19 112 68 149 238 211 381 139z"/>
</g>
</svg>
