<?xml version="1.0" standalone="no"?>
<!DOCTYPE svg PUBLIC "-//W3C//DTD SVG 20010904//EN"
 "http://www.w3.org/TR/2001/REC-SVG-20010904/DTD/svg10.dtd">
<svg version="1.0" xmlns="http://www.w3.org/2000/svg"
 width="777.000000pt" height="566.000000pt" viewBox="0 0 777.000000 566.000000"
 preserveAspectRatio="xMidYMid meet">
<metadata>
Created by potrace 1.16, written by Peter Selinger 2001-2019
</metadata>
<g transform="translate(0.000000,566.000000) scale(0.100000,-0.100000)"
fill="#000000" stroke="none">
<path d="M1445 5256 c-75 -18 -171 -74 -217 -125 -59 -67 -87 -131 -108 -245
-10 -55 -51 -276 -90 -491 -39 -214 -91 -496 -115 -625 -63 -338 -205 -1117
-265 -1455 -28 -159 -62 -346 -75 -415 -47 -247 -51 -288 -32 -384 21 -105 50
-172 109 -252 55 -74 114 -123 200 -168 137 -71 0 -67 2118 -64 l1905 3 50 23
c58 27 126 89 161 149 24 41 27 42 92 48 109 11 266 44 365 76 105 34 302 128
395 188 34 23 66 41 70 41 4 0 50 -43 102 -95 l94 -94 -3 -57 -3 -56 409 -410
c266 -266 422 -415 449 -428 56 -27 163 -27 224 1 54 24 163 128 193 184 29
54 31 192 3 245 -21 41 -788 814 -828 836 -15 8 -46 14 -70 14 -42 0 -48 4
-142 99 -60 61 -94 101 -87 105 35 22 162 239 216 371 95 229 128 393 128 640
-1 200 -22 339 -78 510 -170 520 -560 914 -1070 1080 -203 67 -287 79 -525 79
-229 0 -321 -14 -514 -79 -55 -18 -103 -32 -105 -29 -6 6 -22 666 -16 681 4
12 79 13 432 11 478 -3 457 0 525 -76 43 -48 53 -88 69 -287 12 -167 22 -195
69 -195 16 0 32 5 36 12 19 30 -18 402 -46 461 -32 68 -85 123 -148 154 l-57
28 -1885 2 c-1458 1 -1896 -1 -1935 -11z m345 -108 c0 -13 -56 -356 -124 -763
-69 -407 -177 -1050 -240 -1430 -64 -379 -119 -702 -122 -718 l-6 -27 -122 0
c-178 0 -285 -32 -405 -123 l-63 -48 7 48 c5 39 243 1348 315 1738 10 55 60
325 110 600 50 275 97 519 106 542 32 88 136 173 238 193 22 4 101 8 174 9
131 1 132 1 132 -21z m200 7 c0 -8 -9 -72 -20 -142 -18 -121 -64 -431 -145
-978 -19 -132 -42 -283 -50 -335 -16 -104 -30 -193 -135 -895 -38 -258 -74
-497 -80 -530 -5 -33 -10 -61 -10 -62 0 -2 -43 -3 -95 -3 -76 0 -95 3 -95 14
0 19 37 243 155 941 254 1506 335 1988 335 1996 0 5 32 9 70 9 55 0 70 -3 70
-15z m320 -2 c0 -10 -9 -88 -20 -173 -11 -85 -23 -188 -27 -227 -3 -40 -9 -73
-13 -73 -7 0 -169 341 -198 416 -27 70 -21 74 128 74 117 0 130 -2 130 -17z
m600 7 c0 -5 -4 -10 -8 -10 -5 0 -36 -18 -70 -39 -44 -29 -60 -45 -59 -60 1
-12 4 -21 8 -21 4 0 33 17 65 38 146 95 160 102 206 102 24 0 47 -2 49 -5 3
-2 -3 -78 -12 -167 -10 -90 -18 -168 -18 -174 -1 -11 -88 -70 -436 -294 -339
-219 -386 -251 -379 -261 4 -6 0 -15 -7 -20 -7 -4 -10 -11 -7 -15 4 -4 51 22
105 56 54 35 166 107 248 160 83 53 220 142 305 197 85 55 157 96 159 91 3 -9
-24 -307 -35 -380 -5 -36 -14 -42 -420 -309 -228 -149 -416 -270 -418 -268 -2
2 9 103 24 224 18 145 25 228 19 243 -12 32 -11 52 3 49 7 -1 15 17 19 48 4
28 17 122 29 210 12 88 26 165 30 170 5 6 55 39 112 72 165 99 241 155 243
180 1 18 -2 20 -22 12 -13 -5 -90 -52 -172 -104 -81 -52 -151 -95 -154 -95 -3
0 -4 15 -1 33 2 17 13 99 24 180 11 82 22 152 25 158 8 13 545 12 545 -1z
m713 -125 c111 -74 210 -141 220 -149 15 -12 17 -35 17 -230 0 -119 -3 -216
-6 -216 -8 0 -313 263 -531 458 l-173 155 0 42 c0 77 -3 75 142 75 l130 0 201
-135z m237 20 c0 -63 -2 -115 -5 -115 -3 0 -36 22 -73 48 -37 27 -111 77 -164
111 -54 35 -98 65 -98 67 0 2 77 4 170 4 l170 0 0 -115z m255 103 c2 -7 6
-196 9 -421 l5 -407 -57 -39 c-31 -21 -79 -57 -107 -80 -27 -22 -52 -41 -55
-41 -8 0 -12 802 -5 908 l7 92 99 0 c71 0 101 -4 104 -12z m219 -245 c3 -142
8 -304 10 -360 l5 -102 -82 -45 -82 -45 -6 107 c-4 59 -7 241 -8 405 l-1 297
79 0 79 0 6 -257z m-2198 -116 l101 -222 -28 -220 c-16 -121 -30 -224 -32
-229 -3 -8 -176 265 -212 334 -17 33 -17 40 21 297 21 145 40 263 43 263 3 0
52 -101 107 -223z m1334 -96 c130 -113 270 -235 312 -271 l77 -65 0 -125 1
-126 -53 -52 c-42 -42 -55 -50 -65 -40 -10 10 -15 10 -21 -1 -7 -11 -15 -10
-41 9 -22 16 -28 26 -21 33 7 7 17 5 31 -8 11 -10 20 -14 19 -9 0 5 -55 59
-122 119 -66 61 -202 187 -302 282 l-181 172 17 168 c10 92 18 176 18 186 1
15 11 10 49 -23 26 -24 153 -135 282 -249z m69 -555 c53 -49 115 -105 139
-125 23 -19 42 -40 42 -46 0 -6 -25 -46 -56 -90 -30 -44 -71 -109 -91 -143
l-36 -64 -126 124 c-69 68 -178 174 -242 236 l-115 112 19 188 c10 103 20 193
23 200 3 12 113 -85 443 -392z m1672 329 c202 -26 358 -74 535 -163 549 -276
900 -906 844 -1518 -34 -382 -193 -720 -464 -990 -217 -216 -485 -359 -796
-425 -140 -30 -435 -33 -580 -6 -676 124 -1198 672 -1290 1354 -16 116 -7 389
15 488 56 248 167 484 321 680 325 416 895 650 1415 580z m-3250 -103 c9 -15
58 -94 109 -177 81 -131 93 -155 91 -190 -3 -51 -49 -387 -54 -392 -2 -2 -57
75 -122 172 l-118 175 16 102 c9 57 24 156 33 221 10 64 20 117 23 117 3 0 13
-12 22 -28z m1030 -355 c-11 -104 -21 -190 -23 -191 -2 -1 -75 -52 -163 -112
-88 -61 -226 -154 -307 -207 -81 -53 -200 -133 -264 -177 l-117 -81 7 78 c4
43 13 121 21 173 7 52 16 120 20 150 l6 55 386 255 c213 140 401 264 417 276
l31 20 3 -25 c1 -15 -6 -111 -17 -214z m286 -152 c120 -115 221 -215 226 -222
4 -7 -7 -48 -27 -95 -19 -46 -46 -123 -61 -173 -15 -49 -30 -99 -35 -110 -17
-40 -33 -234 -32 -370 2 -203 52 -435 133 -614 16 -35 29 -65 29 -67 0 -2
-149 -4 -331 -4 l-330 0 5 53 c4 28 15 133 26 231 11 99 21 181 23 183 2 1 48
-50 102 -114 131 -156 226 -263 234 -263 3 0 7 12 8 27 1 21 -35 69 -169 227
l-170 200 6 51 c3 27 11 105 18 173 7 67 14 121 18 120 3 -2 65 -66 139 -143
74 -77 140 -144 148 -148 10 -6 13 0 13 23 0 27 -21 54 -145 183 -112 117
-145 157 -145 178 0 14 7 93 15 175 8 82 16 161 17 177 1 15 4 27 6 27 2 0 56
-49 119 -110 64 -60 118 -110 122 -110 4 0 6 12 6 26 -1 18 -34 58 -120 144
l-119 119 19 221 c11 121 22 219 26 218 5 -2 106 -97 226 -213z m-1288 -174
c108 -161 110 -165 105 -210 -13 -105 -55 -395 -57 -398 -4 -4 -120 163 -188
272 l-57 90 31 217 c25 168 35 215 44 205 6 -6 61 -86 122 -176z m951 -164
c-17 -160 -25 -205 -38 -216 -51 -40 -846 -581 -849 -577 -9 9 49 442 61 454
7 7 199 138 427 291 263 176 415 273 417 264 2 -7 -6 -104 -18 -216z m-984
-414 l73 -111 -25 -204 c-14 -111 -28 -211 -32 -222 -6 -14 -33 18 -134 162
l-127 180 30 198 c17 110 32 210 35 222 4 21 10 16 56 -45 28 -37 84 -118 124
-180z m933 -84 c-13 -118 -27 -220 -32 -227 -6 -7 -81 -62 -166 -121 -86 -59
-271 -188 -411 -286 -140 -98 -265 -180 -277 -183 -20 -4 -22 -1 -18 24 3 16
14 103 25 194 11 91 22 179 25 196 6 33 -5 25 520 384 116 79 241 166 279 192
38 26 71 46 73 44 2 -2 -6 -99 -18 -217z m-1049 -379 l122 -174 -12 -96 c-6
-52 -14 -112 -17 -133 l-6 -38 -80 3 -81 3 -63 89 c-38 54 -63 100 -63 115 0
25 46 349 56 400 6 30 -3 41 144 -169z m991 -143 c-12 -111 -26 -212 -31 -224
-5 -12 -29 -33 -53 -47 l-44 -26 -298 2 -298 3 109 74 c60 41 190 132 289 201
281 198 340 237 343 228 2 -5 -6 -100 -17 -211z m-1131 -291 c0 -3 -20 -6 -45
-6 -50 0 -52 4 -39 82 l7 38 38 -54 c22 -30 39 -57 39 -60z m1936 -223 c99
-150 293 -348 438 -448 258 -178 542 -273 886 -298 l35 -2 -40 -41 c-77 -80
80 -74 -2004 -74 -2022 0 -1930 -2 -2049 56 -178 87 -292 300 -262 489 12 74
40 155 70 200 71 108 214 204 331 224 30 5 608 9 1286 10 l1232 1 77 -117z
m2737 -274 l89 -90 -47 -52 c-26 -29 -68 -72 -93 -96 l-45 -43 -94 94 -95 95
59 54 c32 30 74 71 93 92 19 20 37 37 40 37 3 0 45 -41 93 -91z m620 -509
c213 -214 392 -402 397 -416 14 -36 12 -99 -4 -137 -16 -38 -113 -133 -151
-147 -38 -14 -112 -12 -143 4 -46 25 -803 791 -797 807 3 8 24 28 46 44 23 17
84 76 136 133 53 56 103 102 112 102 9 0 190 -175 404 -390z"/>
<path d="M4815 4295 c-589 -96 -1032 -511 -1167 -1095 -29 -127 -35 -350 -13
-481 89 -538 455 -964 967 -1128 364 -116 781 -73 1112 115 364 206 623 574
693 984 21 124 21 337 -1 457 -99 561 -514 1001 -1066 1129 -136 32 -389 41
-525 19z m243 -97 c16 -16 50 -17 56 -1 4 10 17 12 48 7 75 -10 151 -25 211
-41 l57 -16 0 -131 0 -131 -102 101 c-161 157 -189 180 -200 160 -5 -9 -5 -23
1 -33 5 -10 75 -82 155 -161 l146 -143 0 -201 0 -200 -147 140 c-82 77 -180
171 -219 208 l-71 69 5 128 c3 77 1 132 -5 138 -7 7 -31 -4 -69 -29 -32 -22
-133 -89 -224 -149 -226 -150 -361 -235 -367 -229 -5 4 16 340 20 342 1 0 22
12 47 26 114 66 308 129 452 147 98 13 193 12 206 -1z m547 -123 c348 -167
607 -502 695 -900 29 -130 32 -348 6 -478 -79 -408 -333 -749 -691 -928 l-100
-51 -6 34 c-4 18 -9 172 -12 342 -3 169 -9 311 -12 315 -4 3 -16 -5 -27 -19
-19 -23 -19 -33 -13 -177 4 -84 4 -153 -1 -153 -5 0 -30 21 -56 47 -45 45 -49
46 -65 30 -16 -16 -13 -21 55 -90 l72 -72 0 -138 0 -137 -27 -11 c-73 -28 -63
-34 -285 185 -163 161 -208 210 -208 230 0 24 -31 66 -47 66 -5 -1 -30 -16
-58 -36 -148 -104 -466 -314 -476 -314 -5 0 -36 18 -68 39 l-57 39 4 94 c6
154 -7 136 210 284 106 72 198 136 204 142 9 9 9 16 -3 27 -13 13 -36 0 -203
-111 -103 -69 -189 -124 -191 -122 -2 2 2 93 8 203 l12 200 129 87 c133 90
192 139 201 169 3 9 32 28 65 43 58 24 71 38 50 51 -11 7 -21 0 -264 -166
l-179 -122 6 84 c4 46 10 146 13 221 l7 138 310 207 c171 115 314 209 318 211
5 2 6 -59 2 -135 -5 -121 -4 -140 11 -152 9 -7 17 -21 18 -30 0 -9 4 4 7 28
l6 44 153 -148 c138 -134 155 -147 169 -133 10 10 12 21 7 30 -5 8 -80 81
-166 162 l-157 148 6 162 c3 88 8 179 12 201 l6 39 218 -209 217 -209 0 -122
c0 -68 4 -125 9 -128 4 -3 16 3 25 13 16 18 17 59 14 525 -3 502 -3 506 17
500 11 -3 61 -25 110 -49z m-664 -265 c-6 -92 -11 -177 -11 -189 0 -15 -26
-37 -97 -83 -54 -35 -194 -127 -312 -206 -117 -78 -216 -141 -218 -138 -3 3 0
70 6 149 6 80 11 171 11 204 l0 58 167 110 c93 61 233 153 313 206 126 84 145
94 148 77 2 -11 -1 -96 -7 -188z m-661 -90 c-7 -113 -14 -207 -16 -209 -2 -3
-22 12 -43 33 -33 32 -39 35 -51 22 -10 -13 -4 -25 40 -77 l53 -60 -12 -207
c-7 -114 -14 -209 -16 -210 -3 -4 -45 39 -258 268 -116 124 -116 125 -117 174
0 41 8 63 42 120 22 39 55 88 71 110 29 37 31 37 46 19 30 -35 63 -59 59 -43
-2 8 3 14 10 12 9 -1 5 10 -10 29 -12 17 -27 38 -33 46 -8 11 10 34 81 103 51
49 107 98 125 110 l34 20 4 -27 c2 -16 -2 -120 -9 -233z m-495 -675 c-9 -137
-20 -288 -24 -335 l-7 -85 -13 50 c-7 28 -15 118 -18 200 -5 163 7 263 49 405
32 105 34 69 13 -235z m354 -10 l92 -100 -7 -135 c-3 -74 -9 -168 -13 -207
l-6 -73 -136 148 c-75 81 -160 173 -189 205 l-53 58 7 127 c4 70 9 162 13 205
l6 78 97 -103 c53 -57 138 -148 189 -203z m-104 -403 l168 -183 -12 -247 c-7
-136 -15 -249 -17 -251 -6 -6 -58 42 -123 113 -74 83 -146 190 -203 305 -41
82 -43 90 -42 171 0 47 4 138 9 204 l7 118 22 -23 c13 -13 99 -106 191 -207z
m839 -564 c-2 -18 -9 -121 -14 -228 -6 -107 -13 -196 -15 -198 -2 -2 -41 4
-87 13 -96 20 -229 65 -307 104 l-53 28 83 57 c294 202 375 256 386 256 7 0
10 -12 7 -32z m264 -263 c78 -77 142 -143 142 -146 0 -15 -141 -30 -255 -27
l-120 3 2 85 c1 47 5 132 8 188 l7 104 37 -33 c20 -19 100 -97 179 -174z"/>
<path d="M5858 3328 c-19 -16 -212 -225 -532 -576 -136 -150 -252 -272 -258
-270 -5 2 -66 66 -136 143 -70 77 -139 144 -153 149 -62 21 -129 -27 -129 -93
0 -45 -6 -38 219 -289 94 -104 165 -175 179 -179 56 -14 37 -33 750 746 250
274 252 277 191 346 -26 30 -38 35 -73 35 -23 0 -49 -6 -58 -12z"/>
<path d="M4928 3003 c-12 -3 -19 -20 -24 -59 -7 -61 6 -104 31 -104 12 0 15
16 15 85 0 47 -1 84 -2 84 -2 -1 -11 -3 -20 -6z"/>
<path d="M1083 1850 c-51 -12 -118 -56 -145 -97 -95 -138 -39 -330 113 -387
40 -15 169 -16 1594 -14 l1550 3 3 22 c3 17 -6 27 -40 45 l-43 23 -1515 5
-1515 5 -30 23 c-86 68 -84 190 4 249 l34 23 1267 0 c998 0 1269 3 1282 13 28
22 29 47 3 73 l-24 24 -1253 -1 c-689 -1 -1267 -4 -1285 -9z"/>
</g>
</svg>
