<?xml version="1.0" standalone="no"?>
<!DOCTYPE svg PUBLIC "-//W3C//DTD SVG 20010904//EN"
 "http://www.w3.org/TR/2001/REC-SVG-20010904/DTD/svg10.dtd">
<svg version="1.0" xmlns="http://www.w3.org/2000/svg"
 width="603.000000pt" height="586.000000pt" viewBox="0 0 603.000000 586.000000"
 preserveAspectRatio="xMidYMid meet">
<metadata>
Created by potrace 1.16, written by Peter Selinger 2001-2019
</metadata>
<g transform="translate(0.000000,586.000000) scale(0.100000,-0.100000)"
fill="#000000" stroke="none">
<path d="M2323 5359 c-265 -20 -461 -86 -513 -172 -17 -27 -20 -51 -20 -153
l0 -122 -69 -17 c-91 -22 -209 -74 -259 -115 -47 -37 -84 -89 -100 -140 -6
-19 -23 -186 -36 -370 -27 -357 -99 -1280 -141 -1800 -70 -882 -86 -1138 -75
-1180 24 -89 141 -175 273 -201 l57 -12 0 -126 c0 -101 4 -134 19 -166 56
-124 260 -195 653 -226 203 -16 774 -6 928 15 281 40 450 116 489 219 6 16 11
72 11 126 0 94 -1 98 -28 124 -18 17 -55 35 -98 47 -38 10 -91 28 -117 39 -39
17 -60 19 -126 14 l-79 -6 -294 156 c-161 85 -356 189 -433 230 -77 41 -300
159 -495 262 -195 104 -411 219 -480 256 l-125 67 1 64 c0 35 4 103 8 151 l8
88 116 -62 c106 -56 973 -518 1332 -710 80 -42 146 -76 148 -75 7 7 -29 122
-40 129 -7 5 -58 32 -112 62 l-100 53 106 50 c96 45 105 52 111 82 11 52 9 83
-5 77 -7 -3 -82 -38 -167 -78 l-154 -73 -132 69 c-73 39 -134 75 -135 80 -2 8
466 240 770 380 47 22 106 54 133 72 66 44 142 79 223 101 67 18 101 45 86 68
-4 6 -70 43 -147 84 -77 40 -185 96 -240 125 -197 104 -877 456 -1275 660
-223 115 -407 212 -410 216 -4 6 14 285 19 307 1 2 56 -26 124 -61 67 -35 406
-211 752 -390 347 -179 781 -404 965 -501 l335 -175 28 32 c15 17 27 36 27 42
0 10 -236 135 -1170 618 -217 112 -541 280 -720 372 -179 93 -327 172 -330
176 -7 10 15 257 23 265 3 4 124 -56 269 -131 145 -76 367 -192 493 -258 364
-189 674 -351 885 -462 107 -56 288 -150 401 -209 206 -106 206 -106 213 -144
3 -20 6 -56 6 -79 0 -23 4 -45 10 -48 10 -6 90 42 90 55 0 4 -18 232 -40 506
-21 275 -46 603 -55 729 -9 127 -23 250 -31 274 -38 121 -164 209 -371 261
l-43 11 0 113 c0 98 -3 119 -23 157 -70 135 -474 213 -924 178z m428 -104
c216 -20 337 -53 397 -108 21 -20 22 -27 22 -193 l0 -172 -30 -26 c-72 -60
-264 -96 -545 -103 -303 -8 -510 18 -635 80 l-65 32 0 190 0 189 34 23 c82 55
320 95 602 102 36 0 135 -6 220 -14z m-961 -474 c0 -82 118 -156 317 -197 149
-32 504 -44 684 -24 274 30 456 111 476 211 6 34 11 34 84 13 86 -26 164 -70
203 -115 36 -43 41 -57 51 -165 l6 -60 -518 -254 -518 -253 -110 56 c-102 53
-229 119 -802 419 l-213 111 0 39 c0 21 6 51 14 67 15 29 80 92 114 110 21 11
192 70 205 71 4 0 7 -13 7 -29z m1834 -528 c3 -42 6 -100 6 -130 l0 -54 -336
-166 -336 -166 -134 69 c-73 38 -134 71 -134 74 0 3 53 30 118 61 64 31 270
131 456 223 187 91 342 166 346 166 4 0 10 -34 14 -77z m43 -590 c13 -163 21
-299 18 -301 -4 -5 -614 310 -615 318 0 5 559 279 570 280 3 0 15 -134 27
-297z m-1848 -281 c81 -43 83 -45 60 -57 -40 -21 -536 -255 -540 -255 -3 0 36
529 40 538 1 2 300 -151 440 -226z m309 -156 c59 -30 127 -65 151 -79 l44 -25
-144 -70 c-79 -38 -308 -149 -508 -246 -200 -97 -366 -175 -367 -173 -2 2 1
74 8 160 l11 156 341 165 c188 91 344 165 349 166 4 0 56 -24 115 -54z m463
-242 c83 -41 150 -77 148 -79 -9 -8 -1125 -548 -1134 -548 -5 0 -77 36 -158
80 l-148 80 113 54 c62 30 313 152 558 271 245 119 451 217 458 217 7 1 80
-33 163 -75z m474 -244 c112 -58 205 -107 205 -110 0 -3 -257 -128 -571 -279
l-571 -274 -47 22 c-125 60 -362 194 -354 201 4 4 103 53 218 108 116 55 365
177 555 270 190 94 348 170 352 169 4 -1 100 -49 213 -107z m-1619 -841 c251
-134 1144 -608 1311 -695 73 -38 133 -72 133 -76 0 -5 -129 -8 -287 -8 l-286
0 -121 64 c-67 35 -299 157 -516 271 -217 114 -408 215 -424 224 l-28 16 6
105 c6 103 16 200 21 200 1 0 87 -46 191 -101z m-7 -428 c113 -60 305 -162
426 -226 l220 -117 -145 7 c-80 3 -212 13 -295 21 -253 25 -351 53 -411 115
-28 30 -29 33 -27 127 2 103 10 182 20 182 3 0 99 -49 212 -109z m376 -436
c448 -35 1065 -30 1460 10 77 8 147 15 155 15 13 0 15 -18 12 -117 l-3 -118
-33 -31 c-80 -76 -274 -115 -671 -135 -296 -15 -677 1 -882 37 -123 21 -237
60 -272 93 l-31 29 0 122 0 122 33 -6 c17 -3 122 -13 232 -21z"/>
<path d="M4208 3149 c-318 -41 -576 -274 -637 -577 l-18 -86 -79 -13 c-243
-41 -444 -233 -504 -484 -37 -156 -20 -298 56 -456 50 -104 178 -234 275 -281
77 -37 99 -39 123 -13 33 37 17 61 -68 104 -185 94 -298 277 -300 487 -1 159
52 288 164 401 98 99 254 162 359 144 59 -10 72 7 82 107 38 381 397 633 786
552 206 -42 384 -190 464 -384 17 -40 23 -76 23 -134 1 -99 10 -108 90 -81 48
16 63 17 117 7 95 -17 165 -57 245 -136 80 -80 132 -175 160 -291 21 -91 14
-245 -15 -328 -71 -201 -227 -361 -398 -406 -45 -12 -68 -40 -58 -70 15 -49
89 -40 220 27 95 49 217 171 268 270 68 129 88 203 94 337 6 153 -11 238 -72
363 -101 204 -293 341 -477 342 -59 0 -68 2 -68 18 0 31 -48 160 -79 215 -119
207 -335 343 -581 367 -52 5 -97 9 -100 8 -3 0 -35 -4 -72 -9z"/>
<path d="M4900 1643 c-46 -8 -154 -46 -210 -73 -86 -43 -174 -113 -235 -187
-55 -66 -145 -231 -145 -266 0 -33 -16 -17 -39 38 -32 77 -93 168 -159 238
-111 117 -258 191 -432 218 -73 11 -227 7 -263 -6 -30 -12 -31 -51 -2 -133
145 -408 386 -615 753 -647 l82 -8 0 -201 c0 -166 3 -205 16 -224 18 -27 55
-29 77 -4 15 16 17 47 17 225 l0 206 58 6 c364 37 588 234 717 628 60 185 53
198 -103 196 -59 -1 -118 -4 -132 -6z m144 -145 c-68 -233 -211 -423 -376
-501 -120 -58 -298 -88 -298 -51 0 40 35 147 77 233 37 78 59 109 127 177 66
65 99 90 168 123 93 45 183 69 265 70 l52 1 -15 -52z m-1346 6 c244 -49 424
-216 508 -473 l32 -96 -54 -3 c-73 -4 -212 31 -298 75 -84 44 -213 168 -264
255 -34 58 -112 230 -112 248 0 15 101 12 188 -6z"/>
</g>
</svg>
