<?xml version="1.0" standalone="no"?>
<!DOCTYPE svg PUBLIC "-//W3C//DTD SVG 20010904//EN"
 "http://www.w3.org/TR/2001/REC-SVG-20010904/DTD/svg10.dtd">
<svg version="1.0" xmlns="http://www.w3.org/2000/svg"
 width="850.000000pt" height="633.000000pt" viewBox="0 0 850.000000 633.000000"
 preserveAspectRatio="xMidYMid meet">
<metadata>
Created by potrace 1.16, written by Peter Selinger 2001-2019
</metadata>
<g transform="translate(0.000000,633.000000) scale(0.100000,-0.100000)"
fill="#000000" stroke="none">
<path d="M2044 5870 c-17 -5 -39 -19 -49 -30 -17 -19 -30 -20 -319 -20 l-301
0 -36 -24 c-58 -39 -69 -75 -69 -218 0 -143 12 -179 76 -215 38 -22 47 -23
335 -23 281 0 297 -1 314 -20 25 -28 80 -43 130 -36 l43 7 -2 -787 -1 -787
-60 -17 c-101 -29 -136 -48 -250 -134 -142 -108 -384 -316 -456 -392 -138
-146 -179 -305 -254 -974 -38 -341 -63 -427 -214 -728 l-61 -122 -43 6 c-65 9
-97 -12 -160 -108 -142 -217 -162 -270 -105 -276 21 -3 30 4 48 36 18 32 31
42 77 56 30 10 57 15 60 13 2 -3 9 -38 14 -79 6 -40 14 -77 19 -82 5 -5 40 5
84 24 42 19 78 32 80 29 2 -2 10 -40 17 -84 17 -97 27 -101 119 -55 34 17 64
30 66 28 2 -2 11 -40 20 -83 9 -44 21 -84 25 -89 5 -5 38 4 79 22 38 18 74 32
78 32 5 0 17 -36 27 -81 10 -45 24 -83 31 -86 6 -2 44 12 84 32 40 20 73 35
75 33 1 -2 11 -34 23 -72 19 -64 20 -72 5 -108 -18 -44 -5 -71 31 -66 26 4 35
22 97 205 60 174 62 219 11 264 -16 15 -38 31 -48 37 -22 12 -19 24 54 191 59
134 118 223 232 346 196 211 271 352 389 730 39 126 54 149 90 139 14 -4 89
-10 166 -13 l140 -6 3 -67 3 -68 -28 -2 c-15 -1 -81 -2 -145 -2 -94 -1 -120
-4 -134 -17 -14 -15 -16 -46 -15 -250 1 -129 -3 -252 -9 -274 -5 -22 -12 -96
-16 -164 -6 -110 -5 -125 10 -136 23 -17 55 -7 60 19 3 11 7 76 11 143 6 128
10 153 28 153 7 0 8 -48 3 -149 -6 -130 -5 -151 9 -165 19 -19 29 -20 57 -5
19 10 20 18 17 157 -3 91 0 149 6 152 15 8 23 -44 24 -172 1 -108 3 -118 23
-132 16 -11 26 -12 41 -4 19 10 20 17 13 137 -3 69 -10 144 -16 166 -5 22 -10
136 -10 253 l0 212 160 0 160 0 0 -197 c0 -123 -6 -228 -14 -278 -8 -44 -17
-123 -21 -175 -8 -105 0 -125 47 -118 22 3 23 8 35 150 6 81 14 152 18 158 16
26 20 -8 14 -137 -5 -108 -3 -143 8 -161 16 -27 37 -28 60 -5 16 16 17 33 12
158 -8 226 24 203 38 -26 8 -130 9 -134 31 -137 47 -7 55 13 47 118 -3 52 -13
136 -21 185 -10 62 -14 147 -12 275 l3 185 151 3 151 3 5 -208 c3 -117 1 -225
-5 -248 -5 -22 -10 -101 -11 -175 -1 -134 -1 -135 22 -138 44 -6 52 13 52 118
0 123 9 190 25 190 10 0 12 -32 7 -147 -5 -134 -4 -147 13 -160 24 -17 40 -17
59 2 13 13 14 39 9 165 -4 101 -3 150 4 150 17 0 23 -37 29 -160 7 -160 8
-162 47 -158 l32 3 -2 117 c-1 64 -9 146 -18 183 -11 48 -15 122 -15 267 l0
201 165 -5 c91 -2 167 -6 169 -9 9 -9 7 -405 -3 -464 -15 -90 -24 -249 -16
-274 5 -18 13 -22 38 -19 l32 3 6 122 c7 140 16 193 30 193 7 0 10 -52 8 -149
-3 -157 3 -181 42 -181 37 0 45 36 39 180 -3 74 -2 139 1 143 14 18 22 -21 31
-157 7 -111 13 -144 26 -153 13 -11 20 -10 36 1 19 13 21 22 18 102 -2 49 -8
116 -14 149 -6 33 -12 160 -15 281 l-4 221 23 7 c13 3 84 6 159 6 l137 0 6
-72 c10 -123 9 -349 -3 -428 -6 -41 -11 -116 -11 -167 0 -78 3 -94 18 -101 19
-10 43 -5 54 12 4 6 8 61 8 122 0 118 7 174 21 174 5 0 9 -68 9 -150 0 -149 0
-151 24 -161 17 -8 29 -8 46 1 22 12 22 14 15 145 -4 73 -8 141 -8 151 -3 26
20 28 27 2 4 -13 10 -80 13 -150 6 -135 13 -152 55 -146 23 3 23 5 21 118 0
63 -8 149 -17 190 -11 54 -16 129 -16 266 l0 192 33 3 c17 2 94 3 170 1 l137
-3 0 -203 c0 -111 -4 -227 -10 -257 -5 -30 -11 -107 -12 -173 -3 -110 -2 -119
18 -132 17 -11 23 -12 38 -1 15 11 18 33 22 142 4 134 9 165 25 165 5 0 9 -64
9 -150 l0 -150 25 -12 c22 -10 29 -9 47 9 20 20 20 25 9 158 -8 94 -9 141 -2
148 19 19 24 -1 33 -135 14 -191 15 -196 67 -177 23 9 24 10 17 122 -4 61 -14
144 -22 182 -9 47 -14 136 -14 268 0 179 2 198 18 203 43 14 69 35 90 75 26
51 28 94 7 147 -14 34 -14 42 0 75 18 44 19 89 1 140 -23 63 -1 50 51 -31 98
-149 278 -320 528 -502 71 -52 155 -120 186 -150 62 -61 146 -184 204 -299
l37 -75 -36 -29 c-43 -35 -66 -75 -66 -115 0 -24 181 -510 209 -562 11 -20 51
-19 64 1 8 13 -2 50 -42 156 l-52 139 17 67 c9 37 21 67 27 67 6 0 41 -14 79
-31 84 -39 93 -34 102 59 10 99 12 101 88 73 92 -34 105 -36 111 -14 3 10 11
53 18 96 6 42 12 77 13 77 1 0 37 -14 80 -30 44 -17 85 -29 91 -26 7 2 17 41
23 86 5 45 13 84 16 87 3 3 40 -6 82 -21 42 -15 82 -25 89 -22 9 3 16 33 21
86 3 44 10 82 14 85 4 2 37 -6 75 -18 64 -21 70 -25 114 -89 25 -37 52 -70 59
-73 21 -8 52 13 52 35 0 28 -259 385 -294 406 -18 11 -48 17 -78 16 -47 -1
-48 -1 -69 46 -84 188 -116 303 -159 587 -77 504 -188 935 -273 1063 -39 60
-90 86 -317 163 -118 40 -234 85 -256 100 -117 79 -312 191 -357 204 -65 19
-95 19 -189 -4 l-78 -18 0 593 0 594 39 -6 c46 -7 101 9 126 36 17 19 33 20
318 20 289 0 301 1 338 22 62 35 79 81 79 220 0 100 -3 120 -23 158 -41 78
-49 80 -390 80 l-299 0 -29 24 c-39 33 -94 41 -152 21 -40 -14 -56 -14 -108
-3 -52 11 -69 10 -125 -5 -43 -11 -72 -14 -87 -8 -47 18 -133 23 -192 11 -71
-15 -83 -15 -157 1 -44 9 -67 9 -110 0 -68 -16 -88 -16 -170 0 -58 11 -74 11
-124 -3 -36 -10 -64 -13 -74 -8 -35 19 -115 22 -172 7 -50 -13 -64 -13 -105
-1 -56 17 -104 18 -158 3 -30 -9 -57 -8 -109 2 -59 11 -76 10 -127 -3 -52 -14
-65 -14 -106 -2 -58 18 -95 18 -162 0 -47 -12 -60 -12 -94 0 -50 18 -91 18
-149 0 -40 -12 -54 -11 -104 2 -49 12 -70 13 -119 3 -76 -15 -89 -15 -152 0
-42 10 -61 10 -100 0 -58 -16 -80 -16 -158 0 -50 10 -70 9 -120 -4 -54 -14
-66 -14 -122 1 -54 14 -70 15 -120 3 -73 -17 -94 -17 -166 0 -50 11 -66 11
-117 -2 -49 -13 -63 -13 -84 -2 -34 18 -104 24 -142 13z m104 -88 c15 -15 17
-39 17 -204 0 -175 -1 -188 -20 -202 -26 -20 -64 -20 -87 1 -16 14 -18 35 -18
201 0 159 2 188 17 204 21 23 68 23 91 0z m3832 -2 c19 -19 20 -33 20 -200 0
-167 -1 -181 -20 -200 -24 -24 -67 -26 -92 -3 -16 14 -18 35 -18 204 0 183 1
188 22 203 31 22 64 20 88 -4z m-3558 -11 c16 -9 17 -27 14 -185 -3 -97 -7
-179 -11 -182 -8 -9 -161 -9 -169 -1 -4 3 -7 87 -9 185 l-2 179 35 12 c36 12
111 8 142 -8z m228 10 l50 -11 0 -178 c0 -204 2 -200 -87 -200 -99 0 -93 -13
-93 195 l0 183 28 10 c36 14 43 14 102 1z m303 -11 c17 -9 18 -23 15 -180 -3
-196 -4 -198 -96 -198 -94 0 -92 -5 -92 194 0 184 1 190 50 199 32 5 99 -3
123 -15z m215 11 l30 -10 4 -177 c4 -201 3 -202 -70 -202 -83 0 -82 -3 -82
200 l0 178 28 10 c36 14 53 14 90 1z m253 1 l36 -10 7 -158 c8 -175 2 -208
-39 -218 -26 -6 -121 -1 -130 8 -2 2 -6 85 -7 184 l-3 179 35 12 c44 15 56 15
101 3z m254 -2 l25 -11 0 -182 c0 -181 0 -183 -22 -189 -35 -9 -87 -7 -109 4
-18 10 -19 23 -19 191 0 177 0 180 23 189 31 12 72 12 102 -2z m278 -10 c15
-8 17 -27 17 -178 0 -198 -1 -200 -85 -200 -30 0 -65 4 -80 10 l-25 10 2 177
3 178 35 12 c36 13 101 8 133 -9z m245 -1 c13 -10 14 -41 9 -186 -5 -124 -10
-177 -19 -183 -18 -11 -96 -10 -119 2 -18 10 -19 23 -19 190 l0 178 28 11 c32
12 100 5 120 -12z m252 3 c19 -10 20 -22 20 -185 0 -162 -1 -175 -19 -185 -22
-11 -83 -13 -130 -4 l-31 7 2 181 3 180 25 14 c27 14 97 10 130 -8z m257 -2
c12 -10 14 -44 11 -184 -2 -95 -6 -175 -10 -179 -11 -11 -85 -18 -122 -11
l-36 7 0 184 0 183 28 11 c32 12 109 6 129 -11z m251 6 c22 -4 22 -6 22 -184
0 -204 2 -200 -87 -200 -99 0 -93 -13 -93 196 0 182 0 184 23 188 64 14 65 14
135 0z m245 5 l37 -10 0 -179 c0 -205 2 -200 -90 -200 -92 0 -90 -4 -90 194 0
184 1 190 50 199 43 8 54 7 93 -4z m561 1 l26 -10 0 -184 c0 -206 4 -196 -76
-196 -77 0 -84 8 -84 103 0 45 3 126 7 179 6 93 7 98 32 107 35 13 64 13 95 1z
m-221 -12 c15 -12 16 -31 10 -185 l-6 -172 -28 -12 c-36 -14 -164 -8 -181 9
-20 20 -18 350 2 362 23 15 183 12 203 -2z m-3583 -188 l0 -160 -280 0 -281 0
-24 25 c-24 23 -25 31 -25 133 0 95 3 113 21 136 l20 26 285 0 284 0 0 -160z
m4709 134 c18 -23 21 -41 21 -136 0 -102 -1 -110 -25 -133 l-24 -25 -281 0
-280 0 0 160 0 160 284 0 285 0 20 -26z m-4231 -1181 l3 -782 -33 -5 c-18 -3
-53 -7 -78 -10 -25 -3 -53 -8 -62 -11 -13 -5 -17 4 -22 52 -6 59 -6 1523 0
1534 2 4 45 6 96 5 l93 -1 3 -782z m262 -10 c0 -694 -2 -794 -15 -790 -8 4
-48 9 -90 13 l-75 7 0 782 0 782 90 0 90 1 0 -795z m265 -2 l0 -795 -92 -2
-93 -2 0 792 c0 436 3 796 7 800 4 4 46 5 93 4 l85 -3 0 -794z m236 462 c0
-186 3 -546 5 -800 2 -277 0 -464 -5 -468 -14 -8 -104 -9 -129 -1 l-22 7 0
800 0 799 75 0 75 0 1 -337z m264 -465 c0 -438 -3 -799 -6 -802 -8 -9 -156
-13 -163 -5 -5 5 -11 1541 -7 1602 1 4 40 6 89 5 l87 -3 0 -797z m235 -12 l0
-813 -31 -7 c-50 -10 -94 -7 -110 7 -12 10 -14 126 -11 820 l3 807 75 0 74 0
0 -814z m266 319 c1 -270 0 -635 -3 -812 -6 -369 7 -331 -115 -325 l-68 4 0
807 c0 444 2 810 5 813 3 3 45 5 93 4 l87 -1 1 -490z m239 -245 c1 -404 -1
-770 -4 -812 l-4 -78 -80 0 -80 0 6 347 c4 190 7 557 7 815 l0 469 78 -3 77
-3 0 -735z m265 -46 l0 -787 -52 7 c-132 16 -139 18 -134 33 3 8 6 356 6 774
l0 759 90 0 90 0 0 -786z m248 -27 l2 -807 -22 5 c-13 3 -52 11 -88 18 l-65
13 1 119 c1 66 2 422 3 791 l1 671 83 -1 82 -1 3 -808z m264 32 c3 -732 4
-783 21 -793 12 -8 22 -8 35 0 16 10 17 61 20 793 l2 782 93 -3 92 -3 1 -678
c1 -444 5 -682 12 -689 5 -5 20 -8 33 -6 23 3 24 8 31 103 4 55 7 341 7 635 0
294 0 559 0 588 l1 52 110 0 110 0 2 -617 3 -618 24 -3 c52 -8 51 -14 51 635
l0 603 80 0 80 0 -2 -621 -3 -622 -151 -51 c-83 -28 -175 -66 -205 -84 -105
-66 -320 -225 -336 -248 -13 -20 -24 -24 -66 -24 -28 0 -64 -5 -81 -11 -25 -9
-43 -8 -88 6 l-58 16 0 820 0 819 90 0 90 0 2 -781z m1203 -524 c123 -64 586
-372 607 -403 23 -35 46 -46 64 -32 28 24 16 56 -38 105 -59 53 -57 53 75 2
102 -38 123 -66 182 -249 78 -237 133 -492 190 -873 35 -233 71 -374 133 -521
47 -110 50 -120 34 -132 -9 -7 -89 -54 -176 -104 -88 -49 -235 -139 -328 -198
l-167 -108 -46 85 c-115 218 -176 285 -423 470 -140 105 -233 183 -322 273
-131 132 -151 160 -326 453 -51 87 -102 171 -113 186 -11 15 -63 115 -117 223
-106 215 -123 274 -88 315 48 56 121 14 165 -94 l22 -54 -52 -53 c-28 -28 -51
-57 -51 -64 0 -28 40 -8 89 42 39 42 51 62 51 86 0 34 -31 103 -63 138 -30 32
-2 29 54 -6 70 -46 145 -128 238 -261 148 -214 283 -341 422 -397 67 -27 94
-25 106 10 l8 24 229 -74 c126 -41 243 -74 258 -74 72 0 125 61 115 133 -10
74 -19 79 -357 200 l-175 63 -7 63 c-16 142 -59 213 -240 390 -77 75 -146 140
-154 144 -9 5 -48 0 -97 -12 -45 -12 -127 -24 -182 -27 -91 -6 -104 -9 -151
-40 -46 -30 -55 -32 -106 -27 -81 8 -124 -3 -169 -44 -35 -32 -43 -35 -71 -27
-39 12 -72 54 -64 82 4 12 35 41 69 65 34 24 112 80 174 124 105 76 122 84
266 132 234 78 347 109 399 110 38 1 65 -8 133 -44z m-3472 -361 l28 -6 -3
-80 -3 -79 -232 -4 c-252 -5 -255 -4 -269 51 -15 59 23 114 87 125 50 9 349 4
392 -7z m1947 -25 c121 -26 380 -105 380 -115 0 -2 -9 -18 -20 -36 -11 -18
-20 -41 -20 -51 0 -10 -6 -20 -13 -23 -30 -11 -346 134 -505 233 l-57 35 50
-7 c28 -3 111 -20 185 -36z m-1477 9 l78 3 -3 -78 -3 -78 -211 -3 -211 -3 -7
32 c-9 45 -8 84 4 114 l10 27 133 -8 c72 -5 167 -8 210 -6z m2909 -121 c94
-93 143 -151 166 -194 31 -59 54 -153 36 -153 -4 0 -59 20 -121 45 -61 25
-117 45 -122 45 -6 0 -17 22 -25 49 -29 100 -78 171 -136 201 -45 23 -153 27
-194 9 -22 -10 -31 -8 -72 18 l-46 30 30 22 c24 17 45 21 104 22 40 0 109 9
153 19 44 10 83 18 87 19 4 0 67 -59 140 -132z m-3926 106 c-16 -55 -16 -76
-1 -131 13 -45 14 -65 6 -80 -6 -11 -11 -45 -11 -75 0 -58 -8 -68 -57 -71 -30
-2 -219 -207 -269 -292 -50 -84 -42 -192 24 -326 l37 -76 -43 -21 c-23 -12
-49 -21 -57 -21 -18 0 -37 -34 -29 -54 9 -23 27 -25 80 -7 152 51 312 202 485
455 66 98 135 174 199 221 26 19 50 35 54 35 3 0 -10 -21 -29 -46 -35 -46 -38
-55 -36 -109 2 -36 51 -84 107 -104 38 -14 38 -13 72 24 30 33 34 35 29 14
-11 -43 -68 -138 -150 -252 -206 -285 -229 -328 -318 -600 -98 -300 -169 -425
-368 -645 -121 -135 -155 -188 -241 -382 l-57 -128 -124 70 c-68 38 -212 117
-319 175 -107 57 -199 108 -203 112 -5 5 28 81 73 170 151 302 165 354 215
806 48 432 93 646 160 760 39 68 270 275 514 464 103 79 135 98 196 117 56 18
67 17 61 -3z m1374 -23 c6 -8 10 -38 10 -66 l0 -51 -37 -7 c-56 -9 -138 -7
-166 3 -23 9 -25 14 -21 53 10 84 11 87 52 90 64 5 153 -7 162 -22z m379 4 c7
-7 5 -113 -3 -121 -12 -12 -263 -10 -276 3 -6 6 -13 33 -17 62 l-6 51 39 6
c22 3 46 8 54 10 17 4 203 -6 209 -11z m495 -18 c40 -23 42 -26 41 -73 l-1
-48 -220 4 c-120 2 -221 5 -223 7 -2 1 -6 32 -8 68 l-6 66 188 0 c181 0 190
-1 229 -24z m656 14 c0 -13 -20 -13 -40 0 -12 8 -9 10 13 10 15 0 27 -4 27
-10z m-460 -131 c0 -7 -11 -9 -31 -5 -17 3 -37 6 -44 6 -8 0 -10 9 -8 25 l5
24 39 -20 c21 -10 39 -24 39 -30z m572 0 c42 -12 43 -13 60 -78 9 -36 19 -74
24 -85 8 -22 0 -20 -111 24 -79 31 -88 48 -61 114 16 39 25 42 88 25z m695
-31 c26 -24 63 -96 63 -121 0 -14 -8 -13 -67 9 -50 18 -78 36 -105 67 -21 23
-38 45 -38 49 0 12 63 27 95 22 16 -2 39 -14 52 -26z m-2185 -85 c2 -18 2 -48
0 -67 -4 -31 -8 -35 -43 -41 -48 -8 -141 3 -151 19 -9 13 -10 72 -2 101 4 14
21 25 57 36 46 13 57 13 94 0 35 -13 42 -20 45 -48z m-1224 51 l52 -7 0 -71 0
-71 -116 -3 c-133 -3 -159 6 -169 62 -7 34 6 73 29 88 14 9 132 10 204 2z
m500 -7 c13 -9 16 -85 6 -124 -6 -22 -12 -23 -94 -23 -60 0 -97 5 -119 16 -31
16 -131 21 -151 9 -6 -4 -10 20 -10 59 0 42 4 66 13 69 21 8 341 2 355 -6z
m390 -3 l52 -5 0 -65 0 -64 -42 0 c-23 0 -90 -5 -149 -12 -149 -17 -159 -12
-159 81 l0 70 58 3 c61 4 153 1 240 -8z m714 -4 l117 0 6 -44 c4 -24 4 -57 1
-74 l-7 -29 -112 -6 c-62 -3 -153 0 -204 6 l-93 11 0 68 0 67 68 4 c37 2 76 2
87 0 11 -1 73 -3 137 -3z m636 -35 c2 -21 1 -53 -2 -70 l-6 -30 -210 -3 -211
-3 3 68 3 68 188 1 c103 0 190 4 194 8 18 18 38 -1 41 -39z m260 -33 c84 -32
155 -62 159 -66 8 -8 -300 -8 -321 0 -12 5 -16 21 -16 71 0 48 3 64 13 60 6
-3 81 -32 165 -65z m1012 -117 c113 -40 254 -96 276 -110 11 -7 58 -27 105
-43 284 -101 456 -165 467 -174 7 -6 12 -23 10 -37 -2 -20 -9 -27 -31 -29 -15
-2 -138 32 -275 76 -136 44 -265 85 -287 90 -198 52 -214 61 -316 188 -53 66
-59 80 -31 69 9 -4 46 -17 82 -30z m-3805 -15 c-19 -37 -19 -126 -1 -162 13
-24 13 -32 0 -55 -8 -16 -14 -56 -14 -94 l0 -66 -97 -98 -96 -98 -18 22 c-27
33 -59 126 -65 190 -5 44 -2 65 11 92 48 94 244 297 288 299 4 0 1 -13 -8 -30z
m574 -16 c12 -15 21 -40 21 -57 0 -40 -32 -106 -69 -141 -28 -27 -31 -27 -65
-15 -20 7 -48 26 -63 41 l-27 28 22 45 c12 24 38 62 58 85 45 50 91 55 123 14z
m2563 6 c12 0 30 -24 54 -71 19 -39 34 -72 32 -74 -2 -1 -77 0 -168 4 l-165 6
-3 56 c-2 38 1 59 11 67 12 11 159 22 202 15 11 -1 28 -3 37 -3z m-2939 -75
c-79 -88 -102 -94 -133 -36 -13 25 -7 75 11 98 8 9 38 13 101 13 l89 0 -68
-75z m760 65 l67 0 0 -65 0 -66 -137 1 c-76 1 -145 -1 -154 -5 -21 -8 -32 -57
-16 -67 7 -4 27 -8 45 -8 l32 0 0 -69 0 -68 -48 -6 c-26 -3 -75 -3 -109 0
l-61 6 39 81 c44 91 64 181 55 240 l-7 39 113 -6 c62 -4 143 -7 181 -7z m409
-6 c9 -6 11 -78 2 -110 -5 -19 -15 -22 -94 -27 -60 -5 -101 -3 -126 6 -34 11
-36 14 -39 62 -5 86 -1 89 133 81 64 -4 119 -9 124 -12z m1433 -54 l0 -65
-217 -3 -218 -2 0 70 0 71 218 -3 217 -3 0 -65z m-1070 51 c29 -6 30 -8 30
-66 0 -58 -1 -60 -30 -66 -49 -11 -232 -10 -261 1 -26 10 -27 13 -21 65 3 30
8 59 12 65 7 11 219 12 270 1z m545 -49 l0 -59 -187 -13 c-250 -17 -238 -19
-238 55 l0 60 135 5 c74 3 170 7 213 8 l77 2 0 -58z m-1142 -158 l82 -7 0 -58
c0 -32 -5 -61 -10 -64 -16 -10 -253 -19 -294 -11 l-37 7 3 67 3 67 40 7 c22 3
60 4 85 2 25 -2 82 -7 128 -10z m1324 6 l78 0 0 -70 0 -70 -32 0 c-18 0 -71 4
-118 9 -47 5 -129 12 -182 16 l-98 7 0 53 c0 42 4 55 18 59 9 3 71 3 136 1 66
-3 154 -5 198 -5z m626 -5 c4 -3 5 -126 1 -130 -7 -7 -448 -9 -455 -2 -4 4 -7
35 -8 69 l-1 63 55 5 c52 5 402 1 408 -5z m-3012 -23 c-18 -16 -18 -16 -6 6 6
13 14 21 18 18 3 -4 -2 -14 -12 -24z m1949 17 c4 -6 4 -30 0 -55 l-6 -44 -117
0 c-64 0 -148 -5 -185 -10 -81 -12 -107 -3 -107 38 0 69 0 69 128 71 64 1 118
4 121 6 9 10 160 5 166 -6z m1326 -112 c110 -175 113 -181 95 -215 -8 -16 -22
-34 -30 -41 -22 -18 -20 -28 9 -63 29 -35 33 -91 9 -126 -17 -24 -57 -28 -186
-15 l-68 6 0 63 0 63 61 7 c75 8 112 35 85 63 -14 13 -49 17 -224 21 l-207 5
0 65 0 65 194 5 c170 4 195 7 205 22 15 25 -10 47 -65 56 l-44 7 -3 54 c-4 74
0 81 50 81 l43 0 76 -123z m-1826 48 l0 -60 -75 -5 c-41 -3 -91 -3 -111 -2
-32 3 -38 8 -43 35 -3 17 -3 46 0 64 l6 34 112 -3 111 -3 0 -60z m708 -121
l47 -6 0 -63 c0 -35 -5 -67 -10 -70 -14 -8 -320 -8 -377 1 l-44 6 3 67 c3 64
4 66 33 73 31 7 264 1 348 -8z m-475 -3 c9 -5 12 -26 10 -67 l-3 -59 -95 -17
c-52 -10 -124 -17 -160 -16 l-65 3 -5 40 c-11 79 -4 88 85 107 86 18 212 23
233 9z m939 -21 l114 0 -3 -67 -3 -68 -206 0 c-231 0 -239 2 -239 64 0 85 0
85 118 77 58 -3 156 -6 219 -6z m-1893 -6 c21 -8 22 -92 2 -120 -13 -18 -28
-19 -195 -19 -100 -1 -181 2 -181 6 0 3 15 26 33 50 19 24 39 54 46 67 11 21
17 22 146 22 73 0 140 -3 149 -6z m542 -19 c15 -20 19 -82 6 -102 -5 -8 -44
-16 -102 -20 -110 -7 -120 -1 -120 83 0 50 2 53 28 57 15 3 60 4 100 3 60 -1
77 -5 88 -21z m-290 -50 c6 -33 11 -61 10 -62 -1 -2 -34 -4 -74 -5 -88 -2
-102 8 -102 72 0 25 3 50 7 54 4 4 38 5 77 4 l69 -3 13 -60z m909 -128 l60
-13 3 -87 c2 -70 0 -88 -12 -93 -8 -3 -102 -2 -208 3 l-193 8 -3 82 -3 82 28
7 c15 3 42 10 58 14 46 13 203 11 270 -3z m435 -2 c69 -8 128 -15 133 -15 4 0
7 -32 7 -71 0 -70 0 -70 -32 -83 -22 -9 -92 -15 -213 -17 l-180 -4 -3 88 c-3
99 -8 94 89 106 35 5 66 9 69 10 3 0 61 -6 130 -14z m683 -25 c10 -9 14 -116
5 -125 -3 -3 -106 -7 -228 -8 l-223 -2 -9 30 c-4 17 -5 49 -2 72 l6 42 52 3
c86 5 390 -4 399 -12z m-2278 -73 l0 -72 -65 0 c-36 1 -118 2 -182 3 l-118 2
0 69 c0 83 -17 77 210 73 l155 -3 0 -72z m723 6 l-3 -78 -302 0 c-166 0 -305
3 -308 7 -12 11 -23 85 -18 113 l5 25 227 3 c124 1 266 3 314 5 l88 2 -3 -77z
m-1169 -15 c1 -45 -9 -58 -45 -58 -19 0 -34 3 -34 6 0 3 15 30 32 60 34 57 46
55 47 -8z m3036 -122 c56 -24 72 -81 35 -129 l-20 -25 -254 -1 c-287 -1 -266
-8 -266 84 l0 52 58 6 c31 4 125 6 208 7 84 0 162 4 175 9 13 5 25 10 27 10 1
1 18 -5 37 -13z m-614 -16 l29 0 0 -69 0 -68 -189 -8 c-104 -4 -203 -4 -220 0
-30 6 -31 8 -31 65 l0 58 43 8 c74 13 220 22 281 18 32 -2 72 -4 87 -4z
m-1541 -74 l0 -65 -42 -5 c-63 -8 -501 -2 -515 7 -14 9 -17 66 -7 105 l6 22
279 0 279 0 0 -64z m460 55 l75 -6 0 -52 c0 -29 -4 -56 -9 -60 -11 -11 -407
-12 -428 -1 -14 7 -18 22 -18 68 l0 60 153 -1 c83 -1 186 -4 227 -8z m575 -68
l0 -58 -175 -3 c-96 -1 -190 0 -207 3 -32 6 -33 7 -33 59 0 29 2 55 4 57 3 3
96 3 208 2 l203 -2 0 -58z m1023 -129 c22 -6 22 -8 22 -190 l0 -184 -24 -6
c-59 -14 -60 -11 -69 146 -11 200 -6 229 43 239 3 0 15 -2 28 -5z m-2854 -54
c4 -27 3 -110 0 -185 -7 -130 -8 -136 -30 -141 -12 -3 -31 -4 -41 -2 -17 3
-18 18 -21 191 l-2 187 43 0 44 0 7 -50z m564 -137 l2 -183 -24 -6 c-61 -15
-61 -16 -64 189 l-2 188 42 -3 43 -3 3 -182z m552 3 c0 -158 -2 -185 -16 -190
-29 -11 -53 -6 -64 13 -11 22 -14 343 -3 354 3 4 24 7 45 7 l38 0 0 -184z
m1170 -1 l0 -185 -24 -6 c-60 -15 -60 -14 -70 173 -4 95 -6 179 -2 188 4 10
19 15 51 15 l45 0 0 -185z m-582 -7 l-3 -183 -40 0 -40 0 -3 183 -2 182 45 0
45 0 -2 -182z m3289 -3 c19 -13 113 -137 113 -148 0 -2 -25 3 -55 11 -37 10
-59 12 -65 6 -6 -6 -13 -40 -17 -76 -3 -37 -9 -72 -13 -78 -6 -10 -27 -6 -86
14 -54 18 -81 23 -90 15 -6 -5 -15 -40 -19 -78 -10 -98 -9 -98 -101 -67 -89
30 -104 25 -104 -33 0 -38 -15 -109 -24 -118 -2 -3 -40 7 -83 21 -93 31 -95
30 -112 -73 -6 -41 -13 -76 -15 -78 -2 -2 -36 10 -75 27 -84 36 -95 32 -105
-35 -4 -25 -11 -47 -16 -50 -4 -3 -22 34 -40 82 -24 65 -30 94 -23 113 9 27
91 84 388 269 246 154 487 290 515 291 3 0 15 -7 27 -15z m-6653 -664 c167
-88 593 -322 668 -368 76 -45 79 -61 41 -177 l-30 -91 -17 58 c-9 32 -24 61
-33 64 -8 3 -45 -8 -81 -26 -45 -22 -67 -29 -72 -21 -4 6 -13 43 -20 81 -6 39
-18 73 -24 75 -7 3 -45 -9 -85 -26 -40 -17 -75 -29 -78 -27 -2 3 -9 36 -15 73
-16 100 -22 104 -110 67 -40 -17 -76 -29 -80 -27 -4 2 -13 39 -20 80 -7 45
-18 78 -26 81 -7 3 -44 -6 -80 -21 -37 -14 -70 -26 -73 -26 -4 0 -9 30 -13 68
-10 96 -13 100 -75 80 -28 -9 -51 -13 -51 -9 0 9 69 112 93 139 11 12 27 22
35 22 9 0 74 -31 146 -69z"/>
</g>
</svg>
