<?xml version="1.0" standalone="no"?>
<!DOCTYPE svg PUBLIC "-//W3C//DTD SVG 20010904//EN"
 "http://www.w3.org/TR/2001/REC-SVG-20010904/DTD/svg10.dtd">
<svg version="1.0" xmlns="http://www.w3.org/2000/svg"
 width="725.000000pt" height="626.000000pt" viewBox="0 0 725.000000 626.000000"
 preserveAspectRatio="xMidYMid meet">
<metadata>
Created by potrace 1.16, written by Peter Selinger 2001-2019
</metadata>
<g transform="translate(0.000000,626.000000) scale(0.100000,-0.100000)"
fill="#000000" stroke="none">
<path d="M3167 5871 c-27 -11 -54 -25 -62 -31 -11 -9 -79 -15 -255 -21 -14 -1
-58 9 -98 22 -67 21 -78 22 -153 11 -135 -19 -234 -88 -324 -226 l-49 -75
-654 -1 c-721 0 -694 2 -749 -64 -38 -47 -53 -96 -53 -178 0 -110 39 -185 114
-219 39 -17 77 -19 659 -19 l617 0 0 -24 c0 -43 38 -150 76 -211 l36 -60 -6
-125 c-6 -130 -32 -300 -66 -435 -11 -43 -20 -79 -20 -81 0 -1 -33 -5 -72 -9
-116 -11 -399 -54 -532 -81 -479 -97 -879 -269 -1079 -462 -64 -62 -132 -163
-159 -237 -21 -55 -23 -75 -22 -250 3 -431 101 -845 295 -1245 84 -174 136
-260 245 -405 270 -362 612 -578 1104 -700 688 -169 1524 -125 2082 110 45 19
82 34 83 32 1 -1 21 -34 43 -73 121 -210 268 -312 542 -378 148 -36 305 -49
524 -43 215 6 331 23 483 72 234 75 352 181 469 420 87 180 132 375 135 588 2
90 -1 102 -30 162 -70 142 -267 263 -546 334 -325 82 -766 86 -1107 11 -299
-67 -522 -193 -603 -341 -35 -66 -43 -158 -25 -310 10 -92 54 -285 74 -331 7
-15 -4 -23 -58 -48 -169 -75 -462 -149 -746 -187 -168 -22 -675 -25 -840 -5
-434 54 -768 150 -1006 290 -289 169 -535 442 -713 790 -166 326 -255 632
-306 1052 l-6 55 58 -64 c266 -294 876 -518 1693 -620 469 -59 1036 -61 1500
-5 379 46 774 149 1055 277 238 108 389 215 512 361 l42 50 -5 -45 c-22 -193
-76 -416 -144 -600 -22 -59 -40 -113 -40 -121 0 -41 61 -51 85 -14 26 39 101
263 134 397 46 191 64 359 59 567 -4 156 -7 184 -28 237 -116 299 -488 538
-1060 680 -130 33 -418 85 -467 85 -12 0 -24 4 -27 8 -6 10 -23 168 -41 377
l-14 166 61 72 c61 72 126 193 147 275 l12 42 597 0 c561 0 599 2 638 19 77
35 114 109 114 228 0 82 -17 133 -58 176 -56 59 -29 57 -677 57 l-596 0 -20
47 c-32 76 -82 128 -157 165 -59 29 -77 33 -156 35 -71 1 -95 6 -116 21 -68
50 -113 66 -205 69 -71 3 -100 -1 -138 -16z m232 -97 c17 -10 31 -21 31 -24
-1 -3 -25 -22 -55 -43 -134 -93 -254 -292 -316 -527 -19 -71 -23 -111 -24
-245 0 -88 4 -181 8 -206 9 -55 8 -55 -87 -65 l-64 -7 -20 64 c-50 162 -55
396 -12 554 63 234 189 427 323 495 55 28 69 31 123 27 34 -2 76 -13 93 -23z
m-683 -20 c19 -5 15 -11 -35 -62 -101 -102 -177 -242 -223 -409 -30 -111 -31
-364 -2 -470 11 -40 17 -73 14 -73 -14 0 -86 58 -119 95 -206 235 -103 764
174 896 59 29 136 38 191 23z m264 -19 c0 -2 -20 -33 -45 -69 -187 -267 -252
-658 -158 -949 8 -27 12 -51 9 -54 -3 -4 -44 -1 -91 6 -103 16 -107 21 -141
149 -46 178 -41 333 17 506 69 208 195 356 342 401 45 15 67 18 67 10z m721
-41 c40 -12 66 -28 102 -65 69 -71 65 -79 -40 -79 -69 0 -95 -4 -119 -19 -81
-49 -159 -195 -218 -406 -20 -71 -52 -162 -71 -200 -39 -80 -113 -163 -172
-194 l-41 -20 -6 22 c-4 12 -10 66 -13 119 -16 264 79 547 241 717 68 70 127
109 195 127 62 17 78 17 142 -2z m-1511 -240 c0 -3 -7 -34 -16 -67 -9 -34 -19
-97 -22 -142 l-7 -80 -590 -1 c-417 -1 -600 2 -624 10 -89 29 -98 225 -12 271
22 12 130 14 649 15 342 0 622 -3 622 -6z m2944 -4 c42 -16 66 -66 66 -138 0
-76 -18 -114 -64 -136 -31 -15 -111 -16 -816 -16 l-782 0 6 33 c10 53 85 195
122 232 l35 35 704 0 c433 0 714 -4 729 -10z m-1298 -407 c-16 -68 -89 -196
-143 -250 -63 -63 -67 -61 -77 29 -4 32 -18 99 -32 149 -13 50 -24 92 -24 95
0 2 63 4 141 4 l141 0 -6 -27z m-332 -130 c74 -314 56 -602 -74 -1133 -73
-298 -88 -387 -99 -555 -11 -182 8 -400 46 -529 4 -16 1 -17 -38 -11 -69 12
-178 55 -183 74 -36 121 -39 393 -7 571 11 63 50 218 85 343 120 418 149 595
150 897 l1 215 43 84 c23 46 42 90 42 97 0 8 4 14 9 14 5 0 16 -30 25 -67z
m-1024 -283 c19 -7 38 -16 42 -19 8 -8 -6 -157 -28 -281 -28 -168 -73 -328
-174 -630 -124 -368 -151 -483 -158 -688 -4 -136 -7 -153 -21 -148 -9 3 -51
18 -95 33 l-79 27 6 121 c8 156 35 283 103 480 30 88 84 244 119 346 35 102
77 241 94 310 33 136 71 353 71 410 0 20 3 50 6 67 l6 31 37 -23 c20 -12 52
-28 71 -36z m807 -142 c-7 -266 -37 -424 -157 -839 -72 -248 -92 -370 -94
-564 0 -88 3 -192 7 -231 l8 -71 -48 8 c-26 4 -73 8 -104 8 l-56 1 -7 61 c-16
157 1 372 44 539 12 46 46 160 76 254 113 353 162 583 171 812 l6 142 36 11
c20 6 52 22 71 35 19 14 39 25 44 26 5 0 6 -84 3 -192z m-524 75 c20 -3 26 -9
23 -21 -2 -10 -7 -53 -11 -97 -17 -201 -69 -414 -180 -745 -79 -234 -118 -380
-139 -522 -17 -112 -20 -310 -7 -392 l8 -48 -41 6 c-23 3 -67 16 -98 27 -56
21 -57 22 -64 67 -12 79 4 290 31 422 14 69 51 197 81 285 169 489 218 684
249 978 l7 58 56 -6 c31 -3 70 -9 85 -12z m273 -93 c-13 -214 -66 -464 -166
-775 -62 -196 -94 -321 -115 -448 -17 -105 -22 -318 -10 -408 l7 -57 -96 -23
c-52 -12 -98 -20 -102 -17 -17 17 -27 228 -16 343 15 159 45 276 151 600 49
149 101 317 115 375 32 133 66 340 66 405 0 88 3 91 83 102 40 6 76 11 81 12
5 0 6 -45 2 -109z m658 -450 c59 -397 173 -835 277 -1068 16 -35 29 -65 29
-66 0 -2 -41 -6 -91 -10 -102 -8 -123 -15 -224 -81 -74 -49 -183 -105 -201
-105 -14 0 -52 176 -59 273 -5 65 -4 69 7 40 18 -45 32 -57 62 -49 33 8 41 41
22 87 -26 63 -78 270 -78 313 0 38 41 253 61 321 l8 30 8 -40 c68 -378 163
-715 201 -715 26 0 64 23 64 39 0 9 -13 50 -29 91 -54 141 -120 430 -167 735
-20 131 -21 108 11 279 14 77 28 187 31 245 9 172 16 167 34 -24 10 -99 25
-232 34 -295z m276 -11 c626 -102 1108 -344 1247 -626 35 -71 38 -83 38 -163
0 -80 -3 -92 -39 -165 -129 -261 -547 -495 -1116 -623 -327 -75 -638 -110
-1025 -119 -560 -12 -1083 44 -1590 172 -595 149 -986 388 -1061 649 -71 251
206 518 721 696 250 86 658 172 927 196 l77 7 -21 -69 c-11 -38 -51 -152 -88
-254 -37 -102 -76 -213 -85 -247 l-18 -63 -83 -40 c-154 -74 -219 -82 -385
-50 -56 11 -134 22 -173 26 -137 12 -303 -29 -441 -109 -76 -44 -215 -173
-215 -199 0 -20 26 -48 46 -48 7 0 48 31 90 69 133 122 302 191 465 191 43 0
127 -9 186 -21 159 -31 291 -24 393 19 41 18 77 32 80 32 4 0 1 -33 -6 -72 -7
-40 -14 -115 -16 -167 l-4 -94 -64 -4 c-36 -2 -99 -13 -140 -25 -41 -11 -97
-27 -125 -34 -27 -8 -72 -14 -100 -14 -55 0 -75 -12 -75 -45 0 -36 20 -45 95
-45 52 0 100 9 176 32 86 27 121 33 199 33 114 0 153 -12 335 -101 208 -103
320 -115 540 -59 144 36 252 34 365 -6 228 -81 233 -82 320 -82 109 -1 158 16
290 98 58 36 127 72 154 80 78 24 168 19 285 -15 114 -33 187 -37 266 -16 97
25 133 55 120 97 -9 29 -46 32 -95 10 -57 -26 -172 -27 -249 -3 l-54 17 -50
110 c-56 125 -139 367 -129 377 16 15 333 -39 487 -83 216 -62 407 -161 499
-258 38 -40 83 -43 92 -6 8 33 -12 63 -86 124 -187 156 -525 272 -905 312 -60
7 -113 15 -118 19 -14 12 -117 515 -117 572 0 14 6 16 28 13 15 -3 83 -14 152
-26z m1425 -2079 c364 -34 673 -147 780 -287 49 -64 61 -110 45 -168 -13 -46
-69 -118 -120 -155 l-29 -20 -23 41 c-66 117 -312 227 -596 264 -144 19 -432
19 -573 -1 -285 -39 -499 -129 -588 -245 -18 -24 -37 -46 -42 -47 -16 -6 -91
61 -121 107 -75 120 -2 253 195 353 265 133 677 194 1072 158z m108 -429 c220
-39 377 -106 455 -195 17 -20 32 -40 32 -45 0 -13 -128 -68 -221 -95 -190 -55
-323 -70 -594 -70 -269 0 -389 12 -573 60 -120 31 -252 82 -259 100 -8 21 32
69 94 110 108 72 301 129 514 153 133 15 416 6 552 -18z m-1340 -250 c159
-119 383 -198 677 -237 151 -20 479 -23 625 -5 293 36 546 124 696 243 28 22
52 38 55 36 5 -6 -31 -155 -57 -229 -32 -93 -100 -225 -152 -294 -51 -68 -98
-108 -177 -153 -173 -97 -523 -148 -835 -122 -487 40 -695 178 -827 550 -21
62 -68 250 -61 250 2 0 27 -18 56 -39z"/>
<path d="M5994 5158 c-219 -226 -280 -544 -167 -863 20 -55 36 -116 35 -137 0
-43 -80 -402 -121 -543 -28 -99 -29 -100 -42 -70 -8 21 -13 89 -13 220 -1 215
-11 265 -76 400 -67 139 -186 257 -332 331 -79 40 -98 42 -124 13 -17 -19 -19
-38 -19 -193 0 -167 1 -173 33 -266 69 -199 175 -327 364 -441 l57 -34 41
-114 41 -114 -80 -251 c-44 -138 -128 -388 -185 -556 -97 -283 -104 -307 -90
-328 17 -26 45 -29 66 -4 9 9 32 67 52 127 20 61 40 115 44 120 4 6 43 40 87
75 l79 65 161 6 c139 5 170 9 240 33 187 64 346 209 444 403 17 34 31 76 31
91 0 52 -18 57 -184 57 -130 0 -161 -3 -226 -23 -115 -36 -207 -89 -289 -167
-81 -77 -130 -144 -184 -251 -22 -44 -49 -81 -73 -99 -31 -24 -36 -25 -30 -9
19 47 53 148 137 409 88 275 91 281 137 328 26 27 68 66 94 88 l46 39 109 6
c230 11 386 77 533 224 88 88 175 226 210 334 11 35 10 40 -9 60 -19 19 -32
21 -129 21 -137 -1 -242 -24 -357 -80 -186 -91 -309 -226 -395 -437 -16 -39
-37 -68 -64 -90 -22 -17 -37 -25 -34 -17 12 31 79 303 114 464 36 164 38 172
81 222 238 283 293 624 146 918 -53 105 -83 111 -159 33z m110 -159 c23 -65
30 -107 34 -190 6 -132 -13 -224 -67 -336 -38 -78 -119 -202 -133 -203 -11 0
-45 101 -62 183 -43 209 2 406 136 585 22 29 45 51 51 49 7 -2 25 -42 41 -88z
m-828 -606 c27 -15 85 -63 130 -107 134 -134 194 -288 194 -499 0 -51 -3 -96
-6 -100 -7 -7 -77 38 -147 96 -97 80 -184 231 -211 369 -14 67 -23 268 -12
268 2 0 25 -12 52 -27z m1414 -343 c0 -24 -63 -132 -116 -199 -124 -155 -283
-236 -501 -256 -52 -4 -73 -3 -73 5 0 35 89 178 149 239 84 86 154 133 260
171 102 38 281 63 281 40z m-280 -956 c0 -3 -15 -34 -32 -68 -39 -72 -171
-210 -241 -251 -91 -52 -182 -77 -310 -82 l-119 -6 17 34 c56 109 173 237 266
291 54 32 150 65 221 77 62 10 198 14 198 5z"/>
</g>
</svg>
